<?xml version="1.0" encoding="UTF-8"?> <svg xmlns="http://www.w3.org/2000/svg" height="100" viewBox="0 0 110 100" width="110"><g fill="none" transform=""><path d="m33.5104688 70.1404301c0 8.1664516-7.4355274 15.6982796-12.023086 15.6982796-4.5673633 0-12.02308592-7.531828-12.02308592-15.6982796v-1.736129l-.03351563-.0167742 3.41837895-5.1408602s4.1898828 1.7193548 8.6382226 1.7193548c4.4668164 0 8.537461-1.7193548 8.537461-1.7193548l3.4351367 5.1576344h.0504883z" fill="#d7e9ff"></path><path d="m33.4601953 68.4043011-3.4351367-5.1576344s-1.1253516.4703225-2.8245508.9167742l2.8245508 4.2410752h.0502734v1.7361291c0 7.2077419-5.7883203 13.9118279-10.3021875 15.3894623.5987696.1963441 1.1775586.3090323 1.7142383.3090323 4.5875586 0 12.023086-7.531828 12.023086-15.6982796v-1.736129h-.0502735z" fill="#94c1ff"></path><path d="m12.8994336 70.1404301v-1.736129l-.0335156-.0167742 2.8161718-4.2341936c-1.7026367-.4432258-2.8331445-.9066666-2.8331445-.9066666l-3.41816405 5.1408602.03351563.0167742v1.736129c0 8.1664516 7.45572262 15.6982796 12.02308592 15.6982796.5383985 0 1.1186914-.1124731 1.7208984-.3090323-4.5035546-1.4772043-10.3088476-8.1815054-10.3088476-15.3892473z" fill="#fff"></path><path d="m28.1973828 57.592043s6.9557813-.9791398 5.2048047 10.2649462l-3.4351367-5.1576344s-4.0708594 1.7191398-8.5376758 1.7191398c-4.4483398 0-8.6382227-1.7191398-8.6382227-1.7191398l-3.41837886 5.1408603-.01675782.0167741c-1.76945312-18.9116129 20.62779298-15.1477419 20.62779298-15.1477419-3.3328711 1.3602151-1.7864258 4.8827957-1.7864258 4.8827957z" fill="#94c1ff"></path><path d="m28.1973828 57.592043s4.2637891-.8262365 3.7253906 8.0421505l1.4794141 2.2230108c1.7511914-11.2443011-5.2048047-10.2651613-5.2048047-10.2651613z" fill="#5c9eff"></path><g fill="#d7e9ff" transform="translate(.859375 52.258065)"><path d="m25.6257031.15913979c-6.2246679-.16774194-18.45400388 1.27612903-17.12906248 15.43978491l.01675782-.0167742 1.62207026-2.4378494c.2281641-10.78408605 9.4266993-12.82387099 15.4902344-12.98516131z"></path><path d="m41.2959766 46.6832258h-41.22185551v-1.7191398s0-1.1516129 0-4.0060215c0-2.8711828 1.44246094-3.9556989 4.29386719-5.020215 1.40722656-.5337635 3.93335938-1.4791398 6.01132812-2.4765592l2.0096484-1.9944086 4.8943555 4.9008602 3.4351367-1.7025806 3.4351368 1.7025806 4.8778125-4.8823656 1.9589453 1.9576345c2.0949414 1.0159139 4.6025976 1.9610752 6.0115429 2.4950537 2.8681641 1.0645161 4.2940821 2.1490323 4.2940821 5.0202151v4.0060215z"></path></g><path d="m4.36863281 93.216129c0-2.8711828 1.44246094-3.9556989 4.29386719-5.020215 1.4072266-.5337635 3.9333594-1.4791398 6.011543-2.4765592l.2850976-.2821505-1.7108008-1.7124731-2.0096484 1.9944086c-2.07818359.9974193-4.6043164 1.9425806-6.01132812 2.4765591-2.85140625 1.0645162-4.29386719 2.1490323-4.29386719 5.0202151v4.0060215 1.7191398h3.43513672v-1.7191398c0 .000215 0-1.1516129 0-4.0058065z" fill="#fff"></path><path d="m38.7554492 93.216129c0-2.8711828-1.4424609-3.9556989-4.2938672-5.020215-1.4072265-.5337635-3.9333593-1.4791398-6.0115429-2.4765592l-.2850977-.2821505 1.7110156-1.7124731 2.0094336 1.9944086c2.0781836.9974193 4.6043164 1.9425806 6.011543 2.4765591 2.8514062 1.0645162 4.2938672 2.1490323 4.2938672 5.0202151v4.0060215 1.7191398h-3.4351367v-1.7191398c-.0002149.000215-.0002149-1.1516129-.0002149-4.0058065z" fill="#94c1ff"></path><g fill="#fff" transform="translate(12.675781 18.064516)"><path d="m5.3865625 70.6888172-5.1528125-5.1576344 1.71746094-1.7193548 6.895625 3.6735483v1.4843011z"></path><path d="m12.2551172 70.6888172 5.1528125-5.1576344-1.7174609-1.7193548-6.89562505 3.6735483v1.4843011z"></path><path d="m27.6873437.19935484v24.06967746h-3.4351367-13.7407617l-5.15281249 3.4384946v-3.4384946h-1.71746094c-1.88955078 0-3.43513671-1.5470968-3.43513671-3.4384947v-17.19268814c0-1.89139785 1.54558593-3.43849462 3.43513671-3.43849462h20.61103513z"></path></g><path d="m76.4323828 4.50989247h-17.1758984v-3.43870967h3.4351367 3.4353516 3.4349218 3.4353516 3.4351367z" fill="#5c9eff"></path><path d="m95.3255273 11.3866667v30.9466666c0 1.8913979-1.5462304 3.4384947-3.4349218 3.4384947h-8.5879493v3.4384946l-10.3054101-3.4384946h-29.1989844c-1.8893359 0-3.4351367-1.5470968-3.4351367-3.4384947v-24.0694623-6.8772043c0-1.89139788 1.5455859-3.4382796 3.4351367-3.4382796h48.0923438c1.8886914 0 3.4349218 1.54688172 3.4349218 3.4382796z" fill="#e6e9ed"></path><path d="m95.3255273 11.3866667v30.9466666c0 1.8913979-1.5462304 3.4384947-3.4349218 3.4384947h-8.5879493v3.4384946l-10.3054101-3.4384946h-29.1989844c-1.8893359 0-3.4351367-1.5470968-3.4351367-3.4384947v-24.0694623-6.8772043c0-1.89139788 1.5455859-3.4382796 3.4351367-3.4382796h48.0923438c1.8886914 0 3.4349218 1.54688172 3.4349218 3.4382796z" fill="#d7e9ff"></path><path d="m42.0808008 42.3333333v-24.0694623-6.8772043c0-1.89139788 1.5455859-3.4382796 3.4351367-3.4382796h-1.7176758c-1.8893359 0-3.4351367 1.54688172-3.4351367 3.4382796v6.8772043 24.0696774c0 1.8913978 1.5455859 3.4384946 3.4351367 3.4384946h1.7176758c-1.8895508 0-3.4351367-1.5473118-3.4351367-3.4387097z" fill="#fff"></path><g fill="#94c1ff" transform="translate(67.675781 7.741935)"><path d="m25.9322852 34.5913978v-24.0694623-6.87720432c0-1.89139785-1.5462305-3.43827957-3.4349219-3.43827957h1.7174609c1.8886914 0 3.4349219 1.54688172 3.4349219 3.43827957v6.87720432 24.0696774c0 1.8913979-1.5462305 3.4384946-3.4349219 3.4384946h-1.7174609c1.8886914 0 3.4349219-1.5473118 3.4349219-3.4387097z"></path><path d="m41.37375 91.1993548h-41.22185547v-1.7191397s0-1.1516129 0-4.0060216c0-2.8711827 1.44267578-3.9556989 4.29386719-5.020215 1.40572265-.5337634 3.93185547-1.4791398 6.01132808-2.4765591l2.0096485-1.9944086 4.8943554 4.9008602 3.4353516-1.7025807 3.4349219 1.7025807 4.8775976-4.8823656 1.9591602 1.9576344c2.0934375 1.015914 4.6023828 1.9610753 6.0113281 2.4950537 2.8685938 1.0645162 4.2938672 2.1490323 4.2938672 5.0202151v4.0060215 1.7189247z"></path></g><path d="m71.2630273 93.216129c0-2.8711828 1.4422461-3.9556989 4.2938672-5.020215 1.405293-.5337635 3.9314258-1.4791398 6.0113282-2.4765592l.2848828-.2821505-1.7108008-1.7124731-2.0096484 1.9944086c-2.0796875.9974193-4.6058204 1.9425806-6.0113282 2.4765591-2.8511914 1.0645162-4.2938672 2.1490323-4.2938672 5.0202151v4.0060215 1.7191398h3.4353516v-1.7191398c.0002148.000215.0002148-1.1516129.0002148-4.0058065z" fill="#d7e9ff"></path><g fill="#5c9eff" transform="translate(86.582031 83.655914)"><path d="m19.0660938 9.56021505c0-2.87118279-1.4426758-3.95569892-4.2938672-5.02021505-1.4057227-.53376344-3.9318555-1.47913978-6.01175785-2.47655914l-.28488281-.28215054 1.71080076-1.71247312 2.0096485 1.99440861c2.0796875.99741935 4.6058203 1.94258064 6.0113281 2.47655914 2.8511914 1.06451613 4.2938672 2.14903225 4.2938672 5.02021505v4.0060215 1.7191398h-3.4349219v-1.7191398c-.0002148.0002151-.0002148-1.1516129-.0002148-4.00580645z"></path><path d="m3.64482422 15.4131183h-3.43556641l.85894531-9.46258067h1.71767579z"></path><path d="m.338594 3.614194h3.059375v2.337204h-3.059375z"></path></g><g fill="#fff" transform="translate(79.707031 81.72043)"><path d="m5.36679688 7.03290323-5.1528125-5.15763441 1.71789062-1.71935484 6.89691406 3.67354839v1.48430107z"></path><path d="m12.2372852 7.03290323 5.1528125-5.15763441-1.7178907-1.71935484-6.89669919 3.67354839v1.48430107z"></path></g><g fill="#5c9eff" transform="translate(72.832031 52.688172)"><path d="m5.3178125 1.68s24.0461719-8.59634409 22.3807031 13.7539785l-3.6246289-5.1576344c-7.4892383-.44645163-15.87072264 2.9045161-20.45677732 5.0890322-2.14671876 1.0324732-3.45167969 1.787957-3.45167969 1.787957 0-10.74559136 7.00755859-13.75419352 7.00755859-13.75419352z"></path><path d="m13.9156445.07483871c5.8641602.20150538 12.051875 2.83741935 12.1373828 13.01698929l1.6452735 2.3421505c.9878515-13.25204302-7.0632031-15.62430108-13.7826563-15.35913979z"></path></g><path d="m81.8533203 56.4903226-1.9855859-2.1221506s3.9851367-1.4238709 8.5980468-1.6051612c-5.2939648-.1830108-10.3159375 1.6051612-10.3159375 1.6051612l1.8551758 1.7191398s-7.0075586 3.0086022-7.0075586 13.7541936c0 0 .6458203-.3726882 1.7561328-.9436559.4039063-9.9612904 7.0997266-12.4075269 7.0997266-12.4075269z" fill="#94c1ff"></path><path d="m100.530547 68.1221505v1.7361291c0 8.1664516-7.4372462 15.6982795-12.0228712 15.6982795-4.5692969 0-12.0233008-7.5318279-12.0233008-15.6982795v-1.7361291l-.0352344-.0686021c4.5860547-2.1845161 12.9673242-5.5354839 20.4567774-5.0890323z" fill="#d7e9ff"></path><path d="m96.905918 62.9645161c-1.1169727-.0670967-2.2524219-.0268817-3.3951758.0587097l3.5848828 5.0989247v1.7361291c0 7.2060215-5.7902539 13.9116129-10.3041211 15.3894623.6004883.1946237 1.1790625.3090323 1.7161719.3090323 4.585625 0 12.0228712-7.531828 12.0228712-15.6982796v-1.736129z" fill="#94c1ff"></path><path d="m79.9192969 69.8584946v-1.736129l-.0348047-.0688172c3.9011328-1.8587097 10.5516211-4.5417204 17.0616016-5.0303226l-.0403907-.0587097c-7.4892383-.4464516-15.8707226 2.9045162-20.4567773 5.0890323l.0352344.0686021v1.7361291c0 8.1664516 7.4540039 15.6982795 12.0233007 15.6982795.5383985 0 1.1186914-.1141935 1.7191797-.3090322-4.5035547-1.4774194-10.3073437-8.1832258-10.3073437-15.3890323z" fill="#fff"></path><path d="m36.928633 18.263656h3.435137v24.068817h-3.435137z" fill="#d7e9ff"></path><path d="m59.257344 1.072258h1.717461v3.438495h-1.717461z" fill="#fff" opacity=".3"></path><path d="m74.715351 1.072258h1.717461v3.438495h-1.717461z" fill="#000" opacity=".3"></path><g fill="#116fff"><path d="m21.4697656 99.9286022h-20.61103513c-.47458984 0-.85873047-.3843011-.85873047-.8595699v-5.7251613c0-3.3647312 1.77955078-4.6843011 4.85417969-5.8262366l.19035156-.072043c1.41990234-.5374194 3.79671875-1.4356989 5.74835935-2.3724731.4275391-.2081721.9399414-.0234409 1.1455469.4030107.2053906.4281721.0251367.9419355-.4026172 1.1466667-2.01867186.9688172-4.43802733 1.883871-5.88414061 2.4313978l-.19529297.0737635c-2.90082031 1.0797849-3.73871094 2.0230107-3.73871094 4.215914v4.8655914h19.75230472c.4745898 0 .8587304.384301.8587304.8595699 0 .4752688-.3843554.8595699-.8589453.8595699z"></path><path d="m42.0808008 99.9286022h-20.6110352c-.4745898 0-.8587304-.3843011-.8587304-.8595699 0-.4752689.3841406-.8595699.8587304-.8595699h19.7523047v-4.8655914c0-2.1929033-.8376758-3.1363441-3.7337695-4.2144086l-.1860547-.0703226c-1.4501953-.5475269-3.8764258-1.4658065-5.9034766-2.4565592-.4260351-.208172-.6030664-.7234408-.3950976-1.1501075.2079687-.4249462.7212304-.6045161 1.148125-.3946236 1.9559375.9552688 4.3351172 1.8552688 5.7567383 2.3924731l.1819726.0688172c3.0694727 1.140215 4.8490235 2.4597849 4.8490235 5.8245161v5.7251613c0 .4754839-.3841407.859785-.8587305.859785z"></path><path d="m21.5208984 86.4163441c-4.8533203 0-12.88181637-7.74-12.88181637-16.5578495 0-.4752688.38414063-.8597849.85873047-.8597849s.8587305.3845161.8587305.8597849c0 7.6509678 6.9650195 14.8387097 11.1643554 14.8387097 4.1991211 0 11.1641407-7.1877419 11.1641407-14.8387097 0-.4752688.3841406-.8597849.8589453-.8597849.4745898 0 .8587304.3845161.8587304.8597849 0 8.8178495-8.0284961 16.5578495-12.8818164 16.5578495z"></path><path d="m33.4928516 68.9817204c-.2833789 0-.5534375-.1408602-.7145703-.3825806l-3.0535743-4.5853764c-1.3668359.4954839-4.641914 1.5296775-8.2038086 1.5296775-3.5734961 0-6.9190429-1.0410753-8.3028515-1.5348387l-3.0400391 4.5737634c-.0311523.0470968-.0840039.1075269-.1241797.1477419-.23568357.2350538-.58781247.3122581-.89826169.2017205-.31367188-.1141936-.53324219-.3963441-.56439453-.7288172-.4571875-4.8924732.61230468-8.8043011 3.17925782-11.6266667 3.784043-4.1589247 9.9163281-5.0311828 14.3947461-5.0311828 2.3390039 0 3.9550586.2434409 4.0223047.2544086.3815625.0587097.6767578.3643011.7227343.7473118.0453321.3825807-.1692968.7503226-.5257226.8982796-1.8794531.7754839-1.7024219 2.6090322-1.4733984 3.535914.8789257.0367742 2.6382812.3204301 3.9786914 1.8868817 1.6353906 1.9139785 2.124375 5.0705376 1.4516992 9.3870968-.0543555.3509677-.3186133.6296774-.6640821.7066666-.0612304.0133334-.1233203.02-.1845507.02zm-3.4359961-6.8767742c.2810156 0 .5517187.1376344.7154297.3827957l2.1192187 3.1815054c.1316992-2.5769892-.3102344-4.5180645-1.3058203-5.6832258-.9612109-1.1217204-2.2223438-1.2894624-2.8883594-1.2894624-.1652148 0-.2717773.0101076-.2943359.0133334-.378125.0470967-.7614063-.167957-.9090039-.5270968-.477168-1.1703226-.804375-3.2926882.3287109-4.875914-.4907031-.0249462-1.049082-.0434408-1.6570898-.0434408-4.1320899 0-9.7637891.7754838-13.1252344 4.4692473-1.7662305 1.9425806-2.7113281 4.5247312-2.822832 7.6997849l1.9499218-2.9447312c.225586-.3408602.66-.4769892 1.040918-.3191397.0403906.0167741 4.0792383 1.6554838 8.3127344 1.6554838 4.229414 0 8.1642773-1.6352688 8.2038086-1.652258.107207-.0451613.2204297-.0668818.3319336-.0668818z"></path><path d="m33.5439844 70.7180645c-.4748047 0-.8589453-.3845161-.8589453-.8595699v-1.736129c0-.4750538.3841406-.8595699.8589453-.8595699.4745898 0 .8587304.3845161.8587304.8595699v1.736129c0 .4750538-.3841406.8595699-.8587304.8595699z"></path><path d="m9.4978125 70.7180645c-.47458984 0-.85873047-.3845161-.85873047-.8595699v-1.736129c0-.4750538.38414063-.8595699.85873047-.8595699s.8587305.3845161.8587305.8595699v1.736129c0 .4750538-.38414066.8595699-.8587305.8595699z"></path><path d="m18.0690039 89.6131183c-.2221484 0-.4419336-.0873118-.6071484-.252043l-5.1528125-5.1576344c-.335586-.335914-.335586-.879785 0-1.2154839.3355859-.3356989.8789258-.335914 1.2142968 0l4.7166797 4.7212903 2.8563477-1.4154839c.3263476-.176129.7474414-.1359139 1.0233008.1410753.3355859.335914.3439648.8713979.0083789 1.2070968-.0663867.0670968-.1594141.1378494-.2432031.1797849l-3.4351368 1.7023656c-.1207422.0587097-.251582.0890323-.3807031.0890323z"></path><path d="m24.9392773 89.6131183c-.1293359 0-.2599609-.0303226-.3807031-.0890323l-3.4351367-1.7023656c-.4243164-.2101075-.6155273-.7337634-.4075586-1.1587096.2096875-.4249463.7070508-.6094624 1.1305078-.4012904l2.921875 1.4473119 4.7166797-4.7212904c.3355859-.3359139.8789258-.3359139 1.2142969 0 .3353711.335914.3355859.879785 0 1.2154839l-5.1525977 5.1576344c-.1654297.1649463-.385.2522581-.6073633.2522581z"></path><path d="m88.4556836 99.9286022h-20.61125c-.4745898 0-.8589453-.3843011-.8589453-.8595699v-5.7251613c0-3.3647312 1.7799805-4.6843011 4.8546094-5.8262366l.1757421-.0670968c1.4224805-.5372043 3.8042383-1.4372043 5.7633985-2.3774193.4208789-.2047312.939082-.0268817 1.1455469.4030107.204746.4281721.0234179.9419355-.4041211 1.1466667-2.0246875.9722581-4.4500586 1.8888172-5.8993946 2.4363441l-.1791797.0686021c-2.9021093 1.079785-3.7387109 2.0230108-3.7387109 4.215914v4.8655914h19.7523047c.4745898 0 .8585156.3843011.8585156.8595699s-.3839258.859785-.8585156.859785z"></path><path d="m109.066289 99.9286022h-20.6108202c-.4750196 0-.8589454-.3843011-.8589454-.8595699 0-.4752689.3839258-.8595699.8589454-.8595699h19.7523042v-4.8655914c0-2.1929033-.837031-3.1363441-3.733769-4.2144086l-.172949-.0653764c-1.452774-.5492473-3.883086-1.4675269-5.9174417-2.4615054-.42625-.208172-.6026367-.7234408-.3944531-1.1501075.2114062-.4264516.7229492-.6010753 1.1489843-.3946236 1.9608785.9587096 4.3460745 1.8587096 5.7700585 2.3991397l.167793.0621506c3.069473 1.140215 4.849024 2.4597849 4.849024 5.8245161v5.7251613c0 .4754839-.384141.859785-.858731.859785z"></path><path d="m88.5076758 86.4163441c-4.8528906 0-12.8822461-7.74-12.8822461-16.5578495 0-.4752688.3843555-.8597849.8589453-.8597849s.8589453.3845161.8589453.8597849c0 7.6509678 6.9639453 14.8387097 11.1643555 14.8387097 4.1999804 0 11.1639258-7.1877419 11.1639258-14.8387097 0-.4752688.3843554-.8597849.8589454-.8597849s.858945.3845161.858945.8597849c0 8.8178495-8.0293553 16.5578495-12.8818162 16.5578495z"></path><path d="m100.530547 70.7180645c-.47459 0-.8589454-.3845161-.8589454-.8595699v-1.736129c0-.4750538.3843554-.8595699.8589454-.8595699s.858945.3845161.858945.8595699v1.736129c0 .4750538-.384355.8595699-.858945.8595699z"></path><path d="m76.484375 70.7180645c-.4745898 0-.8589453-.3845161-.8589453-.8595699v-1.736129c0-.4750538.3843555-.8595699.8589453-.8595699s.8589453.3845161.8589453.8595699v1.736129c0 .4750538-.3843555.8595699-.8589453.8595699z"></path><path d="m85.0538477 89.6131183c-.222793 0-.442793-.0873118-.6071485-.252043l-5.1530273-5.1576344c-.3353711-.335914-.3353711-.879785 0-1.2154839.3355859-.335914.8791406-.335914 1.2147265 0l4.7164649 4.7212903 2.8597851-1.4172043c.3390235-.1830107.7783789-.124086 1.0486524.1713979.3201172.3526881.3033594.8864516-.0487696 1.2070967-.0586523.0537635-.1426562.115914-.2148437.1511828l-3.4349219 1.7023656c-.120957.0587097-.2517968.0890323-.3809179.0890323z"></path><path d="m91.9241211 89.6131183c-.1293359 0-.2601758-.0303226-.3804883-.0890323l-3.4353516-1.7023656.7313282-1.5565591 2.9134961 1.444086 4.7168945-4.7212903c.3353711-.335914.8787109-.335914 1.2142969 0 .3353711.335914.3353711.8797849 0 1.2154839l-5.1528125 5.1576344c-.1645703.1647312-.3841407.252043-.6073633.252043z"></path><path d="m72.9972461 70.7012903c-.1478125 0-.2971289-.0387097-.4296875-.1141935-.2646875-.1544086-.4292578-.4380645-.4292578-.7453764 0-8.6533333 4.3224414-12.5436559 6.4210351-13.9219355l-.9932226-.92c-.2193555-.2049462-.3168945-.5103225-.2580274-.8025806.0603711-.2952688.2698438-.5372043.5534375-.6380645.1914258-.0686022 4.7433204-1.6754839 9.8357618-1.6754839 4.5755273 0 8.0897265 1.2877419 10.4446289 3.8281721 2.5648049 2.7634408 3.6566409 6.9608602 3.2456449 12.4746236-.028575.3627957-.278653.6681721-.629063.7655914-.352558.0941936-.72123-.040215-.9311327-.3356989l-3.3829297-4.8137635c-7.2664453-.2836559-15.493457 3.0606452-19.6264063 5.0286022-2.0850585 1.0006452-3.3784179 1.7460215-3.3917382 1.7544086-.1323438.0769892-.2799414.1156989-.429043.1156989zm6.8318164-15.9486021.7594727.7034408c.213125.1982796.3121679.4903226.2636132.7774194-.0502734.2870968-.2416992.5288172-.5081054.6430107-.2483594.1109678-5.8691016 2.6812904-6.4410157 11.4939785.5669727-.2987096 1.3017383-.6713978 2.1740039-1.0911828 4.3593946-2.0767742 13.138125-5.6412903 20.879375-5.1729032.2614649.0150538.5014454.1492473.6524805.3643011l2.1400586 3.0455914c-.0721875-3.7625807-1.0331836-6.6606452-2.8647266-8.6365592-2.0163085-2.1741935-5.1074804-3.2774193-9.1867187-3.2774193-3.1753906.000215-6.1844922.6836559-7.8684375 1.1503226z"></path><path d="m88.4556836 91.3322581c-.2197852 0-.4397852-.0840861-.6071484-.251828l-1.7178907-1.7193548c-.3353711-.335699-.3353711-.879785 0-1.2154839.335586-.3356989.8791407-.3356989 1.2142969 0l1.7178906 1.7193548c.3353711.335914.3353711.879785 0 1.2154839-.1680078.167957-.3877929.251828-.6071484.251828z"></path><path d="m88.4556836 91.3322581c-.2197852 0-.4397852-.0840861-.6071484-.251828-.335586-.335914-.335586-.8797849 0-1.2154839l1.7174609-1.7193548c.3353711-.3356989.8787109-.3356989 1.2142969 0 .3353711.335914.3353711.88 0 1.2154839l-1.717461 1.7193548c-.1680078.167957-.3877929.251828-.6071484.251828z"></path><path d="m86.7392969 98.2094624c-.0317969 0-.0633789-.0017205-.0968946-.0049463-.471582-.052043-.8101757-.4787096-.7581835-.9486021l.8585156-7.7367742c.0519922-.4733333.4632031-.8195699.9496093-.7606452.4711524.052043.8101758.4787097.7581836.9486022l-.8589453 7.7367742c-.0487695.4397849-.4208789.7655914-.8522851.7655914z"></path><path d="m90.1714258 98.2094624c-.4309766 0-.8035156-.3258065-.8522852-.7658065l-.8585156-7.7367742c-.0519922-.4701075.2866016-.8965591.7577539-.9486021.4868359-.0572043.8976172.2873118.9496094.7606451l.8585156 7.7367742c.0519922.4701076-.2866016.8965592-.7577539.9486022-.0335156.0034408-.0655273.0051613-.0973242.0051613z"></path><path d="m83.3026563 50.0701075c-.0906641 0-.1830469-.0141935-.2719922-.0445161l-10.1728516-3.3939785h-29.0597656c-2.3675781 0-4.2938672-1.9283871-4.2938672-4.2980645v-30.9468817c0-2.36989251 1.9262891-4.29806455 4.2938672-4.29806455h48.0923437c2.3682227 0 4.2938672 1.9283871 4.2938672 4.29806455v30.9466666c0 2.3698925-1.9256445 4.2980645-4.2938672 4.2980645h-7.7290039v2.5789248c0 .276129-.1325586.5354839-.3575.6974193-.1473828.1068818-.3233398.1623656-.5012304.1623656zm-39.5043946-41.26215051c-1.4207617 0-2.5764062 1.15677419-2.5764062 2.57870971v30.9466666c0 1.4219355 1.1556445 2.5789248 2.5764062 2.5789248h29.1989844c.0923828 0 .1841211.0150537.2715625.0445161l9.1749023 3.0606452v-2.2455914c0-.4752689.3843555-.8595699.8589454-.8595699h8.5879492c1.4207617 0 2.5764062-1.1569893 2.5764062-2.5789248v-30.9466666c0-1.42193552-1.1556445-2.57870971-2.5764062-2.57870971z"></path><path d="m83.3026562 19.1234409h-32.634121c-.4745899 0-.8587305-.3843011-.8587305-.8595699 0-.4750538.3841406-.8595699.8587305-.8595699h32.634121c.4745899 0 .8589454.3845161.8589454.8595699 0 .4752688-.3843555.8595699-.8589454.8595699z"></path><path d="m83.3026562 27.7195699h-32.634121c-.4745899 0-.8587305-.3843011-.8587305-.8595699 0-.4750538.3841406-.8595699.8587305-.8595699h32.634121c.4745899 0 .8589454.3845161.8589454.8595699 0 .4752688-.3843555.8595699-.8589454.8595699z"></path><path d="m67.8444336 36.316129h-17.1758984c-.4745899 0-.8587305-.3845161-.8587305-.8597849 0-.4750538.3841406-.8595699.8587305-.8595699h17.1758984c.4745898 0 .8589453.3845161.8589453.8595699 0 .4752688-.3843555.8597849-.8589453.8597849z"></path><path d="m76.4323828 5.36946237h-17.1756836c-.4745898 0-.8589453-.38451613-.8589453-.8595699v-3.43870967c0-.47526882.3843555-.8595699.8589453-.8595699h17.1756836c.4745899 0 .8589453.38430108.8589453.8595699v3.43849462c0 .47526882-.3843554.85978495-.8589453.85978495zm-16.3169531-1.7195699h15.4582226v-1.71913978h-15.4582226z"></path><path d="m59.2564844 7.08860215c-.4745899 0-.8589453-.38430107-.8589453-.85956989v-1.71913979c0-.47526881.3843554-.85978494.8589453-.85978494.4745898 0 .8589453.38451613.8589453.85978494v1.71913979c0 .47526882-.3843555.85956989-.8589453.85956989z"></path><path d="m76.4323828 7.08860215c-.4745898 0-.8585156-.38430107-.8585156-.85956989v-1.71913979c0-.47526881.3839258-.85978494.8585156-.85978494.4745899 0 .8589453.38451613.8589453.85978494v1.71913979c0 .47526882-.3843554.85956989-.8589453.85956989z"></path><path d="m52.3862109 7.9483871h-5.1528125c-.4745898 0-.8589453-.38451613-.8589453-.85978495 0-.47505376.3841407-.85956989.8589453-.85956989h5.1528125c.4745899 0 .8587305.38451613.8587305.85956989 0 .47526882-.3841406.85978495-.8587305.85978495z"></path><path d="m88.4556836 7.9483871h-5.1530274c-.4745898 0-.8589453-.38451613-.8589453-.85978495 0-.47505376.3843555-.85956989.8589453-.85956989h5.1528125c.4745899 0 .8585158.38451613.8585158.85956989.0002147.47526882-.3837111.85978495-.8583009.85978495z"></path><path d="m62.6916211 2.79032258c-.4745899 0-.8585156-.38451613-.8585156-.85956989v-.85956989c0-.47526882.3839257-.8595699.8585156-.8595699.4750195 0 .8589453.38430108.8589453.8595699v.85956989c0 .47505376-.3839258.85956989-.8589453.85956989z"></path><path d="m66.1269727 2.79032258c-.4745899 0-.8589454-.38451613-.8589454-.85956989v-.85956989c0-.47526882.3843555-.8595699.8589454-.8595699.4745898 0 .8585156.38430108.8585156.8595699v.85956989c0 .47505376-.3839258.85956989-.8585156.85956989z"></path><path d="m69.5618945 2.79032258c-.4745898 0-.8585156-.38451613-.8585156-.85956989v-.85956989c0-.47526882.3839258-.8595699.8585156-.8595699.4750196 0 .8589453.38430108.8589453.8595699v.85956989c0 .47505376-.3839257.85956989-.8589453.85956989z"></path><path d="m72.9972461 2.79032258c-.4750195 0-.8589453-.38451613-.8589453-.85956989v-.85956989c0-.47526882.3839258-.8595699.8589453-.8595699.4745898 0 .8585156.38430108.8585156.8595699v.85956989c0 .47505376-.3839258.85956989-.8585156.85956989z"></path><path d="m18.0346289 46.6316129c-.1392187 0-.2784375-.0335484-.4049805-.1017204-.2792968-.1492473-.45375-.4406452-.45375-.7578495v-2.5789247h-.8587304c-2.3675782 0-4.2938672-1.9283871-4.2938672-4.2980645v-17.1926882c0-2.3698925 1.926289-4.2980645 4.2938672-4.2980645h20.6110351c.4745899 0 .8587305.3845161.8587305.8595699 0 .4752688-.3841406.8595699-.8587305.8595699h-20.6110351c-1.4207617 0-2.5764063 1.1569892-2.5764063 2.5789247v17.1924731c0 1.4221505 1.1556446 2.5789247 2.5764063 2.5789247h1.7174609c.4745899 0 .8587305.3845162.8587305.8595699v1.8324732l3.8177734-2.547957c.1409375-.0939785.3070117-.1443011.4763086-.1443011h13.7407617c.4745899 0 .8587305.3845161.8587305.8595699 0 .4750537-.3841406.8595699-.8587305.8595699h-13.4808008l-4.9364648 3.2946236c-.1433008.0954839-.309375.1443011-.4763086.1443011z"></path><path d="m36.9279883 27.7195699h-15.4582227c-.4745898 0-.8587304-.3843011-.8587304-.8595699 0-.4750538.3841406-.8595699.8587304-.8595699h15.4582227c.4745898 0 .8587305.3845161.8587305.8595699 0 .4752688-.3841407.8595699-.8587305.8595699z"></path><path d="m36.9279883 34.5967742h-15.4582227c-.4745898 0-.8587304-.3845161-.8587304-.8595699 0-.4752688.3841406-.8595699.8587304-.8595699h15.4582227c.4745898 0 .8587305.3843011.8587305.8595699 0 .4750538-.3841407.8595699-.8587305.8595699z"></path></g></g></svg> 