<?xml version="1.0" encoding="UTF-8"?> <svg xmlns="http://www.w3.org/2000/svg" height="105" viewBox="0 0 110 105" width="110"><g fill="none" transform=""><path d="m28.024648 88.56546h41.494922v3.431074h-41.494922z" fill="#d7e9ff"></path><g fill="#94c1ff" transform="translate(17.832031 85.030675)"><path d="m10.4910352 5.2491411c0 2.84144172-2.30570317 5.1469325-5.14980473 5.1469325s-5.14958984-2.30527605-5.14958984-5.1469325c0-2.84122699 2.30548828-5.14671779 5.14958984-5.14671779s5.14980473 2.3054908 5.14980473 5.14671779z"></path><path d="m10.1926172 6.965h1.7720312c.1433008-.55119632.2429883-1.1191411.2429883-1.71564417 0-.59628835-.0996875-1.16444785-.2429883-1.71542945h-1.7720312z"></path></g><ellipse cx="23.173477" cy="90.278957" fill="#5c9eff" rx="1.662891" ry="1.661963"></ellipse><path d="m16.3070703 98.8580368-6.86619139 2.5732512 6.86619139 2.573467 1.7168164-2.573467z" fill="#fff"></path><path d="m5.14958984 1.06911043c-2.37015625 0-4.2915039 1.92006135-4.2915039 4.2888957 0 2.36904908 1.92113281 4.28911043 4.2915039 4.28911043h6.00789066v-8.57800613z" fill="#5c9eff"></path><path d="m5.14873047 9.64711656 6.00810543.0008589v-.0008589h-2.57511715c-2.36929687.0008589-4.29150391-1.91984662-4.29064453-4.28825153-.00085938-2.36883436 1.92113281-4.2897546 4.29064453-4.2888957h2.57490235v-.0008589l-6.00810547.0008589c-2.36908204-.0008589-4.29128907 1.92006134-4.29042998 4.2888957-.00085909 2.36819018 1.92134794 4.28911043 4.29064482 4.28825153z" fill="#2287ff"></path><path d="m.85894502 5.36638037v68.61546013c0 2.3688343 1.92113311 4.2891104 4.29064482 4.2891104h93.55177736v-68.62383434h-93.55177736c-2.36779296 0-4.28634765-1.91576687-4.29064482-4.28073619z" fill="#94c1ff"></path><path d="m4.18408203 9.5290184c-1.9009375-.4388957-3.32169922-2.13027607-3.32513711-4.16263803v68.61546013c-.00085898 2.033865 1.42248086 3.7310429 3.32513711 4.1701534z" fill="#d7e9ff"></path><path d="m19.7402734 21.656411v20.5870859h-5.1495898v20.5868712h25.7481641v5.1469325h42.91375v-25.7338037-20.5870859z" fill="#fff"></path><path d="m104.709473 18.2251227h-6.0081058v60.0458282 4.2888957 4.2891105h6.0081058c2.370371 0 4.291504-1.9198467 4.291504-4.2891105v-68.6238343c0 2.369049-1.921133 4.2891104-4.291504 4.2891104z" fill="#94c1ff"></path><path d="m105.567559 18.1388037v64.4208282c0 2.3690491-1.920918 4.2891104-4.291289 4.2891104h3.432988c2.370371 0 4.291504-1.9198466 4.291504-4.2891104v-68.6236196c.000215 2.075092-1.474903 3.8049079-3.433203 4.2027914z" fill="#5c9eff"></path><path d="m104.709473 9.64797546-6.0081058-.0008589v8.57886504l6.0081058-.0008589c2.370371.0008589 4.291504-1.9200614 4.291504-4.2891104 0-2.3679755-1.921133-4.28889574-4.291504-4.28803684z" fill="#94c1ff"></path><path d="m104.709473 9.64797546-6.0081058-.0008589v.0008589h2.5749028c2.370156-.0008589 4.291289 1.92006134 4.291289 4.28825154 0 2.3690491-1.920918 4.2899693-4.291289 4.2891104h-2.5749028v.0008589l6.0081058-.0008589c2.370371.0008589 4.291504-1.9200613 4.291504-4.2891104 0-2.3681902-1.921133-4.28911044-4.291504-4.28825154z" fill="#5c9eff"></path><g fill="#d7e9ff" transform="translate(16.113281 18.03681)"><path d="m82.588516.187239h3.433203v68.62362h-3.433203z"></path><path d="m41.3909375 85.9679448h-41.19714844l1.71681641-2.5734663-1.71681641-2.5732515h41.19714844z"></path></g><path d="m57.503359 98.857178h6.866191v5.146933h-6.866191z" fill="#fff"></path><path d="m64.369766 98.857178h5.149805v5.146933h-5.149805z" fill="#d7e9ff"></path><g fill="#fff"><path d="m76.385976 88.563313h8.582578v3.432791h-8.582578z"></path><path d="m76.385976 100.572822h8.582578v3.432791h-8.582578z"></path></g><g fill="#94c1ff" transform="translate(9.238281 88.466258)"><path d="m67.147695 3.528344h8.582578v8.577791h-8.582578z"></path><path d="m1.91919922.09812883c-.94789063 0-1.71638672.76720859-1.71638672 1.71542945 0 .94843559.76849609 1.71564417 1.71638672 1.71564417h6.86640625v-3.43107362z"></path></g><path d="m11.1574805 90.279816c0-.9482209.7687109-1.7154295 1.7166015-1.7154295h-1.7166015c-.9478907 0-1.71638675.7672086-1.71638675 1.7154295 0 .9484355.76849605 1.7156442 1.71638675 1.7156442h1.7166015c-.9478906.0002146-1.7166015-.7672087-1.7166015-1.7156442z" fill="#d7e9ff"></path><path d="m64.369766 98.857178h1.716602v5.146933h-1.716602z" fill="#94c1ff"></path><path d="m76.385977 91.994601h1.716387v8.577791h-1.716387z" fill="#d7e9ff"></path><path d="m83.252383 91.994601h1.716387v8.577791h-1.716387z" fill="#5c9eff"></path><g fill="#116fff"><path d="m60.9876953 102.28911c-.4726562 0-.8649609-.383711-.8649609-.857822 0-.47411.3755468-.857822.8482031-.857822h.0167578c.4760938 0 .8583008.383712.8583008.857822 0 .474111-.382207.857822-.8583008.857822z"></path><path d="m104.709473 19.0829448c-.474375 0-.858301-.3837117-.858301-.8578221s.383926-.8578221.858301-.8578221c1.894062 0 3.432988-1.5389264 3.432988-3.4310736 0-1.892362-1.538926-3.4310736-3.432988-3.4310736-.474375 0-.858301-.3837117-.858301-.85782211 0-.47411043.383926-.85782209.858301-.85782209 2.83959 0 5.14959 2.3087117 5.14959 5.1469325 0 2.8377914-2.31 5.1465031-5.14959 5.1465031z"></path><path d="m109.000977 83.417454c-.47459 0-.858301-.3834969-.858301-.8578221v-68.6236196c0-.4741105.383711-.8578221.858301-.8578221.474375 0 .858086.3837116.858086.8578221v68.6236196c0 .4743252-.383711.8578221-.858086.8578221z"></path><path d="m104.709473 19.0829448h-6.0081058c-.4741602 0-.8580859-.3837117-.8580859-.8578221s.3839257-.8578221.8580859-.8578221h6.0081058c.474375 0 .858086.3837117.858086.8578221s-.383711.8578221-.858086.8578221z"></path><path d="m104.709473 10.5049387h-99.55988316c-.474375 0-.85830078-.3837117-.85830078-.85782214 0-.47411043.38392578-.85782208.85830078-.85782208h99.55988316c.474375 0 .858086.38371165.858086.85782208 0 .47411044-.383711.85782214-.858086.85782214z"></path><path d="m104.709473 87.7065644h-6.0081058c-.4741602 0-.8580859-.3837116-.8580859-.8578221 0-.4741104.3839257-.8576073.8580859-.8576073h6.0081058c.474375 0 .858086.3834969.858086.8576073 0 .4741105-.383711.8578221-.858086.8578221z"></path><path d="m96.9849805 79.128773h-91.83539066c-.474375 0-.85830078-.3837117-.85830078-.8578221s.38392578-.8578221.85830078-.8578221h91.83539066c.474375 0 .8583008.3837117.8583008.8578221s-.3839258.8578221-.8583008.8578221z"></path><path d="m104.709473 87.7065644c-.474375 0-.858301-.3837116-.858301-.8578221 0-.4741104.383926-.8576073.858301-.8576073 1.894062 0 3.432988-1.5380675 3.432988-3.4312884 0-.4741104.383711-.8576073.858301-.8576073.474375 0 .858086.3834969.858086.8576073.000215 2.8380062-2.309785 5.1467178-5.149375 5.1467178z"></path><path d="m5.14958984 79.128773c-2.83958984 0-5.14958984-2.3087117-5.14958984-5.1469325 0-.4741104.38371094-.8578221.85808594-.8578221.47458984 0 .85830078.3837117.85830078.8578221 0 1.8930061 1.53978516 3.4310736 3.43298828 3.4310736.474375 0 .85830078.3837117.85830078.8578221s-.38371094.8580368-.85808594.8580368z"></path><path d="m98.7013672 87.7065644c-.4741602 0-.8580859-.3837116-.8580859-.8578221v-68.6236196c0-.4741104.3839257-.8578221.8580859-.8578221.4745898 0 .8583008.3837117.8583008.8578221v68.6236196c0 .4741105-.383711.8578221-.8583008.8578221z"></path><path d="m5.14958984 10.5049387c-2.83958984 0-5.14958984-2.30871171-5.14958984-5.14693257 0-2.83800613 2.31-5.14671779 5.14958984-5.14671779.474375 0 .85830079.38371166.85830079.85782209s-.38392579.85782209-.85830079.85782209c-1.89320312 0-3.43298828 1.53892638-3.43298828 3.43107361 0 1.89236197 1.53978516 3.43107362 3.43298828 3.43107362.474375 0 .85830079.38371166.85830079.85782209 0 .47411046-.38392579.85803686-.85830079.85803686z"></path><path d="m11.1574805 1.92693252h-6.00789066c-.474375 0-.85830078-.38349694-.85830078-.85782209 0-.47411043.38392578-.85782209.85830078-.85782209h6.00789066c.4745898 0 .8583007.38371166.8583007.85782209 0 .47432515-.3837109.85782209-.8583007.85782209z"></path><path d="m11.1574805 8.78929448c-.474375 0-.858086-.38349693-.858086-.85782209v-6.86236196c0-.47411043.383711-.85782209.858086-.85782209.4745898 0 .8583007.38371166.8583007.85782209v6.86236196c0 .47432516-.3837109.85782209-.8583007.85782209z"></path><path d="m.85808594 74.8396626c-.474375 0-.85808594-.3837117-.85808594-.8578221v-68.62383437c0-.47411042.38371094-.85782208.85808594-.85782208.47458984 0 .85830078.38371166.85830078.85782208v68.62383437c0 .4741104-.38371094.8578221-.85830078.8578221z"></path><path d="m19.7402734 31.0920245c-.474375 0-.8583007-.3837116-.8583007-.857822v-8.5777915c0-.4741104.3839257-.857822.8583007-.857822s.8583008.3837116.8583008.857822v8.5777915c0 .4741104-.3839258.857822-.8583008.857822z"></path><path d="m19.7402734 43.101319c-.474375 0-.8583007-.3837116-.8583007-.8578221v-6.8623619c0-.4741105.3839257-.8578221.8583007-.8578221s.8583008.3837116.8583008.8578221v6.8623619c0 .4741105-.3839258.8578221-.8583008.8578221z"></path><path d="m14.5906836 51.6791104c-.4745899 0-.8583008-.3837116-.8583008-.8578221v-8.5780061c0-.4741104.3837109-.8578221.8583008-.8578221.474375 0 .8580859.3837117.8580859.8578221v8.5780061c0 .4741105-.3837109.8578221-.8580859.8578221z"></path><path d="m14.5906836 63.6884049c-.4745899 0-.8583008-.3837116-.8583008-.8578221v-6.8623619c0-.4741105.3837109-.8578221.8583008-.8578221.474375 0 .8580859.3837116.8580859.8578221v6.8623619c0 .4738957-.3837109.8578221-.8580859.8578221z"></path><path d="m35.1892578 22.5140184h-15.3417773c-.474375 0-.858086-.3837117-.858086-.8578221s.383711-.8578221.858086-.8578221h15.3417773c.474375 0 .8580859.3837117.8580859.8578221 0 .4743252-.3837109.8578221-.8580859.8578221z"></path><path d="m42.0554492 43.101319h-27.4647656c-.4745899 0-.8583008-.3837116-.8583008-.8578221 0-.4741104.3837109-.8578221.8583008-.8578221h27.4647656c.474375 0 .858086.3837117.858086.8578221 0 .4741105-.383711.8578221-.858086.8578221z"></path><path d="m40.3388477 63.6884049h-25.7481641c-.4745899 0-.8583008-.3837116-.8583008-.8578221 0-.4741104.3837109-.8578221.8583008-.8578221h25.7481641c.474375 0 .8583007.3837117.8583007.8578221 0 .4741105-.3839257.8578221-.8583007.8578221z"></path><path d="m40.3388477 43.0996012c-.474375 0-.8583008-.3837116-.8583008-.8578221v-1.7139263c0-.4741105.3839258-.8578221.8583008-.8578221s.8583007.3837116.8583007.8578221v1.7139263c0 .4741105-.3839257.8578221-.8583007.8578221z"></path><path d="m64.3704102 43.0996012c-.474375 0-.858086-.3837116-.858086-.8578221v-1.7139263c0-.4741105.383711-.8578221.858086-.8578221.4745898 0 .8583007.3837116.8583007.8578221v1.7139263c0 .4741105-.3837109.8578221-.8583007.8578221z"></path><path d="m40.3388477 36.2387423c-.474375 0-.8583008-.3837116-.8583008-.8578221v-13.7247239c0-.4741104.3839258-.8578221.8583008-.8578221s.8583007.3837117.8583007.8578221v13.7247239c0 .4743252-.3839257.8578221-.8583007.8578221z"></path><path d="m52.3548438 36.2387423c-.4743751 0-.8583008-.3837116-.8583008-.8578221v-13.7247239c0-.4741104.3839257-.8578221.8583008-.8578221.474375 0 .8583007.3837117.8583007.8578221v13.7247239c0 .4743252-.3839257.8578221-.8583007.8578221z"></path><path d="m55.787832 36.2387423h-6.8661914c-.474375 0-.8583008-.3837116-.8583008-.8578221 0-.4741104.3839258-.857822.8583008-.857822h6.8661914c.474375 0 .8583008.3837116.8583008.857822 0 .4741105-.3839258.8578221-.8583008.8578221z"></path><path d="m43.7718359 36.2387423h-3.4329882c-.474375 0-.8583008-.3837116-.8583008-.8578221 0-.4741104.3839258-.857822.8583008-.857822h3.4329882c.474375 0 .8583008.3837116.8583008.857822 0 .4741105-.3839258.8578221-.8583008.8578221z"></path><path d="m64.3704102 36.2387423h-3.4329883c-.474375 0-.8583008-.3837116-.8583008-.8578221 0-.4741104.3839258-.857822.8583008-.857822h3.4329883c.4745898 0 .8583007.3837116.8583007.857822 0 .4741105-.3837109.8578221-.8583007.8578221z"></path><path d="m83.2525977 22.5140184h-42.91375c-.474375 0-.8583008-.3837117-.8583008-.8578221s.3839258-.8578221.8583008-.8578221h42.91375c.474375 0 .8583007.3837117.8583007.8578221 0 .4743252-.3839257.8578221-.8583007.8578221z"></path><path d="m64.3704102 36.2387423c-.474375 0-.858086-.3837116-.858086-.8578221v-13.7247239c0-.4741104.383711-.8578221.858086-.8578221.4745898 0 .8583007.3837117.8583007.8578221v13.7247239c0 .4743252-.3837109.8578221-.8583007.8578221z"></path><path d="m83.2525977 68.834908c-.474375 0-.8583008-.383497-.8583008-.8576074v-46.3208896c0-.4741104.3839258-.857822.8583008-.857822s.8583007.3837116.8583007.857822v46.3211043c0 .4738957-.3839257.8573927-.8583007.8573927z"></path><path d="m83.2525977 43.101319h-36.0475586c-.474375 0-.858086-.3837116-.858086-.8578221 0-.4741104.383711-.8578221.858086-.8578221h36.0475586c.474375 0 .8583007.3837117.8583007.8578221 0 .4741105-.3839257.8578221-.8583007.8578221z"></path><path d="m40.3388477 68.834908c-.474375 0-.8583008-.383497-.8583008-.8576074v-5.1469325c0-.4741104.3839258-.8578221.8583008-.8578221s.8583007.3837117.8583007.8578221v5.1469325c0 .4741104-.3839257.8576074-.8583007.8576074z"></path><path d="m83.2525977 68.834908h-42.91375c-.474375 0-.8583008-.383497-.8583008-.8576074 0-.4743251.3839258-.8578221.8583008-.8578221h42.91375c.474375 0 .8583007.383497.8583007.8578221 0 .4741104-.3839257.8576074-.8583007.8576074z"></path><path d="m40.3388477 63.6884049c-.474375 0-.8583008-.3837116-.8583008-.8578221v-6.8623619c0-.4741105.3839258-.8578221.8583008-.8578221s.8583007.3837116.8583007.8578221v6.8623619c0 .4738957-.3839257.8578221-.8583007.8578221z"></path><path d="m23.1732617 96.2843558c-3.3124609 0-6.0078906-2.6939264-6.0078906-6.0045398 0-3.3103988 2.6954297-6.0045399 6.0078906-6.0045399 3.312461 0 6.0078906 2.6941411 6.0078906 6.0045399 0 3.3106134-2.6954296 6.0045398-6.0078906 6.0045398zm0-10.2932208c-2.3660742 0-4.2915039 1.9232822-4.2915039 4.2888957 0 2.3658282 1.9254297 4.2891104 4.2915039 4.2891104 2.3662891 0 4.2915039-1.9232822 4.2915039-4.2891104 0-2.3656135-1.9252148-4.2888957-4.2915039-4.2888957z"></path><path d="m16.6014063 89.4219939h-5.4439258c-.474375 0-.858086-.383497-.858086-.8576074s.383711-.8578221.858086-.8578221h5.4439257c.474375 0 .8583008.3837117.8583008.8578221s-.3839257.8576074-.8583007.8576074z"></path><path d="m16.6014063 92.8534969h-5.4439258c-.474375 0-.858086-.3837116-.858086-.8578221 0-.4741104.383711-.857822.858086-.857822h5.4439257c.474375 0 .8583008.3837116.8583008.857822 0 .4741105-.3839257.8578221-.8583007.8578221z"></path><path d="m11.1574805 92.8534969c-1.41968753 0-2.57468753-1.1545705-2.57468753-2.5734662s1.155-2.5732516 2.57468753-2.5732516c.4745898 0 .8583007.3837117.8583007.8578221 0 .4741105-.3837109.8576074-.8583007.8576074-.4735157 0-.858086.3854294-.858086.8578221 0 .4723926.3845703.8578221.858086.8578221.4745898 0 .8583007.3837116.8583007.857822 0 .4741105-.3837109.8578221-.8583007.8578221z"></path><path d="m23.1732617 92.8534969c-1.4196875 0-2.5746875-1.1545705-2.5746875-2.5734662s1.155-2.5732516 2.5746875-2.5732516 2.5746875 1.1543559 2.5746875 2.5732516-1.1547851 2.5734662-2.5746875 2.5734662zm0-3.431503c-.4735156 0-.8583008.3854294-.8583008.8578221 0 .4723926.3847852.857822.8583008.857822s.8583008-.3854294.8583008-.857822c0-.4723927-.3845703-.8578221-.8583008-.8578221z"></path><path d="m69.5202148 89.4219939h-38.0625781c-.474375 0-.8580859-.383497-.8580859-.8576074s.3837109-.8578221.8580859-.8578221h38.0625781c.474375 0 .8583008.3837117.8583008.8578221s-.3839258.8576074-.8583008.8576074z"></path><path d="m69.5202148 92.8534969h-38.0625781c-.474375 0-.8580859-.3837116-.8580859-.8578221 0-.4741104.3837109-.857822.8580859-.857822h38.0625781c.474375 0 .8583008.3837116.8583008.857822 0 .4741105-.3839258.8578221-.8583008.8578221z"></path><path d="m69.5202148 104.862577h-53.2131445c-.1029101 0-.2053906-.018467-.3016406-.053681l-6.86619142-2.573252c-.33451172-.127331-.55666016-.445552-.55666016-.804141s.22214844-.67681.55666016-.804141l6.86619142-2.5732516c.09625-.0352147.1987305-.053681.3016406-.053681h53.2131445c.474375 0 .8583008.3837117.8583008.8578221v5.1469325c0 .473466-.3839258.857393-.8583008.857393zm-53.0571679-1.715859h52.1988672v-3.4310738h-52.1988672l-4.5781055 1.7154298z"></path><path d="m18.0247461 102.28911c-.2775781 0-.55-.133987-.715-.381993l-1.7166016-2.573252c-.2631836-.3955214-.1566211-.926319.2380469-1.1895705.3957422-.2645399.9276953-.1573927 1.1902344.2379141l1.7163867 2.5732514c.2633984.395522.1566211.926319-.237832 1.189571-.1467383.097055-.3119532.144079-.4752344.144079z"></path><path d="m16.3064258 104.862577c-.1634961 0-.3284961-.047025-.4752344-.14408-.3948828-.263252-.5012305-.794049-.2380469-1.189571l1.7166016-2.573251c.2614648-.395522.7936328-.502669 1.1902344-.2377.3946679.263037.5012304.793835.237832 1.189356l-1.7163867 2.573252c-.1652149.247791-.4376367.381994-.715.381994z"></path><path d="m64.3704102 104.862577c-.474375 0-.858086-.383712-.858086-.857608v-5.1469322c0-.4741104.383711-.8578221.858086-.8578221.4745898 0 .8583007.3837117.8583007.8578221v5.1469322c0 .473681-.3837109.857608-.8583007.857608z"></path><path d="m57.5042187 104.862577c-.474375 0-.8580859-.383712-.8580859-.857608v-5.1469322c0-.4741104.3837109-.8578221.8580859-.8578221.4743751 0 .8583008.3837117.8583008.8578221v5.1469322c0 .473681-.3839258.857608-.8583008.857608z"></path><path d="m84.9689844 104.862577h-8.5825781c-.474375 0-.8583008-.383712-.8583008-.857608v-15.4420856c0-.4741104.3839258-.8578221.8583008-.8578221h8.5825781c.4745898 0 .8583008.3837117.8583008.8578221v15.4420856c0 .473681-.383711.857608-.8583008.857608zm-7.7242774-1.715859h6.8661914v-13.7264419h-6.8661914z"></path><path d="m83.2525977 92.8534969h-5.1498047c-.474375 0-.858086-.3837116-.858086-.8578221 0-.4741104.383711-.857822.858086-.857822h5.1498047c.474375 0 .8583007.3837116.8583007.857822 0 .4741105-.3839257.8578221-.8583007.8578221z"></path><path d="m83.2525977 101.431288h-5.1498047c-.474375 0-.858086-.383497-.858086-.857822 0-.47411.383711-.8576071.858086-.8576071h5.1498047c.474375 0 .8583007.3834971.8583007.8576071 0 .474325-.3839257.857822-.8583007.857822z"></path></g></g></svg> 