<?xml version="1.0" encoding="UTF-8"?> <svg xmlns="http://www.w3.org/2000/svg" height="110" viewBox="0 0 98 110" width="98"><g fill="none" transform=""><path d="m73.6407675 5.85019531c-27.4657894-14.13435547-69.66231136 2.77083985-61.4511579 38.15453129l-11.328671 20.4082226 6.87246491 3.4349219-1.34234211 9.285332 1.94302193 1.9323047-1.1375307 2.5224805 2.25485965 1.7176758c-3.43601754 10.3049804-2.17104386 17.1920119 24.05298242 13.7401171v12.0226558h48.1061799s-4.9161185-23.8474409 2.2615219-33.9779683c7.1776403-10.1273046 30.5897545-48.2307031-10.231329-69.24027339z" fill="#d7e9ff"></path><g fill="#94c1ff" transform="translate(19.986842 .859375)"><path d="m10.0813202 96.1866211c-3.82866231.5031641-7.11058774.7816016-9.93754388.8653906 2.72551754.0941016 6.01238596-.0502734 9.93754388-.4627734z"></path><path d="m53.6539254 4.99082031c-7.0282763-3.61710937-15.0212938-5.18933594-22.8888026-4.95107422 6.7349211.25330079 13.4459868 1.86011719 19.4525702 4.95128907 40.8210833 21.00957034 17.4089693 59.11296874 10.2313289 69.24027344-7.1776403 10.1305273-2.2617368 33.9779684-2.2617368 33.9779684h3.4362324s-4.9161184-23.8474411 2.261522-33.9779684c7.1778552-10.1275195 30.5899693-48.230918-10.2311141-69.24048829z"></path></g><g fill="#fff" transform="translate(.859649 .859375)"><path d="m12.0277807 82.4465039-2.25507456-1.7176758 1.13753066-2.5224804-1.94280698-1.9323047 1.34212718-9.2853321-6.87224998-3.4349218 11.32845618-20.4082227c-6.10952636-26.3282422 15.6903157-42.41316406 38.563-43.10582031-24.059-.90492187-48.41393425 15.46080081-41.9988027 43.10560551l-11.32867103 20.4082226 6.87246492 3.4349219-1.34234211 9.285332 1.94302193 1.9323047-1.1375307 2.5224805 2.25485965 1.7176758c-2.93441228 8.7989257-2.42614474 15.1020117 14.11543864 14.6055078-13.16165794-.4558985-13.39569741-6.4605664-10.6794211-14.605293z"></path><path d="m32.6445307 96.5892383v11.6200387h3.4362325v-12.0226559c-1.2028641.1574805-2.3363114.2868164-3.4362325.4026172z"></path></g><path d="m79.909114 46.3286914-16.3185044 5.6465234s5.0637632 9.2526758 12.0062895 7.2851368c.4932237-.1407227 1.0300746-.2917578 1.5804649-.5332422.7734693-.3254883 1.3689913-.7882617 1.9075614-1.1842188 3.4916799-2.5770508.8241886-11.2141992.8241886-11.2141992z" fill="#5c9eff"></path><path d="m47.2488947 55.8245703h6.87225l-18.8987412 15.4584375 8.5902588-12.0226562h-6.87225l11.1674868-11.2258008 4.6124474 2.3933594z" fill="#ffce54"></path><path d="m47.2488947 55.8245703h6.87225l-18.8987412 15.4584375 8.5902588-12.0226562h-6.87225l11.1674868-11.2258008 1.1646097-1.1146094 3.4478377 3.5079688z" fill="#5c9eff"></path><path d="m34.6335439 27.2445508c.7046973-6.337461 6.0652543-11.2492188 12.6112675-11.2492188.9101535 0 3.4940439 3.7505274 4.3530482 3.9221875l12.7462325-1.1917382c10.9845965-2.4043165 15.5652368 3.5726367 15.5652368 8.5187695 0 .8931055-.4397105 2.4187109-.6627894 3.2263086 2.491478 1.7000586 4.4261184 4.1982617 4.4261184 7.4269336 0 .4125-.1040175 1.8433593-.1562412 2.2558593 0 0-.2918509 4.3458594-6.441136 8.4250977-6.1490702 4.0790234-17.8216009 1.9733398-20.1420088-1.1189062-2.3186886 1.1850781-15.3587061-.103125-17.6606315-2.4210743v-.0176172c-2.526079.1198829-5.0854693-.8067382-7.026772-2.7482812-3.6769342-3.6749023-3.6769342-9.6183398 0-13.2932422.7214605-.7210156 1.5284562-1.3056055 2.3876755-1.7350781z" fill="#ec87c0"></path><path d="m34.6335439 27.2445508c.7046973-6.337461 6.0652543-11.2492188 12.6112675-11.2492188.9101535 0 3.4940439 3.7505274 4.3530482 3.9221875l12.7462325-1.1917382c10.9845965-2.4043165 15.5652368 3.5726367 15.5652368 8.5187695 0 .8931055-.4397105 2.4187109-.6627894 3.2263086 2.491478 1.7000586 4.4261184 4.1982617 4.4261184 7.4269336 0 .4125-.1040175 1.8433593-.1562412 2.2558593 0 0-.2918509 4.3458594-6.441136 8.4250977-6.1490702 4.0790234-17.8216009 1.9733398-20.1420088-1.1189062-2.3186886 1.1850781-15.3587061-.103125-17.6606315-2.4210743v-.0176172c-2.526079.1198829-5.0854693-.8067382-7.026772-2.7482812-3.6769342-3.6749023-3.6769342-9.6183398 0-13.2932422.7214605-.7210156 1.5284562-1.3056055 2.3876755-1.7350781z" fill="#5c9eff"></path><path d="m79.2463246 30.4708594c.2230789-.8075977.6627894-2.3329883.6627894-3.2263086 0-4.4749805-3.7667675-9.7708789-12.6155658-8.9641406 6.3940702.6694531 9.1793334 5.119082 9.1793334 8.9641406 0 .8931055-.4394956 2.4187109-.6625746 3.2263086 2.4914781 1.7000586 4.4259035 4.1982617 4.4259035 7.4269336 0 .4125-.1038026 1.8433593-.1560263 2.2558593 0 0-.2918509 4.3458594-6.441136 8.4250977-2.001478 1.3283789-4.5922456 1.9924609-7.2513552 2.1879688 3.7598903.2599609 7.8219474-.2868165 10.6873728-2.1879688 6.1490702-4.0792383 6.441136-8.4250977 6.441136-8.4250977.0520087-.4125.1562412-1.8433593.1562412-2.2558593 0-3.2286719-1.9346404-5.726875-4.4261184-7.4269336z" fill="#2287ff"></path><path d="m27.2848333 27.2445508c.7046974-6.337461 6.0652544-11.2494336 12.6112676-11.2494336.9101535 0 1.7861359.0855078 2.6451403.2575976l.0176228.0176172c2.2851623-3.0920312 5.9788597-5.1014648 10.1717983-5.1014648 5.1877675 0 9.6540745 3.0911719 11.6136447 7.5569141 4.8271448.4127148 8.6072369 4.4313671 8.6072369 9.3775 0 .8931054-.1207807 1.7518359-.3440746 2.5596484 2.491693 1.7000586 4.1071886 4.55125 4.1071886 7.7799219 0 .4127148-.0352456.8243554-.0872544 1.2370703 0 0 3.4027061 5.8562109.1207807 10.0645703-4.3807719 5.6338476-11.3217938 1.4942383-11.3217938 1.4942383-1.7014606.8413281-3.6257851 1.3225781-5.6526229 1.3225781-4.1744561 0-7.8687982-2.0094336-10.1885614-5.1014648-2.3193333 1.1850781-6.0130307 1.3401953-8.6246447 1.3401953-3.5393903 0-6.7347061-1.4433203-9.0366316-3.7612696v-.0176172c-2.5260789.1198829-5.0854693-.8067382-7.0267719-2.7482812-3.6769342-3.6749023-3.6769342-9.6183399 0-13.2932422.7214605-.7210156 1.5284561-1.3056055 2.3876754-1.7350781z" fill="#94c1ff"></path><path d="m76.6271886 39.6799219c.0520088-.4127149.0872544-.8243555.0872544-1.2370703 0-3.2286719-1.6157105-6.0800782-4.1071886-7.7799219.2232938-.8075977.3440745-1.6663281.3440745-2.5596484 0-4.9461329-3.7800921-8.9650001-8.6072368-9.3775-1.9595702-4.4657422-6.4258772-7.5569141-11.6136447-7.5569141-.590579 0-1.1661141.049414-1.734772.1256836 4.4478246.5938281 8.170965 3.4637109 9.9123992 7.4310156 4.8271447.4127149 8.6072368 4.4313672 8.6072368 9.3775 0 .8931055-.1207807 1.7518359-.3440746 2.5596484 2.491693 1.7000586 4.1071886 4.55125 4.1071886 7.7799219 0 .4127149-.0352456.8243555-.0872543 1.2370703 0 0 3.4027061 5.856211.1207807 10.0645703-1.293772 1.66375-2.810193 2.46125-4.3053378 2.7792188 2.3507106.4430078 5.4059035.224082 7.7413553-2.7792188 3.2819254-4.2081445-.1207807-10.0643554-.1207807-10.0643554z" fill="#5c9eff"></path><path d="m35.3599474 45.0389844v-.0176172c-2.5258641.1198828-5.0854693-.8067383-7.026557-2.7482813-3.6769343-3.6749023-3.6769343-9.6183398 0-13.2932421.7214605-.7210157 1.5284561-1.3056055 2.3874605-1.7350782.6425877-5.7805859 5.1641272-10.3629883 10.9207675-11.1252539-.5712368-.0739062-1.1493509-.1241797-1.7457324-.1241797-6.5457983 0-11.9065702 4.9119727-12.6112676 11.2494336-.8592193.4294727-1.666 1.0140625-2.3874605 1.7350782-3.6769342 3.6749023-3.6769342 9.6183398 0 13.2932421 1.9413026 1.941543 4.500693 2.8681641 7.0267719 2.7482813v.0176172c2.3019255 2.3179492 5.4972413 3.7612695 9.0366316 3.7612695.7147982 0 1.5125526-.0150391 2.3388904-.0554297-3.0990351-.2651172-5.8782807-1.6302344-7.9395044-3.7058398z" fill="#d7e9ff"></path><path d="m77.4864079 58.5795117-3.4512763.9558399s2.0988333 6.2545312.580478 13.4651171h3.4360176c1.7182237-7.728789-.5652193-14.420957-.5652193-14.420957z" fill="#5c9eff"></path><g fill="#d7e9ff" transform="translate(35.030702 46.835938)"><path d="m15.4313465 2.25263672-1.1903991-2.16863281-1.16375 1.11460937-11.16748687 11.22580082h3.79449122z"></path><path d="m.19170175 24.4470703 8.59025878-12.0226562h2.64922367z"></path></g><g fill="#116fff"><path d="m31.4891623 45.8901958c-2.6677062.0008589-5.2715834-1.0819536-7.1995614-3.0099614-1.940443-1.9396094-3.0089869-4.5151563-3.0089869-7.2533399 0-2.7390429 1.0687588-5.314375 3.0089869-7.2541992.7844298-.7841797 1.6627763-1.4224805 2.6107544-1.8962109.4227324-.2105469.9395965-.0403906 1.1525745.3841406.2121184.4243164.0404035.9399414-.3842631 1.1524219-.7827106.3905859-1.5108334.9208203-2.1643816 1.5739453-1.6157105 1.6154101-2.5058772 3.7604101-2.5058772 6.0399023 0 2.278418.8901667 4.4238477 2.5058772 6.0388282 1.6997412 1.6983398 4.032614 2.5963867 6.3781667 2.4975586 2.1517017-.0805665 4.1742412-.9670118 5.7044166-2.4975586.3354781-.335586.8792062-.335586 1.2146842 0 .335693.3355859.335693.8789257 0 1.2142968-1.8370701 1.8375586-4.2681579 2.9025391-6.8462456 2.9990039-.1547368.0077344-.3107631.0111724-.4661447.0111724z"></path><path d="m75.7868816 43.4068164c-.1259386 0-.2518772-.0268555-.372443-.0846484-.4278904-.2056055-.6073421-.7186524-.4010263-1.1464063.399307-.8327344.6561272-1.7067187.7601447-2.5963867.0485702-.3832813.0820965-.7596875.0820965-1.1363086 0-2.8329297-1.3958553-5.4761523-3.7330263-7.0705078-1.4261579-.9569141-3.0973158-1.4650195-4.8237061-1.4650195-.4747413 0-.8590044-.3841407-.8590044-.8587305s.3842631-.8587305.8590044-.8587305c2.0687456 0 4.0702236.6088672 5.7869429 1.7602149 2.8119123 1.9179101 4.4882281 5.0922265 4.4882281 8.4927734 0 .4485938-.0369649.8956836-.0941316 1.3442774-.1259386 1.0718554-.4345526 2.1275976-.9193947 3.1330664-.1480746.3070117-.4551842.4864062-.7736842.4864062z"></path><path d="m72.6072544 31.521875c-.0756491 0-.1525877-.0100977-.2282369-.0311523-.4581929-.1267579-.7264035-.5996289-.6006798-1.0566016.2080351-.7515234.3137719-1.5354883.3137719-2.330625 0-4.4773438-3.3623026-8.1406445-7.8219473-8.522207-.4715176-.0401758-.8220395-.4561133-.7820658-.9283399.0419079-.4730859.4766754-.8219922.9294956-.7824609 5.3538947.457832 9.3923114 4.856543 9.3923114 10.2330078 0 .9493945-.1259386 1.887832-.3739474 2.788457-.1055219.3807032-.4511008.6299219-.8287017.6299219z"></path><path d="m40.9605614 49.6589844c-3.6492105 0-7.0753421-1.4257031-9.6465526-4.0152149-.3339737-.3362304-.3322544-.8797851.004943-1.2142968.3346184-.3338672.8800657-.3338672 1.2146842.0049414 2.2458333 2.2616601 5.2389166 3.5071093 8.4267105 3.5071093 1.4328202 0 5.7951096 0 8.2337193-1.2463086.2658465-.1400781.5134254-.281875.7307017-.4554687.3722281-.2958398.9125176-.2348242 1.2078071.1349219.2970087.3708203.2348991.9107226-.1341053 1.2067773-.3002325.2389063-.6359254.4393555-1.0135263.6383008-2.5254342 1.2907812-6.3592544 1.4392383-9.0243816 1.4392383z"></path><path d="m65.4263904 24.7203516c-.4749562 0-.8590044-.3841407-.8590044-.8587305 0-1.6923242-.3389167-3.3017188-1.0068641-4.7828516-1.8806973-4.2863476-6.1305877-7.0511718-10.8302894-7.0511718-3.7925571 0-7.2481316 1.7325-9.4804255 4.7525586-1.5570395 2.036289-2.3749956 4.4816406-2.3749956 7.0814648 0 .4745898-.3842632.8587305-.8590044.8587305s-.8590044-.3841407-.8590044-.8587305c0-2.9805274.9404562-5.7857422 2.7188553-8.1131445 2.5140439-3.4014063 6.5743816-5.4383399 10.8545746-5.4383399 5.3807587 0 10.2495964 3.1683008 12.4006535 8.0710352.7650877 1.6966211 1.1542939 3.5432031 1.1542939 5.4804492 0 .4745898-.3840483.8587305-.8587895.8587305z"></path><path d="m59.7737675 53.4200391c-4.3154386 0-8.2799254-1.9840821-10.875421-5.4452149-.2851886-.3791992-.2080351-.9175976.1719298-1.2018359.3776009-.2850977.9185351-.2079688 1.2022193.171875 2.2683991 3.0232812 5.7314956 4.7577148 9.5014869 4.7577148 1.8170833 0 3.6393245-.4268945 5.2715833-1.2336328.4192938-.20625.9413158-.0386719 1.1508553.3892969.2097543.4251758.0352456.9401562-.3892062 1.1504883-1.8673728.9233984-3.9546009 1.4113086-6.0334474 1.4113086z"></path><path d="m28.2469956 34.5960742c-.3313947 0-.6477456-.1927148-.7876535-.5173437-.7425219-1.7116602-1.1190482-3.5247266-1.1190482-5.3908594 0-.511543.0358903-1.0222266.090478-1.5337695.7618641-6.8533008 6.5503114-12.0177149 13.465329-12.0177149.9714035 0 1.8916579.0895899 2.8136316.2741406.4657149.0930274.7665921.5452735.67375 1.010625-.093272.466211-.5469518.7674219-1.0109474.6735352-.8095746-.1619922-1.6200088-.2408398-2.4764342-.2408398-6.0383904 0-11.0929123 4.5076367-11.7572062 10.4854492-.0477105.4470898-.0805921.8974023-.0805921 1.3483594 0 1.6295898.3288158 3.2129882.9772062 4.7080859.1880482.4352734-.0118202.9410156-.4472325 1.1296484-.1106798.048125-.2271623.0706836-.3412807.0706836z"></path><path d="m81.7999123 44.9700195c-.1777325 0-.3573991-.0545703-.5099869-.1677929-.3825438-.281875-.4631359-.8194141-.1813859-1.2009766 1.1158245-1.5094922 1.7048991-3.2933398 1.7048991-5.1583984 0-3.7629883-2.4076623-7.0361328-5.9915395-8.1447266-.4528202-.1400781-.7081359-.6206836-.5671535-1.0742187.1392632-.4528907.622386-.7085547 1.0737018-.5661133 4.3087763 1.3326758 7.203 5.2649609 7.203 9.7850586 0 2.2350195-.7064167 4.3718554-2.0401623 6.1782617-.1695658.228164-.4278904.3489062-.6913728.3489062z"></path><path d="m79.5650395 31.521875c-.0754342 0-.1525877-.0100977-.2295263-.0311523-.458193-.1276172-.7248992-.6013477-.5972413-1.0583204.2063158-.7446484.3118377-1.5279687.3118377-2.3289062 0-3.7552539-2.4027192-7.0361328-5.9795043-8.1632031-.4530351-.1426563-.7029781-.625625-.5604913-1.0776563.1427018-.4520312.6275439-.7003906 1.0773553-.560957 4.2950219 1.354375 7.180864 5.2935351 7.180864 9.8018164 0 .9560547-.1257237 1.8953516-.3756666 2.7901758-.1061667.3798437-.4517456.6282031-.8276272.6282031z"></path><path d="m73.3287149 60.4293164c-5.0637631 0-7.5619035-4.4507031-7.5902719-4.5024805-.2282369-.4152929-.0756491-.9352148.340421-1.1633789.4162851-.2303125.9361579-.0754101 1.1661141.3373047.1074561.195293 2.709614 4.769961 8.1324956 3.3275.5050438-.1207422.9883816-.2833789 1.4562456-.4879101.6544079-.2767188 1.2164035-.625625 1.6778202-1.0383399 2.4512894-2.190332 1.3206359-5.6699414 1.2718509-5.817539-.1510834-.4485938.0906929-.9358594.5385701-1.0868946.4461579-.1527539.9346535.0846485 1.0872413.5341016.0655482.1903516 1.5570394 4.6947656-1.7515351 7.6499414-.6023992.5416211-1.3253641.9912891-2.1456842 1.3367578-.5486711.2399805-1.1291492.4361328-1.7130658.5770703-.8830746.2318164-1.7051141.3338672-2.4702018.3338672z"></path><path d="m74.7398289 73.8594141c-.0453464 0-.0924122-.0034375-.1375438-.0118164-.4700132-.075625-.7870088-.5147657-.7115746-.9846289 1.0887456-6.7695118.0487851-9.8490821.0386842-9.8789454-.1562412-.4462304.0756492-.9358593.5200878-1.0954882.4478771-.1574805.9361579.0704687 1.0956228.5117578.0502894.1375 1.2146842 3.4551172.0404035 10.7361718-.0672676.4210938-.431329.7229493-.8456799.7229493z"></path><path d="m78.1741272 73.8594141c-.0601754 0-.1240044-.0066602-.186114-.0201953-.4629211-.1039844-.7552018-.5635352-.6526886-1.0265235 1.62925-7.3278906.0571666-11.4793164.0404035-11.5194922-.1727895-.4393554.0436272-.939082.4831228-1.11375.4379912-.1744531.9361579.0403906 1.1126009.4795313.0754342.1845508 1.7966666 4.6294531.0416929 12.5260351-.0889736.4008985-.4446535.6743946-.8390175.6743946z"></path><path d="m78.5566711 58.4417969c-2.1527764 0-3.2196009-1.7073633-3.4949036-2.6971485-.1276579-.4561132.1392632-.9300586.5972413-1.0574609.4612017-.1250391.9262719.1383594 1.0552193.5921094.0840307.2810156.5787587 1.6729883 2.2432544 1.4130273.4646403-.0580078.9060701.2515821.9763464.7229492.0704913.4696485-.2533815.9055664-.7212456.9760352-.2297412.0337305-.4478772.0504883-.6559122.0504883z"></path><path d="m75.6306404 60.119082c-.0571667 0-.1478597-.0066601-.2028772-.0167578-3.3943246-.6842773-4.103965-3.3174023-4.1325483-3.4299804-.117557-.4595508.15925-.9266211.6191623-1.0439258.4612017-.1207422.9228333.1566211 1.0433991.6114453.0234255.0846484.5166491 1.7174609 2.8086886 2.1787305.4747412 0 .7902325.3757617.7902325.8486328.0002149.4763086-.4513158.8518554-.926057.8518554z"></path><path d="m35.2224035 72.1419531c-.2114737 0-.4227324-.0788476-.5871403-.2333203-.3146316-.2934765-.3623421-.7764453-.1115395-1.1253515l7.6197149-10.6641993h-5.2028114c-.3472983 0-.6610702-.2096875-.7936711-.5300195-.1332456-.3220508-.0595307-.6911523.186329-.9356445l6.87225-6.870918c.335693-.3355859.8792061-.3355859 1.2146842 0s.335693.8789258 0 1.2142969l-5.4059035 5.4048242h4.7985614c.3221535 0 .6165833.1778906.7633684.464707.1476448.2868164.1225.6305664-.0644737.8922461l-4.8413289 6.7759571 12.0449737-9.850586h-4.4663071c-.3455789 0-.6576315-.2079687-.7919517-.5257226-.1341053-.3186133-.0644737-.6859961.1770877-.9334961l3.4370921-3.5206446c.3305351-.3396679.8757676-.3446093 1.2146842-.015039.3389167.331289.345579.8746289.0133246 1.2142968l-2.011579 2.0622852h4.8335921c.3625571 0 .686215.2281641.808715.5701953.1225.3413867.0167631.7229492-.2649869.9534766l-18.8987412 15.4575781c-.1588202.1295508-.3518114.1950781-.543943.1950781z"></path><path d="m70.7297807 53.560332c-2.2937588 0-4.4345-.8033007-5.7433158-1.5842578-.4074737-.2423437-.5402895-.7680664-.2987281-1.1758398.2415614-.4066992.7700307-.5409766 1.1777193-.2994922.2551009.1510351 6.3489386 3.6716797 10.20425-1.2830469 2.8927193-3.7092773-.154307-9.0530859-.186114-9.1067969-.2381228-.4101367-.0988596-.935.3120526-1.1732617.4061842-.2374023.9346535-.1014062 1.1744957.3110938.1510833.2591015 3.6526491 6.4105078.0554473 11.0238476-1.9226052 2.4734961-4.3870044 3.2877539-6.695807 3.2877539z"></path><path d="m81.6103596 109.927383h-48.1061798c-.4747412 0-.8590044-.38586-.8590044-.858731v-11.0464059c-13.6086754 1.694043-21.2015263.6557031-24.09080698-3.3513477-2.17684649-3.0191992-1.33718421-7.2288476-.10896053-11.0532812l-1.76593421-1.3483594c-.31721052-.2414844-.42617105-.670957-.2626228-1.0333984l.88995175-1.9825782-1.51835526-1.5045507c-.19299123-.191211-.28432895-.4627735-.24585965-.7328321l1.25164912-8.6783984-6.31777631-3.1564844c-.20975439-.1054883-.36728509-.2917578-.43627193-.5147656-.06963158-.2230078-.04448685-.4664258.06963158-.670957l11.16232892-20.11625c-2.41690349-10.7748438-.3842631-20.6288672 5.8840834-28.5159961 7.5316008-9.47568362 20.9934912-15.3630469 35.1325701-15.3630469 7.7647807 0 15.283057 1.75699219 21.7426755 5.08126953 12.5783859 6.47667967 20.281057 15.17763667 22.89525 25.85837887 4.4594299 18.2286328-7.149272 37.2975196-12.3469255 44.6505469-6.8875087 9.7180274-2.1762017 33.0689647-2.1291359 33.3037887.0535131.253516-.0118202.5167-.1745088.716289-.1624737.19959-.4074737.31711-.6657983.31711zm-47.2469605-1.717461h46.2085044c-.8708246-4.776836-3.9294561-24.3907814 2.6055965-33.6108009 5.0620439-7.1600977 16.3737368-25.7092774 12.0802193-43.2508398-2.4914781-10.1767188-9.8973553-18.5010547-22.0111009-24.74054692-6.218057-3.19859375-13.4642544-4.8900586-20.9573859-4.8900586-13.6271579 0-26.5739036 5.63814453-33.7870044 14.71378902-5.9939035 7.541875-7.8898597 17.0108985-5.4821974 27.383125.0479254.2071094.0167632.4243165-.0863947.610586l-10.88638161 19.6188867 6.07041228 3.035957c.33139473.1643555.51858333.5233594.46635965.8890235l-1.27851316 8.8661718 1.63419298 1.6166993c.25424123.251582.32559211.6357226.17859211.9627148l-.85492106 1.9035156 1.70876755 1.3032422c.29185086.2247266.41026756.6071485.29357016.9558399-1.68276315 5.0453906-1.77753946 8.064375-.3169956 10.0905664 2.5007193 3.4669336 10.0886272 4.2822656 23.4432763 2.5261328.2482237-.0335156.4932237.0418945.6784781.2045312.1863289.1643555.2927105.3991797.2927105.6475391v11.1639259z"></path></g></g></svg> 