<?xml version="1.0" encoding="UTF-8"?> <svg xmlns="http://www.w3.org/2000/svg" height="110" viewBox="0 0 107 110" width="107"><g fill="none" transform=""><path d="m40.9565488 74.3160915h.6357305l2.1222363 1.8292931c3.4273438 2.3401871 6.8208321 3.6585863 9.7461953 3.6585863 2.9098985 0 6.3021328-1.3183992 9.7307305-3.6585863l2.1222363-1.8292931h.7182793l.468543-1.025447 3.0935957-2.668815c1.6879668-1.7938461 3.3092676-3.7873389 4.7964004-5.9651559v9.6594179c0 1.336237 2.073334 3.0726819 4.9986973 4.8484615l-2.1907832 2.468711s-8.3077559 9.1466944-23.7040528 9.1466944-23.7040527-9.1466944-23.7040527-9.1466944l-2.1899473-2.468711c2.9253633-1.7760083 4.9978613-3.5122245 4.9978613-4.8484615v-9.5505614c1.4879688 2.1597506 3.0927598 4.153472 4.7817715 5.9276508l3.1759356 2.7259875z" fill="#d7e9ff"></path><path d="m4.17906055 103.585468c0-7.3174015 3.34354101-10.0614555 10.03020505-12.8052809 3.9792715-1.6294179 11.6521328-4.8662994 16.7340059-7.9568191 2.9253633-1.7760083 4.9978613-3.5122245 4.9978613-4.8484616v-8.9250935c-1.1598633-1.3433264-2.2894238-2.7545738-3.343332-4.2838254v9.5505614c0 1.336237-2.0724981 3.0726819-4.9978613 4.8484615-5.0818731 3.0905197-12.7547344 6.3274012-16.7340059 7.9568191-6.68687305 2.7438254-10.03020508 5.4878794-10.03020508 12.805052v9.1466945h3.34333203c0-1.341954 0-3.126882 0-5.488108z" fill="#fff"></path><path d="m29.7900957 81.633264s8.3077559 9.1466944 23.7040527 9.1466944c15.3962969 0 23.7040528-9.1466944 23.7040528-9.1466944l2.1907832-2.468711c5.081873 3.0905198 12.7547343 6.3274013 16.7331699 7.9568191 6.6868727 2.7438254 10.0302047 5.4878795 10.0302047 12.805052v9.1466949h-52.6582106-52.65841988s0-1.829294 0-9.1466949c0-7.3171725 3.34333203-10.0612266 10.03020508-12.805052 3.9792715-1.6294178 11.6521328-4.8662993 16.7340059-7.9568191z" fill="#94c1ff"></path><g fill="#d7e9ff" transform="translate(.835938 30.18711)"><path d="m13.3735371 60.5928482c3.9792715-1.6294178 11.6521328-4.8662993 16.7340059-7.9568191.0219433-.0141788.0415879-.0285863.0637402-.0411642-.7918418-.6913306-1.216916-1.1487111-1.216916-1.1487111l-2.1899473-2.468711c-5.081873 3.0905198-12.7547344 6.3274013-16.7340058 7.9568192-6.68687308 2.7438253-10.03020512 5.4878794-10.03020512 12.8050519v9.1466944h3.34333204c0-1.3414969 0-3.1264241 0-5.4878794-.00041797-7.3174012 3.34312304-10.061684 10.02999608-12.8052807z"></path><path d="m41.7922773 44.1289813h21.7318672.9533867l-2.1222363 1.8292931c-3.4283886 2.3401871-6.820832 3.6585863-9.7307304 3.6585863-2.9253633 0-6.3186426-1.3183992-9.7461954-3.6585863l-2.1222363-1.8292931z"></path><path d="m30.0904062 22.1770062 9.6293731 21.055052-3.1759356-2.7259875c-1.6890117-1.7741788-3.2938027-3.7679002-4.7817714-5.9276507-2.2064571-3.2012059-4.1286953-6.7669439-5.5832266-10.5721206l-.601666-1.8292932z"></path><path d="m75.2260156 22.1770062h4.4469785l-.6185937 1.8292932c-1.4221387 3.769501-3.3253594 7.2993347-5.4998418 10.4630353-1.4871328 2.1778171-3.1084336 4.1713098-4.7964004 5.9651559l-3.0935957 2.668815z"></path><path d="m81.9126797.22503119v9.14669438c0 3.74960503-.6171309 7.44501043-1.6390645 10.97575883l-.6006211 1.8295218h-4.4469785-1.671666-41.7922773-1.6716661-4.5132265l-.6185938-1.8295218c-1.0196347-3.5307484-1.5548437-7.2261538-1.5548437-10.97575883v-9.14669438z"></path></g><path d="m47.0578477 76.1451559-2.1220274-1.8292931-1.0367715-.8969231-3.1759355-2.7259875c-1.6888028-1.7741788-3.2935938-3.7679002-4.7817715-5.9276507-2.2062481-3.2012059-4.1284863-6.7669439-5.5832266-10.5721206l-.601457-1.8292932-.6188027-1.8295218c-1.0194258-3.5307484-1.5548438-7.2261538-1.5548438-10.9757588v-7.3174013h-3.343332v7.3174013c0 3.749605.535418 7.4450104 1.5548437 10.9757588l.6185938 1.8295218.601666 1.8292932c1.4545313 3.8051767 3.3767695 7.3709147 5.5832266 10.5721206 1.4879687 2.1597505 3.0927597 4.1534719 4.7817714 5.9276507l3.1759356 2.7259875 1.0365625.8969231 2.1222363 1.8292931c3.4273438 2.3401871 6.8208321 3.6585863 9.7461953 3.6585863.5387618 0 1.0986309-.0608316 1.6683223-.1481913-2.5132461-.3894594-5.2787363-1.6022037-8.0711855-3.510395z" fill="#fff"></path><path d="m59.9294043 76.1451559 2.1222363-1.8292931 1.0384434-.8969231 3.1750996-2.7259875c1.6896387-1.7741788 3.2927578-3.7679002 4.7815625-5.9276507 2.207293-3.2012059 4.1286953-6.7669439 5.5834355-10.5721206l.6006211-1.8292932.6204746-1.8295218c1.0185899-3.5307484 1.5542168-7.2261538 1.5542168-10.9757588v-7.3174013h3.3433321v7.3174013c0 3.749605-.535418 7.4450104-1.5542168 10.9757588l-.6202657 1.8295218-.60083 1.8292932c-1.4547403 3.8051767-3.3759336 7.3709147-5.5832266 10.5721206-1.4888047 2.1597505-3.0921328 4.1534719-4.7817715 5.9276507l-3.1750996 2.7259875-1.0382344.8969231-2.1222363 1.8292931c-3.4267168 2.3401871-6.820832 3.6585863-9.7453594 3.6585863-.5387617 0-1.0986308-.0608316-1.6683222-.1481913 2.5132461-.3894594 5.2787363-1.6022037 8.0701406-3.510395z" fill="#94c1ff"></path><path d="m58.3425859 10.6551351c1.3368731 1.4638462 1.3368731 3.8417672 0 5.3056133l-4.8484375 5.3049273-4.8476015-5.3049273c-1.3370821-1.4638461-1.3370821-3.8417671 0-5.3056133 1.336873-1.46316005 3.5107285-1.46316005 4.8476015 0 1.337709-1.46316005 3.5098926-1.46316005 4.8484375 0z" fill="#d7e9ff"></path><path d="m82.7486172 12.11921v18.2931601h-58.5089375v-18.2931601c0-6.0552599 4.480207-10.97598755 10.0299961-10.97598755h38.4489453c5.550625 0 10.0299961 4.92072765 10.0299961 10.97598755zm-24.4060313 3.8415384c1.3368731-1.4638461 1.3368731-3.8417671 0-5.3056133-1.3385449-1.46316005-3.5107285-1.46316005-4.8484375 0-1.336873-1.46316005-3.5107285-1.46316005-4.8476015 0-1.3370821 1.4638462-1.3370821 3.8417672 0 5.3056133l4.8476015 5.3049273z" fill="#94c1ff"></path><path d="m37.6130078 1.14322245h-3.343332c-5.5497891 0-10.0299961 4.92072765-10.0299961 10.97598755v18.2931601h3.343332v-18.2931601c0-6.0552599 4.4802071-10.97598755 10.0299961-10.97598755z" fill="#d7e9ff"></path><path d="m69.3752891 1.14322245h3.343332c5.550625 0 10.0299961 4.92072765 10.0299961 10.97598755v18.2931601h-3.343332v-18.2931601c0-6.0552599-4.4795801-10.97598755-10.0299961-10.97598755z" fill="#5c9eff"></path><path d="m24.240516 30.411684h58.509356v1.829293h-58.509356z" fill="#94c1ff"></path><path d="m32.5980098 52.3641164h41.7922773 1.671666l-9.5616621 20.9262994-1.1866133 1.0256757h-.9535957-21.7318672-1.0359355l-1.0365625-.8969231-9.629373-21.055052z" fill="#fff"></path><path d="m102.809236 103.585468c0-7.3174015-3.3435407-10.0614555-10.0302047-12.8052809-3.9801075-1.6294179-11.6529688-4.8662994-16.73317-7.9568191-2.9253633-1.7760083-4.9989062-3.5122245-4.9989062-4.8484616v-8.9250935c1.1592363-1.3433264 2.2887969-2.7545738 3.343541-4.2838254v9.5505614c0 1.336237 2.073334 3.0726819 4.9986973 4.8484615 5.0804101 3.0905197 12.7530625 6.3274012 16.7331699 7.9568191 6.6868727 2.7438254 10.0302047 5.4878794 10.0302047 12.805052v9.1466945h-3.343332c0-1.341954 0-3.126882 0-5.488108z" fill="#5c9eff"></path><path d="m74.3902871 64.7655301c-1.0547441 1.5294803-2.1843047 2.940499-3.343541 4.2838254v8.9250936c0 1.3254885 2.0440762 3.047526 4.9334941 4.8072973.7935137-.6913306 1.217752-1.1487111 1.217752-1.1487111l2.1907832-2.468711c-2.5596406-1.5544075-4.4666231-3.0781705-4.9040274-4.3304781-.0620683-.1786071-.0946699-.3501248-.0946699-.5182121z" fill="#94c1ff"></path><g fill="#116fff"><path d="m53.4941484 109.987879h-52.65841988c-.46206446 0-.83572852-.409126-.83572852-.914532v-9.1466942c0-7.8513929 3.71636914-10.8579834 10.5737734-13.6626403 20.5941563-8.4249481 21.1885078-11.6117464 21.1885078-11.9476923 0-.5056341.3736641-.9147609.8357286-.9147609.4620644 0 .8359375.4091268.8359375.9147609 0 1.2433887 0 4.5500208-22.2748086 13.6626403-6.42815042 2.6260499-9.4872637 5.0840125-9.4872637 11.9476923v8.2319332h51.8222734c.4620645 0 .8359375.409127.8359375.914761 0 .505406-.373873.914532-.8359375.914532z"></path><path d="m106.152568 109.987879h-52.6584196c-.4620644 0-.8359375-.409126-.8359375-.914532 0-.505634.3738731-.914761.8359375-.914761h51.8224826v-8.2319332c0-6.8636798-3.059322-9.3216424-9.4866369-11.9476923-22.2756445-9.1126195-22.2756445-12.4194803-22.2756445-13.6626403 0-.5056341.3738731-.9147609.8359375-.9147609.4618555 0 .8357285.4091268.8357285.9147609 0 .3359459.5943516 3.5227442 21.1901797 11.9476923 6.8565687 2.8046569 10.5721017 5.8112474 10.5721017 13.6626403v9.1466942c0 .505406-.373664.914532-.835729.914532z"></path><path d="m32.5980098 75.230395c-.4620645 0-.8357285-.4088981-.8357285-.9145322v-9.5469023c0-.5054054.373664-.9145322.8357285-.9145322.4620644 0 .8359375.4091268.8359375.9145322v9.5469023c0 .5056341-.3738731.9145322-.8359375.9145322z"></path><path d="m74.3902871 75.6109356c-.4620644 0-.8359375-.4091269-.8359375-.9145323v-10.0488773c0-.5035759.3738731-.9145322.8359375-.9145322.4618555 0 .8357285.4109563.8357285.9145322v10.0488773c0 .5054054-.373873.9145323-.8357285.9145323z"></path><path d="m53.4941484 91.6928898c-15.5628574 0-23.9481464-9.0321206-24.2975683-9.4163202-.3258067-.3572141-.3241348-.9362577.0033437-1.2934719.3258067-.3572141.8553731-.3535551 1.1809707.0036591.0817129.0875883 8.28017 8.8768399 23.1132539 8.8768399 14.873836 0 23.0315411-8.7876508 23.1132539-8.8768399.3247618-.3572142.8537012-.3606445 1.1818067-.0036591.3264336.3572142.3281055.9362578.0033437 1.2934719-.3494218.3839709-8.7355468 9.4163202-24.2984043 9.4163202z"></path><path d="m25.7905527 51.4406653c-.3559004 0-.6856777-.2501871-.7974843-.6414761-1.0545352-3.6809979-1.5891172-7.4619335-1.5891172-11.2385239 0-.5056341.373873-.9147609.8359375-.9147609.4618554 0 .8357285.4091268.8357285.9147609 0 3.5906653.508668 7.1877339 1.5124199 10.6917256.1379297.4813929-.107.9950311-.5475391 1.1459667-.0835937.028815-.1676054.0423077-.2499453.0423077z"></path><path d="m37.3781094 71.5951351c-.2089844 0-.4179688-.0839293-.5803496-.255447-4.481252-4.7267983-8.2304317-10.6919542-10.5558008-16.7943243-.1780547-.4662994.0236152-1.0012058.4495254-1.1960499.4252832-.1930145.9151426.025842 1.0929883.4921414 2.2398945 5.8755094 5.8534433 11.6224948 10.1737773 16.1798337.3322852.3501247.3421074.9307692.0213164 1.2932432-.1640527.1859252-.3828594.2806029-.601457.2806029z"></path><path d="m53.4548594 80.7205613c-3.0143906 0-6.5374492-1.3131393-10.1877793-3.7999168-.3916367-.268025-.5115938-.8324324-.2675-1.2612266.2438847-.4287942.7607031-.5591476 1.1508769-.2929522 3.38492 2.306341 6.6026524 3.5248025 9.3044024 3.5248025 2.7000781 0 5.9163476-1.2184615 9.2987597-3.5211435.3901739-.2680249.9059473-.1376715 1.1492051.2929522.2449297.4287942.1241367.9913722-.267709 1.2575676-3.6469863 2.4867775-7.1667011 3.7999168-10.1802558 3.7999168z"></path><path d="m69.590543 71.5290437c-.2185977 0-.4374043-.0928483-.6006211-.2787734-.3199551-.362474-.3134766-.941289.0196445-1.2932433 4.293375-4.5484199 7.8866523-10.272079 10.1148438-16.1155717.1763828-.4672141.6662421-.6869854 1.0923613-.4921414.4261191.1948441.628416.7297505.4486894 1.1960499-2.3460586 6.1542828-5.9750722 11.9390021-10.4937324 16.7264034-.1632168.1715176-.3722012.2572765-.5811855.2572765z"></path><path d="m81.1162402 51.4495842c-.0817129 0-.1665605-.0134927-.2497363-.042079-.4405391-.1509356-.6854687-.663659-.5467031-1.1459667 1.0578789-3.6988358 1.5932969-7.2993348 1.5932969-10.7008732 0-.5056341.373664-.9147609.8357285-.9147609.4620644 0 .8359375.4091268.8359375.9147609 0 3.5872349-.56175 7.3706861-1.671666 11.2474428-.1111797.391289-.4409571.6414761-.7968575.6414761z"></path><path d="m66.031748 75.230395h-25.0751992c-.3168203 0-.6056367-.1962162-.7477461-.5054054l-10.030205-21.951975c-.1297793-.2831186-.1159864-.6197506.0367812-.889605.1525586-.2698545.4213125-.4340541.7109648-.4340541h45.1358184c.2906973 0 .5584063.1644283.7118008.4340541.1517226.2696257.1663516.6064864.0359453.889605l-10.0302051 21.951975c-.1421093.3091892-.4311347.5054054-.7479551.5054054zm-24.5585898-1.8290644h24.0430254l9.1940586-20.1224533h-42.4315606z"></path><path d="m32.5980098 53.2788773h-6.7259532c-.4620644 0-.8359375-.4091268-.8359375-.9147609s.3738731-.9147609.8359375-.9147609h6.7259532c.4620644 0 .8359375.4091268.8359375.9147609s-.3738731.9147609-.8359375.9147609z"></path><path d="m81.1162402 53.2788773h-6.7259531c-.4620644 0-.8359375-.4091268-.8359375-.9147609s.3738731-.9147609.8359375-.9147609h6.7259531c.4620645 0 .8359375.4091268.8359375.9147609s-.373873.9147609-.8359375.9147609z"></path><path d="m42.6282148 75.230395h-3.2812636c-.4620645 0-.8359375-.4088981-.8359375-.9145322s.373873-.9147609.8359375-.9147609h3.2812636c.4620645 0 .8357286.4091268.8357286.9147609s-.3736641.9145322-.8357286.9145322z"></path><path d="m67.6413457 75.230395h-3.2812637c-.4620644 0-.8359375-.4088981-.8359375-.9145322s.3738731-.9147609.8359375-.9147609h3.2812637c.4620645 0 .8359375.4091268.8359375.9147609s-.373873.9145322-.8359375.9145322z"></path><path d="m62.688416 58.7665281h-18.3885351c-.4620645 0-.8359375-.4088982-.8359375-.9145323s.373873-.9147609.8359375-.9147609h18.3885351c.4620645 0 .8357285.4091268.8357285.9147609s-.373664.9145323-.8357285.9145323z"></path><path d="m62.688416 64.2548649h-18.3885351c-.4620645 0-.8359375-.4091269-.8359375-.9147609 0-.5056341.373873-.9145323.8359375-.9145323h18.3885351c.4620645 0 .8357285.4088982.8357285.9145323 0 .505634-.373664.9147609-.8357285.9147609z"></path><path d="m62.688416 69.7427443h-18.3885351c-.4620645 0-.8359375-.4091268-.8359375-.9147609 0-.5054054.373873-.9145323.8359375-.9145323h18.3885351c.4620645 0 .8357285.4091269.8357285.9145323 0 .5056341-.373664.9147609-.8357285.9147609z"></path><path d="m24.2396797 40.4754262c-.4620645 0-.8359375-.4091268-.8359375-.9145322v-5.4899377c0-.5054054.373873-.9145322.8359375-.9145322.4618555 0 .8357285.4091268.8357285.9145322v5.4899377c0 .5054054-.373873.9145322-.8357285.9145322z"></path><path d="m82.7486172 40.4754262c-.4620645 0-.8357285-.4091268-.8357285-.9145322v-5.4899377c0-.5054054.373664-.9145322.8357285-.9145322.4620644 0 .8359375.4091268.8359375.9145322v5.4899377c0 .5054054-.3738731.9145322-.8359375.9145322z"></path><path d="m53.4958203 22.1804366c-.2213144 0-.4342695-.0965073-.5910078-.268025l-4.8467656-5.3037837c-1.6618438-1.8203743-1.6618438-4.7805406 0-6.5990853 1.4275722-1.56218293 3.8135469-1.77395008 5.4379824-.54130975 1.6202559-1.23172557 4.0110371-1.01995842 5.4346387.54222455 1.6618437 1.8185447 1.6618437 4.778711 0 6.5983991l-4.8436309 5.3037838c-.1569473.171289-.3692754.2677963-.5912168.2677963zm-2.4235918-11.7084823c-.6921562 0-1.3427246.2947817-1.832584.8306029-1.0104394 1.1057172-1.0096035 2.905738.000836 4.01237l4.2551308 4.6572765 4.2528321-4.6572765c1.0104394-1.1057172 1.0104394-2.9064241 0-4.01237-.9797188-1.0727859-2.6856582-1.0709564-3.6609883 0-.3126406.3421206-.8685391.3437214-1.1828516 0-.4894414-.5358212-1.1400097-.8306029-1.832375-.8306029z"></path><path d="m24.2396797 31.3269023c-.4620645 0-.8359375-.4091268-.8359375-.9147609v-18.2929314c0-.5056341.373873-.9147609.8359375-.9147609.4618555 0 .8357285.4091268.8357285.9147609v18.2931601c0 .5056341-.373873.9145322-.8357285.9145322z"></path><path d="m72.7186211 2.05775468h-38.7983672c-.4618555 0-.8357285-.40912682-.8357285-.91476092 0-.50563409.373873-.91476091.8357285-.91476091h38.7983672c.4618555 0 .8357285.40912682.8357285.91476091 0 .5056341-.373873.91476092-.8357285.91476092z"></path><path d="m82.7486172 31.3269023c-.4620645 0-.8357285-.4091268-.8357285-.9147609v-18.2929314c0-.5056341.373664-.9147609.8357285-.9147609.4620644 0 .8359375.4091268.8359375.9147609v18.2931601c0 .5056341-.3738731.9145322-.8359375.9145322z"></path><path d="m82.7486172 31.3269023h-58.5089375c-.4620645 0-.8359375-.4091268-.8359375-.9147609 0-.5054054.373873-.9147609.8359375-.9147609h58.5091465c.4620644 0 .8359375.4091268.8359375.9147609 0 .5058628-.3740821.9147609-.8361465.9147609z"></path><path d="m24.2396797 13.0337422c-.4620645 0-.8359375-.4091268-.8359375-.9147609 0-6.55632018 4.8745605-11.89051976 10.8659336-11.89051976.4620644 0 .8359375.40912682.8359375.91476091 0 .5056341-.3738731.91476092-.8359375.91476092-5.069752 0-9.1942676 4.51343035-9.1942676 10.06122663 0 .5054054-.373873.9145322-.8357285.9145322z"></path><path d="m82.7486172 13.0337422c-.4620645 0-.8357285-.4091268-.8357285-.9147609 0-5.54779627-4.1236797-10.06122662-9.1942676-10.06122662-.4620645 0-.8359375-.40912682-.8359375-.91476092 0-.50563409.373873-.91476091.8359375-.91476091 5.9911641 0 10.8659336 5.33419958 10.8659336 11.89051975 0 .5058628-.3738731.9149896-.8359375.9149896z"></path></g></g></svg> 