<?xml version="1.0" encoding="UTF-8"?> <svg xmlns="http://www.w3.org/2000/svg" height="95" viewBox="0 0 110 95" width="110"><g fill="none" transform=""><path d="m63.1198047 8.97329932-8.1550391 8.18012468-8.1565429-8.18012468h-.0034375c-10.5153125-10.54349206-27.5582227-10.54349206-38.0700977 0-8.24720703 8.26930838-10.02375 20.57557828-5.32640625 30.58418368 1.28841797 2.7435828 3.06496094 5.3171995 5.32984375 7.5847052l46.2268555 46.9377551 46.2268555-46.9308617v-.006678c2.259941-2.2608276 4.032832-4.8277664 5.316309-7.5627324 4.717539-10.0152834 2.937558-22.3282313-5.316309-30.60594104-10.5170313-10.5439229-27.5569337-10.5439229-38.0720313-.00043084z" fill="#94c1ff"></path><path d="m75.7036328 51.5087415c-4.8417187 3.8756122-11.7803125 2.9169955-15.4945312-2.1427778-3.7107813-5.0666666-2.7949024-12.3148866 2.050039-16.1954535 4.8449414-3.8788435 22.7115625-7.9832313 25.0636719-5.5240023 2.3521094 2.4575057-6.7742383 19.9767121-11.6191797 23.8622336z" fill="#d7e9ff"></path><path d="m87.3228125 27.6465079c-.6728906-.7031292-2.637207-.8562925-5.1805273-.6443197.8118945.1094331 1.4276367.3130045 1.7447461.6443197 2.3518945 2.4575057-6.7742383 19.9767121-11.6191797 23.8622336-1.5064844 1.2063492-3.2177149 1.9430839-4.9691211 2.2356236 2.87375.4625056 5.9152929-.2438549 8.4049023-2.2356236 4.8449414-3.8855215 13.9712891-21.4047279 11.6191797-23.8622336z" fill="#94c1ff"></path><path d="m63.644668 49.3659637c-3.7105664-5.0666666-2.7949024-12.3148866 2.0502539-16.1954535 3.4591992-2.7687868 13.5332226-5.6401134 19.8831445-6.168322-5.2056641-.7031292-19.1264648 2.812517-23.3189258 6.168322-4.8449414 3.8805669-5.7608203 11.1290023-2.050039 16.1954535 2.5583593 3.4852721 6.6468359 5.0227211 10.5254101 4.3784014-2.7177734-.439025-5.2845117-1.9191724-7.0898437-4.3784014z" fill="#fff"></path><path d="m46.5280664 41.1235828c3.7730859 1.6906122 5.5227734 6.2523356 3.9086524 10.1936508-1.6139063 3.9413152-5.9823243 5.7695805-9.7551954 4.0841383-3.7696484-1.6888889-11.9547656-11.2735488-11.3542773-13.5240363.6041406-2.2541497 13.4279492-2.4359637 17.2008203-.7537528z" fill="#d7e9ff"></path><path d="m46.5280664 41.1235828c-1.9443359-.8662018-6.2893359-1.2345692-10.1311719-1.0833447 2.7463477.1094331 5.3214649.4711224 6.6953907 1.0833447 3.7730859 1.6906122 5.5227734 6.2523356 3.9088671 10.1936508-.9629296 2.3497959-2.9124218 3.9262358-5.1235937 4.4759864 3.4594141.8679251 7.1130469-.9454762 8.5591601-4.4759864 1.6141211-3.9413152-.1355664-8.5030386-3.9086523-10.1936508z" fill="#94c1ff"></path><path d="m44.1173047 55.4013719c-3.7694336-1.6888889-11.9547656-11.2735488-11.3540625-13.5240363.2917578-1.091746 3.4591992-1.6938435 7.0694336-1.8368821-4.7981055-.188492-10.1210742.4036962-10.5052149 1.8368821-.6004882 2.2504875 7.5846289 11.8351474 11.3542774 13.5240363 1.5232422.6796485 3.1354297.7636621 4.6320312.3918481-.4011132-.1010318-.8039453-.2169275-1.1964648-.3918481z" fill="#fff"></path><path d="m70.5332031 78.2746145-15.5682226 15.8053288-15.5332032-15.7715079 15.4476954-8.3434127z" fill="#5c9eff"></path><path d="m13.891582 47.1421882c-2.2646679-2.2675057-4.04142575-4.8411224-5.32984372-7.5847052-4.69712891-10.0086054-2.92058594-22.3148753 5.32662112-30.58418368 4.6000195-4.6140703 10.45-7.20793651 16.4576758-7.78504535-7.720625-.74018141-15.6992774 1.85540816-21.61113286 7.78504535-8.24742187 8.26930838-10.02396484 20.57557828-5.32662109 30.58418368 1.28841797 2.7435828 3.06496094 5.3171995 5.32984375 7.5847052l46.2268555 46.9377551 2.5768359-2.615839z" fill="#d7e9ff"></path><path d="m42.7953711 76.4915873-3.3635938 1.8168481 15.5332032 15.7715079 2.5766211-2.615839z" fill="#94c1ff"></path><path d="m96.0379492 47.1421882c2.2648828-2.2675057 4.0416408-4.8411224 5.3300588-7.5847052 4.697129-10.0086054 2.920801-22.3148753-5.3266213-30.58418368-4.5998047-4.6140703-10.4497851-7.20793651-16.4574609-7.78504535 7.720625-.74018141 15.6990625 1.85540816 21.6111332 7.78504535 8.247207 8.26930838 10.02375 20.57557828 5.326406 30.58418368-1.288418 2.7435828-3.064961 5.3171995-5.329844 7.5847052l-43.6500194 44.3219161-2.6069141-2.5818027z" fill="#5c9eff"></path><path d="m59.375293 89.6020181 11.1561914-11.3274036-3.3820703-1.7963832-12.2147266 12.4040703 2.6069141 2.5818027z" fill="#2287ff"></path><g fill="#116fff"><path d="m44.7096289 79.4389569c-.4748047 0-.8673242-.3853855-.8673242-.8612471 0-.4760771.3757617-.8612472.8488476-.8612472h.0184766c.4730859 0 .8589453.3851701.8589453.8612472 0 .4758616-.3858594.8612471-.8589453.8612471z"></path><path d="m48.1454102 82.8837302c-.4748047 0-.8673243-.3851701-.8673243-.8612472s.3757618-.8612472.8488477-.8612472h.0184766c.4730859 0 .8589453.3851701.8589453.8612472s-.3858594.8612472-.8589453.8612472z"></path><path d="m51.5811914 86.3287188c-.4745898 0-.8673242-.38517-.8673242-.8612471s.3757617-.8612472.8488476-.8612472h.0182618c.4730859 0 .8589453.3851701.8589453.8612472s-.3856446.8612471-.8587305.8612471z"></path><path d="m55.0167578 89.7737075c-.4745898 0-.8673242-.3851701-.8673242-.8612472s.3757617-.8612471.8488476-.8612471h.0184766c.4730859 0 .8589453.38517.8589453.8612471s-.3858594.8612472-.8589453.8612472z"></path><path d="m48.1454102 75.9939683c-.4748047 0-.8673243-.3851701-.8673243-.8612472s.3757618-.8612472.8488477-.8612472h.0184766c.4730859 0 .8589453.3851701.8589453.8612472s-.3858594.8612472-.8589453.8612472z"></path><path d="m51.5811914 79.4389569c-.4745898 0-.8673242-.3853855-.8673242-.8612471 0-.4760771.3757617-.8612472.8488476-.8612472h.0182618c.4730859 0 .8589454.3851701.8589454.8612472.0002147.4758616-.3856447.8612471-.8587306.8612471z"></path><path d="m55.0167578 82.8837302c-.4745898 0-.8673242-.3851701-.8673242-.8612472s.3757617-.8612472.8488476-.8612472h.0184766c.4730859 0 .8589453.3851701.8589453.8612472s-.3858594.8612472-.8589453.8612472z"></path><path d="m58.4525391 86.3287188c-.4748047 0-.8673243-.38517-.8673243-.8612471s.3757618-.8612472.8488477-.8612472h.0184766c.4730859 0 .8589453.3851701.8589453.8612472s-.3856446.8612471-.8589453.8612471z"></path><path d="m55.0167578 75.9939683c-.4745898 0-.8673242-.3851701-.8673242-.8612472s.3757617-.8612472.8488476-.8612472h.0184766c.4730859 0 .8589453.3851701.8589453.8612472s-.3858594.8612472-.8589453.8612472z"></path><path d="m58.4525391 79.4389569c-.4748047 0-.8673243-.3853855-.8673243-.8612471 0-.4760771.3757618-.8612472.8488477-.8612472h.0184766c.4730859 0 .8589453.3851701.8589453.8612472 0 .4758616-.3856446.8612471-.8589453.8612471z"></path><path d="m61.8885352 82.8837302c-.4748047 0-.8673243-.3851701-.8673243-.8612472s.3757618-.8612472.8488477-.8612472h.0184766c.4730859 0 .8589453.3851701.8589453.8612472s-.3858594.8612472-.8589453.8612472z"></path><path d="m61.8885352 75.9939683c-.4748047 0-.8673243-.3851701-.8673243-.8612472s.3757618-.8612472.8488477-.8612472h.0184766c.4730859 0 .8589453.3851701.8589453.8612472s-.3858594.8612472-.8589453.8612472z"></path><path d="m65.3241016 79.4389569c-.4745899 0-.8673243-.3853855-.8673243-.8612471 0-.4760771.3759766-.8612472.8488477-.8612472h.0184766c.4730859 0 .8589453.3851701.8589453.8612472 0 .4758616-.3858594.8612471-.8589453.8612471z"></path><path d="m55.0167578 69.1037755c-.4075586 0-.7682812-.2925397-.8439062-.7080839-.0367383-.2119728-3.529668-21.2300227 18.2342187-31.5699433.4243164-.2020635.9375781-.0219728 1.144043.4103741.2028125.4289003.0201953.9435375-.4092774 1.1471089-20.5895507 9.7813379-17.3131836 29.5092404-17.2779492 29.7061338.0840039.4693991-.2264453.91661-.6928711 1.000839-.0517773.0086168-.1037695.0135714-.1542578.0135714z"></path><path d="m68.9932031 54.7503741c-3.7477343 0-7.2019922-1.7763492-9.4754687-4.8749433-3.9741797-5.4246938-2.9843946-13.2213718 2.2045117-17.3778911 4.0781641-3.264898 16.2310156-6.455907 22.325918-6.455907 1.9980468 0 3.2359765.3194671 3.895332 1.0092403.4765234.4980499.6743945 1.2614966.6054297 2.3314853-.3521289 5.3557596-7.8291211 19.2063719-12.3086133 22.7993537-2.1003125 1.6804875-4.6049609 2.5686621-7.2471094 2.5686621zm15.054961-26.9862471c-5.7124805 0-17.485918 3.0630499-21.2540625 6.0791383-4.4790625 3.5878118-5.3279102 10.3231179-1.8923438 15.0128005 1.9460547 2.6509523 4.8952149 4.1715986 8.0912305 4.1715986 2.2479101 0 4.383457-.7584921 6.1752539-2.1918934 4.0446484-3.2446486 11.3491211-16.7488662 11.6662305-21.5662925.0534961-.8224717-.1241797-1.0193651-.1308399-1.0277665-.0468359-.0484694-.5199219-.477585-2.6554687-.477585z"></path><path d="m43.6008203 56.8901361c-1.1275 0-2.2262109-.235669-3.2679883-.7016214-3.6841406-1.6501133-12.6459179-11.4937074-11.8357422-14.533492.587168-2.1867234 6.2641993-2.5130839 9.5959961-2.5130839 2.9508789 0 6.8094727.3145124 8.7841016 1.1942857 4.1873047 1.8756576 6.1400195 6.9490023 4.3550977 11.3071542-1.3053907 3.1875623-4.3013868 5.2467574-7.6314649 5.2467574zm-5.5077344-16.025703c-4.8851172 0-7.6314648.7569841-7.9485742 1.2701134-.3001367 1.4769161 6.9370899 10.7100113 10.8878516 12.4811905.8202734.3649206 1.684375.5519047 2.568457.5519047 2.6305469 0 5.0026367-1.6399886 6.0409766-4.1767687 1.4362304-3.5089682-.1173047-7.5812585-3.4643555-9.0818707-1.4224805-.6339796-4.596582-1.0445692-8.0843555-1.0445692z"></path><path d="m52.3864258 60.3131519c-.404336 0-.7633399-.287585-.8421875-.6996825-1.4764063-7.7712585-5.0026367-9.9564739-10.6362695-12.8749773-.4210938-.2186508-.5869532-.7384581-.3691016-1.1606803.2182812-.4239456.7416406-.5872336 1.1575781-.3700907 6.1148828 3.1690363 9.9431836 5.6989229 11.5353906 14.082619.0889454.4676758-.2165625.9185488-.6829882 1.0077325-.055.0101247-.108711.0150793-.1624219.0150793z"></path><path d="m54.9649805 94.9411905c-.2298828 0-.449668-.0926304-.610586-.255703l-46.22707028-46.9377551c-2.28142578-2.2843084-4.131875-4.9169501-5.49591797-7.8236054-4.97234375-10.5954082-2.76460938-23.2771542 5.49591797-31.55981861 5.24583988-5.26162132 12.22160158-8.15987528 19.64166018-8.15987528 7.4183398 0 14.3956054 2.89825396 19.6433789 8.15987528l7.5526172 7.57113381 7.5474609-7.57113381c5.2477734-5.26162132 12.2233203-8.15987528 19.6433789-8.15987528 7.4183399 0 14.3938867 2.89825396 19.6433787 8.15987528 8.272344 8.29623581 10.476856 20.98789111 5.485821 31.58329931-1.347286 2.8696032-3.172598 5.4753175-5.427383 7.7445465-.016758.0219728-.03502.0420068-.055215.0622562l-46.2268556 46.9310771c-.1611328.1630726-.380918.255703-.6105859.255703zm-27.1959961-93.01447848c-6.960293 0-13.5048633 2.7185941-18.42714846 7.65557823-7.74876953 7.76953515-9.82050782 19.66887755-5.15667969 29.60854875 1.28003906 2.7250567 3.01640625 5.1961338 5.16033203 7.3423583l45.61949222 46.3203628 45.5574025-46.2514286c.020195-.0234807.04039-.0469614.06209-.0689342 2.140488-2.1412699 3.871699-4.6039456 5.146797-7.3206009 4.682304-9.9411792 2.613789-21.8471996-5.146797-29.63052157-4.9237894-4.93698413-11.4700785-7.65536281-18.4286527-7.65536281-6.960293 0-13.5048633 2.71837868-18.4286523 7.65536281l-8.1548242 8.18012467c-.3220508.3231293-.892461.3231293-1.2145118 0l-8.1565429-8.18012467c-4.9274414-4.93676871-11.4735157-7.65536281-18.4323047-7.65536281z"></path><path d="m42.0808008 77.7164626c-.305293 0-.602207-.1650114-.7566797-.4541043-.2247266-.4187755-.0670313-.9403061.350625-1.1656349l12.7986719-6.8899774c.4144336-.2220975.9375781-.0689342 1.1625195.3515647.2247266.4187755.0670313.9403061-.350625 1.1656349l-12.7986719 6.8899773c-.1291211.0687188-.2683398.1025397-.4058398.1025397z"></path><path d="m67.8489453 77.7164626c-.1357812 0-.2732812-.0318821-.4024023-.1010318l-12.9696875-6.8899773c-.419375-.2218821-.5787891-.7434127-.3557813-1.1639115.2215039-.4204989.7399219-.5803402 1.1610156-.3565193l12.9696875 6.8899773c.4191602.2218821.5785743.7434127.3553516 1.1639116-.1525391.2908163-.4511719.457551-.7581836.457551z"></path></g></g></svg> 