<?xml version="1.0" encoding="UTF-8"?> <svg xmlns="http://www.w3.org/2000/svg" height="110" viewBox="0 0 108 110" width="108"><g fill="none" transform=""><path d="m41.9858571 71.2797852-3.4262142 3.4353515 3.4262142 3.4351367-1.713 3.4351368 1.713 3.4353515-3.4262142 3.4351367 3.4262142 3.4353516v10.30541l-15.4180714 6.870274-6.8524286-8.58795v-41.6466012h22.2705z" fill="#94c1ff"></path><path d="m19.7153571 60.5449023c3.4313572 1.3719922 7.1620715 2.1469336 11.0800715 2.1469336 3.96 0 7.7307857-.7884765 11.1906428-2.1873242v-1.6723437h-22.2707143z" fill="#5c9eff"></path><path d="m23.1415714 61.6552148c-1.1676428-.3119531-2.3170714-.6675195-3.4262143-1.1103125v39.9340817l6.8526429 8.58795 2.5279286-1.127071-5.9541429-7.460879z" fill="#d7e9ff"></path><path d="m38.5596429 71.2797852-3.4262143 3.4351367 3.4262143 3.4351367-1.713 3.4351367 1.713 3.4353516-3.4262143 3.4349218 3.4262143 3.4353516v10.3054097l-12.8901429 5.743204.8982857 1.12707 15.4180714-6.870488v-10.3054105l-3.4262142-3.4353516 3.4262142-3.4349219-1.713-3.4353515 1.713-3.4351367-3.4262142-3.4351368 3.4262142-3.4351367v-10.7750586c-1.1074285.4494531-2.2583571.808457-3.4262142 1.1253516z" fill="#5c9eff"></path><path d="m95.0530714 31.3373242-20.6027143-7.5582031-11.8765714 18.4961133 12.0021429 35.8198242 32.4792854-10.938125zm-16.8068571 5.4456446c-.9469286 0-1.713-.7691407-1.713-1.7185352 0-.9485352.7660714-1.7174609 1.713-1.7174609.9452143 0 1.7132143.7689257 1.7132143 1.7174609 0 .9493945-.768 1.7185352-1.7132143 1.7185352z" fill="#d7e9ff"></path><path d="m21.1245 7.70451172-20.60292857-7.55820313-.32592857.50853516 19.21585714 7.04966797 12.0019286 35.81960938-30.94028574 10.419707.174.518418 32.47950004-10.938125z" fill="#000" opacity=".3" transform="translate(73.928571 23.632812)"></path><path d="m1.71557143 18.6424219 11.55021427-17.98757815-1.3870714-.50853516-11.87635716 18.49611331 12.00192856 35.8198242 1.5392143-.518418z" fill="#fff" opacity=".3" transform="translate(62.571429 23.632812)"></path><path d="m96.1821429 50.8868164-15.1855715-7.5680859-7.5499285 15.2251172 1.0922142 3.2574609 7.5486429-15.2268359 15.1855714 7.5695898z" fill="#5c9eff"></path><path d="m30.7954286.85851563c-16.5559286 0-29.97985717 13.45738277-29.97985717 30.05792967s13.42392857 30.0577149 29.97985717 30.0577149c16.5591428 0 29.9798571-13.457168 29.9798571-30.0577149s-13.4207143-30.05792967-29.9798571-30.05792967zm.0552857 18.89335937c-3.3107143 0-5.9959286-2.6911328-5.9959286-6.0113281 0-3.3204102 2.6852143-6.01154299 5.9959286-6.01154299s5.9959286 2.69113279 5.9959286 6.01154299c0 3.3201953-2.6852143 6.0113281-5.9959286 6.0113281z" fill="#94c1ff"></path><path d="m4.24178571 30.9164453c0-16.0211133 12.51214289-29.07587889 28.26685719-29.97156249-.5704286-.03179687-1.1344286-.08636718-1.7132143-.08636718-16.5559286 0-29.97985717 13.45738277-29.97985717 30.05792967s13.42392857 30.0577149 29.97985717 30.0577149c.5787857 0 1.1427857-.053711 1.7132143-.0872266-15.7547143-.8954688-28.26685719-13.949375-28.26685719-29.9704883z" fill="#d7e9ff"></path><path d="m57.2955 30.9164453c0 16.0208984-12.5123571 29.0750195-28.2666429 29.9704883.5704286.0335156 1.1342143.0872266 1.713.0872266 16.5559286 0 29.9798572-13.457168 29.9798572-30.0577149s-13.4239286-30.05792967-29.9798572-30.05792967c-.5787857 0-1.1425714.05457031-1.713.08636718 15.7542858.8956836 28.2666429 13.95044919 28.2666429 29.97156249z" fill="#5c9eff"></path><path d="m96.753 63.3780469-16.2398571 5.469707-3.7742143-11.4864062 5.3485714-10.786875 10.8709286 5.4185742z" fill="#94c1ff"></path><g fill="#116fff"><path d="m30.8507143 61.8333203c-17.0025 0-30.83635716-13.8692383-30.83635716-30.9166601 0-17.0478516 13.83407146-30.9166602 30.83635716-30.9166602 15.885 0 29.3809286 12.4156055 30.7245 28.2654883.0402857.4730859-.3094286.888164-.7812857.9283398-.4382143.0378125-.885-.309375-.9250715-.7824609-1.2683571-14.9685938-14.0149285-26.69412111-29.0181428-26.69412111-16.0587857 0-29.12314287 13.09837891-29.12314287 29.19919921 0 16.1006055 13.06435717 29.1989844 29.12314287 29.1989844 14.3993571 0 26.7927857-10.7591602 28.8272143-25.0267188.0685714-.4720117.5202857-.7992187.9685714-.72875.4686429.0670313.7947857.5023047.7277143.9719532-2.1548572 15.1078125-15.2777143 26.5014062-30.5235 26.5014062z"></path><path d="m30.8507143 20.6108203c-3.7793572 0-6.8526429-3.0823633-6.8526429-6.8704883 0-3.78833981 3.0732857-6.87048825 6.8526429-6.87048825 3.7793571 0 6.8526428 3.08214844 6.8526428 6.87048825 0 .4745899-.3831428.8587305-.8565.8587305-.4735714 0-.8565-.3841406-.8565-.8587305 0-2.8415234-2.3055-5.15281247-5.1394285-5.15281247-2.8339286 0-5.1392143 2.31150387-5.1392143 5.15281247s2.3052857 5.1525977 5.1392143 5.1525977c.7746428 0 1.5156428-.1667188 2.2032857-.4947852.4234286-.2064648.9351428-.0242773 1.1408571.4058399.2042143.4277539.0218572.9401562-.4047857 1.1440429-.9203571.4395704-1.9090714.662793-2.9395714.662793z"></path><path d="m19.7153571 101.337715c-.4735714 0-.8565-.384141-.8565-.858731v-37.7869332c0-.4748047.3829286-.8587305.8565-.8587305.4733572 0 .8565.3839258.8565.8587305v37.7871482c0 .474375-.3831428.858516-.8565.858516z"></path><path d="m41.9858571 103.055605c-.4733571 0-.8565-.38414-.8565-.858945v-9.9498436l-3.1752857-3.1835547c-.3347143-.3353711-.3347143-.8789258 0-1.2142969l2.9897143-2.9972851-1.4372143-2.8816992c-.1204285-.2414844-.1204285-.5265821 0-.7680664l1.4372143-2.8816993-2.9897143-2.9975c-.3347143-.335371-.3347143-.8789257 0-1.2142968l3.1752857-3.1835547v-8.232168c0-.4748047.3831429-.8587305.8565-.8587305.4735715 0 .8567143.3839258.8567143.8587305v8.5879492c0 .2281641-.0904285.4462305-.2511428.6073633l-2.8206429 2.8277735 2.8206429 2.8279882c.2612143.2616797.3261428.6608594.1607143.9912891l-1.5222858 3.0509961 1.5222858 3.0509961c.1654285.3306445.1005.7296094-.1607143.9915039l-2.8206429 2.8277734 2.8206429 2.8279883c.1607143.1611328.2511428.3791992.2511428.6073633v10.3054103c0 .474375-.3831428.858515-.8567143.858515z"></path><path d="m26.5677857 109.925879c-.2509286 0-.5003571-.110859-.6692143-.322051l-6.8526428-8.588164c-.2944286-.370605-.2359286-.910723.1339285-1.2076367.3711429-.2951953.9100715-.2348242 1.2045.1342774l6.8526429 8.5879493c.2944286.37082.2359286.910723-.1339286 1.207637-.1587857.127617-.348.187988-.5352857.187988z"></path><path d="m26.5677857 109.925879c-.3278571 0-.6407143-.189707-.783-.510039-.1922143-.432695.0034286-.941016.435-1.133731l15.4180714-6.870488c.4317858-.189492.9385715.001719 1.131.436133.1922143.432695-.0034285.940801-.435 1.13373l-15.4180714 6.870489c-.1137857.050488-.231.073906-.348.073906z"></path><path d="m26.5677857 103.055605c-.4735714 0-.8565-.38414-.8565-.858945v-37.7871483c0-.4745898.3829286-.8587305.8565-.8587305.4733572 0 .8565.3841407.8565.8587305v37.7871483c0 .474805-.3831428.858945-.8565.858945z"></path><path d="m74.5757143 78.9537891c-.3580714 0-.6910714-.2264453-.8115-.5854493l-12.0019286-35.8198242c-.0837857-.2472851-.0501428-.5190625.0921429-.7379883l3.3962143-5.2885937c.2543571-.3991797.7827857-.5134766 1.1828571-.2573828.3981429.2565234.5134286.7882617.2558571 1.186582l-3.1718571 4.9414063 11.5969286 34.6134765 30.8565004-10.389414-11.5988576-34.6141211-19.5722143-7.1807227-4.7646428 7.4179102c-.2543572.3983203-.7845.5143359-1.1828572.2575976-.3979285-.2567383-.5134285-.7884765-.2558571-1.1867968l5.1345-7.9958399c.2175-.3379492.6372857-.4773828 1.0137857-.3422461l20.6027143 7.5582031c.2442857.0898047.435.2859571.5170714.5332422l12.0019286 35.8198242c.073714.2163477.057.4511719-.045214.6557032-.100286.2047461-.277715.3590039-.4935.4329101l-32.479286 10.9361914c-.0904286.030293-.1823571.0453321-.2727857.0453321z"></path><path d="m80.5131429 69.7064844c-.1305 0-.261-.030293-.3814286-.0904492-.204-.1007618-.3580714-.2784375-.4298572-.495l-2.7272142-8.1402149c-.1504286-.4494531.0904285-.9358594.5387142-1.0868945.4467858-.1493164.9336429.090664 1.0842858.5401172l2.4542142 7.3266015 14.6168572-4.9246484-2.4542143-7.3248828c-.1506429-.449668.0904286-.9367188.5387143-1.0877539.4485-.1475977.9336428.0915234 1.0842857.5411914l2.727 8.1402148c.1506429.4494531-.0904286.9356446-.5387143 1.0868946l-16.2396428 5.4714257c-.0889286.0283594-.1810715.0433985-.273.0433985z"></path><path d="m73.4466429 59.4025781c-.129 0-.2595-.0283594-.3814286-.0887304-.4234286-.2114063-.5955-.7281055-.3848572-1.1524219l7.5501429-15.2251172c.2091429-.4251758.7277143-.5979102 1.1475-.3867188.4234286.2114063.5955.7263868.3848571 1.1515625l-7.5501428 15.2251172c-.1487143.3020703-.4517143.4763086-.7660714.4763086z"></path><path d="m96.1821429 51.7455469c-.1287858 0-.2590715-.0285742-.3812143-.0898047l-15.1857857-7.5683008c-.4232143-.2111914-.5955-.7261719-.3846429-1.1513477.2091429-.4251757.7277143-.5979101 1.1475-.3867187l15.1857857 7.5683008c.4232143.2114062.5955.7263867.3846429 1.1515625-.1487143.3020703-.4515.4763086-.7662857.4763086z"></path><path d="m74.5388571 62.6600391c-.129 0-.2592857-.0285743-.3814285-.0889453-.4232143-.2111915-.5955-.7278907-.3848572-1.1522071l7.5486429-15.2268359c.2108571-.4251758.7277143-.5979102 1.1475-.3867188.4234286.2111914.5957143.7263867.3848571 1.1513477l-7.5484285 15.2268359c-.1489286.3022852-.4517143.4765235-.7662858.4765235z"></path><path d="m97.2730714 55.0032227c-.1287857 0-.2592857-.0285743-.3814285-.0898047l-15.1855715-7.5698047c-.4234285-.2111914-.5955-.7263867-.3848571-1.1513477.2108571-.4251758.7277143-.5979101 1.1475-.3867187l15.1857857 7.5698047c.4232143.2111914.5955.7261718.3848571 1.1513476-.1489285.3018555-.4517142.4765235-.7662857.4765235z"></path><path d="m88.6339286 66.9723828c-.3580715 0-.6925715-.2264453-.8112857-.5854492l-1.0909286-3.2572461c-.1504286-.449668.0904286-.937793.5387143-1.0886133.4502143-.1475976.9368571.092168 1.0842857.5416211l1.0907143 3.2574609c.1506428.4494532-.0904286.9375782-.5387143 1.0883985-.0906429.0305078-.1825714.0438281-.2727857.0438281z"></path><path d="m78.7915714 37.5972266c-.3578571 0-.6910714-.2264453-.8112857-.5854493-.1504286-.4494531.0904286-.9367187.5387143-1.087539.4485-.1510352.6910714-.6391602.5404286-1.0877539-.1506429-.4477344-.6357857-.6885742-1.0857857-.5409766-.4485.1508203-.9334286-.0915234-1.0842858-.5409766-.1504285-.4496679.0904286-.9367187.5389286-1.0877539 1.3365-.4462304 2.8005.2758594 3.2539286 1.621211.2192143.6541992.1707857 1.3528711-.1354286 1.9692578-.3045.6163867-.8314286 1.0767969-1.4822143 1.2955078-.0904285.0300781-.1825714.0444727-.273.0444727z"></path><path d="m76.2220714 36.0424023c-.015 0-.0302143 0-.0452143-.0008593-34.6375714-1.8248828-43.2934285-20.2531055-43.6448571-21.036211-.1941429-.4320508-.0017143-.9384375.4281429-1.1339453.4332857-.1927148.9385714-.0034375 1.1344285.4277539.0818572.1828321 8.6575715 18.2610742 42.1725 20.0266602.4718572.0251367.8348572.4292578.8097857.9032031-.0233571.4576172-.4015714.8133984-.8547857.8133984z"></path><path d="m69.4011429 26.9091797c-.1789286 0-.3578572-.0552149-.5102143-.1692969-2.0359286-1.5172266-4.3028572-2.9278906-6.7386429-4.1926758-.42-.2180664-.5839286-.7362695-.3664286-1.1573633.2175-.4228125.7360715-.5837304 1.1560715-.3673828 2.5161428 1.3066797 4.8617143 2.7667578 6.9696428 4.3383399.3797143.2835937.4600715.8211328.1772143 1.2020508-.1688571.2264453-.4264286.3463281-.6876428.3463281z"></path></g></g></svg> 