<?xml version="1.0" encoding="UTF-8"?> <!-- Generator: Adobe Illustrator 14.0.0, SVG Export Plug-In . SVG Version: 6.00 Build 43363) --> <svg xmlns="http://www.w3.org/2000/svg" xmlns:xlink="http://www.w3.org/1999/xlink" id="ecomm" x="0px" y="0px" width="212px" height="180.118px" viewBox="0 -15.618 212 180.118" xml:space="preserve"> <g transform=""> <path fill="#D7E9FF" d="M138.969,20.949c6.424,17.345,4.068,34.134,16.231,51.094c12.206,16.96,38.974,34.048,40.301,46.854 c1.37,12.849-22.655,21.457-42.485,28.139c-19.829,6.724-35.461,11.478-50.623,10.92c-15.204-0.6-29.979-6.51-39.402-16.574 c-9.422-10.107-13.534-24.283-23.256-40.001c-9.722-15.718-25.054-32.978-23.127-46.383s21.114-22.956,38.203-36.832 C71.942,4.332,86.932-13.828,102.093-14C117.254-14.17,132.501,3.646,138.969,20.949z"></path> <g transform="translate(15 23)"> <path fill="#94C1FF" d="M52.323,55.008v4.678h-2.344c-1.288,0-2.343-1.053-2.343-2.338c0-1.286,1.055-2.34,2.343-2.34H52.323z"></path> <path fill="#D7E9FF" d="M61.696,55.008c1.288,0,2.343,1.054,2.343,2.34c0,1.285-1.055,2.338-2.343,2.338h-9.374v-4.678H61.696z"></path> <g transform="translate(26.660156 45.616071)"> <path fill="#FFFFFF" d="M42.066,18.747H16.289V0.036h4.687h7.03h14.06V18.747z M23.319,14.069h2.344h9.374 c1.288,0,2.343-1.053,2.343-2.338c0-1.286-1.055-2.34-2.343-2.34h-9.374h-2.344c-1.288,0-2.343,1.054-2.343,2.34 C20.976,13.017,22.03,14.069,23.319,14.069z"></path> <path fill="#FFFFFF" d="M23.319-13.997c1.289,0,2.344,1.053,2.344,2.339s-1.055,2.339-2.344,2.339 c-1.288,0-2.343-1.053-2.343-2.339S22.03-13.997,23.319-13.997z"></path> </g> <path fill="#D7E9FF" d="M52.323,39.805l3.468,4.349l-1.125,1.498h-7.03L52.323,39.805z"></path> <path fill="#FFFFFF" d="M61.696,36.297l7.03,9.355h-14.06l1.125-1.498L61.696,36.297z"></path> <path fill="#94C1FF" d="M49.979,36.297c1.289,0,2.344-1.053,2.344-2.339c0-1.286-1.055-2.339-2.344-2.339 c-1.288,0-2.343,1.053-2.343,2.339S48.69,36.297,49.979,36.297z M42.949,26.941h25.777v18.711l-7.03-9.355l-5.906,7.857 l-3.468-4.349l-4.687,5.847h-4.687V26.941z"></path> <path fill="#D7E9FF" d="M42.903,26.94h2.343v18.711h-2.343V26.94z"></path> <path fill="#5C9EFF" d="M66.335,26.94h2.343v18.881h-2.343V26.94z"></path> <path fill="#94C1FF" d="M87.507,55.008v4.678h-2.343c-1.289,0-2.343-1.053-2.343-2.338c0-1.286,1.055-2.34,2.343-2.34H87.507z"></path> <path fill="#D7E9FF" d="M96.881,55.008c1.289,0,2.344,1.054,2.344,2.34c0,1.285-1.055,2.338-2.344,2.338h-9.374v-4.678H96.881z"></path> <g transform="translate(62.109375 45.616071)"> <path fill="#FFFFFF" d="M41.802,18.747H16.024V0.036h4.687h7.03h14.061L41.802,18.747L41.802,18.747z M23.055,14.069h2.343h9.374 c1.289,0,2.344-1.053,2.344-2.338c0-1.286-1.055-2.34-2.344-2.34h-9.374h-2.343c-1.289,0-2.343,1.054-2.343,2.34 C20.711,13.017,21.766,14.069,23.055,14.069z"></path> <path fill="#FFFFFF" d="M23.055-13.997c1.289,0,2.343,1.053,2.343,2.339s-1.055,2.339-2.343,2.339s-2.343-1.053-2.343-2.339 S21.766-13.997,23.055-13.997z"></path> </g> <path fill="#D7E9FF" d="M87.507,39.805l3.468,4.349l-1.125,1.498h-7.03L87.507,39.805z"></path> <path fill="#FFFFFF" d="M96.881,36.297l7.03,9.355h-14.06l1.125-1.498L96.881,36.297z"></path> <path fill="#94C1FF" d="M85.164,36.297c1.289,0,2.343-1.053,2.343-2.339c0-1.286-1.055-2.339-2.343-2.339 s-2.343,1.053-2.343,2.339S83.875,36.297,85.164,36.297z M78.134,26.941h25.777v18.711l-7.03-9.355l-5.905,7.857l-3.468-4.349 l-4.687,5.847h-4.687V26.941z"></path> <path fill="#D7E9FF" d="M78.089,26.94h2.343v18.711h-2.343V26.94z"></path> <path fill="#5C9EFF" d="M101.521,26.94h2.343v18.711h-2.343V26.94z"></path> <path fill="#94C1FF" d="M122.692,55.008v4.678h-2.343c-1.289,0-2.344-1.053-2.344-2.338c0-1.286,1.055-2.34,2.344-2.34H122.692z"></path> <path fill="#D7E9FF" d="M132.066,55.008c1.287,0,2.344,1.054,2.344,2.34c0,1.285-1.057,2.338-2.344,2.338h-9.374v-4.678H132.066z"></path> <g transform="translate(97.265625 45.616071)"> <path fill="#FFFFFF" d="M41.83,18.747H16.054V0.036h4.687h7.03h14.06V18.747z M23.084,14.069h2.343h9.374 c1.287,0,2.344-1.053,2.344-2.338c0-1.286-1.057-2.34-2.344-2.34h-9.374h-2.343c-1.289,0-2.344,1.054-2.344,2.34 C20.74,13.017,21.795,14.069,23.084,14.069z"></path> <path fill="#FFFFFF" d="M23.084-13.997c1.288,0,2.343,1.053,2.343,2.339s-1.055,2.339-2.343,2.339 c-1.289,0-2.344-1.053-2.344-2.339S21.795-13.997,23.084-13.997z"></path> </g> <path fill="#D7E9FF" d="M122.692,39.805l3.47,4.349l-1.126,1.498h-7.03L122.692,39.805z"></path> <path fill="#FFFFFF" d="M132.066,36.297l7.029,9.355h-14.06l1.126-1.498L132.066,36.297z"></path> <path fill="#94C1FF" d="M120.35,36.297c1.288,0,2.343-1.053,2.343-2.339c0-1.286-1.055-2.339-2.343-2.339 c-1.289,0-2.344,1.053-2.344,2.339S119.061,36.297,120.35,36.297z M113.319,26.941h25.776v18.711l-7.029-9.355l-5.904,7.857 l-3.47-4.349l-4.687,5.847h-4.687V26.941z"></path> <path fill="#D7E9FF" d="M113.274,26.94h2.343v18.711h-2.343V26.94z"></path> <path fill="#5C9EFF" d="M136.706,26.94h2.343v18.711h-2.343V26.94z"></path> <path fill="#D7E9FF" d="M26.545-5.781c0-3.858,3.164-7.017,7.03-7.017H148.4c3.868,0,7.031,3.159,7.031,7.017v2.339v2.293H26.687 l-0.141-2.293V-5.781z"></path> <path fill="#94C1FF" d="M81.615,12.885c0,2.572-2.086,4.678-4.687,4.678c-2.578,0-4.687-2.106-4.687-4.678 c0,2.572-2.086,4.678-4.687,4.678c-2.578,0-4.687-2.106-4.687-4.678c0,2.572-2.086,4.678-4.687,4.678 c-2.578,0-4.687-2.106-4.687-4.678c0,2.572-2.086,4.678-4.687,4.678c-2.578,0-4.687-2.106-4.687-4.678 c0,2.572-2.086,4.678-4.687,4.678c-2.578,0-4.687-2.106-4.687-4.678c0,2.572-2.086,4.678-4.687,4.678 c-0.329,0-0.633-0.023-0.938-0.094c-2.133-0.445-3.75-2.339-3.75-4.584c0,2.572-2.086,4.678-4.687,4.678 c-1.406,0-2.648-0.607-3.515-1.592V8.207l9.514-9.355H155.43h0.141l9.234,9.355v7.764h0.022c-0.868,0.984-2.133,1.592-3.538,1.592 c-2.577,0-4.688-2.106-4.688-4.678c0,2.572-2.084,4.678-4.686,4.678c-0.328,0-0.632-0.023-0.939-0.094 c-2.129-0.445-3.748-2.339-3.748-4.584c0,2.572-2.084,4.678-4.687,4.678c-2.577,0-4.687-2.106-4.687-4.678 c0,2.572-2.085,4.678-4.688,4.678c-2.576,0-4.686-2.106-4.686-4.678c0,2.572-2.086,4.678-4.688,4.678 c-2.576,0-4.687-2.106-4.687-4.678c0,2.572-2.085,4.678-4.687,4.678c-2.577,0-4.688-2.106-4.688-4.678 c0,2.572-2.084,4.678-4.686,4.678c-2.577,0-4.688-2.106-4.688-4.678c0,2.572-2.084,4.678-4.687,4.678 c-2.578,0-4.687-2.106-4.687-4.678c0,2.572-2.086,4.678-4.687,4.678C83.724,17.562,81.615,15.457,81.615,12.885z"></path> <path fill="#FFFFFF" d="M142.543,17.562c2.602,0,4.686-2.106,4.686-4.678c0,2.245,1.619,4.139,3.749,4.584l-2.577,2.433v53.841 H90.988H33.576V19.901l-3.515-2.339c2.601,0,4.687-2.106,4.687-4.678c0,2.572,2.108,4.678,4.687,4.678 c2.601,0,4.687-2.106,4.687-4.678c0,2.572,2.108,4.678,4.687,4.678c2.601,0,4.687-2.106,4.687-4.678 c0,2.572,2.108,4.678,4.687,4.678c2.601,0,4.687-2.106,4.687-4.678c0,2.572,2.108,4.678,4.687,4.678 c2.601,0,4.687-2.106,4.687-4.678c0,2.572,2.109,4.678,4.687,4.678c2.601,0,4.687-2.106,4.687-4.678 c0,2.572,2.109,4.678,4.687,4.678c2.601,0,4.687-2.106,4.687-4.678c0,2.572,2.109,4.678,4.687,4.678 c2.602,0,4.688-2.106,4.688-4.678c0,2.572,2.109,4.678,4.686,4.678c2.603,0,4.688-2.106,4.688-4.678 c0,2.572,2.109,4.678,4.687,4.678c2.603,0,4.687-2.106,4.687-4.678c0,2.572,2.109,4.678,4.688,4.678 c2.602,0,4.686-2.106,4.686-4.678c0,2.572,2.11,4.678,4.688,4.678c2.602,0,4.687-2.106,4.687-4.678 C137.855,15.457,139.966,17.562,142.543,17.562z M139.073,64.363V45.652V26.941h-25.776v18.711v18.711H139.073z M103.877,64.363 V45.652V26.941H78.1v18.711v18.711H103.877z M68.726,64.363V45.652V26.941H42.949v18.711v18.711H68.726z"></path> <path fill="#94C1FF" d="M108.563,94.746l4.687,21.051H68.749l4.687-21.051H108.563z"></path> <path fill="#D7E9FF" d="M108.563,94.746c-11.364,0-23.762,0-35.128,0c-20.856,0-38.313,0-39.86,0c-3.938,0-7.03-3.064-7.03-7.016 v-4.633c0,3.86,3.164,7.017,7.03,7.017h57.412H148.4c3.868,0,7.031-3.156,7.031-7.017v4.633c0,3.951-3.069,7.016-7.031,7.016 C146.854,94.746,129.421,94.746,108.563,94.746z"></path> <path fill="#FFFFFF" d="M90.988,78.374c1.946,0,3.516,1.567,3.516,3.509s-1.57,3.508-3.516,3.508 c-1.921,0-3.515-1.566-3.515-3.508S89.067,78.374,90.988,78.374z"></path> <path fill="#D7E9FF" d="M151.916,17.562c-0.327,0-0.631-0.023-0.938-0.094l-2.577-2.245v58.519H90.988H33.576V15.224l-3.515,2.339 c-0.329,0-0.633-0.023-0.938-0.094l-2.578-2.246v67.829v0.045c0,3.86,3.164,7.018,7.03,7.018h57.412H148.4 c3.868,0,7.031-3.157,7.031-7.018V15.224L151.916,17.562z M90.988,85.391c-1.921,0-3.515-1.566-3.515-3.508 s1.594-3.509,3.515-3.509c1.946,0,3.516,1.567,3.516,3.509S92.934,85.391,90.988,85.391z"></path> <g transform="translate(1.171875 10.526786)"> <path fill="#94C1FF" d="M19.515,7.036c2.601,0,4.687-2.106,4.687-4.678c0,2.245,1.617,4.139,3.75,4.584 c0.304,0.071,0.609,0.094,0.937,0.094c2.601,0,4.687-2.106,4.687-4.678c0,2.572,2.109,4.678,4.687,4.678 c2.601,0,4.687-2.106,4.687-4.678c0,2.572,2.109,4.678,4.687,4.678c2.601,0,4.687-2.106,4.687-4.678 c0,2.572,2.109,4.678,4.687,4.678c2.601,0,4.687-2.106,4.687-4.678c0,2.572,2.109,4.678,4.687,4.678 c2.601,0,4.687-2.106,4.687-4.678c0,2.572,2.109,4.678,4.687,4.678c2.601,0,4.687-2.106,4.687-4.678 c0,2.572,2.109,4.678,4.687,4.678c2.601,0,4.687-2.106,4.687-4.678c0,2.572,2.108,4.678,4.687,4.678 c2.603,0,4.688-2.106,4.688-4.678c0,2.572,2.109,4.678,4.687,4.678c2.603,0,4.687-2.106,4.687-4.678 c0,2.572,2.109,4.678,4.688,4.678c2.602,0,4.686-2.106,4.686-4.678c0,2.572,2.11,4.678,4.688,4.678 c2.602,0,4.687-2.106,4.687-4.678c0,2.572,2.11,4.678,4.687,4.678c2.602,0,4.688-2.106,4.688-4.678 c0,2.572,2.109,4.678,4.686,4.678c2.603,0,4.688-2.106,4.688-4.678c0,2.245,1.617,4.139,3.748,4.584 c0.307,0.071,0.611,0.094,0.938,0.094c2.603,0,4.687-2.106,4.687-4.678c0,2.572,2.109,4.678,4.688,4.678 c1.404,0,2.67-0.607,3.537-1.592h-0.022V-2.32H16v7.764C16.867,6.428,18.109,7.036,19.515,7.036z"></path> <path fill="#94C1FF" d="M149.806,6.942l-2.577-2.245v0.727c-0.723-0.825-1.172-1.894-1.172-3.065 c0,2.572-2.084,4.678-4.686,4.678c-2.577,0-4.688-2.105-4.688-4.678c0,2.572-2.084,4.678-4.687,4.678 c-2.577,0-4.687-2.105-4.687-4.678c0,2.572-2.085,4.678-4.687,4.678c-2.577,0-4.687-2.105-4.687-4.678 c0,2.572-2.085,4.678-4.688,4.678c-2.576,0-4.686-2.105-4.686-4.678c0,2.572-2.086,4.678-4.688,4.678 c-2.576,0-4.687-2.105-4.687-4.678c0,2.572-2.085,4.678-4.687,4.678c-2.578,0-4.688-2.105-4.688-4.678 c0,2.572-2.086,4.678-4.687,4.678c-2.578,0-4.687-2.105-4.687-4.678c0,2.572-2.086,4.678-4.687,4.678 c-2.578,0-4.687-2.105-4.687-4.678c0,2.572-2.086,4.678-4.687,4.678c-2.578,0-4.687-2.105-4.687-4.678 c0,2.572-2.086,4.678-4.687,4.678c-2.578,0-4.687-2.105-4.687-4.678c0,2.572-2.086,4.678-4.687,4.678 c-2.578,0-4.687-2.105-4.687-4.678c0,2.572-2.086,4.678-4.687,4.678c-2.578,0-4.687-2.105-4.687-4.678 c0,1.176-0.451,2.241-1.172,3.065V4.697l-3.515,2.339c-0.329,0-0.633-0.022-0.938-0.093l-2.578-2.245v3.065 c0.664,0.756,1.559,1.306,2.578,1.519c0.305,0.071,0.609,0.094,0.938,0.094c2.601,0,4.687-2.106,4.687-4.678 c0,2.572,2.109,4.678,4.687,4.678c2.601,0,4.687-2.106,4.687-4.678c0,2.572,2.109,4.678,4.687,4.678 c2.601,0,4.687-2.106,4.687-4.678c0,2.572,2.109,4.678,4.687,4.678c2.601,0,4.687-2.106,4.687-4.678 c0,2.572,2.109,4.678,4.687,4.678c2.601,0,4.687-2.106,4.687-4.678c0,2.572,2.109,4.678,4.687,4.678 c2.601,0,4.687-2.106,4.687-4.678c0,2.572,2.109,4.678,4.687,4.678c2.601,0,4.687-2.106,4.687-4.678 c0,2.572,2.109,4.678,4.688,4.678c2.602,0,4.687-2.106,4.687-4.678c0,2.572,2.11,4.678,4.687,4.678 c2.602,0,4.688-2.106,4.688-4.678c0,2.572,2.109,4.678,4.686,4.678c2.603,0,4.688-2.106,4.688-4.678 c0,2.572,2.109,4.678,4.687,4.678c2.602,0,4.687-2.106,4.687-4.678c0,2.572,2.109,4.678,4.687,4.678 c2.603,0,4.687-2.106,4.687-4.678c0,2.572,2.11,4.678,4.688,4.678c2.602,0,4.686-2.106,4.686-4.678 c0,2.245,1.619,4.139,3.749,4.584c0.308,0.071,0.611,0.094,0.938,0.094c1.412,0,2.659-0.633,3.516-1.612V4.697l-3.516,2.339 C150.417,7.036,150.112,7.013,149.806,6.942z"></path> <path fill="#94C1FF" d="M25.515-13.968H154.26v2.294H25.515V-13.968z"></path> </g> <path fill="#D7E9FF" d="M19.515,15.971V8.207l9.514-9.355h-2.343l-9.514,9.355v7.764c0.867,0.984,2.109,1.592,3.515,1.592 c0.405,0,0.792-0.068,1.166-0.164C20.938,17.163,20.13,16.667,19.515,15.971z"></path> <path fill="#5C9EFF" d="M162.67,15.971V8.207l-9.516-9.355h2.344l9.516,9.355v7.764c-0.867,0.984-2.11,1.592-3.516,1.592 c-0.404,0-0.791-0.068-1.167-0.164C161.246,17.163,162.057,16.667,162.67,15.971L162.67,15.971z"></path> <path opacity="0.5" fill="#FFFFFF" d="M28.889-3.442v-2.339c0-3.858,3.164-7.017,7.03-7.017h-2.343 c-3.867,0-7.03,3.159-7.03,7.017v2.339l0.141,2.293v-2.293H28.889z"></path> <path fill="#94C1FF" d="M148.635-12.798h-2.344c3.867,0,7.03,3.159,7.03,7.017v2.339h2.11v2.293h0.091l0.142-2.293v-2.339 C155.664-9.639,152.502-12.798,148.635-12.798L148.635-12.798z"></path> <g transform="translate(10.253906 28.948661)"> <path fill="#FFFFFF" d="M18.635-11.685l-2.343-2.04L18.635-11.685z"></path> <path fill="#FFFFFF" d="M18.635,54.149v-0.045V-9.232C17.72-9.479,16.9-9.965,16.292-10.66v64.763v0.046 c0,3.859,3.164,7.017,7.03,7.017h2.343C21.799,61.166,18.635,58.009,18.635,54.149z"></path> </g> <g transform="translate(130.078125 29.241071)"> <path fill="#94C1FF" d="M23.076-11.811l2.344-2.042L23.076-11.811z"></path> <path fill="#94C1FF" d="M23.076,54.024v-0.048V-9.36c0.915-0.244,1.734-0.733,2.344-1.425v64.761v0.048 c0,3.857-3.166,7.017-7.031,7.017h-2.343C19.911,61.04,23.076,57.881,23.076,54.024z"></path> </g> <path fill="#5C9EFF" d="M109.086,97.095H72.913l0.522-2.349h35.128L109.086,97.095z"></path> <path fill="#D7E9FF" d="M148.401,15.95c0,0,0,0-0.003,0c-0.354-0.407-0.641-0.868-0.842-1.375 c-0.002-0.011-0.01-0.021-0.014-0.032c-0.088-0.226-0.153-0.461-0.204-0.704c-0.009-0.037-0.022-0.071-0.03-0.107 c-0.05-0.274-0.08-0.557-0.08-0.847c0,2.572-2.084,4.678-4.686,4.678c-2.577,0-4.688-2.106-4.688-4.678 c0,2.572-2.084,4.678-4.687,4.678c-2.577,0-4.687-2.106-4.687-4.678c0,2.572-2.085,4.678-4.687,4.678 c-2.577,0-4.687-2.106-4.687-4.678c0,2.572-2.085,4.678-4.688,4.678c-2.576,0-4.686-2.106-4.686-4.678 c0,2.572-2.086,4.678-4.688,4.678c-2.576,0-4.687-2.106-4.687-4.678c0,2.572-2.085,4.678-4.687,4.678 c-2.578,0-4.688-2.106-4.688-4.678c0,2.572-2.086,4.678-4.687,4.678c-2.578,0-4.687-2.106-4.687-4.678 c0,2.572-2.086,4.678-4.687,4.678c-2.578,0-4.687-2.106-4.687-4.678c0,2.572-2.086,4.678-4.687,4.678 c-2.578,0-4.687-2.106-4.687-4.678c0,2.572-2.086,4.678-4.687,4.678c-2.578,0-4.687-2.106-4.687-4.678 c0,2.572-2.086,4.678-4.687,4.678c-2.578,0-4.687-2.106-4.687-4.678c0,2.572-2.086,4.678-4.687,4.678 c-2.578,0-4.687-2.106-4.687-4.678c0,0.304-0.032,0.598-0.089,0.884c-0.038,0.199-0.104,0.386-0.167,0.576 c-0.025,0.076-0.041,0.153-0.069,0.226c-0.096,0.247-0.216,0.479-0.352,0.704c-0.003,0.007-0.006,0.011-0.009,0.018 c-0.136,0.224-0.315,0.416-0.485,0.614v2.357c0.717-0.818,1.172-1.871,1.172-3.04c0,2.572,2.109,4.678,4.687,4.678 c2.601,0,4.687-2.106,4.687-4.678c0,2.572,2.109,4.678,4.687,4.678c2.601,0,4.687-2.106,4.687-4.678 c0,2.572,2.109,4.678,4.687,4.678c2.601,0,4.687-2.106,4.687-4.678c0,2.572,2.109,4.678,4.687,4.678 c2.601,0,4.687-2.106,4.687-4.678c0,2.572,2.108,4.678,4.687,4.678c2.601,0,4.687-2.106,4.687-4.678 c0,2.572,2.108,4.678,4.687,4.678c2.601,0,4.687-2.106,4.687-4.678c0,2.572,2.109,4.678,4.687,4.678 c2.602,0,4.687-2.106,4.687-4.678c0,2.572,2.11,4.678,4.687,4.678c2.603,0,4.688-2.106,4.688-4.678 c0,2.572,2.109,4.678,4.686,4.678c2.604,0,4.688-2.106,4.688-4.678c0,2.572,2.109,4.678,4.687,4.678 c2.603,0,4.687-2.106,4.687-4.678c0,2.572,2.11,4.678,4.688,4.678c2.602,0,4.687-2.106,4.687-4.678 c0,2.572,2.11,4.678,4.687,4.678c2.602,0,4.687-2.106,4.687-4.678c0,1.167,0.448,2.229,1.172,3.052V15.95z"></path> <g> <path fill="#116FFF" d="M90.988,86.561c-2.584,0-4.687-2.1-4.687-4.678c0-2.581,2.102-4.678,4.687-4.678s4.688,2.097,4.688,4.678 C95.676,84.462,93.572,86.561,90.988,86.561z M90.988,79.544c-1.292,0-2.343,1.048-2.343,2.339c0,1.288,1.051,2.339,2.343,2.339 c1.292,0,2.344-1.051,2.344-2.339C93.332,80.592,92.28,79.544,90.988,79.544z"></path> <path fill="#116FFF" d="M68.75,116.967c-0.084,0-0.169-0.01-0.255-0.027c-0.632-0.143-1.03-0.766-0.891-1.396l4.687-21.05 c0.141-0.63,0.775-1.019,1.398-0.888c0.632,0.139,1.03,0.765,0.891,1.395l-4.687,21.051 C69.772,116.594,69.287,116.967,68.75,116.967z"></path> <path fill="#116FFF" d="M113.25,116.967c-0.537,0-1.022-0.373-1.145-0.916L107.42,95c-0.141-0.63,0.258-1.256,0.89-1.396 c0.642-0.132,1.259,0.261,1.398,0.889l4.687,21.05c0.14,0.631-0.259,1.254-0.891,1.396 C113.42,116.957,113.332,116.967,113.25,116.967z"></path> <path fill="#116FFF" d="M116.766,116.967H65.211c-0.647,0-1.172-0.523-1.172-1.17s0.524-1.17,1.172-1.17h51.555 c0.647,0,1.172,0.523,1.172,1.17S117.413,116.967,116.766,116.967z"></path> <path fill="#116FFF" d="M148.4,74.912H33.576c-0.647,0-1.172-0.523-1.172-1.17V19.901c0-0.646,0.524-1.169,1.172-1.169 c0.647,0,1.172,0.523,1.172,1.169v52.671h112.481V19.901c0-0.646,0.525-1.169,1.172-1.169c0.648,0,1.172,0.523,1.172,1.169 v53.841C149.572,74.389,149.049,74.912,148.4,74.912z"></path> <path fill="#116FFF" d="M26.545,84.222c-0.647,0-1.172-0.523-1.172-1.17v-63.15c0-0.646,0.524-1.169,1.172-1.169 s1.172,0.523,1.172,1.169v63.15C27.717,83.698,27.193,84.222,26.545,84.222z"></path> <path fill="#116FFF" d="M148.4,91.284H33.576c-4.522,0-8.202-3.673-8.202-8.187c0-0.646,0.524-1.169,1.172-1.169 s1.172,0.522,1.172,1.169c0,3.225,2.628,5.848,5.858,5.848H148.4c3.232,0,5.859-2.623,5.859-5.848V19.901 c0-0.646,0.523-1.169,1.172-1.169c0.647,0,1.171,0.523,1.171,1.169v63.196C156.603,87.611,152.923,91.284,148.4,91.284z"></path> <path fill="#116FFF" d="M155.432-4.611c-0.648,0-1.172-0.523-1.172-1.169c0-3.223-2.627-5.848-5.859-5.848H33.576 c-3.23,0-5.859,2.625-5.859,5.848c0,0.646-0.524,1.169-1.172,1.169c-0.647,0-1.172-0.523-1.172-1.169 c0-4.514,3.68-8.186,8.202-8.186H148.4c4.523,0,8.202,3.673,8.202,8.186C156.603-5.134,156.079-4.611,155.432-4.611z"></path> <path fill="#116FFF" d="M148.4,95.916H33.576c-4.599,0-8.202-3.598-8.202-8.186v-4.633c0-0.646,0.524-1.192,1.172-1.192 s1.172,0.5,1.172,1.146v4.679c0,3.277,2.573,5.847,5.858,5.847H148.4c3.34,0,5.859-2.515,5.859-5.847v-4.633 c0-0.646,0.523-1.17,1.172-1.17c0.647,0,1.171,0.523,1.171,1.17v4.633C156.603,92.318,153,95.916,148.4,95.916z"></path> <path fill="#116FFF" d="M68.726,65.533H42.949c-0.647,0-1.172-0.523-1.172-1.17V26.941c0-0.646,0.524-1.17,1.172-1.17h25.777 c0.647,0,1.172,0.523,1.172,1.17v37.422C69.898,65.01,69.374,65.533,68.726,65.533z M44.121,63.194h23.434V28.11H44.121V63.194z"></path> <path fill="#116FFF" d="M61.696,60.855H49.979c-1.938,0-3.515-1.574-3.515-3.508c0-1.936,1.577-3.509,3.515-3.509h11.717 c1.938,0,3.515,1.573,3.515,3.509C65.211,59.281,63.634,60.855,61.696,60.855z M49.979,56.178c-0.646,0-1.171,0.523-1.171,1.17 c0,0.644,0.525,1.169,1.171,1.169h11.717c0.657,0,1.171-0.515,1.171-1.169c0-0.656-0.515-1.17-1.171-1.17H49.979z"></path> <path fill="#116FFF" d="M68.726,46.822H42.949c-0.647,0-1.172-0.523-1.172-1.17s0.524-1.169,1.172-1.169h25.777 c0.647,0,1.172,0.523,1.172,1.169S69.374,46.822,68.726,46.822z"></path> <path fill="#116FFF" d="M54.665,46.822c-0.246,0-0.494-0.078-0.705-0.235c-0.516-0.391-0.619-1.124-0.23-1.64l7.028-9.351 c0.445-0.587,1.435-0.589,1.875,0l7.03,9.355c0.389,0.517,0.284,1.25-0.234,1.636c-0.52,0.386-1.254,0.283-1.64-0.233 l-6.093-8.109l-6.095,8.111C55.371,46.66,55.021,46.822,54.665,46.822z"></path> <path fill="#116FFF" d="M47.635,46.822c-0.256,0-0.515-0.085-0.731-0.256c-0.504-0.405-0.586-1.14-0.183-1.645l4.687-5.848 c0.222-0.276,0.559-0.438,0.913-0.438h0.002c0.355,0,0.69,0.16,0.912,0.437l3.492,4.326c0.406,0.502,0.327,1.24-0.177,1.645 c-0.506,0.404-1.243,0.326-1.647-0.178l-2.577-3.191l-3.775,4.709C48.319,46.671,47.979,46.822,47.635,46.822z"></path> <path fill="#116FFF" d="M49.979,37.466c-1.938,0-3.515-1.574-3.515-3.508s1.577-3.508,3.515-3.508 c1.938,0,3.516,1.574,3.516,3.508S51.917,37.466,49.979,37.466z M49.979,32.788c-0.646,0-1.171,0.523-1.171,1.17 c0,0.644,0.525,1.169,1.171,1.169c0.657,0,1.172-0.514,1.172-1.169C51.151,33.302,50.636,32.788,49.979,32.788z"></path> <path fill="#116FFF" d="M54.666,51.5h-7.03c-0.647,0-1.172-0.523-1.172-1.17s0.524-1.169,1.172-1.169h7.03 c0.647,0,1.171,0.523,1.171,1.169S55.313,51.5,54.666,51.5z"></path> <path fill="#116FFF" d="M64.04,51.5h-3.515c-0.647,0-1.172-0.523-1.172-1.17s0.524-1.169,1.172-1.169h3.515 c0.647,0,1.172,0.523,1.172,1.169C65.211,50.977,64.687,51.5,64.04,51.5z"></path> <path fill="#116FFF" d="M52.323,60.855c-0.647,0-1.172-0.523-1.172-1.17v-4.678c0-0.646,0.524-1.169,1.172-1.169 s1.172,0.522,1.172,1.169v4.678C53.494,60.332,52.97,60.855,52.323,60.855z"></path> <path fill="#116FFF" d="M103.877,65.533H78.1c-0.647,0-1.172-0.523-1.172-1.17V26.941c0-0.646,0.524-1.17,1.172-1.17h25.777 c0.647,0,1.172,0.523,1.172,1.17v37.422C105.049,65.01,104.524,65.533,103.877,65.533z M79.271,63.194h23.434V28.11H79.271 V63.194z"></path> <path fill="#116FFF" d="M96.847,60.855H85.13c-1.938,0-3.515-1.574-3.515-3.508c0-1.936,1.577-3.509,3.515-3.509h11.717 c1.938,0,3.515,1.573,3.515,3.509C100.361,59.281,98.785,60.855,96.847,60.855z M85.13,56.178c-0.646,0-1.172,0.523-1.172,1.17 c0,0.644,0.525,1.169,1.172,1.169h11.717c0.657,0,1.172-0.515,1.172-1.169c0-0.656-0.515-1.17-1.172-1.17H85.13z"></path> <path fill="#116FFF" d="M103.877,46.822H78.1c-0.647,0-1.172-0.523-1.172-1.17s0.524-1.169,1.172-1.169h25.777 c0.647,0,1.172,0.523,1.172,1.169S104.524,46.822,103.877,46.822z"></path> <path fill="#116FFF" d="M89.815,46.822c-0.246,0-0.493-0.078-0.705-0.235c-0.516-0.391-0.619-1.124-0.23-1.64l7.027-9.351 c0.444-0.589,1.434-0.589,1.877,0l7.029,9.355c0.387,0.517,0.282,1.25-0.235,1.636c-0.515,0.386-1.249,0.286-1.641-0.233 l-6.092-8.109l-6.095,8.111C90.521,46.66,90.171,46.822,89.815,46.822z"></path> <path fill="#116FFF" d="M82.785,46.822c-0.256,0-0.515-0.085-0.731-0.256c-0.504-0.405-0.586-1.14-0.183-1.645l4.687-5.848 c0.222-0.276,0.559-0.438,0.913-0.438h0.002c0.354,0,0.69,0.16,0.912,0.437l3.492,4.326c0.406,0.502,0.328,1.24-0.178,1.645 c-0.505,0.404-1.241,0.326-1.646-0.178l-2.577-3.191l-3.775,4.709C83.47,46.671,83.13,46.822,82.785,46.822z"></path> <path fill="#116FFF" d="M85.13,37.466c-1.938,0-3.515-1.574-3.515-3.508s1.577-3.508,3.515-3.508 c1.938,0,3.515,1.574,3.515,3.508S87.068,37.466,85.13,37.466z M85.13,32.788c-0.646,0-1.172,0.523-1.172,1.17 c0,0.644,0.525,1.169,1.172,1.169c0.657,0,1.172-0.514,1.172-1.169C86.301,33.302,85.787,32.788,85.13,32.788z"></path> <path fill="#116FFF" d="M89.816,51.5h-7.03c-0.647,0-1.172-0.523-1.172-1.17s0.524-1.169,1.172-1.169h7.03 c0.647,0,1.171,0.523,1.171,1.169S90.464,51.5,89.816,51.5z"></path> <path fill="#116FFF" d="M99.19,51.5h-3.515c-0.648,0-1.172-0.523-1.172-1.17s0.523-1.169,1.172-1.169h3.515 c0.647,0,1.171,0.523,1.171,1.169S99.838,51.5,99.19,51.5z"></path> <path fill="#116FFF" d="M87.473,60.855c-0.647,0-1.172-0.523-1.172-1.17v-4.678c0-0.646,0.524-1.169,1.172-1.169 s1.172,0.522,1.172,1.169v4.678C88.645,60.332,88.121,60.855,87.473,60.855z"></path> <path fill="#116FFF" d="M139.073,65.533h-25.776c-0.648,0-1.172-0.523-1.172-1.17V26.941c0-0.646,0.523-1.17,1.172-1.17h25.776 c0.647,0,1.171,0.523,1.171,1.17v37.422C140.244,65.01,139.721,65.533,139.073,65.533z M114.468,63.194h23.434V28.11h-23.434 V63.194z"></path> <path fill="#116FFF" d="M132.043,60.855h-11.717c-1.938,0-3.515-1.574-3.515-3.508c0-1.936,1.577-3.509,3.515-3.509h11.717 c1.938,0,3.516,1.573,3.516,3.509C135.559,59.281,133.981,60.855,132.043,60.855z M120.326,56.178 c-0.656,0-1.172,0.514-1.172,1.17c0,0.654,0.516,1.169,1.172,1.169h11.717c0.646,0,1.172-0.525,1.172-1.169 c0-0.646-0.526-1.17-1.172-1.17H120.326z"></path> <path fill="#116FFF" d="M139.073,46.822h-25.776c-0.648,0-1.172-0.523-1.172-1.17s0.523-1.169,1.172-1.169h25.776 c0.647,0,1.171,0.523,1.171,1.169S139.721,46.822,139.073,46.822z"></path> <path fill="#116FFF" d="M125.014,46.822c-0.243,0-0.488-0.076-0.696-0.231c-0.521-0.384-0.632-1.115-0.247-1.635l7.037-9.363 c0.223-0.295,0.567-0.466,0.936-0.466c0.369,0,0.717,0.174,0.938,0.469l7.03,9.355c0.387,0.516,0.281,1.249-0.236,1.636 c-0.515,0.386-1.249,0.285-1.641-0.233l-6.094-8.111l-6.086,8.104C125.725,46.657,125.37,46.822,125.014,46.822z"></path> <path fill="#116FFF" d="M117.982,46.822c-0.258,0-0.515-0.085-0.731-0.256c-0.506-0.405-0.586-1.14-0.183-1.645l4.686-5.848 c0.442-0.553,1.385-0.557,1.831,0l3.47,4.326c0.402,0.504,0.322,1.24-0.184,1.645c-0.506,0.402-1.242,0.327-1.647-0.183 l-2.554-3.187l-3.771,4.708C118.667,46.671,118.326,46.822,117.982,46.822z"></path> <path fill="#116FFF" d="M120.326,37.466c-1.938,0-3.515-1.574-3.515-3.508s1.577-3.508,3.515-3.508 c1.938,0,3.516,1.574,3.516,3.508S122.265,37.466,120.326,37.466z M120.326,32.788c-0.656,0-1.172,0.514-1.172,1.17 c0,0.655,0.516,1.169,1.172,1.169c0.646,0,1.172-0.525,1.172-1.169C121.498,33.312,120.972,32.788,120.326,32.788z"></path> <path fill="#116FFF" d="M125.014,51.5h-7.031c-0.646,0-1.171-0.523-1.171-1.17s0.524-1.169,1.171-1.169h7.031 c0.646,0,1.171,0.523,1.171,1.169S125.66,51.5,125.014,51.5z"></path> <path fill="#116FFF" d="M134.387,51.5h-3.516c-0.647,0-1.172-0.523-1.172-1.17s0.524-1.169,1.172-1.169h3.516 c0.647,0,1.172,0.523,1.172,1.169S135.034,51.5,134.387,51.5z"></path> <path fill="#116FFF" d="M122.67,60.855c-0.648,0-1.172-0.523-1.172-1.17v-4.678c0-0.646,0.523-1.169,1.172-1.169 c0.647,0,1.172,0.522,1.172,1.169v4.678C123.842,60.332,123.317,60.855,122.67,60.855z"></path> <path fill="#116FFF" d="M164.805,9.376c-0.303,0-0.606-0.116-0.836-0.349l-8.889-9.007H27.167l-9.172,9.018 c-0.461,0.457-1.204,0.45-1.657-0.011c-0.454-0.459-0.45-1.202,0.011-1.654l9.514-9.356c0.22-0.214,0.515-0.335,0.823-0.335 h128.745c0.313,0,0.755,0.125,0.976,0.347l9.233,9.356c0.453,0.461,0.448,1.201-0.014,1.653 C165.399,9.265,165.102,9.376,164.805,9.376z"></path> <path fill="#116FFF" d="M20.687,18.732c-1.704,0-3.264-0.706-4.395-1.987c-0.427-0.487-0.379-1.225,0.105-1.651 c0.486-0.425,1.224-0.381,1.654,0.105c0.678,0.77,1.614,1.194,2.635,1.194c1.938,0,3.515-1.574,3.515-3.508 c0-0.646,0.524-1.169,1.171-1.169c0.648,0,1.172,0.523,1.172,1.169C26.545,16.108,23.917,18.732,20.687,18.732z"></path> <path fill="#116FFF" d="M30.061,18.732c-0.457,0-0.839-0.042-1.203-0.126c-2.687-0.558-4.656-2.967-4.656-5.722 c0-0.646,0.524-1.169,1.171-1.169c0.648,0,1.172,0.523,1.172,1.169c0,1.651,1.186,3.1,2.817,3.44 c0.214,0.048,0.421,0.068,0.698,0.068c1.938,0,3.515-1.574,3.515-3.508c0-0.646,0.524-1.169,1.172-1.169 c0.647,0,1.171,0.523,1.171,1.169C35.919,16.108,33.291,18.732,30.061,18.732z"></path> <path fill="#116FFF" d="M39.434,18.732c-3.23,0-5.858-2.625-5.858-5.848c0-0.646,0.524-1.169,1.172-1.169 c0.647,0,1.171,0.523,1.171,1.169c0,1.935,1.577,3.508,3.515,3.508c1.938,0,3.515-1.574,3.515-3.508 c0-0.646,0.524-1.169,1.172-1.169c0.647,0,1.171,0.523,1.171,1.169C45.292,16.108,42.664,18.732,39.434,18.732z"></path> <path fill="#116FFF" d="M48.808,18.732c-3.23,0-5.858-2.625-5.858-5.848c0-0.646,0.524-1.169,1.172-1.169 c0.647,0,1.171,0.523,1.171,1.169c0,1.935,1.577,3.508,3.515,3.508c1.938,0,3.515-1.574,3.515-3.508 c0-0.646,0.524-1.169,1.172-1.169c0.647,0,1.172,0.523,1.172,1.169C54.666,16.108,52.038,18.732,48.808,18.732z"></path> <path fill="#116FFF" d="M58.181,18.732c-3.23,0-5.858-2.625-5.858-5.848c0-0.646,0.524-1.169,1.172-1.169 c0.647,0,1.172,0.523,1.172,1.169c0,1.935,1.577,3.508,3.515,3.508c1.938,0,3.515-1.574,3.515-3.508 c0-0.646,0.524-1.169,1.172-1.169s1.172,0.523,1.172,1.169C64.04,16.108,61.411,18.732,58.181,18.732z"></path> <path fill="#116FFF" d="M67.555,18.732c-3.23,0-5.858-2.625-5.858-5.848c0-0.646,0.524-1.169,1.171-1.169 c0.648,0,1.172,0.523,1.172,1.169c0,1.935,1.577,3.508,3.515,3.508c1.938,0,3.515-1.574,3.515-3.508 c0-0.646,0.524-1.169,1.172-1.169c0.647,0,1.171,0.523,1.171,1.169C73.413,16.108,70.785,18.732,67.555,18.732z"></path> <path fill="#116FFF" d="M76.928,18.732c-3.23,0-5.858-2.625-5.858-5.848c0-0.646,0.524-1.169,1.172-1.169 c0.647,0,1.171,0.523,1.171,1.169c0,1.935,1.577,3.508,3.515,3.508c1.938,0,3.515-1.574,3.515-3.508 c0-0.646,0.524-1.169,1.172-1.169s1.172,0.523,1.172,1.169C82.786,16.108,80.158,18.732,76.928,18.732z"></path> <path fill="#116FFF" d="M86.301,18.732c-3.23,0-5.858-2.625-5.858-5.848c0-0.646,0.524-1.169,1.172-1.169 s1.172,0.523,1.172,1.169c0,1.935,1.577,3.508,3.515,3.508c1.938,0,3.515-1.574,3.515-3.508c0-0.646,0.524-1.169,1.171-1.169 c0.648,0,1.172,0.523,1.172,1.169C92.16,16.108,89.532,18.732,86.301,18.732z"></path> <path fill="#116FFF" d="M95.676,18.732c-3.23,0-5.859-2.625-5.859-5.848c0-0.646,0.524-1.169,1.171-1.169 c0.648,0,1.172,0.523,1.172,1.169c0,1.935,1.576,3.508,3.515,3.508s3.515-1.574,3.515-3.508c0-0.646,0.524-1.169,1.172-1.169 c0.648,0,1.172,0.523,1.172,1.169C101.533,16.108,98.906,18.732,95.676,18.732z"></path> <path fill="#116FFF" d="M105.049,18.732c-3.231,0-5.858-2.625-5.858-5.848c0-0.646,0.523-1.169,1.171-1.169 c0.648,0,1.172,0.523,1.172,1.169c0,1.935,1.577,3.508,3.516,3.508c1.938,0,3.515-1.574,3.515-3.508 c0-0.646,0.524-1.169,1.172-1.169s1.171,0.523,1.171,1.169C110.906,16.108,108.279,18.732,105.049,18.732z"></path> <path fill="#116FFF" d="M114.422,18.732c-3.23,0-5.858-2.625-5.858-5.848c0-0.646,0.524-1.169,1.172-1.169 s1.171,0.523,1.171,1.169c0,1.935,1.578,3.508,3.516,3.508c1.938,0,3.516-1.574,3.516-3.508c0-0.646,0.523-1.169,1.171-1.169 s1.172,0.523,1.172,1.169C120.28,16.108,117.653,18.732,114.422,18.732z"></path> <path fill="#116FFF" d="M123.795,18.732c-3.23,0-5.857-2.625-5.857-5.848c0-0.646,0.523-1.169,1.171-1.169 s1.172,0.523,1.172,1.169c0,1.935,1.577,3.508,3.515,3.508c1.939,0,3.516-1.574,3.516-3.508c0-0.646,0.523-1.169,1.172-1.169 c0.647,0,1.172,0.523,1.172,1.169C129.654,16.108,127.027,18.732,123.795,18.732z"></path> <path fill="#116FFF" d="M133.169,18.732c-3.231,0-5.858-2.625-5.858-5.848c0-0.646,0.524-1.169,1.172-1.169 c0.648,0,1.172,0.523,1.172,1.169c0,1.935,1.576,3.508,3.515,3.508s3.515-1.574,3.515-3.508c0-0.646,0.524-1.169,1.172-1.169 c0.648,0,1.172,0.523,1.172,1.169C139.027,16.108,136.4,18.732,133.169,18.732z"></path> <path fill="#116FFF" d="M142.543,18.732c-3.231,0-5.859-2.625-5.859-5.848c0-0.646,0.524-1.169,1.172-1.169 c0.648,0,1.172,0.523,1.172,1.169c0,1.935,1.577,3.508,3.516,3.508c1.938,0,3.515-1.574,3.515-3.508 c0-0.646,0.524-1.169,1.171-1.169c0.648,0,1.172,0.523,1.172,1.169C148.4,16.108,145.773,18.732,142.543,18.732z"></path> <path fill="#116FFF" d="M151.916,18.732c-0.455,0-0.838-0.039-1.201-0.124c-2.689-0.562-4.657-2.972-4.657-5.724 c0-0.646,0.524-1.169,1.171-1.169c0.648,0,1.172,0.523,1.172,1.169c0,1.651,1.186,3.1,2.817,3.44 c0.216,0.048,0.421,0.068,0.698,0.068c1.938,0,3.516-1.574,3.516-3.508c0-0.646,0.523-1.169,1.171-1.169s1.172,0.523,1.172,1.169 C157.774,16.108,155.147,18.732,151.916,18.732z"></path> <path fill="#116FFF" d="M161.289,18.732c-3.23,0-5.857-2.625-5.857-5.848c0-0.646,0.523-1.169,1.171-1.169 s1.172,0.523,1.172,1.169c0,1.935,1.577,3.508,3.515,3.508c1.021,0,1.989-0.436,2.66-1.194c0.426-0.487,1.166-0.53,1.652-0.105 c0.486,0.427,0.533,1.165,0.104,1.651C164.592,18.008,162.982,18.732,161.289,18.732z"></path> <path fill="#116FFF" d="M17.172,17.14c-0.648,0-1.172-0.523-1.172-1.169V8.207c0-0.646,0.524-1.169,1.172-1.169 c0.647,0,1.171,0.523,1.171,1.169v7.764C18.343,16.617,17.82,17.14,17.172,17.14z"></path> <path fill="#116FFF" d="M160.258,9.376H22c-0.647,0-1.172-0.523-1.172-1.169s0.524-1.17,1.172-1.17h138.258 c0.646,0,1.171,0.523,1.171,1.17S160.904,9.376,160.258,9.376z"></path> <path fill="#116FFF" d="M164.805,17.14c-0.648,0-1.172-0.523-1.172-1.169V8.207c0-0.646,0.523-1.169,1.172-1.169 c0.647,0,1.172,0.523,1.172,1.169v7.764C165.977,16.617,165.452,17.14,164.805,17.14z"></path> <path fill="#116FFF" d="M36.526,7.038c-0.245,0-0.491-0.078-0.702-0.235c-0.518-0.386-0.623-1.119-0.234-1.636l3.515-4.677 c0.388-0.519,1.123-0.619,1.64-0.236c0.519,0.388,0.624,1.122,0.235,1.638l-3.515,4.678C37.235,6.875,36.884,7.038,36.526,7.038z "></path> <path fill="#116FFF" d="M45.596,7.038c-0.214,0-0.429-0.06-0.624-0.181c-0.547-0.345-0.712-1.066-0.366-1.613l2.953-4.677 c0.344-0.546,1.068-0.708,1.616-0.366c0.547,0.343,0.712,1.064,0.366,1.613l-2.953,4.678C46.366,6.843,45.985,7.038,45.596,7.038 z"></path> <path fill="#116FFF" d="M54.665,7.038c-0.177,0-0.356-0.042-0.525-0.126c-0.578-0.29-0.812-0.991-0.521-1.569l2.343-4.655 c0.29-0.578,0.992-0.809,1.573-0.521c0.578,0.29,0.812,0.994,0.521,1.571l-2.343,4.655C55.507,6.802,55.094,7.038,54.665,7.038z"></path> <path fill="#116FFF" d="M63.758,7.038c-0.137,0-0.275-0.025-0.412-0.076c-0.605-0.226-0.912-0.899-0.686-1.505l1.757-4.678 c0.227-0.607,0.902-0.907,1.509-0.686c0.605,0.229,0.912,0.902,0.686,1.508l-1.758,4.678C64.679,6.748,64.231,7.038,63.758,7.038 z"></path> <path fill="#116FFF" d="M72.828,7.038c-0.094,0-0.189-0.011-0.285-0.037c-0.628-0.155-1.01-0.791-0.853-1.416l1.172-4.678 c0.156-0.628,0.792-1.01,1.42-0.852c0.628,0.158,1.01,0.792,0.853,1.418l-1.172,4.678C73.831,6.684,73.354,7.038,72.828,7.038z"></path> <path fill="#116FFF" d="M81.92,7.038c-0.048,0-0.097-0.005-0.146-0.009c-0.642-0.08-1.098-0.665-1.017-1.307l0.586-4.678 c0.081-0.64,0.655-1.092,1.308-1.014c0.642,0.08,1.097,0.665,1.017,1.304l-0.586,4.678C83.007,6.604,82.503,7.038,81.92,7.038z"></path> <path fill="#116FFF" d="M90.988,7.038c-0.647,0-1.171-0.523-1.171-1.169V1.19c0-0.646,0.524-1.17,1.171-1.17 c0.648,0,1.172,0.523,1.172,1.17v4.678C92.16,6.515,91.637,7.038,90.988,7.038z"></path> <path fill="#116FFF" d="M27.436,7.038c-0.275,0-0.551-0.096-0.774-0.292c-0.485-0.427-0.532-1.165-0.105-1.651l4.125-4.678 c0.428-0.482,1.168-0.528,1.654-0.105c0.485,0.427,0.532,1.167,0.105,1.651L28.315,6.64C28.083,6.903,27.761,7.038,27.436,7.038z "></path> <path fill="#116FFF" d="M145.473,7.038c-0.355,0-0.708-0.163-0.939-0.468l-3.516-4.678c-0.387-0.517-0.281-1.249,0.236-1.638 c0.516-0.384,1.25-0.283,1.641,0.235l3.516,4.678c0.387,0.517,0.281,1.25-0.236,1.635C145.963,6.96,145.717,7.038,145.473,7.038z "></path> <path fill="#116FFF" d="M136.402,7.038c-0.389,0-0.769-0.194-0.99-0.546l-2.952-4.678c-0.346-0.548-0.181-1.27,0.366-1.612 c0.549-0.343,1.271-0.183,1.615,0.365l2.952,4.678c0.346,0.546,0.181,1.268-0.366,1.613 C136.832,6.978,136.617,7.038,136.402,7.038z"></path> <path fill="#116FFF" d="M127.311,7.038c-0.428,0-0.842-0.238-1.049-0.646l-2.343-4.678c-0.288-0.578-0.055-1.282,0.524-1.569 c0.578-0.288,1.281-0.057,1.572,0.523l2.343,4.677c0.288,0.578,0.056,1.279-0.524,1.569 C127.666,6.997,127.486,7.038,127.311,7.038z"></path> <path fill="#116FFF" d="M118.241,7.038c-0.474,0-0.92-0.29-1.096-0.758l-1.758-4.678c-0.229-0.605,0.077-1.279,0.685-1.508 c0.6-0.222,1.281,0.08,1.508,0.686l1.758,4.678c0.229,0.605-0.078,1.279-0.685,1.505C118.519,7.012,118.379,7.038,118.241,7.038z "></path> <path fill="#116FFF" d="M109.149,7.038c-0.526,0-1.005-0.354-1.138-0.886l-1.172-4.678c-0.154-0.625,0.225-1.261,0.854-1.418 c0.616-0.162,1.264,0.224,1.422,0.852l1.172,4.678c0.155,0.625-0.225,1.261-0.854,1.416 C109.34,7.026,109.243,7.038,109.149,7.038z"></path> <path fill="#116FFF" d="M100.078,7.038c-0.581,0-1.087-0.434-1.16-1.026l-0.586-4.678c-0.08-0.64,0.375-1.224,1.016-1.304 c0.627-0.082,1.229,0.373,1.31,1.014l0.585,4.678c0.08,0.642-0.375,1.227-1.016,1.307C100.176,7.033,100.129,7.038,100.078,7.038 z"></path> <path fill="#116FFF" d="M154.563,7.038c-0.324,0-0.647-0.135-0.878-0.397l-4.125-4.678c-0.428-0.484-0.381-1.224,0.105-1.651 c0.485-0.427,1.227-0.377,1.652,0.107l4.124,4.678c0.429,0.484,0.382,1.222-0.104,1.649 C155.115,6.941,154.838,7.038,154.563,7.038z"></path> <path fill="#116FFF" d="M26.545-2.272c-0.647,0-1.172-0.523-1.172-1.169v-2.339c0-0.646,0.524-1.169,1.172-1.169 s1.172,0.523,1.172,1.169v2.339C27.717-2.795,27.193-2.272,26.545-2.272z"></path> <path fill="#116FFF" d="M155.432-2.272c-0.648,0-1.172-0.523-1.172-1.169v-2.339c0-0.646,0.523-1.169,1.172-1.169 c0.647,0,1.171,0.523,1.171,1.169v2.339C156.603-2.795,156.079-2.272,155.432-2.272z"></path> </g> </g> </g> </svg> 