<svg width="37" height="37" viewBox="0 0 37 37" fill="none" xmlns="http://www.w3.org/2000/svg">
<g clip-path="url(#clip0_55_74)">
<path d="M33.0996 32.1114L28.658 27.6698C28.5185 27.5308 28.3364 27.4425 28.1408 27.419C27.9452 27.3956 27.7474 27.4383 27.5789 27.5403C25.9316 28.5341 24.0444 29.0593 22.1206 29.0593C20.1968 29.0593 18.3096 28.5341 16.6623 27.5403C16.4935 27.4393 16.2959 27.3972 16.1006 27.4207C15.9053 27.4441 15.7233 27.5317 15.5832 27.6698L11.1416 32.1114C11.0024 32.2469 10.9115 32.4243 10.8829 32.6165C10.8542 32.8086 10.8893 33.0048 10.9828 33.1751C11.0459 33.2884 11.1333 33.3863 11.2387 33.4619C14.4003 35.7604 18.2087 36.9985 22.1175 36.9985C26.0263 36.9985 29.8347 35.7604 32.9963 33.4619C33.1012 33.3863 33.1885 33.2888 33.2521 33.1762C33.3157 33.0637 33.3541 32.9386 33.3647 32.8097C33.3739 32.6811 33.355 32.5519 33.3092 32.4313C33.2634 32.3107 33.1918 32.2015 33.0996 32.1114ZM33.1027 4.8732L28.6627 9.3132C28.5234 9.45331 28.3409 9.54233 28.1448 9.56583C27.9487 9.58933 27.7504 9.54595 27.5819 9.4427C25.2837 8.05757 22.5447 7.59829 19.9203 8.15798C17.296 8.71766 14.9827 10.2544 13.4495 12.4567C12.2858 14.1326 11.6315 16.1092 11.5656 18.1485C11.4979 20.1877 12.0215 22.203 13.0733 23.9513C13.1749 24.1196 13.2175 24.3169 13.1943 24.5121C13.1711 24.7073 13.0835 24.8892 12.9454 25.0289L8.50382 29.4689C8.41492 29.5599 8.30725 29.6303 8.18833 29.6753C8.06941 29.7203 7.9421 29.7389 7.81527 29.7296C7.68845 29.7204 7.56518 29.6836 7.45404 29.6218C7.34291 29.56 7.2466 29.4747 7.17182 29.3718C4.38987 25.5489 3.17815 20.8055 3.78576 16.1167C4.39336 11.4279 6.77412 7.15004 10.4386 4.16249C13.6026 1.58029 17.5326 0.118568 21.6149 0.00561096C25.6973 -0.107346 29.7021 1.13482 33.004 3.53812C33.107 3.61293 33.1924 3.70938 33.2542 3.82071C33.316 3.93203 33.3527 4.05553 33.3617 4.18253C33.3711 4.30955 33.3529 4.4371 33.3081 4.55636C33.2634 4.67561 33.1933 4.78372 33.1027 4.8732ZM22.1291 23.7756C22.8229 23.7756 23.5099 23.6389 24.1509 23.3734C24.7919 23.1079 25.3743 22.7187 25.8649 22.2281C26.3555 21.7375 26.7447 21.1551 27.0102 20.5141C27.2757 19.8731 27.4124 19.1861 27.4124 18.4923C27.4124 17.7985 27.2757 17.1115 27.0102 16.4705C26.7447 15.8295 26.3555 15.247 25.8649 14.7564C25.3743 14.2658 24.7919 13.8767 24.1509 13.6112C23.5099 13.3456 22.8229 13.209 22.1291 13.209C20.7279 13.209 19.384 13.7656 18.3932 14.7564C17.4024 15.7472 16.8458 17.0911 16.8458 18.4923C16.8458 19.8935 17.4024 21.2373 18.3932 22.2281C19.384 23.2189 20.7279 23.7756 22.1291 23.7756Z" fill="#6C47FF"/>
</g>
<defs>
<clipPath id="clip0_55_74">
<rect width="37" height="37" fill="white"/>
</clipPath>
</defs>
</svg>
