<svg width="412" height="412" viewBox="0 0 412 412" fill="none" xmlns="http://www.w3.org/2000/svg">
<path d="M230.537 389.855C299.531 389.855 355.461 384.493 355.461 377.878C355.461 371.264 299.531 365.901 230.537 365.901C161.544 365.901 105.613 371.264 105.613 377.878C105.613 384.493 161.544 389.855 230.537 389.855Z" fill="#BAC8E5"/>
<path opacity="0.25" d="M174.837 315.246C248.904 315.246 308.947 255.203 308.947 181.136C308.947 107.069 248.904 47.0256 174.837 47.0256C100.77 47.0256 40.7266 107.069 40.7266 181.136C40.7266 255.203 100.77 315.246 174.837 315.246Z" fill="url(#paint0_radial_171_456)"/>
<path d="M268.652 52.4339L280.99 57.047L281.321 74.2548L321.589 45.7266L268.652 52.4339Z" fill="#E36C00"/>
<path d="M289.586 62.0885L308.556 71.2266L321.59 45.7266L289.586 62.0885Z" fill="#FAB60C"/>
<path d="M280.99 57.047L281.301 73.1342L281.321 74.2548L289.585 62.0885L321.589 45.7266L280.99 57.047Z" fill="#FF8D00"/>
<path d="M189.734 113.896C190.332 115.664 190.761 116.7 190.781 116.743L191.815 116.312C191.811 116.302 191.381 115.264 190.796 113.536L189.734 113.896ZM192.552 76.4686L193.334 77.272C194.013 76.6101 194.763 75.9921 195.561 75.4345L194.921 74.5171C194.074 75.1076 193.277 75.7655 192.552 76.4686ZM203.301 70.9574L203.55 72.0492C204.47 71.8391 205.44 71.6647 206.435 71.5301L206.284 70.4205C205.257 70.5605 204.254 70.7404 203.301 70.9574ZM197.558 72.9597L198.054 73.9623C198.897 73.5448 199.801 73.1699 200.739 72.8458L200.372 71.7869C199.391 72.1275 198.442 72.5217 197.558 72.9597ZM189.122 107.842L188.037 108.116C188.298 109.155 188.565 110.13 188.828 111.022L189.902 110.707C189.644 109.827 189.38 108.867 189.122 107.842ZM187.935 102.039L186.83 102.212C186.988 103.229 187.17 104.221 187.367 105.178L188.462 104.952C188.27 104.014 188.092 103.038 187.935 102.039ZM209.362 71.2458C210.307 71.1881 211.289 71.1593 212.309 71.1607V70.04C211.265 70.04 210.26 70.0689 209.295 70.1279L209.362 71.2458ZM187.526 90.2816L186.412 90.1552C186.302 91.1276 186.231 92.1452 186.199 93.1807L187.318 93.2137C187.347 92.2098 187.417 91.2237 187.526 90.2816ZM191.44 79.4501L190.538 78.7868C189.944 79.5957 189.402 80.4746 188.925 81.3989L189.921 81.9111C190.371 81.0391 190.882 80.2109 191.44 79.4501ZM187.34 96.1636L186.22 96.2089C186.258 97.1744 186.332 98.1865 186.44 99.222L187.553 99.1066C187.449 98.0945 187.376 97.1043 187.34 96.1636ZM188.784 84.5795L187.726 84.2142C187.402 85.1508 187.126 86.1382 186.905 87.1518L187.998 87.3907C188.21 86.4198 188.473 85.4749 188.784 84.5795ZM256.035 79.8401C257.091 79.9747 258.089 80.0736 259.033 80.1423L259.112 79.0258C258.189 78.9585 257.212 78.861 256.176 78.7291L256.035 79.8401ZM262.057 79.1439L262.05 80.2631C263.099 80.2686 264.118 80.2302 265.081 80.1505L264.989 79.0354C264.059 79.1137 263.072 79.1494 262.057 79.1439ZM267.87 78.6261L268.098 79.722C269.172 79.4996 270.166 79.2043 271.049 78.8472L270.629 77.809C269.806 78.1427 268.879 78.4174 267.87 78.6261ZM250.107 78.8239C251.087 79.0311 252.071 79.2202 253.059 79.3911L253.248 78.2869C252.32 78.1262 251.349 77.9408 250.338 77.728L250.107 78.8239ZM215.262 71.2431C216.215 71.2939 217.198 71.3681 218.212 71.4683L218.32 70.3532C217.287 70.2529 216.289 70.1774 215.319 70.1252L215.262 71.2431ZM273.952 75.4977C273.951 75.5018 273.718 75.8987 273.071 76.4233L273.777 77.2926C274.551 76.6623 274.867 76.1541 274.922 76.058L273.952 75.4977ZM227.004 72.8128C227.95 73.0037 228.917 73.2124 229.907 73.439L230.157 72.3486C229.158 72.1193 228.181 71.9091 227.225 71.7169L227.004 72.8128ZM221.152 71.8158C222.104 71.9449 223.086 72.0959 224.084 72.269L224.274 71.1648C223.259 70.9918 222.266 70.8379 221.304 70.7061L221.152 71.8158ZM232.796 74.1367C233.737 74.3743 234.694 74.6283 235.671 74.8975L235.969 73.8181C234.984 73.5462 234.019 73.2921 233.072 73.0518L232.796 74.1367ZM238.851 74.6421L238.534 75.7147C239.127 75.8904 239.726 76.0717 240.332 76.2571L241.392 76.5785L241.709 75.5059L240.66 75.1887C240.052 75.0019 239.447 74.8192 238.851 74.6421ZM244.275 77.4052C245.275 77.6785 246.241 77.9285 247.179 78.1578L247.446 77.0715C246.516 76.8435 245.557 76.5963 244.569 76.3258L244.275 77.4052Z" fill="#575E84"/>
<path opacity="0.2" d="M173.921 384.375C198.394 384.375 218.233 381.285 218.233 377.473C218.233 373.661 198.394 370.571 173.921 370.571C149.449 370.571 129.609 373.661 129.609 377.473C129.609 381.285 149.449 384.375 173.921 384.375Z" fill="#3E4268"/>
<path d="M240.967 106.73C240.967 106.73 269.551 91.1509 276.238 103.709C282.925 116.266 366.827 281.38 371.075 302.565C375.323 323.75 310.083 353.698 310.083 353.698C310.083 353.698 266.026 391.591 252.232 346.491C238.44 301.39 269.098 131.782 240.967 106.73Z" fill="#BAC8E5"/>
<path opacity="0.05" d="M358.187 270.427C349.02 260.795 339.765 251.185 333.853 239.11C331.94 235.203 330.381 231.126 329.105 226.971C327.956 223.224 326.522 219.644 324.242 216.429C319.599 209.878 312.464 205.648 306.492 200.463C291.778 187.689 278.56 173.231 266.392 158.036C261.359 151.752 256.509 145.321 251.821 138.774C258.252 197.04 241.313 310.783 252.234 346.491C266.028 391.591 310.084 353.698 310.084 353.698C310.084 353.698 375.325 323.75 371.077 302.565C370.131 297.864 365.261 286.064 358.187 270.427Z" fill="#3E4268"/>
<path d="M302.569 303.861L319.96 328.488C319.96 328.488 289.493 364.286 274.526 342.108C263.232 325.374 302.569 303.861 302.569 303.861Z" fill="#BAC8E5"/>
<path opacity="0.2" d="M305.044 337.751C302.33 337.49 299.588 336.744 297.487 334.926C295.679 333.36 294.627 331.135 294.191 328.814C293.204 323.564 294.627 317.938 296.704 313.121C297.774 310.64 299.115 308.267 300.783 306.134C301.361 305.395 302.001 304.686 302.685 304.026L302.566 303.86C302.566 303.86 263.229 325.373 274.522 342.107C284.2 356.447 300.357 346.547 310.569 337.759C308.727 337.883 306.879 337.928 305.044 337.751Z" fill="#3E4268"/>
<path d="M243.662 96.3928C261.625 97.5931 353.019 296.959 353.019 296.959C353.019 296.959 252.038 283.435 255.096 336.66C258.155 389.885 310.082 353.698 310.082 353.698C310.082 353.698 283.409 387.336 257.61 365.811C257.61 365.811 154.062 194.736 150.907 167.799C147.752 140.863 175.4 91.8306 243.662 96.3928Z" fill="#E1E6F4"/>
<path d="M368.5 303.093C365.077 298.269 358.899 296.77 353.511 295.514C332.145 290.943 308.876 295.322 290.974 308.003C282.184 314.412 273.509 322.897 271.357 334.025C268.833 347.646 284.622 353.747 295.513 349.362C305.883 345.466 313.922 337.58 320.572 329.026L320.834 328.68C320.834 328.68 320.583 328.337 320.583 328.338C316.299 322.468 307.816 310.94 303.169 304.675C309.047 301.868 315.291 299.804 321.609 298.504C331.895 296.43 342.588 296.482 352.91 298.483C359.18 299.702 369.961 302.68 366.506 311.067C359.761 326.314 325.188 345.301 310.081 353.699C319.811 349.203 329.268 344.119 338.495 338.621C347.415 333.007 376.329 315.714 368.5 303.093ZM319.371 328.63C312.652 336.361 304.567 343.865 294.789 347.198C289.983 348.787 284.644 348.752 280.189 346.278C269.313 340.94 275.187 328.121 281.301 321.144C287.253 314.138 294.822 308.666 303.13 304.692C307.396 311.028 315.201 322.533 319.371 328.63Z" fill="#F1F2FF"/>
<path d="M242.182 126.727C236.813 130.177 231.427 133.588 226.027 136.958C225.208 135.632 224.388 134.308 223.566 132.987C225.512 128.687 227.433 124.364 229.328 120.014C226.029 122.153 222.726 124.274 219.415 126.382C218.585 125.071 217.751 123.761 216.915 122.455C222.268 119.021 227.606 115.547 232.928 112.035C233.776 113.359 234.624 114.684 235.467 116.014C233.578 120.391 231.657 124.754 229.706 129.104C233.037 126.987 236.362 124.852 239.682 122.705C240.518 124.041 241.352 125.383 242.182 126.727ZM247.368 142.459C246.139 140.4 244.906 138.347 243.664 136.301C242.573 136.989 241.479 137.675 240.385 138.361C241.478 140.165 242.567 141.975 243.651 143.789C242.63 144.421 241.611 145.053 240.589 145.682C239.509 143.872 238.422 142.066 237.332 140.265C236.145 141.005 234.957 141.743 233.768 142.479C234.997 144.509 236.219 146.546 237.438 148.589C236.376 149.239 235.314 149.887 234.251 150.532C232.24 147.155 230.21 143.79 228.161 140.436C233.572 137.079 238.969 133.684 244.351 130.248C246.433 133.646 248.495 137.055 250.539 140.476C249.483 141.14 248.427 141.801 247.368 142.459ZM251.954 142.851C252.822 144.315 253.686 145.78 254.548 147.247C251.074 150.501 247.579 153.732 244.064 156.942C248.621 155.54 253.176 154.126 257.729 152.702C258.606 154.218 259.481 155.737 260.353 157.26C256.938 160.644 253.5 164.006 250.041 167.345C254.505 165.8 258.969 164.241 263.428 162.67C264.274 164.168 265.117 165.671 265.958 167.176C259.627 168.96 253.291 170.725 246.953 172.471C246.018 170.809 245.077 169.148 244.133 167.49C247.244 164.457 250.337 161.404 253.411 158.333C249.274 159.573 245.138 160.806 240.999 162.03C240.046 160.382 239.09 158.739 238.13 157.1C242.769 152.406 247.376 147.655 251.954 142.851ZM254.151 185.878C252.147 182.191 252.336 178.311 255.618 176.236C256.436 177.715 257.252 179.197 258.065 180.681C256.855 181.541 256.693 182.725 257.333 183.9C257.999 185.124 259.017 185.57 259.989 185.015C263.079 183.234 256.718 175.603 262.6 172.212C265.728 170.363 268.96 172.002 270.947 175.641C273.014 179.427 272.589 183.043 269.505 185.043C268.686 183.515 267.862 181.99 267.034 180.467C268.059 179.775 268.268 178.612 267.672 177.463C267.141 176.438 266.228 175.965 265.189 176.572C262.317 178.242 268.262 186.058 262.669 189.244C259.864 190.837 256.326 189.883 254.151 185.878ZM278.359 190.047C273.843 192.633 269.318 195.193 264.785 197.727C265.757 199.578 266.724 201.435 267.687 203.295C266.633 203.877 265.581 204.458 264.528 205.037C262.839 201.769 261.132 198.509 259.407 195.259C264.983 192.136 270.546 188.973 276.097 185.769C276.854 187.194 277.608 188.619 278.359 190.047ZM284.947 211.087C283.849 208.894 282.745 206.706 281.634 204.525C280.501 205.155 279.367 205.784 278.232 206.412C279.212 208.336 280.185 210.264 281.154 212.198C280.096 212.776 279.039 213.354 277.98 213.93C277.014 212 276.043 210.076 275.067 208.157C273.835 208.835 272.605 209.51 271.371 210.183C272.471 212.348 273.565 214.519 274.652 216.696C273.552 217.289 272.452 217.881 271.351 218.471C269.552 214.866 267.735 211.276 265.901 207.704C271.513 204.634 277.11 201.523 282.697 198.371C284.561 201.987 286.408 205.621 288.236 209.271C287.14 209.88 286.043 210.484 284.947 211.087ZM289.486 211.776C291.785 216.396 294.056 221.043 296.299 225.717C295.195 226.31 294.09 226.902 292.983 227.491C292.217 225.894 291.449 224.301 290.676 222.711C286.132 225.158 281.576 227.581 277.006 229.98C276.306 228.532 275.602 227.087 274.895 225.643C279.451 223.231 283.999 220.794 288.539 218.33C287.761 216.745 286.978 215.163 286.194 213.584C287.29 212.982 288.388 212.381 289.486 211.776ZM297.205 227.607C299.44 232.288 301.646 236.996 303.823 241.73C302.709 242.311 301.597 242.889 300.483 243.467C299.74 241.849 298.993 240.234 298.243 238.624C293.661 241.021 289.069 243.392 284.47 245.736C283.79 244.269 283.106 242.805 282.421 241.344C287.011 238.985 291.592 236.599 296.165 234.188C295.409 232.581 294.649 230.978 293.886 229.378C294.993 228.788 296.098 228.199 297.205 227.607ZM306.883 257.662C305.875 255.385 304.861 253.114 303.841 250.848C302.683 251.439 301.524 252.031 300.365 252.621C301.266 254.62 302.16 256.623 303.047 258.629C301.966 259.171 300.886 259.714 299.805 260.254C298.92 258.253 298.029 256.254 297.132 254.259C295.874 254.895 294.616 255.528 293.357 256.16C294.366 258.408 295.37 260.663 296.367 262.923C295.244 263.479 294.119 264.034 292.996 264.588C291.35 260.85 289.682 257.123 287.993 253.405C293.725 250.523 299.446 247.601 305.157 244.639C306.871 248.396 308.567 252.169 310.245 255.959C309.124 256.528 308.004 257.096 306.883 257.662ZM315.141 267.196C317.11 271.785 315.627 275.301 312.608 276.766C310.429 277.827 307.84 277.538 305.831 275.057C304.147 277.603 302.457 280.138 300.757 282.661C300.044 280.958 299.326 279.256 298.606 277.56C300.247 275.226 301.881 272.881 303.509 270.527C303.354 270.166 303.197 269.805 303.042 269.445C300.862 270.515 298.681 271.579 296.499 272.637C295.854 271.139 295.206 269.643 294.555 268.149C300.324 265.328 306.082 262.466 311.831 259.563C312.944 262.101 314.046 264.644 315.141 267.196ZM311.526 268.667C311.122 267.727 310.719 266.788 310.314 265.851C308.885 266.563 307.456 267.27 306.026 267.976C306.43 268.911 306.832 269.846 307.233 270.783C307.961 272.48 309.113 272.879 310.471 272.213C311.757 271.584 312.257 270.369 311.526 268.667ZM195.521 131.99C197.169 132.354 228.673 186.974 228.673 186.974C228.673 186.974 206.174 199.008 199.216 210.752C199.216 210.752 167.991 164.102 168.016 159.827C168.04 155.551 181.274 128.845 195.521 131.99ZM236.204 200.685C236.204 200.685 208.964 217.245 209.941 223.842C210.917 230.441 222.352 256.198 224.832 257.173C227.312 258.148 252.653 237.514 254.445 235.189C256.239 232.865 236.204 200.685 236.204 200.685ZM259.934 247.881L276.937 284.746L270.322 287.875C270.322 287.875 253.467 257.07 253.903 254.631C254.337 252.192 259.934 247.881 259.934 247.881ZM246.798 256.19L255.73 275.535L249.101 277.791C249.101 277.791 243.071 260.256 243.203 259.5C243.333 258.743 246.798 256.19 246.798 256.19ZM229.537 266.762C229.537 266.762 245.406 305.269 248.505 304.199C251.605 303.129 253.113 297.807 253.113 297.807C253.113 297.807 239.027 266.039 235.32 264.368C231.613 262.695 229.537 266.762 229.537 266.762Z" fill="#BAC8E5"/>
<path d="M162.751 365.602C162.751 365.602 162.605 359.824 163.293 355.03C163.518 353.46 169.746 354.291 169.815 355.318C170.081 359.32 169.218 365.647 167.928 367.056C166.637 368.467 163.521 368.272 162.751 365.602Z" fill="#EFD9D3"/>
<path d="M148.502 372.594L147.593 372.764C147.593 372.764 147.264 374.056 147.668 374.648C148.072 375.24 151.865 376.686 159.256 376.487C166.646 376.289 170.037 374.875 169.878 373.357C169.718 371.84 151.677 376.156 148.502 372.594Z" fill="#575E84"/>
<path d="M169.878 373.359C160.095 377.042 145.408 374.163 147.83 372.359C148.363 371.962 149.293 371.624 150.42 371.301C154.429 370.164 160.956 369.266 161.131 366.935C161.355 363.95 162.721 363.52 163.036 363.631C163.115 363.661 163.334 363.762 163.634 363.88C164.515 364.225 166.113 364.711 167.097 363.935C168.419 362.895 168.613 362.777 169.195 363.465C170.898 365.484 170.851 367.185 169.878 373.359Z" fill="#3E4268"/>
<path d="M163.663 363.152C163.53 363.85 163.265 364.642 162.953 365.29C162.169 366.913 163.22 367.832 160.88 370.731C158.542 373.629 150.165 371.495 150.418 371.301C154.426 370.164 160.984 368.54 161.159 366.209C161.382 363.223 162.749 362.793 163.063 362.905C163.144 362.932 163.361 363.034 163.663 363.152Z" fill="#575E84"/>
<path d="M193.099 167.455C192.984 168.663 192.869 169.916 192.756 171.213C189.549 206.871 187.625 262.653 175.569 335.498C174.237 343.589 172.765 351.895 171.163 360.404C170.689 362.949 162.139 360.624 162.139 360.624C162.936 322.681 148.695 236.456 141.498 195.64C139.399 183.682 137.897 175.616 137.552 173.805C137.533 173.675 137.511 173.545 137.486 173.416L193.099 167.455Z" fill="#3E4268"/>
<path opacity="0.2" d="M193.099 167.455C192.984 168.663 192.869 169.916 192.756 171.213C189.549 206.871 187.625 262.653 175.569 335.498C174.439 330.793 173.308 326.09 172.189 321.374C168.883 307.537 165.623 293.689 162.374 279.828C160.756 272.958 159.126 266.079 157.521 259.21C155.938 252.419 155.143 245.463 154.606 238.511C154.082 231.648 153.803 224.769 153.234 217.909C153 215.124 152.619 212.345 152.484 209.557C152.371 207.171 152.311 204.739 151.753 202.41C151.292 200.457 150.452 198.502 148.749 197.316C147.274 196.303 145.464 195.778 143.697 195.631C142.992 195.558 142.244 195.567 141.498 195.64C141.365 195.655 141.219 195.668 141.086 195.683C139.187 183.676 137.853 175.64 137.552 173.806C137.533 173.676 137.511 173.547 137.486 173.418L193.099 167.455Z" fill="#3E4268"/>
<path d="M185.592 368.579C185.592 368.579 181.848 356.479 183.523 355.527C185.199 354.575 189.249 353.989 190.239 354.753C191.228 355.516 191.721 368.608 190.249 370.404C188.776 372.201 186.703 371.767 185.592 368.579Z" fill="#EFD9D3"/>
<path d="M172.811 375.999C172.811 375.999 172.752 377.807 174.37 378.576C178.385 380.483 191.495 378.009 192.11 376.78C192.727 375.55 192.462 374.016 192.462 374.016L172.811 375.999Z" fill="#3E4268"/>
<path d="M186.034 365.48C186.034 365.48 189.435 365.478 190.963 364.878C192.352 364.332 193.528 373.166 192.394 374.691C191.258 376.215 181.117 377.187 181.117 377.187C181.117 377.187 183.61 372.99 184.17 369.498C184.73 366.004 182.897 366.205 186.034 365.48Z" fill="#3E4268"/>
<path d="M172.811 375.999C172.811 375.999 176.79 378.807 182.697 376.99C184.562 376.416 186.191 367.445 185.263 365.667C184.334 363.888 182.699 365.721 182.699 365.721C182.699 365.721 183.593 374.329 172.811 375.999Z" fill="#575E84"/>
<path d="M183.206 376.406C183.206 376.406 180.41 373.604 177.071 373.613C173.732 373.621 172.809 376.001 172.809 376.001C172.809 376.001 175.692 379.939 183.206 376.406ZM197.295 168.814C197.288 169.428 197.28 170.042 197.273 170.679C197.258 171.428 197.253 172.209 197.251 172.991C197.241 174.419 197.231 175.87 197.234 177.355C197.237 177.902 197.238 178.459 197.241 179.018C197.245 180.078 197.248 181.139 197.263 182.232C197.284 185.837 197.341 189.606 197.415 193.545C197.924 222.729 199.183 260.72 196.645 307.801C195.763 324.295 194.405 341.905 192.395 360.648C192.123 363.222 183.067 362.571 183.067 362.571C180.963 326.529 161.146 248.643 149.941 206.909C145.731 191.208 142.739 180.623 142.361 179.315C142.337 179.214 142.324 179.171 142.324 179.171L197.295 168.814Z" fill="#575E84"/>
<path d="M182.267 202.252C174.467 198.731 164.306 189.829 162.178 192.268C160.049 194.707 160.3 196.093 160.3 196.093C160.3 196.093 179.369 206.379 181.206 205.927C183.044 205.474 182.267 202.252 182.267 202.252Z" fill="#3E4268"/>
<path opacity="0.2" d="M197.294 168.814C197.287 169.428 197.279 170.042 197.272 170.679C197.257 171.428 197.253 172.209 197.25 172.991C197.24 174.419 197.231 175.87 197.233 177.355C197.236 177.902 197.238 178.459 197.24 179.018C197.254 180.067 197.258 181.139 197.262 182.232C197.303 185.779 197.352 189.563 197.415 193.545C197.923 222.729 199.182 260.72 196.644 307.801C196.294 307.184 195.955 306.557 195.639 305.928C192.611 299.796 191.415 292.828 191.818 286.021C192.079 281.618 192.99 277.299 193.083 272.866C193.167 268.511 192.571 264.185 191.086 260.069C189.555 255.833 187.062 252.009 185.255 247.891C183.695 244.335 182.69 240.631 182.451 236.743C182.259 233.445 182.638 230.199 182.993 226.92C183.276 224.301 183.514 221.685 183.65 219.047C183.938 213.471 183.875 207.647 182.271 202.251C180.825 197.419 177.896 193.038 172.954 191.305C169.993 190.262 166.552 190.067 163.486 190.687C160.388 191.309 157.659 192.927 155.54 195.266C152.617 198.484 150.977 202.642 149.943 206.909C149.79 207.527 149.661 208.155 149.531 208.782C145.518 191.995 142.709 180.702 142.363 179.315C142.339 179.214 142.326 179.171 142.326 179.171L197.294 168.814Z" fill="#3E4268"/>
<path d="M201.798 177.28C198.083 184.356 135.737 189.609 135.266 179.474C133.98 151.73 139.584 66.5216 171.709 64.842C196.072 63.5675 215.403 151.363 201.798 177.28Z" fill="#337CCC"/>
<path d="M205.314 98.2015C205.314 98.2015 225.277 134.85 214.738 143.873C208.482 149.229 193.594 112.214 193.594 112.214L205.314 98.2015Z" fill="#EBC0B8"/>
<path d="M179.717 67.5955C179.717 67.5955 209.738 89.7762 215.4 109.825C210.71 113.241 201.77 116.386 194.762 117.219C173.93 83.8983 179.717 67.5955 179.717 67.5955Z" fill="#4A97DD"/>
<path d="M172.611 29.1436C172.611 29.1436 178.069 26.471 180.428 31.1019C182.788 35.7328 180.592 37.8368 180.592 37.8368C180.592 37.8368 182.899 38.577 181.722 43.2367C180.544 47.8978 176.055 48.0626 176.055 48.0626C176.055 48.0626 179.361 55.4662 172.238 55.7272C165.113 55.9881 154.714 38.3682 172.611 29.1436Z" fill="#3E4268"/>
<path d="M162.12 57.0332C162.12 57.0332 161.996 74.2534 165 73.8565C167.355 73.5448 174.837 65.2018 174.837 65.2018L171.768 46.6755L162.12 57.0332Z" fill="#EFD9D3"/>
<path opacity="0.1" d="M168.983 51.1319C169.304 51.8213 169.267 52.7277 169.23 53.468C169.125 55.587 168.583 57.6731 167.08 59.2414C166.305 60.049 165.417 60.737 164.653 61.5555C163.833 62.4331 163.263 63.4425 162.868 64.5727C162.82 64.7114 162.789 64.8543 162.744 64.993L162.119 57.0331L167.58 51.1704C168.06 50.8531 168.666 50.4549 168.983 51.1319Z" fill="#231F20"/>
<path d="M152.071 49.429L153.914 49.8204C153.914 49.8204 153.782 50.1609 153.615 50.7158C152.993 52.8348 151.936 58.0892 156.04 60.233C159.878 62.2353 166.124 57.8008 169.114 55.3618C170.17 54.4979 170.821 53.8827 170.821 53.8827L172.182 47.3154C172.182 47.3154 175.028 45.3309 174.141 42.6804C173.262 40.0299 171.722 41.5968 171.722 41.5968C171.722 41.5968 165.64 29.094 155.417 34.6285C155.417 34.6285 154.005 39.4627 153.884 43.6088C153.887 43.606 151.703 47.8029 152.071 49.429Z" fill="#EFD9D3"/>
<path d="M158.454 38.1882C156.864 37.9644 155.658 39.1509 155.601 39.2086C155.522 39.2873 155.479 39.3937 155.479 39.5046C155.479 39.6155 155.522 39.7219 155.601 39.8005C155.679 39.8789 155.786 39.923 155.897 39.9232C156.008 39.9235 156.115 39.8799 156.194 39.8019C156.243 39.7525 157.415 38.6167 158.802 39.1413C159.017 39.2265 159.261 39.1152 159.343 38.8982C159.363 38.8468 159.372 38.7919 159.37 38.7368C159.369 38.6817 159.356 38.6275 159.334 38.5773C159.311 38.527 159.279 38.4817 159.239 38.4439C159.199 38.4061 159.151 38.3767 159.1 38.3571C158.892 38.2758 158.675 38.2192 158.454 38.1882Z" fill="#3E4268"/>
<path d="M171.72 41.59C171.72 41.59 170.255 45.9875 168.702 46.188C167.148 46.3899 165.889 39.4422 164.704 37.7818C164.704 37.7818 153.949 39.7882 151.615 32.1031C149.278 24.4193 155.442 26.7773 155.442 26.7773C155.442 26.7773 156.171 20.3446 159.702 22.6394C164.525 25.7747 166.484 23.5651 169.325 23.8232C172.166 24.0814 174.718 27.3994 173.998 30.6872C173.998 30.6872 177.735 37.9013 171.72 41.59Z" fill="#3E4268"/>
<path d="M173.215 44.1829C173.284 44.1815 173.349 44.1376 173.374 44.0689C174.064 42.2273 172.567 41.612 172.552 41.6065C172.461 41.5708 172.361 41.6148 172.325 41.704C172.289 41.7947 172.333 41.8963 172.422 41.932C172.472 41.9526 173.612 42.4333 173.046 43.9467C173.036 43.9736 173.033 44.0025 173.036 44.031C173.04 44.0594 173.051 44.0865 173.067 44.1099C173.084 44.1332 173.106 44.1521 173.132 44.1648C173.158 44.1776 173.186 44.1838 173.215 44.1829Z" fill="#3E4268"/>
<path d="M157.162 49.1874C157.481 50.2503 158.82 50.79 160.152 50.3904C161.484 49.9908 162.307 48.8056 161.988 47.7426C161.67 46.6797 160.331 46.1413 158.999 46.5409C157.665 46.9378 156.844 48.123 157.162 49.1874Z" fill="#E5C9C3"/>
<path d="M153.592 55.1475C153.611 55.9811 154.475 56.639 155.52 56.6143C156.565 56.5895 157.398 55.8933 157.378 55.0596C157.359 54.2247 156.495 53.5682 155.45 53.5929C154.405 53.6176 153.573 54.3125 153.592 55.1475ZM155.538 42.3934C155.555 43.0485 156.031 43.5676 156.605 43.5539C157.174 43.5401 157.626 42.999 157.609 42.3426C157.606 42.2272 157.587 42.1187 157.551 42.0157C157.45 42.1173 157.31 42.186 157.156 42.1901C157.082 42.1921 157.008 42.1794 156.939 42.1528C156.87 42.1262 156.807 42.0863 156.753 42.0352C156.7 41.9842 156.657 41.9231 156.627 41.8554C156.597 41.7877 156.581 41.7148 156.579 41.6408C156.575 41.4664 156.648 41.3112 156.77 41.2041C156.696 41.1884 156.621 41.181 156.546 41.1821C155.973 41.1972 155.522 41.7383 155.538 42.3934Z" fill="#3E4268"/>
<path d="M126.934 106.417C126.934 106.417 127.041 100.917 128.55 100.674C130.059 100.43 129.651 106.351 129.651 106.351L126.934 106.417Z" fill="#EBC0B8"/>
<path d="M127.35 97.5876C128.123 105.377 128.853 112.73 129.542 119.679C129.577 120.033 129.889 120.355 130.241 120.403C141.76 121.935 154.811 122.558 169.744 122.071C170.264 122.054 170.713 121.692 170.743 121.261C171.327 112.72 171.951 103.563 172.624 93.7217C172.644 93.4361 172.528 93.1806 172.326 93.0062L172.324 93.0035C172.146 92.8483 171.906 92.7549 171.633 92.7549C154.91 92.873 140.373 94.282 127.947 96.6922C127.78 96.7238 127.635 96.8254 127.531 96.96C127.508 96.9875 127.487 97.0177 127.471 97.0465C127.466 97.0534 127.465 97.0562 127.465 97.0562C127.373 97.2171 127.332 97.4028 127.35 97.5876Z" fill="#BAC8E5"/>
<path d="M127.467 97.0562C127.467 97.0562 148.894 123.204 172.328 93.0062L172.325 93.0035C172.148 92.8483 171.908 92.7549 171.635 92.7549C154.911 92.873 140.375 94.282 127.949 96.6922C127.781 96.7238 127.637 96.8254 127.533 96.96C127.501 97.004 127.483 97.0328 127.472 97.0465C127.468 97.0534 127.467 97.0562 127.467 97.0562Z" fill="#D3DAEA"/>
<path d="M127.948 96.6923C127.754 96.7211 127.569 96.8598 127.455 97.0439L127.445 97.0576L127.454 97.0686C129.836 99.9526 132.759 102.434 136.085 104.409C144.597 109.54 155.148 109.361 164.311 101.609C167.335 99.2041 169.933 96.1704 172.345 93.0159L172.356 93.0008C172.167 92.836 171.9 92.7453 171.632 92.7536C171.893 92.7591 172.138 92.8566 172.311 93.02L172.308 92.9939C161.654 106.286 148.963 111.202 136.29 103.994C132.951 102.132 129.983 99.7589 127.477 97.0425V97.0672C127.477 97.0672 127.488 97.0494 127.482 97.0576C127.591 96.8722 127.757 96.7349 127.948 96.6923Z" fill="#9AACCC"/>
<path d="M154.277 107.488C154.277 107.488 148.554 103.06 141.535 107.598C141.537 107.598 146.599 112.605 154.277 107.488Z" fill="#BAC8E5"/>
<path d="M169.351 121.103C163.749 113.61 155.167 104.919 147.489 105.035C143.558 105.272 140.168 107.698 137.313 110.449C134.57 113.134 132.197 116.243 130.197 119.62C132.367 116.482 134.825 113.536 137.604 110.976C140.415 108.443 143.756 106.09 147.51 105.906C154.883 105.799 163.488 114.285 169.351 121.103Z" fill="#9AACCC"/>
<path d="M126.934 106.417C126.934 106.417 137.391 104.423 137.983 106.328C138.259 107.218 135.777 108.022 133.036 108.655C136.417 108.003 140.205 107.717 140.043 108.786C139.918 109.608 135.89 110.498 133.186 111.237C135.085 110.901 139.367 110.288 139.61 111.094C139.92 112.12 135.979 113.266 133.35 113.716C134.934 113.555 137.756 113.365 137.865 114.127C137.961 114.801 137.269 115.511 133.96 116.066C132.029 116.39 132.153 116.748 131.246 116.724C130.547 116.704 129.82 116.762 129.263 116.468C126.588 115.056 125.597 107.403 126.934 106.417Z" fill="#EFD9D3"/>
<path opacity="0.2" d="M137.619 114.283C137.508 113.939 136.367 113.87 136.265 113.95C136.265 113.95 136.379 114.871 136.471 115.019C136.56 115.168 137.73 114.627 137.619 114.283ZM139.498 111.188C139.387 110.843 138.245 110.774 138.142 110.854C138.142 110.854 138.258 111.776 138.348 111.924C138.44 112.072 139.609 111.533 139.498 111.188ZM139.737 108.66C139.626 108.315 138.484 108.246 138.383 108.326C138.383 108.326 138.498 109.249 138.589 109.396C138.679 109.544 139.848 109.004 139.737 108.66ZM137.604 106.266C137.493 105.921 136.352 105.852 136.25 105.932C136.25 105.932 136.364 106.855 136.456 107.002C136.547 107.15 137.717 106.61 137.604 106.266Z" fill="white"/>
<path d="M128.808 115.139C128.83 115.136 128.851 115.128 128.867 115.111C128.91 115.072 128.912 115.004 128.873 114.962C127.266 113.219 127.896 111.431 127.903 111.413C127.913 111.386 127.911 111.354 127.898 111.328C127.08 109.742 127.848 108.239 127.855 108.224C127.882 108.172 127.862 108.109 127.811 108.081C127.786 108.068 127.757 108.066 127.731 108.074C127.704 108.082 127.681 108.101 127.668 108.125C127.634 108.19 126.854 109.717 127.69 111.386C127.6 111.688 127.17 113.425 128.717 115.105C128.742 115.131 128.775 115.142 128.808 115.139ZM130.972 109.121C132.335 108.962 134.043 108.521 134.128 108.499C134.154 108.491 134.176 108.473 134.189 108.449C134.202 108.425 134.206 108.397 134.199 108.371C134.192 108.345 134.175 108.322 134.152 108.308C134.129 108.293 134.101 108.289 134.075 108.294C134.05 108.301 131.611 108.93 130.253 108.966C130.225 108.967 130.198 108.978 130.179 108.999C130.159 109.019 130.149 109.046 130.15 109.074C130.151 109.102 130.162 109.129 130.183 109.148C130.203 109.168 130.23 109.178 130.258 109.177C130.475 109.17 130.717 109.15 130.972 109.121ZM131.685 111.575C132.896 111.434 134.161 111.151 134.178 111.147C134.234 111.134 134.271 111.077 134.257 111.02C134.255 111.007 134.249 110.993 134.241 110.982C134.234 110.97 134.223 110.961 134.212 110.953C134.2 110.946 134.186 110.941 134.173 110.938C134.159 110.936 134.145 110.937 134.131 110.941C134.11 110.946 132.055 111.406 130.694 111.441C130.633 111.442 130.589 111.49 130.591 111.549C130.592 111.608 130.641 111.653 130.699 111.652C131.004 111.644 131.342 111.616 131.685 111.575ZM132.107 114.054C133.28 113.917 134.454 113.643 134.469 113.641C134.527 113.627 134.561 113.571 134.547 113.513C134.544 113.499 134.538 113.486 134.53 113.475C134.522 113.464 134.512 113.454 134.5 113.447C134.488 113.44 134.475 113.435 134.461 113.433C134.447 113.431 134.433 113.431 134.419 113.435C134.4 113.439 132.494 113.882 131.133 113.917C131.105 113.917 131.078 113.929 131.059 113.95C131.04 113.97 131.029 113.997 131.03 114.025C131.031 114.053 131.043 114.08 131.063 114.099C131.083 114.118 131.111 114.129 131.139 114.128C131.445 114.121 131.776 114.092 132.107 114.054Z" fill="#EBC0B8"/>
<path d="M211.098 129.243C201.723 119.479 175.835 110.805 175.835 110.805L171.369 116.743C171.369 116.743 194.872 145.432 207.353 145.556C222.766 145.707 215.183 133.496 211.098 129.243Z" fill="#EFD9D3"/>
<path d="M174.148 107.289C175.142 108.412 175.98 109.989 175.837 110.805C175.911 111.332 179.233 114.613 180.244 115.581L176.47 121.357L171.455 116.905C171.455 116.905 170.142 116.415 167.988 115.357C165.835 114.3 157.605 110.023 158.44 109.22C159.274 108.416 163.819 110.849 163.819 110.849C163.819 110.849 157.205 105.832 158.192 105.011C159.18 104.188 165.03 108.408 165.03 108.408C165.03 108.408 157.962 102.684 158.413 101.374C158.865 100.064 166.388 106.49 166.388 106.49C166.388 106.49 160.863 99.8922 161.789 99.0215C162.713 98.1508 168.268 104.833 169.712 105.96C170.648 106.69 171.735 106.429 171.43 105.222C171.126 104.015 172.339 101.862 173.254 102.021C174.168 102.182 173.153 106.167 174.148 107.289Z" fill="#EFD9D3"/>
<g opacity="0.5">
<path d="M173.489 104.094C173.489 104.094 172.966 104.166 172.799 103.975C172.633 103.784 173.158 102.308 173.367 102.364C173.577 102.422 173.621 104.024 173.489 104.094ZM162.997 99.6998C162.997 99.6998 162.618 100.143 162.304 100.223C161.991 100.303 161.777 99.3716 161.929 99.1903C162.085 99.009 162.694 99.1821 162.997 99.6998ZM159.674 101.79C159.673 102.008 159.459 102.403 159.146 102.482C158.833 102.562 158.421 101.588 158.574 101.406C158.727 101.224 159.676 101.467 159.674 101.79ZM159.394 105.46C159.393 105.678 159.227 105.988 158.914 106.068C158.601 106.148 158.14 105.256 158.294 105.075C158.447 104.894 159.396 105.137 159.394 105.46ZM159.592 109.44C159.591 109.657 159.569 109.993 159.256 110.073C158.942 110.152 158.412 109.39 158.566 109.209C158.719 109.028 159.595 109.117 159.592 109.44Z" fill="white"/>
</g>
<path d="M88.5176 257.47C87.6318 257.42 86.7954 257.192 86.0277 256.789C83.9101 255.709 82.6054 253.435 82.74 251.014L84.6805 216.031C84.8673 212.662 87.7636 210.075 91.1365 210.261L126.111 212.202C129.484 212.389 132.076 215.281 131.889 218.65L129.948 253.633C129.871 255.023 129.351 256.3 128.443 257.326C127.237 258.74 125.419 259.516 123.492 259.409L88.5176 257.47Z" fill="#BAC8E5"/>
<path d="M128.714 218.474L126.773 253.457C126.735 254.139 126.478 254.748 126.062 255.218C125.491 255.888 124.624 256.285 123.671 256.232L88.6962 254.292C88.2678 254.269 87.8668 254.159 87.5111 253.971C86.5113 253.461 85.8534 252.388 85.9207 251.19L87.8613 216.207C87.9505 214.586 89.3348 213.349 90.9636 213.438L125.938 215.379C127.566 215.471 128.803 216.853 128.714 218.474Z" fill="#F1F2FF"/>
<path d="M96.599 240.078L92.5793 232.128C91.9256 230.834 90.1155 230.734 89.3217 231.948L86.7701 235.852L85.9186 251.191C85.8527 252.39 86.5091 253.462 87.5089 253.972C87.8646 254.159 88.2656 254.269 88.6941 254.293L104.224 255.154L96.599 240.078ZM124.283 239.438L120.783 244.79L113.661 255.678L123.67 256.232C124.623 256.286 125.49 255.888 126.061 255.217C126.477 254.746 126.734 254.139 126.773 253.457L127.54 239.619C126.885 238.325 125.076 238.225 124.283 239.438Z" fill="#D3DAEA"/>
<path d="M120.783 244.79L110.365 224.182C109.711 222.888 107.901 222.788 107.107 224L96.5985 240.077L87.5098 253.971C87.8655 254.157 88.2665 254.267 88.695 254.292L123.67 256.232C124.623 256.286 125.489 255.888 126.061 255.218L120.783 244.79Z" fill="#BAC8E5"/>
<path d="M124.177 222.349C124.045 224.735 122.003 226.562 119.619 226.428C117.233 226.296 115.407 224.256 115.54 221.87C115.673 219.485 117.714 217.658 120.098 217.791C122.482 217.923 124.309 219.964 124.177 222.349Z" fill="#D3DAEA"/>
<path d="M183.186 292.041C183.186 292.041 167.204 297.511 175.887 319.039C175.887 319.039 195.349 308.007 183.186 292.041Z" fill="#E1E6F4"/>
<g opacity="0.52">
<path d="M176.176 318.422L178.44 311.92C179.183 309.751 179.924 307.583 180.608 305.398C180.955 304.307 181.291 303.214 181.602 302.114C181.922 301.017 182.216 299.913 182.484 298.803C182.744 297.692 182.985 296.575 183.141 295.447C183.305 294.32 183.393 293.174 183.185 292.041C183.354 292.589 183.463 293.165 183.479 293.744C183.515 294.322 183.5 294.901 183.465 295.48C183.383 296.635 183.209 297.779 182.989 298.912C182.548 301.179 181.925 303.401 181.239 305.598C180.539 307.791 179.77 309.96 178.924 312.098C178.087 314.241 177.174 316.351 176.176 318.422Z" fill="white"/>
</g>
<path d="M124.201 351.534C124.201 351.534 128.809 367.786 150.771 360.267C150.771 360.265 140.795 340.242 124.201 351.534Z" fill="#F1F2FF"/>
<g opacity="0.52">
<path d="M150.17 359.944L143.798 357.334C141.672 356.476 139.546 355.622 137.401 354.821C136.331 354.415 135.257 354.022 134.175 353.653C133.097 353.275 132.01 352.922 130.915 352.595C129.819 352.275 128.717 351.976 127.598 351.759C126.483 351.535 125.342 351.387 124.199 351.532C124.755 351.393 125.338 351.315 125.916 351.33C126.495 351.325 127.074 351.373 127.649 351.436C128.797 351.58 129.932 351.815 131.051 352.095C133.291 352.655 135.477 353.398 137.633 354.2C139.785 355.018 141.91 355.902 144 356.861C146.096 357.811 148.156 358.835 150.17 359.944Z" fill="white"/>
</g>
<path d="M215.79 340.264C215.79 340.264 197.566 333.428 189.525 358.937C189.527 358.937 214.92 363.376 215.79 340.264Z" fill="#F1F2FF"/>
<g opacity="0.52">
<path d="M190.236 358.601L197.014 354.474C199.263 353.09 201.509 351.701 203.717 350.259C204.825 349.544 205.925 348.817 207.006 348.066C208.095 347.324 209.165 346.557 210.216 345.765C211.261 344.968 212.292 344.15 213.259 343.262C214.23 342.38 215.146 341.423 215.791 340.264C215.54 340.875 215.215 341.468 214.805 341.994C214.414 342.535 213.974 343.039 213.523 343.53C212.604 344.497 211.611 345.388 210.585 346.235C208.533 347.93 206.351 349.449 204.132 350.902C201.903 352.34 199.63 353.706 197.312 354.989C194.999 356.28 192.641 357.49 190.236 358.601Z" fill="white"/>
</g>
<path d="M154.173 345.165L135.629 323.711L130.027 331.118L154.173 345.165ZM198.186 333.157L210.301 322.36L206.015 319.219L198.186 333.157Z" fill="#D3DAEA"/>
<path d="M159.077 326.676C159.077 328.315 157.749 329.643 156.111 329.643C154.473 329.643 153.145 328.315 153.145 326.676C153.145 325.038 154.473 323.71 156.111 323.71C157.749 323.711 159.077 325.039 159.077 326.676ZM184.274 337.593C184.274 339.336 182.861 340.747 181.119 340.747C179.378 340.747 177.965 339.336 177.965 337.593C177.965 335.85 179.378 334.438 181.119 334.438C182.861 334.438 184.274 335.851 184.274 337.593Z" fill="#F1F2FF"/>
<path fill-rule="evenodd" clip-rule="evenodd" d="M119.04 109.71C119.04 109.71 115.959 125.719 130.591 128.578C130.59 128.578 112.879 131.107 119.04 109.71Z" fill="#BAC8E5"/>
<defs>
<radialGradient id="paint0_radial_171_456" cx="0" cy="0" r="1" gradientUnits="userSpaceOnUse" gradientTransform="translate(174.837 181.135) scale(134.11)">
<stop stop-color="#4A97DD"/>
<stop offset="1" stop-color="#D5E5FF"/>
</radialGradient>
</defs>
</svg>
