<svg width="559" height="514" viewBox="0 0 559 514" fill="none" xmlns="http://www.w3.org/2000/svg">
<path d="M186.267 24.9703C247.59 -15.4593 333.766 -7.21844 387.977 52.7921C417.618 85.6148 429.657 130.764 460.424 162.882C495.063 199.015 536.461 234.162 552.162 283.467C568.848 335.87 554.203 395.951 516.889 436.029C471.478 484.77 404.734 470.119 341.651 469.344C83.335 466.104 -108.659 293.609 135.646 80.9661C156.063 63.0756 165.99 38.2825 186.267 24.9703Z" fill="#97A0EB"/>
<path d="M414.574 176H332.426C327.791 176 324 172.166 324 167.48V113.52C324 108.834 327.791 105 332.426 105H414.574C419.209 105 423 108.834 423 113.52V167.48C423 172.166 419.209 176 414.574 176Z" fill="white"/>
<path d="M319 115.345V168.655C319 176.037 324.928 182 332.268 182H411.732C419.072 182 425 176.037 425 168.655V115.345C425 107.963 419.072 102 411.732 102H332.268C324.928 102 319 107.963 319 115.345ZM325.916 170.004C325.846 169.578 325.634 169.152 325.634 168.726V115.416C325.634 114.706 325.846 114.067 326.057 113.5L354.075 137.705L325.916 170.004ZM411.732 108.673C412.156 108.673 412.579 108.815 413.003 108.957L372 144.307L330.997 108.957C331.421 108.886 331.774 108.673 332.268 108.673H411.732ZM389.925 137.563L417.943 113.358C418.154 113.996 418.366 114.635 418.366 115.274V168.584C418.366 169.081 418.225 169.436 418.084 169.862L389.925 137.563ZM332.268 175.327C331.562 175.327 330.997 175.114 330.362 174.972L359.085 141.965L369.812 151.264C370.447 151.831 371.224 152.044 372 152.044C372.776 152.044 373.553 151.76 374.188 151.264L384.915 141.965L413.638 174.972C413.003 175.185 412.438 175.327 411.732 175.327H332.268Z" fill="#394BE9"/>
<path d="M454.643 328H393.357C388.761 328 385 324.123 385 319.385V279.615C385 274.877 388.761 271 393.357 271H454.643C459.239 271 463 274.877 463 279.615V319.385C463 324.123 459.239 328 454.643 328Z" fill="white"/>
<path d="M382 279.524V321.476C382 327.268 386.663 332 392.527 332H455.473C461.267 332 466 327.339 466 321.476V279.524C466 273.732 461.337 269 455.473 269H392.527C386.733 269.071 382 273.732 382 279.524ZM387.44 322.536C387.369 322.183 387.228 321.9 387.228 321.476V279.524C387.228 278.959 387.369 278.464 387.511 277.97L409.694 296.969L387.44 322.536ZM455.473 274.297C455.827 274.297 456.109 274.438 456.463 274.509L424.035 302.336L391.608 274.509C391.961 274.438 392.244 274.297 392.597 274.297H455.473ZM438.165 297.039L460.348 278.04C460.489 278.535 460.631 279.029 460.631 279.594V321.547C460.631 321.9 460.489 322.253 460.419 322.606L438.165 297.039ZM392.527 326.703C391.961 326.703 391.537 326.562 391.043 326.42L413.791 300.429L422.34 307.704C422.834 308.128 423.47 308.34 424.035 308.34C424.671 308.34 425.236 308.128 425.731 307.704L434.279 300.429L457.028 326.42C456.533 326.562 456.039 326.703 455.544 326.703H392.527Z" fill="#394BE9"/>
<path d="M485 105.358V134.642C485 138.722 488.242 142 492.277 142H535.723C539.758 142 543 138.722 543 134.642V105.358C543 101.278 539.758 98 535.723 98H492.277C488.242 98 485 101.278 485 105.358ZM488.819 135.371C488.747 135.152 488.675 134.934 488.675 134.642V105.358C488.675 104.993 488.747 104.629 488.891 104.265L504.237 117.523L488.819 135.371ZM535.723 101.715C535.939 101.715 536.155 101.788 536.371 101.861L513.964 121.311L491.557 101.861C491.773 101.788 491.989 101.715 492.205 101.715H535.723ZM523.835 117.596L539.181 104.338C539.253 104.702 539.398 104.993 539.398 105.43V134.715C539.398 134.934 539.325 135.225 539.253 135.444L523.835 117.596ZM492.277 138.285C491.917 138.285 491.556 138.212 491.268 138.066L506.975 119.927L512.883 125.026C513.243 125.318 513.676 125.464 514.036 125.464C514.468 125.464 514.901 125.318 515.189 125.026L521.097 119.927L536.804 138.066C536.443 138.139 536.155 138.285 535.795 138.285H492.277Z" fill="#394BE9"/>
<path d="M496.6 253H471.4C466.78 253 463 249.194 463 244.542V229.458C463 224.806 466.78 221 471.4 221H496.6C501.22 221 505 224.806 505 229.458V244.542C505 249.194 501.22 253 496.6 253Z" fill="white"/>
<path d="M462 225.5V247.5C462 250.532 464.468 253 467.5 253H500.5C503.532 253 506 250.532 506 247.5V225.5C506 222.468 503.532 220 500.5 220H467.5C464.468 220.071 462 222.468 462 225.5ZM464.891 248.064C464.82 247.853 464.75 247.712 464.75 247.5V225.5C464.75 225.218 464.82 224.936 464.891 224.724L476.526 234.667L464.891 248.064ZM500.5 222.821C500.712 222.821 500.853 222.891 500.994 222.891L484 237.487L467.006 222.891C467.147 222.891 467.359 222.821 467.5 222.821H500.5ZM491.404 234.667L503.038 224.724C503.109 225.006 503.179 225.218 503.179 225.5V247.5C503.179 247.712 503.109 247.853 503.038 248.064L491.404 234.667ZM467.5 250.25C467.218 250.25 466.936 250.179 466.724 250.109L478.641 236.5L483.083 240.308C483.365 240.519 483.647 240.66 484 240.66C484.353 240.66 484.635 240.519 484.917 240.308L489.359 236.5L501.276 250.109C500.994 250.179 500.782 250.25 500.5 250.25H467.5Z" fill="#5D6BEB"/>
<path d="M413 43.8333V67.1667C413 70.4074 415.504 73 418.634 73H452.366C455.496 73 458 70.4074 458 67.1667V43.8333C458 40.5926 455.496 38 452.366 38H418.634C415.573 38 413 40.5926 413 43.8333ZM415.991 67.7428C415.921 67.5267 415.852 67.3827 415.852 67.1667V43.8333C415.852 43.5453 415.921 43.2572 415.991 42.9691L427.884 53.5556L415.991 67.7428ZM452.436 40.9527C452.645 40.9527 452.784 41.0247 452.992 41.0967L435.604 56.5802L418.216 41.0967C418.425 41.0247 418.564 40.9527 418.773 40.9527H452.436ZM443.185 53.5556L455.079 42.9691C455.148 43.2572 455.218 43.5453 455.218 43.8333V67.1667C455.218 67.3827 455.148 67.5267 455.079 67.7428L443.185 53.5556ZM418.634 70.0473C418.355 70.0473 418.077 69.9753 417.799 69.9033L429.971 55.5L434.561 59.5329C434.839 59.749 435.117 59.893 435.465 59.893C435.813 59.893 436.091 59.749 436.369 59.5329L440.96 55.5L453.131 69.9033C452.853 69.9753 452.645 70.0473 452.297 70.0473H418.634Z" fill="#394BE9"/>
<path d="M355.5 188C356.328 188 357 187.105 357 186C357 184.895 356.328 184 355.5 184C354.672 184 354 184.895 354 186C354 187.105 354.672 188 355.5 188Z" fill="#6B6B6B"/>
<path d="M348.5 192C349.881 192 351 190.881 351 189.5C351 188.119 349.881 187 348.5 187C347.119 187 346 188.119 346 189.5C346 190.881 347.119 192 348.5 192Z" fill="#6B6B6B"/>
<path d="M342 195C343.105 195 344 194.105 344 193C344 191.895 343.105 191 342 191C340.895 191 340 191.895 340 193C340 194.105 340.895 195 342 195Z" fill="#6B6B6B"/>
<path d="M336.5 201C337.881 201 339 200.105 339 199C339 197.895 337.881 197 336.5 197C335.119 197 334 197.895 334 199C334 200.105 335.119 201 336.5 201Z" fill="#6B6B6B"/>
<path d="M332 207C333.105 207 334 206.105 334 205C334 203.895 333.105 203 332 203C330.895 203 330 203.895 330 205C330 206.105 330.895 207 332 207Z" fill="#6B6B6B"/>
<path d="M329 214C330.105 214 331 212.881 331 211.5C331 210.119 330.105 209 329 209C327.895 209 327 210.119 327 211.5C327 212.881 327.895 214 329 214Z" fill="#6B6B6B"/>
<path d="M326.5 221C327.881 221 329 220.105 329 219C329 217.895 327.881 217 326.5 217C325.119 217 324 217.895 324 219C324 220.105 325.119 221 326.5 221Z" fill="#6B6B6B"/>
<path d="M367 250C368.105 250 369 249.328 369 248.5C369 247.672 368.105 247 367 247C365.895 247 365 247.672 365 248.5C365 249.328 365.895 250 367 250Z" fill="#6B6B6B"/>
<path d="M359 250C360.105 250 361 249.328 361 248.5C361 247.672 360.105 247 359 247C357.895 247 357 247.672 357 248.5C357 249.328 357.895 250 359 250Z" fill="#6B6B6B"/>
<path d="M352 250C353.105 250 354 249.328 354 248.5C354 247.672 353.105 247 352 247C350.895 247 350 247.672 350 248.5C350 249.328 350.895 250 352 250Z" fill="#6B6B6B"/>
<path d="M344 250C345.105 250 346 249.328 346 248.5C346 247.672 345.105 247 344 247C342.895 247 342 247.672 342 248.5C342 249.328 342.895 250 344 250Z" fill="#6B6B6B"/>
<path d="M336.5 250C337.881 250 339 249.328 339 248.5C339 247.672 337.881 247 336.5 247C335.119 247 334 247.672 334 248.5C334 249.328 335.119 250 336.5 250Z" fill="#6B6B6B"/>
<path d="M455 239C456.105 239 457 237.881 457 236.5C457 235.119 456.105 234 455 234C453.895 234 453 235.119 453 236.5C453 237.881 453.895 239 455 239Z" fill="#6B6B6B"/>
<path d="M447.5 239C448.881 239 450 237.881 450 236.5C450 235.119 448.881 234 447.5 234C446.119 234 445 235.119 445 236.5C445 237.881 446.119 239 447.5 239Z" fill="#6B6B6B"/>
<path d="M439.5 239C440.328 239 441 237.881 441 236.5C441 235.119 440.328 234 439.5 234C438.672 234 438 235.119 438 236.5C438 237.881 438.672 239 439.5 239Z" fill="#6B6B6B"/>
<path d="M432.5 240C433.881 240 435 239.105 435 238C435 236.895 433.881 236 432.5 236C431.119 236 430 236.895 430 238C430 239.105 431.119 240 432.5 240Z" fill="#6B6B6B"/>
<path d="M425 242C426.105 242 427 241.105 427 240C427 238.895 426.105 238 425 238C423.895 238 423 238.895 423 240C423 241.105 423.895 242 425 242Z" fill="#6B6B6B"/>
<path d="M418.5 247C419.328 247 420 245.881 420 244.5C420 243.119 419.328 242 418.5 242C417.672 242 417 243.119 417 244.5C417 245.881 417.672 247 418.5 247Z" fill="#6B6B6B"/>
<path d="M413 251C414.105 251 415 250.105 415 249C415 247.895 414.105 247 413 247C411.895 247 411 247.895 411 249C411 250.105 411.895 251 413 251Z" fill="#6B6B6B"/>
<path d="M408 257C409.105 257 410 256.105 410 255C410 253.895 409.105 253 408 253C406.895 253 406 253.895 406 255C406 256.105 406.895 257 408 257Z" fill="#6B6B6B"/>
<path d="M405 264C406.105 264 407 263.105 407 262C407 260.895 406.105 260 405 260C403.895 260 403 260.895 403 262C403 263.105 403.895 264 405 264Z" fill="#6B6B6B"/>
<path d="M490 150C491.105 150 492 149.105 492 148C492 146.895 491.105 146 490 146C488.895 146 488 146.895 488 148C488 149.105 488.895 150 490 150Z" fill="#6B6B6B"/>
<path d="M483.5 155C484.328 155 485 154.105 485 153C485 151.895 484.328 151 483.5 151C482.672 151 482 151.895 482 153C482 154.105 482.672 155 483.5 155Z" fill="#6B6B6B"/>
<path d="M477.5 158C478.881 158 480 156.881 480 155.5C480 154.119 478.881 153 477.5 153C476.119 153 475 154.119 475 155.5C475 156.881 476.119 158 477.5 158Z" fill="#6B6B6B"/>
<path d="M470 161C471.105 161 472 160.105 472 159C472 157.895 471.105 157 470 157C468.895 157 468 157.895 468 159C468 160.105 468.895 161 470 161Z" fill="#6B6B6B"/>
<path d="M462.5 162C463.881 162 465 161.105 465 160C465 158.895 463.881 158 462.5 158C461.119 158 460 158.895 460 160C460 161.105 461.119 162 462.5 162Z" fill="#6B6B6B"/>
<path d="M455 163C456.105 163 457 162.105 457 161C457 159.895 456.105 159 455 159C453.895 159 453 159.895 453 161C453 162.105 453.895 163 455 163Z" fill="#6B6B6B"/>
<path d="M447.5 164C448.881 164 450 163.105 450 162C450 160.895 448.881 160 447.5 160C446.119 160 445 160.895 445 162C445 163.105 446.119 164 447.5 164Z" fill="#6B6B6B"/>
<path d="M439.5 164C440.328 164 441 163.328 441 162.5C441 161.672 440.328 161 439.5 161C438.672 161 438 161.672 438 162.5C438 163.328 438.672 164 439.5 164Z" fill="#6B6B6B"/>
<path d="M432.5 164C433.881 164 435 163.105 435 162C435 160.895 433.881 160 432.5 160C431.119 160 430 160.895 430 162C430 163.105 431.119 164 432.5 164Z" fill="#6B6B6B"/>
<path d="M403 61C404.105 61 405 60.1046 405 59C405 57.8954 404.105 57 403 57C401.895 57 401 57.8954 401 59C401 60.1046 401.895 61 403 61Z" fill="#6B6B6B"/>
<path d="M396.5 63C397.328 63 398 61.8807 398 60.5C398 59.1193 397.328 58 396.5 58C395.672 58 395 59.1193 395 60.5C395 61.8807 395.672 63 396.5 63Z" fill="#6B6B6B"/>
<path d="M390 68C391.105 68 392 66.8807 392 65.5C392 64.1193 391.105 63 390 63C388.895 63 388 64.1193 388 65.5C388 66.8807 388.895 68 390 68Z" fill="#6B6B6B"/>
<path d="M386 74C387.105 74 388 72.8807 388 71.5C388 70.1193 387.105 69 386 69C384.895 69 384 70.1193 384 71.5C384 72.8807 384.895 74 386 74Z" fill="#6B6B6B"/>
<path d="M382.5 80C383.881 80 385 79.1046 385 78C385 76.8954 383.881 76 382.5 76C381.119 76 380 76.8954 380 78C380 79.1046 381.119 80 382.5 80Z" fill="#6B6B6B"/>
<path d="M382 88C383.105 88 384 87.1046 384 86C384 84.8954 383.105 84 382 84C380.895 84 380 84.8954 380 86C380 87.1046 380.895 88 382 88Z" fill="#6B6B6B"/>
<path d="M382.5 96C383.881 96 385 95.1046 385 94C385 92.8954 383.881 92 382.5 92C381.119 92 380 92.8954 380 94C380 95.1046 381.119 96 382.5 96Z" fill="#6B6B6B"/>
<path d="M259.381 472.242C259.944 472.031 260.437 471.891 261 471.68C261 471.68 260.789 471.259 260.437 470.416C254.665 458.481 206.66 364.119 114.1 346.005C113.396 345.865 112.621 345.725 111.917 345.584C100.163 343.478 87.7743 342.565 74.682 343.197C74.682 343.197 56.3107 343.548 33.716 359.415C33.2233 359.766 32.7306 360.117 32.1675 360.468C22.0316 367.84 11.1214 378.442 0.633496 393.467L0 394.309C0 394.309 0.140777 394.731 0.492719 395.503C3.73058 402.945 22.5947 442.614 67.2209 468.661C67.784 469.012 68.4175 469.363 68.9806 469.644C109.454 492.743 170.481 504.398 259.381 472.242Z" fill="#394BE9"/>
<path d="M261.576 473L261.788 472.018L262 471.036L261.223 470.825L0.635409 394L0 394.842C0 394.842 0.141202 395.263 0.494207 396.035L260.164 472.579L261.576 473Z" fill="white"/>
<path d="M69.8473 470L108.519 426.331L107.256 424.777L68.0926 469.011C68.6541 469.364 69.2156 469.647 69.8473 470ZM155.824 440.393L158 440.676L114.766 345.424C114.064 345.283 113.292 345.141 112.59 345L155.824 440.393ZM58.8282 412.128L60.3723 411.139L34.5441 358.92C34.0528 359.274 33.5615 359.627 33 359.98L58.8282 412.128Z" fill="white"/>
<path d="M256.234 468.367L257.078 469C257.078 469 257.219 468.719 257.57 468.297C262.073 461.199 296.544 403.429 274.947 347.698C274.806 347.276 274.595 346.784 274.454 346.362C271.64 339.334 267.912 332.377 263.128 325.56C263.128 325.56 256.726 315.861 240.546 309.114C240.194 308.974 239.842 308.833 239.42 308.693C232.034 305.741 222.607 303.492 210.999 303H210.296C210.296 303 210.155 303.211 209.803 303.703C206.919 307.92 191.935 331.463 193.06 364.284C193.06 364.705 193.06 365.127 193.131 365.549C194.467 394.996 208.889 431.611 256.234 468.367Z" fill="#B6BDFF"/>
<path d="M256.707 469L257.353 468.789L258 468.579L257.856 468.087L210.221 303H209.503C209.503 303 209.359 303.211 209 303.702L256.419 468.228L256.707 469Z" fill="white"/>
<path d="M193.139 365.596L229.155 371.69L229.502 370.499L193 364.335C193.07 364.756 193.07 365.176 193.139 365.596ZM237.637 401.739L238.193 403L274 347.875C273.861 347.455 273.652 346.964 273.513 346.544L237.637 401.739ZM219.977 340.31L221.02 340.8L239.931 309.42C239.584 309.28 239.236 309.14 238.819 309L219.977 340.31Z" fill="white"/>
<path d="M256.59 471.859C257.084 471.93 257.577 471.93 258 472V470.946C258 460.542 255.815 377.522 191.807 333.094C191.313 332.743 190.82 332.391 190.256 332.04C182.079 326.557 172.915 321.636 162.693 317.629C162.693 317.629 148.524 311.583 125.543 315.098C125.05 315.169 124.486 315.239 123.992 315.309C113.559 317.067 101.364 320.792 87.8997 327.822C87.6177 327.963 87.4063 328.103 87.1243 328.244C87.1243 328.244 87.1243 328.595 87.0538 329.298C86.7718 335.625 86.7013 370.07 111.303 403.742C111.656 404.164 111.938 404.586 112.29 405.078C134.707 435.024 177.074 464.127 256.59 471.859Z" fill="#5D6BEB"/>
<path d="M258.01 473L258.505 472.367L259 471.733L258.505 471.311L87.8487 328C87.5658 328.141 87.3536 328.282 87.0707 328.422C87.0707 328.422 87.0707 328.774 87 329.478L257.02 472.226L258.01 473Z" fill="white"/>
<path d="M112.98 405.171L158.054 387.578L157.634 386.011L112 403.817C112.35 404.316 112.63 404.743 112.98 405.171ZM188.99 414.003L190.53 415L192 332.234C191.51 331.878 191.02 331.522 190.46 331.166L188.99 414.003ZM125.438 360.226L126.978 360.084L126.138 314C125.648 314.071 125.088 314.142 124.598 314.214L125.438 360.226Z" fill="white"/>
<path d="M298 475.934L295.422 496.767L286.713 500L289.012 475L298 475.934ZM258.287 475.934L255.709 496.767L247 500L249.299 475L258.287 475.934Z" fill="#DBA17B"/>
<path d="M269.318 224L255 241.065L268.664 248L284 230.255L269.318 224Z" fill="#CC9271"/>
<path d="M303.871 224.695C303.464 221.975 303.192 219.184 302.989 216.393C302.853 214.175 302.921 211.956 302.989 209.738C303.192 207.519 303.192 205.301 303.057 203.226C303.057 203.297 302.989 203.369 302.989 203.44C302.853 201.58 302.581 199.719 302.106 197.93C300.748 193.421 297.963 189.199 293.617 187.625C284.925 184.547 274.332 193.135 269.918 206.875C265.504 220.616 268.967 234.284 277.659 237.362C283.839 239.58 290.969 235.859 296.13 228.631C298.167 228.559 300.204 228.416 302.174 227.844C302.853 227.629 303.532 227.343 303.871 226.699C304.075 226.055 304.007 225.339 303.871 224.695Z" fill="#DBA17B"/>
<path d="M312.015 202.737C314.884 201.754 317.333 199.297 317.893 196.349C318.453 193.33 316.773 189.961 313.904 188.978C311.735 188.206 309.145 188.837 307.186 187.714C305.996 187.012 305.226 185.819 304.387 184.766C299.768 178.869 292.14 175.499 284.722 176.061C277.304 176.622 270.236 181.045 266.527 187.504C263.378 192.979 262.608 199.508 263.168 205.756C263.728 212.004 265.617 218.111 267.437 224.078C270.516 217.971 273.595 211.863 276.674 205.826C277.374 204.492 278.074 203.088 279.334 202.316C280.593 201.544 282.553 201.614 283.252 202.878C283.742 203.72 283.602 204.773 283.602 205.686C283.602 206.669 283.742 207.792 284.582 208.213C285.492 208.704 286.682 208.143 287.521 207.511C289.341 206.177 290.95 204.562 292.42 202.807C293.33 201.684 294.239 200.28 295.569 199.719C297.039 199.087 298.298 199.789 299.628 200.561C301.447 201.614 303.337 202.597 305.436 203.018C307.606 203.439 309.915 203.439 312.015 202.737ZM302.777 330.434C305.506 347.984 308.096 378.522 310.825 396.072C314.814 421.836 302.147 460.376 297.459 486C294.03 485.579 291.02 484.526 287.591 484.105C288.711 440.65 286.752 385.261 283.952 341.876C290.041 342.649 296.689 329.661 302.777 330.434Z" fill="#1E1E1E"/>
<path d="M260.203 343.349C263.747 343.559 267.222 340.333 270.766 340.613C275.074 340.894 279.73 341.736 283.83 342.998C287.93 344.261 292.725 340.403 296.755 339C297.589 346.014 296.13 358.5 294.81 365.444C291.752 381.717 288.208 397.849 284.108 413.842C281.884 422.68 275.283 431.167 271.808 439.584C270.349 443.161 268.959 446.879 267.639 450.526C264.859 458.101 260.064 479.425 257.285 487C253.88 486.719 250.405 486.649 247 486.369C247.347 478.723 250.336 456.699 250.614 449.053C251.169 436.287 257.493 422.89 262.496 411.106C259.995 398.901 259.925 385.645 259.995 373.159C260.064 362.147 260.134 354.291 260.203 343.349Z" fill="#1E1E1E"/>
<path d="M308.188 295.233C309.511 295.453 311.055 295.379 312.084 294.499C312.598 294.06 312.966 293.4 313.333 292.886C314.583 291.42 316.715 290.687 318.552 291.127C322.374 292.08 324.212 296.919 328.034 297.726C328.622 297.872 329.21 297.872 329.798 298.092C330.386 298.312 330.901 298.679 330.975 299.265C331.122 299.998 330.607 300.585 330.092 301.172C329.431 301.905 328.696 302.638 328.034 303.371C327.74 303.664 327.373 304.031 327.005 304.178C326.197 304.544 325.168 304.178 324.506 304.691C323.918 305.131 323.771 306.011 323.11 306.451C322.154 307.037 320.831 306.157 319.728 306.597C319.14 306.817 318.773 307.33 318.332 307.624C317.523 308.137 316.421 308.064 315.465 307.77C314.509 307.404 313.701 306.817 312.892 306.377C311.79 305.791 310.614 305.351 309.438 304.984C306.203 304.178 302.749 304.398 299.368 304.691C299.221 302.051 299.147 299.412 299 296.772C299 296.332 299 295.819 299.221 295.379C299.662 294.573 300.838 294.573 301.793 294.793C302.969 295.086 303.557 295.013 304.66 294.793C305.762 294.573 307.086 295.086 308.188 295.233Z" fill="#DBA17B"/>
<path d="M316.203 305.449C315.831 304.879 315.98 304.095 316.575 303.738L338.011 290.194C338.606 289.838 339.425 289.98 339.797 290.551C340.169 291.121 340.02 291.905 339.425 292.262L317.989 305.806C317.394 306.162 316.575 306.02 316.203 305.449Z" fill="#0B4870"/>
<path d="M301.003 485.705C301.284 485.009 302.057 484.778 302.549 485.241C304.727 487.251 310.559 491.811 322.152 494.749C322.152 494.749 324.962 495.367 327 499H284V490.652C284 489.724 284.984 489.261 285.616 489.802L287.302 491.348C288.075 492.121 289.129 492.507 290.113 492.507L296.296 492.584C297.631 492.584 298.825 491.734 299.317 490.343L301.003 485.705Z" fill="#CCE9FF"/>
<path d="M327 503H284V499H327V503Z" fill="#0E538C"/>
<path d="M258.861 488.191C259.278 487.685 260.111 487.757 260.458 488.335C261.847 490.864 265.944 496.861 275.736 503.581C275.736 503.581 278.167 505.17 279 509L239 494.043L241.569 486.673C241.847 485.878 242.889 485.734 243.306 486.529L244.347 488.48C244.833 489.419 245.667 490.142 246.639 490.503L252.333 492.67C253.583 493.176 254.972 492.743 255.806 491.731L258.861 488.191Z" fill="#CCE9FF"/>
<path d="M277.467 513.04L236.879 498.429L238.383 494.251L278.971 508.862L277.467 513.04Z" fill="#0E538C"/>
<path d="M301.843 292.169C304.991 302.662 307.352 319.149 308.855 329.998C309.212 332.568 308.998 342.275 307.209 344.131C306.136 345.273 278.449 348.342 266.93 352.125C265.356 352.624 257.844 355.551 256.342 354.908C254.195 353.98 253.051 344.559 253.551 342.346C260.205 313.725 260.205 334.78 250.475 278.465C248.543 267.188 244.823 256.767 248.686 245.99C249.974 242.421 259.704 232 259.704 232C259.704 232 262.995 235.497 266.358 237.496C269.148 239.138 272.797 242.064 275.158 242.635C285.961 245.133 298.052 279.536 301.843 292.169Z" fill="#394BE9"/>
<path d="M288.3 367.512C289.252 369.51 289.692 371.723 289.912 373.865C290.204 377.648 289.765 381.431 288.666 385C287.055 384.643 285.737 383.215 285.517 381.574C286.249 382.716 285.59 384.429 284.272 384.786C282.954 385.143 281.489 383.929 281.562 382.573C281.196 383.715 279.877 384.572 278.706 384.358C277.461 384.143 276.508 383.001 276.582 381.788C277.094 382.145 276.948 383.001 276.508 383.358C275.996 383.715 275.263 383.644 274.751 383.358C274.238 383.073 273.872 382.502 273.652 381.931C273.286 380.931 273.139 379.861 273.066 378.79C272.7 374.222 272.407 369.582 272.041 365.013C271.967 364.371 271.967 363.729 272.26 363.158C272.846 362.087 274.384 361.944 275.703 362.015L280.756 362.23C281.855 362.301 283.027 362.23 284.052 362.586C285.883 363.443 287.421 365.799 288.3 367.512Z" fill="#DBA17B"/>
<path d="M270.304 261.399C269.728 270.925 269.153 280.522 268.505 290.048C268.145 295.341 267.857 300.704 268.649 305.925C269.297 310.3 270.664 314.534 272.031 318.698C276.997 333.798 281.962 348.899 287 364C281.675 363.647 276.277 363.294 270.952 362.942C266.706 346.782 258.502 317.921 257.782 315.31C251.881 297.175 249.794 277.911 251.665 259L270.304 261.399Z" fill="#394BE9"/>
<path d="M247 168.558C247 150.031 226.406 135 201 135C175.594 135 155 150.031 155 168.558C155 187.084 175.594 202.115 201 202.115C205.812 202.115 210.483 201.556 214.8 200.577L231.431 214V193.726C240.985 187.573 247 178.555 247 168.558Z" fill="#394BE9"/>
<path d="M220 136.039C220 120.582 203.239 108 182.5 108C161.761 108 145 120.51 145 136.039C145 151.497 161.761 164.078 182.5 164.078C186.406 164.078 190.241 163.647 193.793 162.784L207.287 174V157.105C215.099 151.856 220 144.379 220 136.039Z" fill="white"/>
<path d="M202.925 125.197H162.075C161.502 125.197 161 124.685 161 124.099C161 123.513 161.502 123 162.075 123H202.925C203.498 123 204 123.513 204 124.099C204 124.685 203.498 125.197 202.925 125.197ZM202.925 133.107H162.075C161.502 133.107 161 132.594 161 132.008C161 131.423 161.502 130.91 162.075 130.91H202.925C203.498 130.91 204 131.423 204 132.008C204 132.594 203.498 133.107 202.925 133.107ZM202.925 141.09H162.075C161.502 141.09 161 140.577 161 139.992C161 139.406 161.502 138.893 162.075 138.893H202.925C203.498 138.893 204 139.406 204 139.992C204 140.577 203.498 141.09 202.925 141.09ZM202.925 149H162.075C161.502 149 161 148.487 161 147.901C161 147.315 161.502 146.803 162.075 146.803H202.925C203.498 146.803 204 147.315 204 147.901C204 148.487 203.498 149 202.925 149Z" fill="#5766F4"/>
</svg>
