<svg width="37" height="37" viewBox="0 0 37 37" fill="none" xmlns="http://www.w3.org/2000/svg">
<path d="M24.4385 13.8457H17.3653V0H24.4385C28.2557 0 31.3606 3.10492 31.3606 6.92208C31.3606 10.7392 28.2557 13.8457 24.4385 13.8457ZM19.6331 11.5779H24.4385C27.0054 11.5779 29.0928 9.48896 29.0928 6.92363C29.0928 4.35829 27.0038 2.26933 24.4385 2.26933H19.6331V11.5779ZM19.6331 13.8457H12.5615C8.74434 13.8457 5.63942 10.7408 5.63942 6.92363C5.63942 3.10646 8.74434 0 12.5615 0H19.6347V13.8457H19.6331ZM12.5615 2.26779C9.99463 2.26779 7.90721 4.35675 7.90721 6.92208C7.90721 9.48742 9.99463 11.5779 12.5615 11.5779H17.3669V2.26779H12.5615ZM19.6331 25.4221H12.5615C8.74434 25.4221 5.63942 22.3172 5.63942 18.5C5.63942 14.6828 8.74434 11.5779 12.5615 11.5779H19.6347V25.4221H19.6331ZM12.5615 13.8457C9.99463 13.8457 7.90721 15.9347 7.90721 18.5C7.90721 21.0653 9.99617 23.1543 12.5615 23.1543H17.3669V13.8457H12.5615ZM12.5985 37C8.76129 37 5.63788 33.8951 5.63788 30.0779C5.63788 26.2607 8.7428 23.1558 12.56 23.1558H19.6331V30.0024C19.6331 33.8612 16.4773 37 12.5985 37ZM12.5615 25.4221C11.3276 25.4237 10.1447 25.9146 9.27222 26.7871C8.39973 27.6596 7.90884 28.8425 7.90721 30.0764C7.90721 32.6433 10.0116 34.7307 12.6 34.7307C15.2286 34.7307 17.3684 32.6093 17.3684 30.0008V25.4221H12.5615ZM24.4385 25.4221H24.2874C20.4703 25.4221 17.3653 22.3172 17.3653 18.5C17.3653 14.6828 20.4703 11.5779 24.2874 11.5779H24.4385C28.2557 11.5779 31.3606 14.6828 31.3606 18.5C31.3606 22.3172 28.2557 25.4221 24.4385 25.4221ZM24.289 13.8457C21.7221 13.8457 19.6347 15.9347 19.6347 18.5C19.6347 21.0653 21.7236 23.1543 24.289 23.1543H24.44C27.0069 23.1543 29.0943 21.0653 29.0943 18.5C29.0943 15.9347 27.0038 13.8457 24.4385 13.8457H24.289Z" fill="#F24E1E"/>
</svg>
