<svg width="37" height="37" viewBox="0 0 37 37" fill="none" xmlns="http://www.w3.org/2000/svg">
<g clip-path="url(#clip0_55_72)">
<path d="M16.2337 16.542C16.0796 16.0641 15.9408 15.6016 15.7867 15.1237C15.6325 14.6457 15.4938 14.1987 15.3704 13.7516C15.2471 13.3199 15.1392 12.9191 15.0312 12.5491H15.0004C14.8617 13.212 14.6921 13.8749 14.4763 14.5378C14.245 15.2778 14.0138 16.0487 13.7671 16.8195C13.5513 17.6057 13.32 18.3303 13.0887 18.9778H17.0046C16.9121 18.6525 16.7887 18.2687 16.65 17.8663C16.5112 17.4516 16.3725 17.0045 16.2337 16.542ZM30.4479 0.462402H6.55208C2.92917 0.462402 0 3.39157 0 7.01449V29.9853C0 33.6082 2.92917 36.5374 6.55208 36.5374H30.4479C34.0708 36.5374 37 33.6082 37 29.9853V7.01449C37 3.39157 34.0708 0.462402 30.4479 0.462402ZM22.6625 25.9462H19.4389C19.3325 25.9616 19.2246 25.8845 19.1937 25.7766L17.9296 22.1074H12.1946L11.0229 25.7303C10.9921 25.8691 10.8687 25.9616 10.73 25.9477H7.83167C7.66208 25.9477 7.61583 25.8537 7.66208 25.6702L12.6262 11.3774C12.6725 11.2232 12.7187 11.0537 12.7804 10.8687C12.8421 10.5449 12.8729 10.2057 12.8729 9.86657C12.8575 9.78949 12.9192 9.7124 12.9963 9.69699H16.9892C17.1125 9.69699 17.1742 9.74324 17.1896 9.82032L22.8167 25.6995C22.8629 25.8675 22.8167 25.9462 22.6625 25.9462ZM27.9042 25.7149C27.9042 25.8845 27.844 25.9616 27.7053 25.9616H24.6821C24.5279 25.9616 24.4508 25.8675 24.4508 25.7149V13.8441C24.4508 13.6899 24.514 13.6282 24.6528 13.6282H27.7053C27.844 13.6282 27.9042 13.7053 27.9042 13.8441V25.7149ZM27.582 11.7937C27.2258 12.1637 26.7017 12.3641 26.1775 12.3332C25.6687 12.3487 25.1754 12.1482 24.8039 11.7937C24.4493 11.4082 24.2643 10.8995 24.2797 10.3753C24.2643 9.85115 24.4647 9.35782 24.8332 9.00324C25.2062 8.64865 25.6996 8.46365 26.2083 8.46365C26.8111 8.46365 27.2705 8.64865 27.6112 9.00324C27.9504 9.37324 28.1354 9.86657 28.12 10.3753C28.1354 10.8995 27.9504 11.4082 27.582 11.7937Z" fill="#FF9A00"/>
</g>
<defs>
<clipPath id="clip0_55_72">
<rect width="37" height="37" fill="white"/>
</clipPath>
</defs>
</svg>
