<svg width="37" height="37" viewBox="0 0 37 37" fill="none" xmlns="http://www.w3.org/2000/svg">
<g clip-path="url(#clip0_55_84)">
<path d="M0 0H37V37H0V0ZM33.9691 28.1755C33.6993 26.4874 32.6001 25.069 29.3395 23.7463C28.2048 23.2144 26.9437 22.8444 26.5691 21.9888C26.4288 21.48 26.4072 21.2025 26.4982 20.9019C26.7294 19.906 27.9088 19.6069 28.8338 19.8844C29.435 20.0694 29.99 20.5319 30.3385 21.2719C31.9325 20.2297 31.9325 20.2297 33.0441 19.5375C32.6278 18.89 32.4212 18.611 32.1407 18.335C31.1694 17.2482 29.876 16.6932 27.7716 16.741L26.6847 16.8782C25.6425 17.1325 24.6497 17.6875 24.0485 18.4275C22.291 20.4178 22.7982 23.8866 24.9257 25.3203C27.03 26.8928 30.1072 27.2382 30.5003 28.7197C30.8703 30.5235 29.1591 31.1016 27.4694 30.8935C26.2191 30.616 25.5269 29.99 24.7638 28.8338L21.9425 30.4541C22.2663 31.1941 22.6363 31.5163 23.1913 32.1638C25.8738 34.871 32.58 34.7322 33.7841 30.616C33.8288 30.4772 34.1541 29.5291 33.8982 28.0722L33.9691 28.1755ZM20.1203 17.0061H16.6546C16.6546 19.9939 16.6407 22.9631 16.6407 25.9555C16.6407 27.8548 16.7379 29.5985 16.428 30.135C15.9192 31.1972 14.6088 31.0615 14.0137 30.875C13.4032 30.5728 13.0934 30.1565 12.7342 29.5568C12.637 29.395 12.5646 29.2547 12.5384 29.2547L9.72483 30.989C10.195 31.9603 10.8811 32.7959 11.766 33.3277C13.0841 34.114 14.8555 34.3684 16.7101 33.9521C17.9172 33.6037 18.9579 32.8868 19.5021 31.7768C20.2883 30.3431 20.1218 28.5856 20.1141 26.6184C20.1326 23.4518 20.1141 20.2837 20.1141 17.0925L20.1203 17.0061Z" fill="#F7DF1E"/>
</g>
<defs>
<clipPath id="clip0_55_84">
<rect width="37" height="37" fill="white"/>
</clipPath>
</defs>
</svg>
