<svg width="37" height="37" viewBox="0 0 37 37" fill="none" xmlns="http://www.w3.org/2000/svg">
<g clip-path="url(#clip0_55_88)">
<path d="M7.12042 6.48695C8.2705 7.4212 8.70217 7.35028 10.8636 7.20537L31.2367 5.98283C31.6684 5.98283 31.3092 5.55116 31.1658 5.48024L27.7803 3.03362C27.1328 2.53103 26.2679 1.95445 24.6122 2.09783L4.88654 3.53774C4.16812 3.60866 4.02321 3.96941 4.30996 4.25616L7.12042 6.48695ZM8.34296 11.2353V32.6706C8.34296 33.8222 8.918 34.2539 10.2145 34.1815L32.6042 32.8865C33.9007 32.8155 34.0456 32.0231 34.0456 31.0873V9.79537C34.0456 8.86112 33.6864 8.35699 32.8925 8.42791L9.49458 9.79537C8.63125 9.86783 8.34296 10.301 8.34296 11.2353ZM30.4458 12.3838C30.5892 13.0313 30.4458 13.6788 29.7983 13.7528L28.7192 13.9687V29.7923C27.7818 30.2965 26.9185 30.5847 26.1985 30.5847C25.0454 30.5847 24.7571 30.224 23.8937 29.1464L16.8375 18.068V28.7856L19.0699 29.2913C19.0699 29.2913 19.0699 30.5863 17.2692 30.5863L12.302 30.873C12.1586 30.5863 12.302 29.8663 12.8061 29.723L14.1011 29.3637V15.1912L12.305 15.0463C12.1601 14.3988 12.5209 13.4645 13.5276 13.3921L18.8556 13.0329L26.2001 24.2547V14.3263L24.327 14.112C24.1836 13.3196 24.7586 12.7446 25.4786 12.6737L30.4458 12.3838ZM3.23079 1.59524L23.7504 0.0844093C26.2695 -0.131424 26.9185 0.0119509 28.5018 1.16358L35.0523 5.76699C36.1315 6.55787 36.4922 6.7737 36.4922 7.63703V32.8865C36.4922 34.4682 35.9172 35.4055 33.9022 35.5474L10.0712 36.9873C8.56033 37.0597 7.83883 36.8439 7.04642 35.8357L2.22254 29.5765C1.35921 28.4249 1 27.5631 1 26.5548V4.11124C1 2.81778 1.57658 1.73708 3.23079 1.59524Z" fill="black"/>
</g>
<defs>
<clipPath id="clip0_55_88">
<rect width="37" height="37" fill="white"/>
</clipPath>
</defs>
</svg>
