<svg width="37" height="37" viewBox="0 0 37 37" fill="none" xmlns="http://www.w3.org/2000/svg">
<g clip-path="url(#clip0_55_70)">
<path d="M15.1854 12.9807C14.615 12.7495 13.9983 12.657 13.3662 12.6724C12.9654 12.6724 12.6108 12.6724 12.3179 12.6878C12.0096 12.6724 11.7937 12.6878 11.6858 12.7032V17.8832C11.9017 17.8987 12.1021 17.9141 12.2871 17.9141H13.1042C13.7054 17.9141 14.3067 17.8216 14.8771 17.6366C15.3704 17.4978 15.8021 17.2049 16.1412 16.8195C16.465 16.4341 16.6192 15.9099 16.6192 15.2316C16.6346 14.7537 16.5112 14.2757 16.2646 13.8595C16.0025 13.4587 15.6325 13.1503 15.1854 12.9807ZM30.4479 0.462402H6.55208C2.92917 0.462402 0 3.39157 0 7.01449V29.9838C0 33.6067 2.92917 36.5359 6.55208 36.5359H30.4479C34.0708 36.5359 37 33.6067 37 29.9838V7.01449C37 3.39157 34.0708 0.462402 30.4479 0.462402ZM19.0535 18.4228C18.4383 19.2862 17.575 19.9337 16.5729 20.3037C15.5246 20.6891 14.3683 20.8278 13.1042 20.8278C12.7342 20.8278 12.4875 20.8278 12.3333 20.8124C12.1792 20.797 11.9633 20.797 11.6704 20.797V25.7442C11.6858 25.8521 11.6087 25.9462 11.5008 25.9616H8.51C8.38667 25.9616 8.325 25.8984 8.325 25.7596V9.8974C8.325 9.78949 8.37125 9.72782 8.47917 9.72782C8.74125 9.72782 8.98792 9.72782 9.3425 9.7124C9.7125 9.69699 10.0979 9.69699 10.5142 9.68157C10.9304 9.66615 11.3775 9.66615 11.8554 9.65074C12.3333 9.63532 12.7958 9.63532 13.2583 9.63532C14.5225 9.63532 15.5708 9.78949 16.4342 10.1132C17.205 10.3753 17.9142 10.807 18.5 11.3774C18.9933 11.8707 19.3787 12.472 19.6254 13.1349C19.8551 13.7824 19.9785 14.4453 19.9785 15.1391C19.98 16.4649 19.6717 17.5595 19.0535 18.4228ZM29.9854 24.4199C29.5538 25.0366 28.951 25.5129 28.2587 25.7935C27.5033 26.1157 26.5783 26.2838 25.4668 26.2838C24.7592 26.2838 24.0639 26.2237 23.3717 26.0849C22.8321 25.9909 22.2925 25.8228 21.7992 25.5916C21.6912 25.5314 21.6126 25.4235 21.628 25.3002V22.6177C21.628 22.573 21.645 22.5098 21.6912 22.4789C21.736 22.4481 21.7837 22.4635 21.83 22.4944C22.4312 22.8489 23.0633 23.0972 23.7417 23.2498C24.326 23.4039 24.9426 23.481 25.5608 23.481C26.1467 23.481 26.5629 23.4024 26.8404 23.2637C27.0871 23.1557 27.2567 22.8937 27.2567 22.6162C27.2567 22.3988 27.1333 22.1999 26.8867 21.9995C26.64 21.8006 26.1328 21.5694 25.3774 21.2734C24.5911 20.9959 23.8681 20.6259 23.1882 20.1649C22.7103 19.8242 22.311 19.3787 22.015 18.8545C21.7699 18.3612 21.6465 17.8216 21.662 17.2804C21.662 16.6175 21.847 15.9854 22.1877 15.415C22.5731 14.7984 23.142 14.305 23.8049 13.9967C24.5279 13.6282 25.4375 13.4587 26.5321 13.4587C27.1642 13.4587 27.8117 13.5049 28.4438 13.5974C28.9063 13.6591 29.3533 13.7824 29.7696 13.952C29.8297 13.9674 29.8929 14.0291 29.9237 14.0907C29.9392 14.1524 29.9546 14.2141 29.9546 14.2757V16.7887C29.9546 16.8503 29.9237 16.912 29.8775 16.9428C29.7387 16.9737 29.6617 16.9737 29.6 16.9428C29.1375 16.6962 28.6442 16.5266 28.12 16.4187C27.5496 16.2953 26.9792 16.2182 26.3933 16.2182C26.085 16.2028 25.7612 16.2491 25.4668 16.3262C25.2679 16.3724 25.0968 16.4803 24.9889 16.6345C24.9118 16.7578 24.8655 16.912 24.8655 17.0507C24.8655 17.1895 24.9272 17.3282 25.0212 17.4516C25.16 17.6212 25.3435 17.7599 25.5454 17.8678C25.8985 18.0528 26.27 18.2224 26.6385 18.3766C27.4725 18.6541 28.2742 19.0395 29.0142 19.502C29.5229 19.8242 29.9392 20.2574 30.2305 20.7816C30.4772 21.2718 30.6005 21.8145 30.5851 22.3679C30.6021 23.0941 30.3863 23.8171 29.9854 24.4199Z" fill="#31A8FF"/>
</g>
<defs>
<clipPath id="clip0_55_70">
<rect width="37" height="37" fill="white"/>
</clipPath>
</defs>
</svg>
