<svg width="804" height="540" viewBox="0 0 804 540" fill="none" xmlns="http://www.w3.org/2000/svg">
<g filter="url(#filter0_d_178_2)">
<path fill-rule="evenodd" clip-rule="evenodd" d="M324.344 441.575C218.809 448.789 106 363.151 106 258.929C106 154.701 273.276 199.12 327.538 116.399C457.551 -81.6642 720.024 237.054 627.751 272.627C442.863 343.852 577.5 424.257 324.344 441.575Z" fill="#D2D2D2"/>
</g>
<g filter="url(#filter1_d_178_2)">
<path d="M613.911 253.908C613.968 254.185 614.111 254.444 614.169 254.721C614.636 257.317 614.933 259.083 614.625 261.351C613.887 266.201 610.5 270.9 612.458 277.043C614.567 285.747 625.221 291.039 628.087 282.411C629.73 276.711 626.933 269.774 623.804 263.479C622.061 260.104 620.054 256.872 617.804 253.813C620.268 253.651 622.692 253.109 624.991 252.205C625.476 252.013 625.872 251.839 626.356 251.646C626.494 251.715 626.72 251.766 626.857 251.836C631.082 250.043 634.547 248.305 638.843 247.17C646.234 245.042 655.595 242.91 656.294 234.996C656.368 232.485 654.069 229.962 651.664 228.131C648.414 225.95 644.447 225.115 640.595 225.8C633.957 226.628 629.375 230.603 626.893 235.508C625.365 238.593 624.659 242.092 624.181 245.642C624.075 247.391 623.662 249.296 624.096 251.131C621.277 252.262 618.16 252.685 614.849 252.761C614.688 252.717 614.518 252.717 614.357 252.761C613.173 252.79 611.988 252.735 610.812 252.596C610.542 247.177 612.749 242.134 614.683 236.953C615.314 234.908 616.172 232.916 616.391 230.664C618.091 231.181 619.849 231.48 621.623 231.553C624.901 231.771 627.689 229.877 626.439 226.764C624.206 222.596 616.463 220.569 612.265 219.765C608.689 219.219 605.059 219.128 601.461 219.493C600.966 219.509 600.473 219.574 599.991 219.687C602.1 217.639 604.12 215.609 606.093 213.493C607.855 211.706 609.52 209.745 611.233 207.872C616.836 209.072 621.937 212.195 627.127 215.3C633.429 219.338 640.016 223.705 646.471 221.665C651.899 219.732 651.613 212.876 645.439 208.717C639.177 204.575 631.667 202.79 625.022 202.37C622.322 202.196 619.613 202.248 616.923 202.526C616.656 202.579 616.341 202.545 615.986 202.615L620.616 197.67C623.235 194.947 625.901 192.309 628.519 189.585C628.834 189.619 629.237 189.636 629.642 189.652C631.354 189.892 632.072 189.941 633.832 190.267C638.216 191.227 642.664 192.655 647.04 193.424C651.234 194.121 655.5 194.28 659.734 193.899C662.811 193.58 666.065 193.228 668.609 191.958C673.214 189.611 673.662 184.243 667.1 180.448C661.366 177.483 654.871 176.32 648.465 177.112C646.778 177.444 644.767 177.551 643.272 178.229L642.013 177.037L642.191 177.002C645.826 175.038 649.841 173.575 653.944 172.093C659.331 170.263 665.081 168.555 670.913 166.637C673.343 167.983 675.449 169.104 677.951 171.108C684.666 176.409 689.456 184.969 695.984 191.171C700.462 195.472 712.198 203.048 717.843 202.032C729.489 199.93 707.343 183.269 702.073 179.315C696.02 174.845 689.506 171.135 682.92 167.825C680.738 166.708 678.484 165.741 676.171 164.931C683.9 162.352 691.533 159.6 698.609 156.382C699.886 155.842 701.113 155.216 702.252 154.608L702.389 154.677C703.253 154.987 704.254 155.366 705.166 155.762C706.62 156.243 709.598 157.865 710.195 158.227C721.81 165.059 729.069 176.972 741.693 183.317C747.005 186.111 753.706 187.862 757.947 185.394C764.952 179.407 749.44 168.254 742.305 163.612C735.549 159.471 728.226 156.787 720.937 154.862C717.286 153.845 713.556 153.135 709.787 152.739C708.612 152.589 707.427 152.534 706.243 152.574C714.998 147.982 723.182 142.374 730.625 135.866C730.988 135.985 731.392 136.002 731.755 136.123C733.842 136.712 735.891 137.431 737.89 138.274C743.04 140.427 746.947 142.824 751.61 146.227C757.381 150.37 763.183 155.274 770.061 156.991C772.451 157.384 775.197 157.707 776.804 156.527C778.186 155.295 778.495 153.025 777.067 151.003C775.099 147.839 771.596 145.455 768.279 143.23C765.257 141.204 762.098 139.389 758.827 137.797C754.858 135.793 750.695 134.2 746.403 133.044C742.973 132.074 739.487 131.318 735.964 130.781C737.249 129.376 738.533 127.971 739.77 126.48L739.859 126.462C745.198 123.49 751.465 121.295 755.031 116.561C756.469 114.549 757.722 112.382 757.563 109.63C757.622 105.682 751.924 102.197 747.831 101.755C743.552 101.157 740.652 103.554 739.615 106.638C738.522 110.501 739.512 114.914 739.235 119.001C739.173 120.926 738.923 122.84 738.488 124.716C738.447 124.807 738.429 124.905 738.433 125.004C738.437 125.104 738.464 125.2 738.511 125.287C737.017 127.022 735.52 128.757 733.849 130.526C732.623 131.81 731.328 133.027 729.97 134.17C730.715 131.624 730.458 128.698 728.95 125.829C728.016 123.805 725.715 122.338 723.446 121.633C718.328 120.241 716.913 123.88 719.001 127.789C720.565 130.937 723.994 134.774 723.864 137.009C723.888 137.621 723.869 138.235 723.806 138.845C723.747 138.947 723.715 139.062 723.712 139.18C723.709 139.298 723.735 139.415 723.789 139.52C720.16 142.37 716.35 144.981 712.382 147.335C713.821 144.268 714.89 140.889 713.924 137.048C713.062 133.569 709.504 129.855 705.305 130.106C701.372 130.305 698.73 132.457 696.589 134.799C692.249 139.206 691.523 146.549 689.866 151.868C689.121 154.414 687.876 156.772 686.583 159.042C686.463 159.355 685.984 159.736 686.048 160.204C675.904 163.931 665.508 167.035 654.904 170.468C650.358 172.036 645.858 173.691 641.739 175.846C643.533 173.765 645.238 171.701 646.895 169.55C649.009 169.805 650.923 169.524 652.136 168.517C653.477 167.389 652.89 165.105 651.171 163.62C652.052 162.198 653.022 160.759 653.855 159.251C658.488 161.89 662.952 163.698 666.474 162.237C669.455 160.689 667.172 156.435 664.041 154.364C662.721 153.462 661.324 152.677 659.868 152.018C661.407 150.857 663.042 149.828 664.755 148.945C672.381 144.946 681.467 142.678 688.011 137.45C691.308 134.88 695 132.136 695.899 127.927C696.191 126.334 696.289 124.394 694.877 122.753C689.511 117.57 682.217 120.927 678.09 122.893C674.54 124.655 671.504 127.303 669.275 130.581C667.076 133.702 665.661 137.342 663.971 140.842C663.253 142.287 662.459 143.693 661.593 145.055C661.804 144.725 661.966 144.31 662.176 143.98C663.736 140.6 665.023 137.083 666.309 133.566C666.487 133.531 666.527 133.426 666.705 133.392C666.777 133.343 666.837 133.279 666.88 133.204C666.924 133.129 666.95 133.045 666.956 132.958C666.931 132.766 666.862 132.583 666.754 132.422C666.794 132.318 666.834 132.214 666.924 132.196C667.047 132.222 667.175 132.206 667.286 132.149C667.398 132.092 667.487 131.998 667.538 131.883C669.851 126.147 677.086 115.986 671.447 108.553C670.686 107.863 669.697 107.477 668.67 107.468C665.981 107.422 664.583 109.33 663.717 111.132C661.76 115.742 661.627 121.144 662.979 126.734C663.33 128.303 663.768 129.851 664.292 131.371C664.486 131.717 664.502 132.098 664.784 132.426C663.903 132.791 663.071 133.244 662.192 133.609C661.334 130.877 660.723 128.074 660.365 125.233C659.85 121.494 659.29 115.557 654.867 112.588C654.187 112.204 653.388 112.093 652.63 112.279C651.872 112.464 651.213 112.931 650.788 113.586C648.929 116.256 649.806 120.115 651.16 123.592C652.358 126.615 653.953 129.465 655.902 132.066C656.713 133.185 657.626 134.226 658.629 135.177L658.678 135.263C657.322 136.011 655.966 136.758 654.744 137.574C650.123 140.597 646.204 144.345 642.325 147.989C641.937 148.354 641.59 148.614 641.202 148.979C640.678 148.218 640.242 147.44 639.806 146.661C638.393 144.116 637.175 141.468 636.162 138.739C634.407 134.189 631.939 126.611 626.048 122.78C624.159 121.52 622.075 122.027 621.275 123.241C619.973 125.321 621.312 128.417 622.36 130.995C624.246 135.423 627.247 139.728 630.595 143.772C632.572 146.071 634.5 148.283 636.695 150.442C637.203 150.822 637.631 151.41 638.18 151.686C635.594 154.115 632.919 156.562 630.245 159.009C627.852 154.201 626.327 149.893 624.417 144.894C622.571 140.361 620.668 135.554 616.61 131.648C613.309 128.746 609.619 129.377 608.664 132.253C606.892 137.019 609.124 143.299 612.124 148.658C614.087 151.925 616.439 154.943 619.127 157.646C620.733 159.291 622.427 160.848 624.202 162.31C624.663 162.603 625.082 163.001 625.542 163.294C624.29 164.405 622.997 165.619 621.745 166.73L617.987 170.062C617.899 170.08 617.81 170.098 617.858 170.182C617.769 170.2 617.818 170.286 617.818 170.286C616.864 171.05 615.871 171.918 614.917 172.681L614.828 172.698C611.628 165.745 607.797 158.724 601.98 152.382C599.301 149.358 596.308 146.3 592.635 144.144C588.551 141.78 582.286 139.751 581.718 144.375C581.505 148.929 584.948 153.146 589.13 156.738C586.338 155.273 583.342 154.327 580.515 154.212C578.837 154.126 577.189 154.686 575.91 155.777C574.632 156.868 573.819 158.407 573.639 160.079C573.376 166.659 580.097 173.206 584.865 179.083C587.455 182.125 589.835 185.496 589.817 188.284C589.776 189.158 589.632 190.024 589.387 190.864C589.267 191.176 589.007 191.419 589.201 191.765C589.254 191.879 589.332 191.979 589.428 192.06C589.525 192.14 589.638 192.199 589.759 192.231C589.539 192.444 589.339 192.676 589.161 192.925C587.4 193.656 585.921 194.715 585.686 196.586C585.708 196.784 585.685 196.985 585.621 197.174C585.521 197.377 585.393 197.564 585.241 197.73C584.42 198.861 583.662 200.035 582.969 201.249C583.312 196.574 583.832 191.863 581.873 186.777C578.787 178.265 570.056 169.713 567.486 161.772C566.189 157.515 566.587 154.173 566.243 150.209C566.695 150.311 567.091 150.138 567.164 149.739C567.39 148.734 567.577 147.834 567.852 146.916C568.694 143.485 569.391 140.852 570.459 137.474C571.05 135.533 571.729 133.576 572.409 131.618L572.498 131.6C573.748 131.353 575.014 131.2 576.287 131.142C578.694 130.86 584.475 130.969 587.228 131.482C592.945 132.18 600.105 135.281 604.233 132.26C607.312 129.829 604.723 124.676 600.672 122.018C595.918 118.634 589.983 117.019 585.034 117.515C581.376 117.851 578.629 119.64 576.06 121.395C575.603 121.692 575.137 121.976 574.664 122.246C575.19 119.838 575.628 117.448 576.219 115.508C577.815 109.72 580.37 104.418 582.651 98.9764C583.103 99.0794 583.499 98.9054 583.903 98.9218C584.976 98.9022 586.051 98.8818 587.084 98.9669C590.204 99.2113 593.297 99.7261 596.329 100.506C599.994 101.415 603.724 102.793 607.413 103.22C612.638 103.918 617.798 103.093 620.763 100.109C623.503 97.0734 619.953 92.4925 615.603 90.1819C611.155 87.6981 606.23 86.6524 601.7 86.4892C595.063 86.2609 591.185 88.8488 588.735 93.4596C588.064 94.5516 586.424 96.0268 585.091 96.2895C584.617 96.4637 584.128 96.5922 583.63 96.6734C584.042 95.8245 584.317 94.9061 584.681 93.9705C586.728 88.2868 587.161 82.5377 590.669 77.5262C592.536 75.0464 596.519 71.7655 598.492 68.5928C599.462 67.1539 600.432 65.7147 601.264 64.2067C607.402 63.1894 615.161 64.5404 621.977 63.6775C624.513 63.274 627.032 62.4897 628.391 60.684C631.147 56.9721 628.558 52.875 622.786 50.8442C616.643 48.5028 611.594 50.9376 607.619 53.3523C606.343 54.2109 605.195 55.2455 604.209 56.4256C604.536 55.2355 604.935 54.0666 605.406 52.9257C606.384 50.6207 607.58 49.2329 609.617 47.5841C611.885 46.042 614.015 44.306 615.983 42.3953C617.489 41.5532 618.946 40.6251 620.345 39.6157C622.171 38.2962 623.997 36.9763 624.992 35.0525C626.407 32.4697 627.088 28.3993 623.384 25.4813C621.342 23.7718 618.274 23.2241 616.336 23.9901C611.691 26.4412 611.145 33.7489 612.441 39.0614C612.755 40.1523 613.069 41.2425 613.383 42.3318L613.432 42.4181C612.567 43.1644 611.703 43.9108 610.79 44.5706C609.17 45.6203 607.674 46.849 606.329 48.2334C606.25 45.2731 607.376 42.1714 607.152 38.9516C606.986 33.8962 603.211 28.2081 597.739 24.774C590.902 20.8413 585.474 23.8308 586.939 29.9739C587.551 32.8297 589.325 35.648 591.051 38.38C593.1 41.336 595.286 44.3614 597.998 47.0911C599.354 48.4561 600.838 49.6994 602.371 51.0294C602.831 51.4236 603.325 51.7762 603.847 52.0827C602.901 54.0931 602.415 56.3965 601.743 58.545C600.671 61.7434 599.087 64.7465 597.053 67.4369C595.25 70.3841 591.307 73.5612 588.931 76.7172C588.476 77.3293 588.083 77.9857 587.759 78.6765C587.666 78.4863 587.537 78.316 587.379 78.1752C586.357 74.0566 586.368 70.0225 585.887 65.9893C585.133 58.6496 582.126 50.9863 573.158 46.417C569.13 44.3307 563.891 43.2511 561.216 45.6985C558.202 48.5963 558.691 53.876 561.425 58.2313C565.272 64.5775 572.027 69.7742 578.743 74.019C581.455 75.693 583.909 76.5535 585.682 78.3157L585.779 78.4885C585.908 79.0434 586.081 79.5872 586.295 80.115C586.36 80.2178 586.448 80.3041 586.551 80.367C586.655 80.4299 586.772 80.4677 586.893 80.4774C585.138 84.5669 584.392 89.226 582.945 93.1595C580.768 98.9645 578.043 104.495 575.867 110.298C575.617 109.675 575.303 108.585 575.053 107.963C574.048 104.847 573.228 101.675 572.597 98.4632C570.818 90.1736 568.329 79.9114 558.031 74.5491C544.559 68.2755 533.724 75.8822 542.476 88.1735C547.276 94.8119 554.863 99.5572 562.418 103.54C566.228 105.765 570.378 107.54 572.992 110.097C573.426 110.653 573.797 111.256 574.097 111.895C574.29 112.241 574.256 112.534 574.581 112.76L574.992 112.966C574.839 113.573 574.596 114.197 574.442 114.802C573.179 118.891 572.514 123.344 571.526 127.569C571.287 128.613 570.97 129.638 570.579 130.635C570.49 130.653 570.539 130.739 570.499 130.843C570.256 131.467 570.102 132.073 569.861 132.697C565.536 127.788 563.175 121.631 558.964 116.221C554.825 111.468 548.395 106.495 542.119 106.388C532.897 106.476 539.171 118.392 544.254 123.247C548.41 127.324 553.729 130.308 559.187 132.304C559.815 134.485 560.622 136.63 561.475 138.862C560.862 138.119 560.159 137.393 559.547 136.649C557.812 134.783 553.657 129.65 551.105 130.729C548.705 132.258 552.618 136.959 555.015 138.598C557.287 140.299 559.843 141.583 562.563 142.39L562.651 142.373C563.297 144.315 563.755 146.314 564.02 148.343C564.221 149.946 564.333 151.558 564.356 153.173C564.17 153.017 563.936 152.774 563.75 152.62C562.863 151.739 562.064 150.841 561.265 149.942C559.433 147.903 557.78 145.831 555.472 144.171C551.17 140.891 547.397 142.786 550.309 147.108C552.552 150.41 556.782 151.978 560.407 152.991C561.134 153.23 562.95 153.834 563.789 154.627L563.837 154.714C564.023 154.869 564.12 155.042 564.306 155.198C564.505 158.902 565.067 162.728 567.422 166.584C571.874 174.538 579.096 182.331 580.673 190.085C581.67 195.744 580.293 201.392 580.587 207.381C580.695 214.272 582.297 221.541 582.631 228.483C582.768 229.608 582.904 230.733 583.081 231.756C580.685 229.059 578.159 226.485 575.503 224.032C570.016 219.163 564.44 214.308 559.259 209.281C559.286 208.801 559.387 208.327 559.559 207.878C560.041 206.136 560.771 204.472 561.726 202.939C564.119 199.107 569.686 195.13 570.715 189.744C572.351 182.799 563.586 177.708 557.108 180.233C551.444 182.98 551.48 190.269 552.042 196.207C552.337 198.642 552.827 201.05 553.507 203.406L552.805 202.681C549.15 198.793 545.665 194.68 542.049 190.688C542.033 190.307 541.655 189.806 541.501 189.356C540.991 188.456 540.562 187.512 540.22 186.536C538.97 183.423 537.906 178.352 537.959 175.27C537.85 168.379 542.069 163.228 540.322 155.7C539.462 151.165 534.137 144.823 529.144 147.535C527.569 148.421 526.831 150.102 526.178 151.575C525.119 154.09 524.745 156.945 524.822 159.906C524.984 164.205 525.889 168.444 527.494 172.435C528.478 174.97 529.628 177.437 530.937 179.819C524.44 174.379 517.346 169.633 510.906 164.47C510.949 164.363 510.965 164.247 510.952 164.132C510.94 164.018 510.899 163.908 510.834 163.812C510.706 163.26 510.623 162.699 510.585 162.133C510.473 160.524 510.701 157.406 511.486 155.812C514.381 150.058 517.679 144.32 517.337 137.187C517.125 128.877 514.753 114.944 503.169 109.93C495.242 106.692 491.643 112.777 491.608 118.352C491.028 128.066 496.39 138.53 500.792 148.51C502.574 152.576 503.92 155.862 505.33 159.616C503.664 158.064 502.085 156.42 500.602 154.692C496.503 149.836 493.616 145.028 490.164 139.565C487.179 134.585 483.84 129.675 480.856 124.695C480.275 123.657 479.735 122.515 479.154 121.478C479.212 121.42 479.257 121.351 479.284 121.274C479.312 121.198 479.323 121.116 479.315 121.035C479.307 120.953 479.282 120.875 479.24 120.805C479.199 120.735 479.142 120.675 479.075 120.629C474.855 116.085 472.257 111.797 468.474 106.974C462.706 99.6626 455.993 92.249 447.495 87.1078C443.725 84.7785 439.632 84.337 438.242 87.491C437.409 90.0554 438.884 93.2205 440.303 96.1091C441.803 98.7896 443.44 101.537 445.602 103.993C449.128 108.002 453.438 111.473 457.917 114.719C463.089 118.373 468.572 121.565 474.302 124.258L479.92 126.895C480.061 126.965 480.216 127 480.372 126.998C482.3 130.266 484.543 133.568 486.559 136.819C485.977 136.711 485.403 136.568 484.839 136.39C482.062 135.696 479.365 134.716 476.791 133.464C467.516 129.051 458.864 122.404 448.708 119.414C446.763 118.935 444.736 118.661 443.242 119.339C442.4 119.77 441.745 120.495 441.402 121.376C441.059 122.258 441.052 123.235 441.381 124.122C442.71 128.084 446.923 131.382 450.878 133.867C460.071 139.544 470.711 143.399 480.328 143.136C483.55 143.077 486.716 142.741 489.406 141.732L489.495 141.714C492.423 146.417 495.437 151.103 499.158 155.458C502.361 159.243 506.218 162.611 510.197 165.667C510.809 166.177 511.442 166.661 512.094 167.117C507.484 166.106 503.2 164.262 498.362 162.143C493.39 159.955 488.425 157.957 483.291 156.185C477.163 154.224 470.431 151.71 464.737 152.64C461.273 153.323 460.56 156.631 463.02 159.794C465.254 162.908 468.976 165.149 472.333 167.271C478.008 170.619 484.168 173.065 490.593 174.522C497.06 176.031 503.496 176.779 509.616 176.437C513.816 176.186 518.144 175.814 521.851 174.507C521.94 174.489 521.891 174.403 521.891 174.403C526.887 178.219 531.793 182.052 535.997 186.217C538.571 188.878 541.057 191.557 543.453 194.252C537.115 193.884 530.83 192.871 524.697 191.228C516.018 189.29 505.249 185.556 499.407 190.451C495.804 193.177 497.237 198.558 502 202.132C506.576 205.55 512.138 206.854 517.217 207.294C525.089 208.143 531.615 205.705 537.311 202.664C539.766 201.412 542.876 199.743 545 199.133C545.601 198.918 546.229 198.795 546.866 198.765L547.399 198.66C548.996 200.456 550.731 202.324 552.418 204.103C553.071 204.742 553.636 205.399 554.241 205.952L554.338 206.125C554.435 206.298 554.572 206.367 554.846 206.505L557.509 209.148C557.499 209.247 557.512 209.346 557.546 209.439C557.581 209.533 557.637 209.616 557.709 209.684C557.91 209.848 558.144 209.965 558.395 210.029C562.688 214.175 567.199 218.183 571.799 222.172C575.734 225.573 579.433 229.238 582.869 233.143C583.055 233.298 583.2 233.558 583.434 233.8C583.473 234.024 583.467 234.253 583.417 234.475C582.856 240.346 583.829 246.489 584.85 252.721C581.109 255.378 574.537 254.561 569.449 256.043C565.911 257.125 563.067 259.795 563.267 263.502C563.393 267.605 566.628 272.152 571.212 274.704C577.5 278.361 583.551 275.249 584.653 270.52C585.673 267.055 585.926 263.453 586.22 259.747C587.153 263.883 588.046 268.123 588.439 272.174C589.066 276.467 588.439 280.814 588.543 285.402C588.663 286.146 588.469 286.856 588.768 287.565C589.243 288.24 590.447 288.099 590.326 287.355C590.037 284.723 590.379 281.104 590.429 278.022C590.369 274.983 590.153 271.95 589.782 268.933C589.18 264.156 587.811 259.242 586.845 254.344L586.943 253.461C586.956 253.414 586.958 253.364 586.948 253.316C586.938 253.268 586.917 253.222 586.887 253.184C587.684 253.026 587.678 252.836 588.211 252.731C591.175 251.859 594.26 251.733 597.538 251.949C597.418 252.261 597.521 252.625 597.352 252.85C597.246 253.543 597.085 253.959 597.012 254.357C596.267 256.904 595.062 259.157 593.905 261.497C591.754 265.761 589.328 270.943 592.926 276.664C598.934 286.52 610.467 284.92 608.002 275.23C606.835 269.795 602.293 263.971 600.568 259.126C599.989 257.032 599.844 255.717 600.346 253.794C600.43 253.293 600.592 252.808 600.825 252.357C603.707 252.749 606.55 253.245 609.52 253.62C610.976 253.81 612.443 253.906 613.911 253.908ZM561.865 135.522C561.511 134.536 561.245 133.533 560.939 132.633C561.665 132.872 562.481 133.097 563.159 133.252C564.838 133.785 565.968 134.042 567.307 135.026L567.355 135.112L567.492 135.181C567.864 135.492 568.105 135.925 568.517 136.131C568.477 136.236 568.525 136.322 568.437 136.339C567.285 139.775 566.31 143.268 565.515 146.803C565.475 146.907 565.523 146.994 565.435 147.011C564.92 143.273 563.324 139.363 561.865 135.522ZM594.697 225.918C595.674 225.725 599.397 225.856 600.301 226.062C601.17 226.19 602.03 226.373 602.877 226.61C601.572 228.781 600.814 231.236 600.667 233.765C599.726 232.83 598.651 232.039 597.479 231.418C595.323 230.116 592.949 229.218 590.472 228.766L590.423 228.68C591.151 227.865 591.878 227.049 592.654 226.32L592.743 226.303C593.373 226.083 594.031 225.953 594.697 225.918ZM621.18 194.107C620.542 190.267 619.439 186.519 617.894 182.946C616.886 180.584 615.759 178.275 614.515 176.028C614.293 175.61 614.037 175.211 613.749 174.835L615.179 173.689C618.561 175.325 621.556 177.329 624.929 179.832C626.777 181.196 628.771 182.819 630.893 184.321C627.718 187.635 624.406 190.88 621.181 194.107L621.18 194.107ZM654.005 139.255C656.52 137.485 659.182 135.932 661.962 134.615C662.535 134.407 662.972 134.129 663.545 133.92C662.534 136.519 661.571 139.205 660.423 141.735C659.275 144.265 657.99 146.726 656.703 149.188C656.631 149.236 656.571 149.301 656.528 149.376C656.484 149.451 656.459 149.535 656.452 149.621C656.373 149.829 656.242 149.951 656.161 150.158C653.285 149.301 650.317 148.791 647.32 148.637C645.884 148.536 644.535 148.417 643.146 148.403C646.774 145.193 650.313 142 654.005 139.256V139.255ZM640.301 151.078C643.579 152.353 647.687 155.287 651.957 157.806C651.076 159.227 650.281 160.631 649.354 161.966C647.779 161.102 646.075 160.498 644.308 160.177C640.023 159.343 635.636 159.171 631.3 159.668C634.273 156.872 637.376 153.957 640.301 151.078ZM625.644 164.718C625.962 164.453 626.264 164.169 626.549 163.868C627.138 164.04 627.808 164.004 628.398 164.176C630.658 164.69 633.015 165.378 635.284 166.083C637.779 166.839 641.234 168.078 644.439 168.695C642.782 170.846 640.988 172.926 639.194 175.009C636.934 173.438 634.383 172.404 631.84 171.561C629.523 170.758 627.129 170.2 624.695 169.897C623.121 169.727 621.595 169.644 620.069 169.561C622.016 167.928 623.874 166.313 625.644 164.716V164.718ZM594.574 185.336C596.085 182.926 597.589 180.326 598.415 177.571C599.238 179.041 600.06 180.511 601.02 182.05C598.17 184.065 595.434 186.239 592.827 188.56C593.409 187.484 593.991 186.409 594.573 185.334L594.574 185.336ZM591.967 191.607C595.102 188.636 598.445 185.892 601.97 183.396C604.866 187.695 608.168 191.706 611.83 195.374C613.089 196.566 614.484 197.827 615.784 198.915C615.941 199.058 616.111 199.185 616.292 199.295C614.191 201.533 612.138 203.857 610.086 206.182C609.996 206.152 609.899 206.146 609.806 206.164C609.712 206.183 609.625 206.225 609.553 206.287C609.489 206.316 609.432 206.358 609.386 206.412C609.341 206.466 609.308 206.528 609.289 206.596C609.271 206.664 609.267 206.735 609.279 206.804C609.291 206.874 609.318 206.939 609.359 206.997C608.202 208.281 607.136 209.547 605.932 210.744C605.063 207.075 604.371 203.372 602.605 199.688C600.396 195.035 596.741 191.147 591.967 191.607ZM584.359 228.242C583.896 220.366 582.101 212.751 582.285 205.323C582.309 204.839 582.285 204.267 582.31 203.782C583.255 203.884 583.377 202.516 583.846 201.944C584.387 200.973 584.977 200.089 585.568 199.204C586.381 201.54 588.051 203.994 589.883 206.034C592.416 208.799 596.008 210.105 599.213 211.78C599.827 212.131 600.412 212.529 600.964 212.971C601.013 213.057 601.199 213.213 601.247 213.299C601.384 213.368 601.626 213.8 601.763 213.869C601.945 214.106 602.092 214.369 602.199 214.648C598.934 217.979 595.395 221.172 592.042 224.521C592.338 222.066 592.34 219.584 592.047 217.128C591.798 215.449 591.403 213.51 589.992 211.869C588.959 210.728 587.021 210.438 586.205 211.27C585.34 212.017 585.347 213.263 585.306 214.423C585.442 216.605 586.119 218.872 586.924 221.017C587.604 222.818 588.145 224.67 588.544 226.554C588.653 227.014 588.717 227.483 588.736 227.956C587.411 229.465 586.135 231.06 584.907 232.742C584.753 231.237 584.512 229.747 584.359 228.242H584.359ZM588.049 251.227C587.446 251.361 586.855 251.542 586.28 251.768L586.191 251.785C585.532 247.787 584.986 243.287 584.762 240.067C584.697 239.428 584.7 238.783 584.771 238.145C584.82 238.226 584.887 238.295 584.967 238.346C585.047 238.397 585.137 238.429 585.232 238.438C585.958 238.678 586.475 238.193 586.088 237.502C585.935 237.052 585.871 236.584 585.718 236.135C586.073 236.065 586.332 235.822 586.227 235.458C586.316 235.441 586.316 235.441 586.453 235.51C587.339 235.559 588.217 235.708 589.069 235.955C590.748 236.487 593.767 238.005 596.125 238.692C597.715 239.243 599.515 239.464 600.799 239.115C600.919 240.209 601.129 241.292 601.427 242.351C602.317 245.603 603.795 248.663 605.789 251.38C605.886 251.553 606.071 251.708 606.168 251.881C600.396 250.907 593.275 249.814 588.05 251.227H588.049Z" fill="#ABA8A8"/>
</g>
<g filter="url(#filter2_d_178_2)">
<path fill-rule="evenodd" clip-rule="evenodd" d="M235.118 146.923C198.742 155.483 144.102 186.594 131.514 128.98C122.891 89.5037 225.299 92.8744 246.568 71.002C293.356 22.8868 365.372 66.4164 334.577 81.884C272.873 112.862 322.379 126.384 235.118 146.923Z" fill="#D2D2D2"/>
</g>
<g filter="url(#filter3_d_178_2)">
<path fill-rule="evenodd" clip-rule="evenodd" d="M513.218 211.923C499.458 232.463 360.885 243.727 342.873 218.487C315.034 179.512 395.209 68.1276 395.209 68.1276C394.174 62.8039 393.982 49.9343 398.191 44.9123C404.568 37.2787 395.082 30.029 400.983 28.3823C408.567 26.2738 414.644 33.4115 427.855 36.981C435.683 39.074 434.59 59.5445 427.19 71.0021C424.556 75.067 419.525 75.4384 419.525 75.4384C419.525 75.4384 388.597 151.26 395.165 165.781C403.313 183.743 442.1 163.063 501.696 154.681C530.198 150.668 520.799 200.601 513.218 211.923Z" fill="#394BE9"/>
</g>
<g filter="url(#filter4_d_178_2)">
<mask id="mask0_178_2" style="mask-type:luminance" maskUnits="userSpaceOnUse" x="337" y="27" width="184" height="206">
<path d="M513.133 211.632C499.402 232.206 361.115 243.488 343.14 218.207C315.358 179.169 395.368 67.6027 395.368 67.6027C394.336 62.2702 394.143 49.3797 398.344 44.3495C404.708 36.7035 395.241 29.4419 401.13 27.7926C408.698 25.6806 414.763 32.83 427.947 36.4053C435.758 38.5017 434.668 59.0055 427.283 70.4818C424.655 74.5533 419.633 74.9253 419.633 74.9253C419.633 74.9253 388.77 150.87 395.324 165.415C403.455 183.406 442.162 162.692 501.636 154.297C530.078 150.277 520.699 200.292 513.133 211.632Z" fill="white"/>
</mask>
<g mask="url(#mask0_178_2)">
<path fill-rule="evenodd" clip-rule="evenodd" d="M436.628 156.049C441.834 160.041 443.063 169.494 443.946 175.408C444.883 181.658 444.598 188.075 442.509 194.1C439.369 203.169 432.854 210.585 430.177 219.818C428.189 226.688 428.665 234.431 430.994 241.174C432.08 244.326 433.723 247.259 435.845 249.831C448.426 264.994 474.331 259.334 490.218 254.002C508.096 248.002 525.755 236.569 534.981 219.615C549.293 193.329 536.31 160.903 511.654 146.326C501.874 140.612 490.861 137.342 479.548 136.792C466.112 136.086 452.316 138.636 440.707 145.587L436.628 156.049Z" fill="#394BE9"/>
<path fill-rule="evenodd" clip-rule="evenodd" d="M384.322 72.5083C375.389 89.3645 363.866 126.222 357.856 144.211C350.185 167.307 347.129 184.815 358.918 205.496C372.866 230.034 419.423 220.444 442.204 214.14C447.231 212.746 452.195 211.133 457.081 209.305C463.974 206.785 470.667 203.75 477.106 200.226C490.389 192.802 501.48 182.6 511.409 171.159C514.265 167.879 516.822 164.294 519.844 161.173C520.741 160.241 522.102 158.866 523.564 159.035C526.021 159.317 526.586 163.85 526.917 165.614C528.179 172.918 528.079 180.551 527.581 187.919C525.622 217.043 516.158 246.136 490.122 262.044C474.05 271.87 454.025 274.925 435.694 277.615C417.397 280.298 398.136 282.724 379.606 281.036C346.531 278.02 311.629 263.648 293.531 234.315C272.611 200.336 282.241 154.924 299.41 121.501C303.693 113.169 308.641 105.156 314.52 97.8535C325.975 83.6238 341.318 70.6706 359.416 66.3257L384.322 72.5083Z" fill="black" fill-opacity="0.1"/>
</g>
</g>
<g filter="url(#filter5_d_178_2)">
<path fill-rule="evenodd" clip-rule="evenodd" d="M216.949 32.1018C215.319 29.5359 212.221 27.6939 208.667 27.1749C205.167 26.6123 201.584 27.4188 198.662 29.4273L47.8632 137.984C43.9541 140.799 42.8776 145.369 45.2509 149.105L235.029 447.86C236.683 450.464 239.755 452.267 243.333 452.825C246.834 453.388 250.417 452.581 253.339 450.573L404.137 342.015C408.046 339.201 409.122 334.631 406.749 330.894L216.949 32.1018ZM214.683 33.0202L404.484 331.815C406.33 334.721 405.498 338.291 402.422 340.505L251.624 449.062C249.335 450.627 246.536 451.266 243.794 450.848C240.986 450.449 238.589 448.985 237.295 446.947L47.5175 148.188C45.6473 145.245 46.4794 141.675 49.5537 139.461L200.351 30.9039C202.641 29.3383 205.439 28.7 208.181 29.1178C211.016 29.5535 213.388 30.9806 214.683 33.0182V33.0202Z" fill="#394BE9"/>
</g>
<g filter="url(#filter6_d_178_2)">
<path fill-rule="evenodd" clip-rule="evenodd" d="M245.6 29.7562C245.325 29.3164 244.96 28.939 244.53 28.6482C244.1 28.3574 243.613 28.1596 243.102 28.0676C242.6 27.9724 242.083 27.9778 241.583 28.0836C241.083 28.1894 240.609 28.3933 240.189 28.6837L79.5695 144.079C78.7831 144.649 78.2449 145.498 78.0655 146.451C77.886 147.404 78.0788 148.39 78.6043 149.206L266.411 444.269C266.683 444.703 267.044 445.075 267.471 445.359C267.897 445.644 268.379 445.836 268.885 445.921C269.387 446.027 269.906 446.026 270.408 445.92C270.909 445.814 271.384 445.605 271.8 445.305L432.417 329.91C433.205 329.35 433.747 328.51 433.931 327.562C434.115 326.615 433.927 325.633 433.406 324.82L245.6 29.7562Z" fill="#1E1E1E"/>
</g>
<g filter="url(#filter7_d_178_2)">
<path fill-rule="evenodd" clip-rule="evenodd" d="M367.576 262.304C364.914 258.096 359.966 255.109 354.164 254.253C348.362 253.396 342.407 254.741 338.023 257.911L254.475 318.338C243.828 326.037 240.959 338.464 247.431 348.7C250.093 352.908 255.039 355.891 260.84 356.747C266.642 357.603 272.597 356.26 276.961 353.104L360.529 292.662C371.153 284.978 374.047 272.54 367.576 262.304ZM365.774 263.026L365.776 263.03C371.836 272.614 369.126 284.262 359.174 291.459L275.606 351.901C271.713 354.718 266.383 355.926 261.202 355.16C256.043 354.379 251.606 351.732 249.23 347.975C243.171 338.392 245.881 326.744 255.832 319.546L339.4 259.103C343.293 256.287 348.624 255.079 353.781 255.856C358.96 256.623 363.398 259.269 365.773 263.026H365.774Z" fill="white"/>
</g>
<g filter="url(#filter8_d_178_2)">
<path fill-rule="evenodd" clip-rule="evenodd" d="M435.902 234.736C434.207 232.074 431.986 229.786 429.374 228.011C426.762 226.237 423.815 225.014 420.713 224.418C417.611 223.821 414.419 223.864 411.334 224.543C408.25 225.222 405.336 226.523 402.772 228.366L294.931 305.877C289.485 309.79 285.744 315.634 284.475 322.213C283.205 328.792 284.504 335.606 288.105 341.259C289.799 343.922 292.02 346.212 294.631 347.987C297.243 349.762 300.191 350.986 303.293 351.582C306.396 352.179 309.588 352.136 312.673 351.456C315.758 350.777 318.672 349.474 321.235 347.63L429.076 270.117C434.517 266.202 438.255 260.359 439.525 253.783C440.794 247.207 439.499 240.395 435.905 234.741L435.902 234.736Z" fill="#394BE9"/>
</g>
<g filter="url(#filter9_d_178_2)">
<path fill-rule="evenodd" clip-rule="evenodd" d="M310.968 175.324C310.285 174.252 309.389 173.329 308.336 172.614C307.283 171.9 306.094 171.407 304.843 171.167C303.592 170.928 302.305 170.946 301.061 171.22C299.818 171.495 298.643 172.02 297.61 172.764L192.383 248.35C190.2 249.916 188.701 252.255 188.191 254.889C187.681 257.523 188.201 260.251 189.642 262.515C190.324 263.586 191.218 264.507 192.269 265.221C193.32 265.935 194.506 266.427 195.755 266.668C197.003 266.909 198.288 266.893 199.53 266.621C200.772 266.35 201.945 265.828 202.978 265.088L308.227 189.489C310.41 187.924 311.91 185.585 312.42 182.952C312.93 180.318 312.411 177.59 310.969 175.326L310.968 175.324ZM333.358 210.485C332.675 209.413 331.779 208.49 330.726 207.775C329.673 207.061 328.484 206.568 327.233 206.328C325.982 206.089 324.695 206.106 323.452 206.381C322.208 206.656 321.034 207.181 320.001 207.925L214.773 283.512C212.59 285.078 211.09 287.417 210.581 290.051C210.071 292.685 210.59 295.413 212.032 297.677C212.714 298.748 213.608 299.669 214.659 300.383C215.71 301.097 216.896 301.59 218.145 301.83C219.393 302.071 220.677 302.055 221.92 301.784C223.162 301.512 224.335 300.99 225.368 300.251L330.616 224.65C332.799 223.085 334.299 220.746 334.809 218.113C335.319 215.479 334.8 212.751 333.358 210.487V210.485Z" fill="white"/>
</g>
<g filter="url(#filter10_d_178_2)">
<path d="M322.748 319.115L325.682 316.694C325.957 316.972 326.29 317.185 326.658 317.319C327.025 317.453 327.417 317.505 327.807 317.47C328.761 317.322 329.659 316.924 330.41 316.317C331.235 315.79 331.924 315.076 332.421 314.232C332.735 313.573 332.771 313.032 332.519 312.635C332.439 312.508 332.329 312.403 332.199 312.328C332.069 312.253 331.923 312.211 331.773 312.205C331.276 312.218 330.787 312.338 330.34 312.556C329.929 312.729 328.986 313.181 327.519 313.887C325.651 314.82 324.241 315.319 323.282 315.373C321.947 315.468 321.018 315.087 320.471 314.225C320.111 313.611 319.996 312.884 320.149 312.189C320.355 311.265 320.783 310.406 321.397 309.685C322.221 308.703 323.175 307.837 324.231 307.109C326.195 305.695 327.861 304.929 329.228 304.809C330.595 304.69 331.61 305.133 332.287 306.087L329.217 308.442C329.006 308.227 328.748 308.064 328.464 307.965C328.179 307.866 327.876 307.834 327.577 307.872C326.76 308.047 325.996 308.414 325.348 308.942C324.582 309.441 323.937 310.103 323.456 310.88C323.343 311.024 323.275 311.198 323.261 311.381C323.247 311.563 323.287 311.746 323.376 311.906C323.479 312.04 323.617 312.141 323.775 312.199C323.933 312.256 324.105 312.268 324.269 312.231C324.818 312.165 325.938 311.73 327.616 310.874C328.871 310.211 330.18 309.654 331.528 309.211C332.311 308.962 333.144 308.915 333.949 309.075C334.667 309.258 335.283 309.718 335.661 310.355C336.07 311.043 336.201 311.862 336.028 312.644C335.825 313.653 335.36 314.591 334.68 315.364C333.77 316.442 332.719 317.393 331.555 318.19C329.575 319.616 327.868 320.392 326.409 320.516C325.731 320.594 325.044 320.507 324.407 320.263C323.77 320.019 323.201 319.625 322.748 319.115ZM334.627 302.697L333.406 300.776L336.393 298.626L337.614 300.548L334.627 302.697ZM340.3 311.628L335.3 303.759L338.286 301.609L343.286 309.479L340.3 311.628ZM346.402 307.977L350 305.821C350.087 305.933 350.203 306.018 350.335 306.068C350.467 306.118 350.61 306.131 350.749 306.106C351.296 305.975 351.806 305.721 352.24 305.362C352.854 304.955 353.396 304.448 353.84 303.86C354.025 303.581 354.113 303.25 354.092 302.917C354.02 302.531 353.861 302.166 353.628 301.85L352.901 300.706C352.535 302.217 351.619 303.536 350.332 304.408C348.806 305.506 347.318 305.919 345.876 305.66C345.311 305.563 344.774 305.344 344.302 305.019C343.83 304.694 343.434 304.27 343.142 303.777C342.738 303.202 342.48 302.537 342.387 301.841C342.294 301.144 342.371 300.435 342.61 299.774C343.123 298.35 344.079 297.127 345.338 296.286C346.544 295.334 348.077 294.897 349.604 295.069L348.904 293.967L351.698 291.957L356.186 299.022C356.673 299.716 357.012 300.503 357.181 301.333C357.251 301.929 357.171 302.533 356.947 303.089C356.644 303.736 356.237 304.328 355.742 304.842C355.025 305.602 354.23 306.285 353.37 306.878C351.454 308.257 349.947 309.013 348.855 309.119C347.773 309.239 346.999 308.952 346.549 308.245C346.494 308.16 346.444 308.07 346.402 307.977ZM346.138 301.454C346.668 302.288 347.281 302.731 348.003 302.789C348.756 302.823 349.496 302.589 350.092 302.129C350.778 301.662 351.294 300.987 351.566 300.204C351.686 299.817 351.715 299.407 351.65 299.007C351.585 298.607 351.427 298.228 351.19 297.9C350.671 297.08 350.04 296.648 349.318 296.591C348.519 296.566 347.736 296.824 347.107 297.318C346.448 297.764 345.955 298.416 345.705 299.171C345.603 299.56 345.588 299.967 345.663 300.362C345.738 300.757 345.901 301.13 346.138 301.454ZM369.926 290.303L366.939 292.453L364.39 288.44C363.851 287.592 363.436 287.088 363.145 286.927C362.839 286.777 362.494 286.73 362.16 286.792C361.733 286.88 361.332 287.063 360.986 287.327C360.495 287.67 360.083 288.114 359.779 288.629C359.513 289.045 359.393 289.537 359.437 290.028C359.618 290.737 359.931 291.406 360.359 292L362.621 295.561L359.634 297.711L354.634 289.84L357.41 287.842L358.146 289C358.595 287.365 359.615 285.944 361.02 284.996C361.626 284.553 362.289 284.193 362.991 283.927C363.513 283.73 364.071 283.645 364.628 283.675C365.042 283.723 365.436 283.88 365.769 284.13C366.188 284.496 366.543 284.929 366.82 285.412L369.926 290.303ZM372.106 272.919L375.256 270.652L378.99 276.53C379.352 277.146 379.775 277.725 380.252 278.257C380.488 278.43 380.756 278.552 381.041 278.616C381.326 278.68 381.622 278.685 381.908 278.63C383.586 278.184 385.044 277.142 386.008 275.699C386.285 275.24 386.369 274.691 386.244 274.171C385.973 273.49 385.624 272.842 385.206 272.24L381.392 266.235L384.541 263.968L388.158 269.662C388.984 270.962 389.495 271.953 389.658 272.619C389.836 273.284 389.814 273.988 389.594 274.641C389.302 275.453 388.867 276.205 388.309 276.864C387.489 277.802 386.555 278.633 385.529 279.339C384.035 280.413 382.843 281.107 381.903 281.414C381.14 281.716 380.32 281.849 379.501 281.805C378.903 281.775 378.326 281.577 377.836 281.232C377.026 280.496 376.332 279.642 375.777 278.699L372.106 272.919ZM389.649 264.636L392.444 262.626L393.18 263.784C393.313 263.059 393.603 262.372 394.03 261.771C394.515 261.051 395.129 260.427 395.842 259.931C396.99 259.035 398.413 258.564 399.868 258.598C401.243 258.638 402.334 259.317 403.142 260.586C403.543 261.173 403.803 261.845 403.902 262.549C404 263.254 403.935 263.971 403.71 264.646C403.224 266.073 402.287 267.304 401.04 268.152C400.479 268.569 399.854 268.893 399.191 269.113C398.485 269.318 397.752 269.408 397.018 269.38L399.54 273.351L396.553 275.501L389.649 264.636ZM395.019 266.31C395.584 267.2 396.256 267.663 397.029 267.725C397.834 267.776 398.629 267.533 399.267 267.04C399.918 266.599 400.398 265.949 400.627 265.197C400.84 264.488 400.663 263.689 400.108 262.812C399.579 261.979 398.966 261.535 398.232 261.464C397.459 261.428 396.698 261.669 396.086 262.142C395.406 262.597 394.899 263.267 394.645 264.045C394.53 264.426 394.504 264.828 394.569 265.221C394.634 265.614 394.787 265.986 395.019 266.31Z" fill="white"/>
</g>
<g filter="url(#filter11_d_178_2)">
<path d="M236.612 186.215C256.683 167.366 260.285 138.595 244.657 121.953C229.029 105.31 200.088 107.099 180.017 125.947C159.945 144.795 156.343 173.566 171.971 190.209C187.6 206.851 216.54 205.063 236.612 186.215Z" fill="white"/>
</g>
<g filter="url(#filter12_d_178_2)">
<path fill-rule="evenodd" clip-rule="evenodd" d="M203.761 176.446C197.944 176.358 192.701 173.8 189.618 168.937C184.03 160.121 187.678 147.045 197.783 139.754C207.888 132.463 220.666 133.695 226.253 142.511C229.867 148.213 229.571 155.71 226.235 162.25C239.934 157.63 252.192 159.919 255.283 168.449C258.899 178.465 248.485 193.325 232.057 201.602C215.63 209.88 199.305 208.484 195.689 198.468C193.433 192.101 196.777 183.79 203.761 176.446Z" fill="#394BE9"/>
</g>
<g filter="url(#filter13_d_178_2)">
<path fill-rule="evenodd" clip-rule="evenodd" d="M500.001 380C503.522 313.361 480.165 255.364 482.292 217.268C483.654 193.101 473.221 157.233 512.825 151.422C546.781 146.44 588.744 155.44 597.017 164.603C613.762 183.089 607.682 283.32 591.767 296.991C559.872 317.413 524.919 359.595 500.001 380Z" fill="#394BE9"/>
</g>
<g filter="url(#filter14_d_178_2)">
<mask id="mask1_178_2" style="mask-type:luminance" maskUnits="userSpaceOnUse" x="482" y="150" width="126" height="230">
<path d="M500.695 379.255C504.214 312.839 480.869 255.036 482.995 217.067C484.356 192.981 473.929 157.233 513.513 151.441C547.451 146.476 589.394 155.446 597.662 164.579C614.399 183.002 608.322 282.899 592.415 296.524C560.535 316.877 525.601 358.919 500.695 379.255Z" fill="white"/>
</mask>
<g mask="url(#mask1_178_2)">
<path fill-rule="evenodd" clip-rule="evenodd" d="M569.333 201.074C566.576 204.753 565.015 209.306 563.72 213.663C560.3 224.897 560.168 236.108 561.728 247.668C563.256 259.084 566.278 270.91 564.218 282.457C562.658 290.999 558.075 298.061 553.592 305.314C542.336 323.556 535.693 329.546 520.45 343.072C511.783 350.736 494.88 382.24 497.437 394.501C499.198 403.052 512.713 394.75 517.795 392.136C531.576 385.033 543.896 375.047 557.345 367.247C576.539 356.086 598.124 346.445 612.504 328.878C631.598 305.527 633.89 270.22 626.551 241.91C623.064 228.434 616.921 214.331 604.8 206.6L569.333 201.074Z" fill="black" fill-opacity="0.1"/>
</g>
</g>
<g filter="url(#filter15_d_178_2)">
<path fill-rule="evenodd" clip-rule="evenodd" d="M594.342 166.319C617.179 175.952 663.681 307.07 636.95 331.497C610.219 355.924 433.987 312.892 433.987 312.892C428.938 314.907 416.334 317.516 410.567 314.331C401.888 309.519 407.229 298.772 404.501 293.299C401.004 286.261 376.023 302.097 377.03 288.465C377.657 280.402 418.156 275.891 430.825 280.999C435.355 282.819 436.662 287.685 436.662 287.685C436.662 287.685 562.184 299.303 575.252 290.131C591.413 278.768 550.904 237.799 557.208 191.49C561.087 163.024 581.803 161.018 594.342 166.319Z" fill="#394BE9"/>
</g>
<g filter="url(#filter16_d_178_2)">
<mask id="mask2_178_2" style="mask-type:luminance" maskUnits="userSpaceOnUse" x="376" y="163" width="269" height="176">
<path d="M593.741 165.781C616.558 175.413 663.019 306.504 636.312 330.926C609.604 355.348 433.53 312.325 433.53 312.325C428.485 314.339 415.893 316.948 410.131 313.764C401.459 308.952 406.796 298.208 404.07 292.736C400.576 285.699 375.617 301.532 376.623 287.903C377.25 279.842 417.713 275.332 430.371 280.438C434.897 282.258 436.203 287.124 436.203 287.124C436.203 287.124 561.612 298.739 574.669 289.568C590.815 278.208 550.343 237.247 556.641 190.947C560.517 162.488 581.214 160.482 593.741 165.781Z" fill="white"/>
</mask>
<g mask="url(#mask2_178_2)">
<path fill-rule="evenodd" clip-rule="evenodd" d="M557.719 250.759C560.664 244.897 569.718 241.916 575.362 239.939C581.325 237.847 587.681 236.923 593.99 237.843C603.487 239.226 611.994 244.234 621.565 245.131C628.687 245.795 636.202 243.876 642.389 240.323C645.282 238.665 647.854 236.501 649.982 233.934C662.516 218.732 652.097 194.348 643.88 179.743C634.632 163.308 620.09 148.107 601.706 142.226C573.201 133.099 543.787 151.934 534.094 178.887C530.316 189.565 529.17 200.996 530.752 212.212C532.579 225.542 537.671 238.614 546.679 248.714L557.719 250.759Z" fill="#394BE9"/>
</g>
</g>
<g filter="url(#filter17_d_178_2)">
<path fill-rule="evenodd" clip-rule="evenodd" d="M519.309 150.49C519.309 150.49 532.514 140.634 529.434 130.259C528.646 127.535 522.684 135.212 517.311 131.889C509.971 127.318 508.201 100.979 516.491 87.2747C521.635 78.7808 539.722 73.686 545.62 79.4719C551.518 85.2578 553.844 109.919 551.813 121.995C548.602 141.257 566 152.845 566 152.845C566 152.845 537.101 176.184 529.827 195.555C527.697 201.244 519.309 150.49 519.309 150.49Z" fill="#394BE9"/>
</g>
<g filter="url(#filter18_d_178_2)">
<mask id="mask3_178_2" style="mask-type:luminance" maskUnits="userSpaceOnUse" x="510" y="76" width="57" height="121">
<path d="M518.904 150.544C518.904 150.544 532.287 140.645 529.165 130.224C528.367 127.488 522.324 135.198 516.878 131.86C509.439 127.27 507.646 100.814 516.048 87.0496C521.261 78.5183 539.592 73.401 545.57 79.2124C551.548 85.0239 553.905 109.794 551.846 121.923C548.592 141.27 566.225 152.909 566.225 152.909C566.225 152.909 536.935 176.351 529.563 195.808C527.405 201.521 518.904 150.544 518.904 150.544Z" fill="white"/>
</mask>
<g mask="url(#mask3_178_2)">
<path fill-rule="evenodd" clip-rule="evenodd" d="M525.675 131.648C526.737 131.074 527.601 129.901 528.398 129.025C530.229 127.062 531.916 124.97 533.446 122.765C534.01 121.887 534.574 120.992 535.206 120.125C535.338 119.906 535.704 119.268 536.036 119.268C536.368 119.268 536.169 120.364 536.136 120.506C535.914 122.039 535.558 123.55 535.073 125.022C533.247 131.045 529.494 135.555 525.476 140.241L525.675 131.648Z" fill="black" fill-opacity="0.1"/>
</g>
</g>
<g filter="url(#filter19_d_178_2)">
<path fill-rule="evenodd" clip-rule="evenodd" d="M520.304 98.5726C517.785 98.4217 515.434 96.9521 513.486 95.4491C505.997 89.6849 506.502 79.6563 513.016 73.3352C516.945 69.5406 525.005 67.0076 528.767 72.3491C529.976 70.638 532.494 69.9128 534.408 69.4668C535.962 69.0547 537.576 68.9139 539.178 69.0506C550.126 70.5238 547.574 84.2695 555.902 88.665C558.622 86.9167 561.611 92.6305 562.148 94.3719C563.995 100.428 563.19 110.778 556.204 113.194C555.599 114.821 554.055 115.966 552.678 116.904C548.883 119.512 542.771 121.377 538.539 118.683C538.03 118.354 537.567 117.959 537.162 117.509C534.14 114.15 537.33 110.322 538.338 106.833C538.875 104.994 539.312 102.692 537.7 101.246C536.39 100.112 535.08 100.756 534.039 101.851C532.461 103.519 531.588 106.146 529.069 106.616C525.442 107.287 521.916 103.804 520.774 101.361C520.538 100.844 520.304 98.5726 520.304 98.5726Z" fill="#394BE9"/>
</g>
<g filter="url(#filter20_d_178_2)">
<path fill-rule="evenodd" clip-rule="evenodd" d="M497.234 71.8386C497.236 70.6712 496.909 69.5269 496.293 68.5357C495.676 67.5444 494.794 66.746 493.746 66.2312L360.366 0.634817C359.412 0.169412 358.356 -0.0461845 357.297 0.00825106C356.237 0.0626866 355.209 0.385368 354.309 0.946029C353.408 1.50669 352.664 2.28695 352.148 3.21361C351.631 4.14027 351.359 5.18296 351.355 6.24385V28.3175C351.358 29.484 351.686 30.6267 352.302 31.6172C352.918 32.6078 353.798 33.4069 354.843 33.925L488.25 99.5337C489.203 100.001 490.259 100.218 491.319 100.163C492.378 100.108 493.407 99.784 494.306 99.221C495.206 98.6579 495.947 97.8746 496.459 96.9452C496.971 96.0158 497.238 94.9711 497.233 93.9099L497.234 71.8386Z" fill="#394BE9"/>
<path fill-rule="evenodd" clip-rule="evenodd" d="M370.171 33.3216L367.333 30.1103L371.025 26.3582L364.497 21.4186L365.37 18.6372L371.898 23.576L371.553 16.7667L374.929 18.2572L375.274 25.0665L381.59 25.7974L382.791 29.4944L376.476 28.7631L380.728 36.0235L378.093 36.819L373.862 29.5655L370.171 33.3216ZM393.665 44.8622L390.827 41.6505L394.519 37.8984L387.991 32.9599L388.864 30.1786L395.392 35.117L395.047 28.3081L398.423 29.7986L398.768 36.6075L405.084 37.3388L406.285 41.0354L399.97 40.3045L404.222 47.5649L401.587 48.36L397.356 41.1068L393.665 44.8622ZM418.838 56.0898L416 52.8785L419.693 49.1264L413.165 44.188L414.037 41.4066L420.566 46.3455L420.22 39.5361L423.597 41.0266L423.942 47.8359L430.257 48.5668L431.459 52.2638L425.143 51.5326L429.395 58.7929L426.761 59.5885L422.53 52.3349L418.838 56.0898ZM443.419 69.3328L440.581 66.1212L444.274 62.369L437.746 57.4302L438.619 54.6492L445.147 59.5877L444.801 52.7787L448.178 54.2692L448.523 61.0782L454.838 61.8094L456.04 65.506L449.725 64.7752L453.976 72.0351L451.342 72.8307L447.111 65.5775L443.419 69.3328ZM469.359 82.0897L466.521 78.8784L470.214 75.1263L463.685 70.1878L464.558 67.4065L471.087 72.3453L470.741 65.536L474.117 67.0265L474.463 73.8358L480.778 74.5666L481.979 78.2637L475.664 77.5324L479.916 84.7928L477.282 85.5883L473.05 78.3347L469.359 82.0897Z" fill="white"/>
</g>
<g filter="url(#filter21_d_178_2)">
<path fill-rule="evenodd" clip-rule="evenodd" d="M413.106 71.4883C415.211 69.1616 427.854 63.5561 431.173 63.1061C436.465 62.3489 441.446 65.7255 439.612 70.627C438.884 72.5128 422.869 76.8457 418.465 76.9995C416.661 77.0551 412.265 72.4103 413.106 71.4883Z" fill="#394BE9"/>
</g>
<defs>
<filter id="filter0_d_178_2" x="62.6" y="52" width="609.8" height="476.4" filterUnits="userSpaceOnUse" color-interpolation-filters="sRGB">
<feFlood flood-opacity="0" result="BackgroundImageFix"/>
<feColorMatrix in="SourceAlpha" type="matrix" values="0 0 0 0 0 0 0 0 0 0 0 0 0 0 0 0 0 0 127 0" result="hardAlpha"/>
<feOffset dx="-9" dy="52"/>
<feGaussianBlur stdDeviation="17.2"/>
<feComposite in2="hardAlpha" operator="out"/>
<feColorMatrix type="matrix" values="0 0 0 0 0 0 0 0 0 0 0 0 0 0 0 0 0 0 0.06 0"/>
<feBlend mode="normal" in2="BackgroundImageFix" result="effect1_dropShadow_178_2"/>
<feBlend mode="normal" in="SourceGraphic" in2="effect1_dropShadow_178_2" result="shape"/>
</filter>
<filter id="filter1_d_178_2" x="394.6" y="23" width="408.8" height="351.4" filterUnits="userSpaceOnUse" color-interpolation-filters="sRGB">
<feFlood flood-opacity="0" result="BackgroundImageFix"/>
<feColorMatrix in="SourceAlpha" type="matrix" values="0 0 0 0 0 0 0 0 0 0 0 0 0 0 0 0 0 0 127 0" result="hardAlpha"/>
<feOffset dx="-9" dy="52"/>
<feGaussianBlur stdDeviation="17.2"/>
<feComposite in2="hardAlpha" operator="out"/>
<feColorMatrix type="matrix" values="0 0 0 0 0 0 0 0 0 0 0 0 0 0 0 0 0 0 0.06 0"/>
<feBlend mode="normal" in2="BackgroundImageFix" result="effect1_dropShadow_178_2"/>
<feBlend mode="normal" in="SourceGraphic" in2="effect1_dropShadow_178_2" result="shape"/>
</filter>
<filter id="filter2_d_178_2" x="87.6" y="49" width="279.8" height="200.4" filterUnits="userSpaceOnUse" color-interpolation-filters="sRGB">
<feFlood flood-opacity="0" result="BackgroundImageFix"/>
<feColorMatrix in="SourceAlpha" type="matrix" values="0 0 0 0 0 0 0 0 0 0 0 0 0 0 0 0 0 0 127 0" result="hardAlpha"/>
<feOffset dx="-9" dy="52"/>
<feGaussianBlur stdDeviation="17.2"/>
<feComposite in2="hardAlpha" operator="out"/>
<feColorMatrix type="matrix" values="0 0 0 0 0 0 0 0 0 0 0 0 0 0 0 0 0 0 0.06 0"/>
<feBlend mode="normal" in2="BackgroundImageFix" result="effect1_dropShadow_178_2"/>
<feBlend mode="normal" in="SourceGraphic" in2="effect1_dropShadow_178_2" result="shape"/>
</filter>
<filter id="filter3_d_178_2" x="293.6" y="28" width="252.8" height="291.4" filterUnits="userSpaceOnUse" color-interpolation-filters="sRGB">
<feFlood flood-opacity="0" result="BackgroundImageFix"/>
<feColorMatrix in="SourceAlpha" type="matrix" values="0 0 0 0 0 0 0 0 0 0 0 0 0 0 0 0 0 0 127 0" result="hardAlpha"/>
<feOffset dx="-9" dy="52"/>
<feGaussianBlur stdDeviation="17.2"/>
<feComposite in2="hardAlpha" operator="out"/>
<feColorMatrix type="matrix" values="0 0 0 0 0 0 0 0 0 0 0 0 0 0 0 0 0 0 0.06 0"/>
<feBlend mode="normal" in2="BackgroundImageFix" result="effect1_dropShadow_178_2"/>
<feBlend mode="normal" in="SourceGraphic" in2="effect1_dropShadow_178_2" result="shape"/>
</filter>
<filter id="filter4_d_178_2" x="293.879" y="66.3257" width="252.42" height="252.818" filterUnits="userSpaceOnUse" color-interpolation-filters="sRGB">
<feFlood flood-opacity="0" result="BackgroundImageFix"/>
<feColorMatrix in="SourceAlpha" type="matrix" values="0 0 0 0 0 0 0 0 0 0 0 0 0 0 0 0 0 0 127 0" result="hardAlpha"/>
<feOffset dx="-9" dy="52"/>
<feGaussianBlur stdDeviation="17.2"/>
<feComposite in2="hardAlpha" operator="out"/>
<feColorMatrix type="matrix" values="0 0 0 0 0 0 0 0 0 0 0 0 0 0 0 0 0 0 0.06 0"/>
<feBlend mode="normal" in2="BackgroundImageFix" result="effect1_dropShadow_178_2"/>
<feBlend mode="normal" in="SourceGraphic" in2="effect1_dropShadow_178_2" result="shape"/>
</filter>
<filter id="filter5_d_178_2" x="0.599998" y="27" width="432.8" height="512.4" filterUnits="userSpaceOnUse" color-interpolation-filters="sRGB">
<feFlood flood-opacity="0" result="BackgroundImageFix"/>
<feColorMatrix in="SourceAlpha" type="matrix" values="0 0 0 0 0 0 0 0 0 0 0 0 0 0 0 0 0 0 127 0" result="hardAlpha"/>
<feOffset dx="-9" dy="52"/>
<feGaussianBlur stdDeviation="17.2"/>
<feComposite in2="hardAlpha" operator="out"/>
<feColorMatrix type="matrix" values="0 0 0 0 0 0 0 0 0 0 0 0 0 0 0 0 0 0 0.06 0"/>
<feBlend mode="normal" in2="BackgroundImageFix" result="effect1_dropShadow_178_2"/>
<feBlend mode="normal" in="SourceGraphic" in2="effect1_dropShadow_178_2" result="shape"/>
</filter>
<filter id="filter6_d_178_2" x="34.6" y="28" width="424.8" height="504.4" filterUnits="userSpaceOnUse" color-interpolation-filters="sRGB">
<feFlood flood-opacity="0" result="BackgroundImageFix"/>
<feColorMatrix in="SourceAlpha" type="matrix" values="0 0 0 0 0 0 0 0 0 0 0 0 0 0 0 0 0 0 127 0" result="hardAlpha"/>
<feOffset dx="-9" dy="52"/>
<feGaussianBlur stdDeviation="17.2"/>
<feComposite in2="hardAlpha" operator="out"/>
<feColorMatrix type="matrix" values="0 0 0 0 0 0 0 0 0 0 0 0 0 0 0 0 0 0 0.06 0"/>
<feBlend mode="normal" in2="BackgroundImageFix" result="effect1_dropShadow_178_2"/>
<feBlend mode="normal" in="SourceGraphic" in2="effect1_dropShadow_178_2" result="shape"/>
</filter>
<filter id="filter7_d_178_2" x="200.6" y="254" width="195.8" height="189.4" filterUnits="userSpaceOnUse" color-interpolation-filters="sRGB">
<feFlood flood-opacity="0" result="BackgroundImageFix"/>
<feColorMatrix in="SourceAlpha" type="matrix" values="0 0 0 0 0 0 0 0 0 0 0 0 0 0 0 0 0 0 127 0" result="hardAlpha"/>
<feOffset dx="-9" dy="52"/>
<feGaussianBlur stdDeviation="17.2"/>
<feComposite in2="hardAlpha" operator="out"/>
<feColorMatrix type="matrix" values="0 0 0 0 0 0 0 0 0 0 0 0 0 0 0 0 0 0 0.06 0"/>
<feBlend mode="normal" in2="BackgroundImageFix" result="effect1_dropShadow_178_2"/>
<feBlend mode="normal" in="SourceGraphic" in2="effect1_dropShadow_178_2" result="shape"/>
</filter>
<filter id="filter8_d_178_2" x="240.6" y="224" width="224.8" height="214.4" filterUnits="userSpaceOnUse" color-interpolation-filters="sRGB">
<feFlood flood-opacity="0" result="BackgroundImageFix"/>
<feColorMatrix in="SourceAlpha" type="matrix" values="0 0 0 0 0 0 0 0 0 0 0 0 0 0 0 0 0 0 127 0" result="hardAlpha"/>
<feOffset dx="-9" dy="52"/>
<feGaussianBlur stdDeviation="17.2"/>
<feComposite in2="hardAlpha" operator="out"/>
<feColorMatrix type="matrix" values="0 0 0 0 0 0 0 0 0 0 0 0 0 0 0 0 0 0 0.06 0"/>
<feBlend mode="normal" in2="BackgroundImageFix" result="effect1_dropShadow_178_2"/>
<feBlend mode="normal" in="SourceGraphic" in2="effect1_dropShadow_178_2" result="shape"/>
</filter>
<filter id="filter9_d_178_2" x="144.6" y="171" width="215.8" height="217.4" filterUnits="userSpaceOnUse" color-interpolation-filters="sRGB">
<feFlood flood-opacity="0" result="BackgroundImageFix"/>
<feColorMatrix in="SourceAlpha" type="matrix" values="0 0 0 0 0 0 0 0 0 0 0 0 0 0 0 0 0 0 127 0" result="hardAlpha"/>
<feOffset dx="-9" dy="52"/>
<feGaussianBlur stdDeviation="17.2"/>
<feComposite in2="hardAlpha" operator="out"/>
<feColorMatrix type="matrix" values="0 0 0 0 0 0 0 0 0 0 0 0 0 0 0 0 0 0 0.06 0"/>
<feBlend mode="normal" in2="BackgroundImageFix" result="effect1_dropShadow_178_2"/>
<feBlend mode="normal" in="SourceGraphic" in2="effect1_dropShadow_178_2" result="shape"/>
</filter>
<filter id="filter10_d_178_2" x="276.683" y="258.596" width="152.663" height="148.347" filterUnits="userSpaceOnUse" color-interpolation-filters="sRGB">
<feFlood flood-opacity="0" result="BackgroundImageFix"/>
<feColorMatrix in="SourceAlpha" type="matrix" values="0 0 0 0 0 0 0 0 0 0 0 0 0 0 0 0 0 0 127 0" result="hardAlpha"/>
<feOffset dx="-9" dy="52"/>
<feGaussianBlur stdDeviation="17.2"/>
<feComposite in2="hardAlpha" operator="out"/>
<feColorMatrix type="matrix" values="0 0 0 0 0 0 0 0 0 0 0 0 0 0 0 0 0 0 0.06 0"/>
<feBlend mode="normal" in2="BackgroundImageFix" result="effect1_dropShadow_178_2"/>
<feBlend mode="normal" in="SourceGraphic" in2="effect1_dropShadow_178_2" result="shape"/>
</filter>
<filter id="filter11_d_178_2" x="118.852" y="110.553" width="160.925" height="177.457" filterUnits="userSpaceOnUse" color-interpolation-filters="sRGB">
<feFlood flood-opacity="0" result="BackgroundImageFix"/>
<feColorMatrix in="SourceAlpha" type="matrix" values="0 0 0 0 0 0 0 0 0 0 0 0 0 0 0 0 0 0 127 0" result="hardAlpha"/>
<feOffset dx="-9" dy="52"/>
<feGaussianBlur stdDeviation="17.2"/>
<feComposite in2="hardAlpha" operator="out"/>
<feColorMatrix type="matrix" values="0 0 0 0 0 0 0 0 0 0 0 0 0 0 0 0 0 0 0.06 0"/>
<feBlend mode="normal" in2="BackgroundImageFix" result="effect1_dropShadow_178_2"/>
<feBlend mode="normal" in="SourceGraphic" in2="effect1_dropShadow_178_2" result="shape"/>
</filter>
<filter id="filter12_d_178_2" x="143.6" y="135" width="137.8" height="158.4" filterUnits="userSpaceOnUse" color-interpolation-filters="sRGB">
<feFlood flood-opacity="0" result="BackgroundImageFix"/>
<feColorMatrix in="SourceAlpha" type="matrix" values="0 0 0 0 0 0 0 0 0 0 0 0 0 0 0 0 0 0 127 0" result="hardAlpha"/>
<feOffset dx="-9" dy="52"/>
<feGaussianBlur stdDeviation="17.2"/>
<feComposite in2="hardAlpha" operator="out"/>
<feColorMatrix type="matrix" values="0 0 0 0 0 0 0 0 0 0 0 0 0 0 0 0 0 0 0.06 0"/>
<feBlend mode="normal" in2="BackgroundImageFix" result="effect1_dropShadow_178_2"/>
<feBlend mode="normal" in="SourceGraphic" in2="effect1_dropShadow_178_2" result="shape"/>
</filter>
<filter id="filter13_d_178_2" x="438.6" y="150" width="193.8" height="316.4" filterUnits="userSpaceOnUse" color-interpolation-filters="sRGB">
<feFlood flood-opacity="0" result="BackgroundImageFix"/>
<feColorMatrix in="SourceAlpha" type="matrix" values="0 0 0 0 0 0 0 0 0 0 0 0 0 0 0 0 0 0 127 0" result="hardAlpha"/>
<feOffset dx="-9" dy="52"/>
<feGaussianBlur stdDeviation="17.2"/>
<feComposite in2="hardAlpha" operator="out"/>
<feColorMatrix type="matrix" values="0 0 0 0 0 0 0 0 0 0 0 0 0 0 0 0 0 0 0.06 0"/>
<feBlend mode="normal" in2="BackgroundImageFix" result="effect1_dropShadow_178_2"/>
<feBlend mode="normal" in="SourceGraphic" in2="effect1_dropShadow_178_2" result="shape"/>
</filter>
<filter id="filter14_d_178_2" x="453.777" y="201.074" width="179.263" height="264.581" filterUnits="userSpaceOnUse" color-interpolation-filters="sRGB">
<feFlood flood-opacity="0" result="BackgroundImageFix"/>
<feColorMatrix in="SourceAlpha" type="matrix" values="0 0 0 0 0 0 0 0 0 0 0 0 0 0 0 0 0 0 127 0" result="hardAlpha"/>
<feOffset dx="-9" dy="52"/>
<feGaussianBlur stdDeviation="17.2"/>
<feComposite in2="hardAlpha" operator="out"/>
<feColorMatrix type="matrix" values="0 0 0 0 0 0 0 0 0 0 0 0 0 0 0 0 0 0 0.06 0"/>
<feBlend mode="normal" in2="BackgroundImageFix" result="effect1_dropShadow_178_2"/>
<feBlend mode="normal" in="SourceGraphic" in2="effect1_dropShadow_178_2" result="shape"/>
</filter>
<filter id="filter15_d_178_2" x="333.6" y="164" width="336.8" height="261.4" filterUnits="userSpaceOnUse" color-interpolation-filters="sRGB">
<feFlood flood-opacity="0" result="BackgroundImageFix"/>
<feColorMatrix in="SourceAlpha" type="matrix" values="0 0 0 0 0 0 0 0 0 0 0 0 0 0 0 0 0 0 127 0" result="hardAlpha"/>
<feOffset dx="-9" dy="52"/>
<feGaussianBlur stdDeviation="17.2"/>
<feComposite in2="hardAlpha" operator="out"/>
<feColorMatrix type="matrix" values="0 0 0 0 0 0 0 0 0 0 0 0 0 0 0 0 0 0 0.06 0"/>
<feBlend mode="normal" in2="BackgroundImageFix" result="effect1_dropShadow_178_2"/>
<feBlend mode="normal" in="SourceGraphic" in2="effect1_dropShadow_178_2" result="shape"/>
</filter>
<filter id="filter16_d_178_2" x="486.662" y="163.463" width="183.093" height="173.696" filterUnits="userSpaceOnUse" color-interpolation-filters="sRGB">
<feFlood flood-opacity="0" result="BackgroundImageFix"/>
<feColorMatrix in="SourceAlpha" type="matrix" values="0 0 0 0 0 0 0 0 0 0 0 0 0 0 0 0 0 0 127 0" result="hardAlpha"/>
<feOffset dx="-9" dy="52"/>
<feGaussianBlur stdDeviation="17.2"/>
<feComposite in2="hardAlpha" operator="out"/>
<feColorMatrix type="matrix" values="0 0 0 0 0 0 0 0 0 0 0 0 0 0 0 0 0 0 0.06 0"/>
<feBlend mode="normal" in2="BackgroundImageFix" result="effect1_dropShadow_178_2"/>
<feBlend mode="normal" in="SourceGraphic" in2="effect1_dropShadow_178_2" result="shape"/>
</filter>
<filter id="filter17_d_178_2" x="467.6" y="77" width="123.8" height="205.4" filterUnits="userSpaceOnUse" color-interpolation-filters="sRGB">
<feFlood flood-opacity="0" result="BackgroundImageFix"/>
<feColorMatrix in="SourceAlpha" type="matrix" values="0 0 0 0 0 0 0 0 0 0 0 0 0 0 0 0 0 0 127 0" result="hardAlpha"/>
<feOffset dx="-9" dy="52"/>
<feGaussianBlur stdDeviation="17.2"/>
<feComposite in2="hardAlpha" operator="out"/>
<feColorMatrix type="matrix" values="0 0 0 0 0 0 0 0 0 0 0 0 0 0 0 0 0 0 0.06 0"/>
<feBlend mode="normal" in2="BackgroundImageFix" result="effect1_dropShadow_178_2"/>
<feBlend mode="normal" in="SourceGraphic" in2="effect1_dropShadow_178_2" result="shape"/>
</filter>
<filter id="filter18_d_178_2" x="482.076" y="119.268" width="79.549" height="107.373" filterUnits="userSpaceOnUse" color-interpolation-filters="sRGB">
<feFlood flood-opacity="0" result="BackgroundImageFix"/>
<feColorMatrix in="SourceAlpha" type="matrix" values="0 0 0 0 0 0 0 0 0 0 0 0 0 0 0 0 0 0 127 0" result="hardAlpha"/>
<feOffset dx="-9" dy="52"/>
<feGaussianBlur stdDeviation="17.2"/>
<feComposite in2="hardAlpha" operator="out"/>
<feColorMatrix type="matrix" values="0 0 0 0 0 0 0 0 0 0 0 0 0 0 0 0 0 0 0.06 0"/>
<feBlend mode="normal" in2="BackgroundImageFix" result="effect1_dropShadow_178_2"/>
<feBlend mode="normal" in="SourceGraphic" in2="effect1_dropShadow_178_2" result="shape"/>
</filter>
<filter id="filter19_d_178_2" x="464.6" y="69" width="123.8" height="137.4" filterUnits="userSpaceOnUse" color-interpolation-filters="sRGB">
<feFlood flood-opacity="0" result="BackgroundImageFix"/>
<feColorMatrix in="SourceAlpha" type="matrix" values="0 0 0 0 0 0 0 0 0 0 0 0 0 0 0 0 0 0 127 0" result="hardAlpha"/>
<feOffset dx="-9" dy="52"/>
<feGaussianBlur stdDeviation="17.2"/>
<feComposite in2="hardAlpha" operator="out"/>
<feColorMatrix type="matrix" values="0 0 0 0 0 0 0 0 0 0 0 0 0 0 0 0 0 0 0.06 0"/>
<feBlend mode="normal" in2="BackgroundImageFix" result="effect1_dropShadow_178_2"/>
<feBlend mode="normal" in="SourceGraphic" in2="effect1_dropShadow_178_2" result="shape"/>
</filter>
<filter id="filter20_d_178_2" x="307.955" y="0" width="214.679" height="186.571" filterUnits="userSpaceOnUse" color-interpolation-filters="sRGB">
<feFlood flood-opacity="0" result="BackgroundImageFix"/>
<feColorMatrix in="SourceAlpha" type="matrix" values="0 0 0 0 0 0 0 0 0 0 0 0 0 0 0 0 0 0 127 0" result="hardAlpha"/>
<feOffset dx="-9" dy="52"/>
<feGaussianBlur stdDeviation="17.2"/>
<feComposite in2="hardAlpha" operator="out"/>
<feColorMatrix type="matrix" values="0 0 0 0 0 0 0 0 0 0 0 0 0 0 0 0 0 0 0.06 0"/>
<feBlend mode="normal" in2="BackgroundImageFix" result="effect1_dropShadow_178_2"/>
<feBlend mode="normal" in="SourceGraphic" in2="effect1_dropShadow_178_2" result="shape"/>
</filter>
<filter id="filter21_d_178_2" x="369.6" y="63" width="95.8" height="100.4" filterUnits="userSpaceOnUse" color-interpolation-filters="sRGB">
<feFlood flood-opacity="0" result="BackgroundImageFix"/>
<feColorMatrix in="SourceAlpha" type="matrix" values="0 0 0 0 0 0 0 0 0 0 0 0 0 0 0 0 0 0 127 0" result="hardAlpha"/>
<feOffset dx="-9" dy="52"/>
<feGaussianBlur stdDeviation="17.2"/>
<feComposite in2="hardAlpha" operator="out"/>
<feColorMatrix type="matrix" values="0 0 0 0 0 0 0 0 0 0 0 0 0 0 0 0 0 0 0.06 0"/>
<feBlend mode="normal" in2="BackgroundImageFix" result="effect1_dropShadow_178_2"/>
<feBlend mode="normal" in="SourceGraphic" in2="effect1_dropShadow_178_2" result="shape"/>
</filter>
</defs>
</svg>
