<svg width="856" height="358" viewBox="0 0 856 358" fill="none" xmlns="http://www.w3.org/2000/svg">
<path d="M846.743 358H9.25781C6.80249 358 4.44773 356.894 2.71155 354.925C0.975375 352.955 0 350.285 0 347.5C0 344.715 0.975375 342.045 2.71155 340.075C4.44773 338.106 6.80249 337 9.25781 337H846.742C849.197 337 851.552 338.106 853.288 340.075C855.025 342.045 856 344.715 856 347.5C856 350.285 855.025 352.955 853.289 354.924C851.553 356.893 849.198 358 846.743 358Z" fill="#1E1E1E"/>
<path d="M330 337H474V346H330V337Z" fill="#1E1E1E"/>
<path d="M575.674 276H234.327C227.52 276 222 270.026 222 262.658V15.3419C222 7.97383 227.52 2 234.327 2H575.673C582.48 2 588 7.97383 588 15.3419V262.659C588.001 270.027 582.482 276 575.674 276Z" fill="#BBBFC2"/>
<path d="M566 27V229L244 229V27L566 27Z" fill="#394BE9" fill-opacity="0.44"/>
<path opacity="0.4" d="M576 276H522.539V171.133C522.539 162.776 528.82 156 536.57 156H576V276ZM247.974 174.701H222V257.299C222 267.627 230.244 276 239.82 276H269.682V198.492C269.682 185.613 259.915 174.701 247.974 174.701Z" fill="#848484"/>
<path d="M576.654 276H234.345C227.527 276 222 270.026 222 262.658V15.3419C222 7.97383 227.527 2 234.345 2H576.655C583.473 2 589 7.97383 589 15.3419V262.659C588.999 270.027 583.473 276 576.654 276Z" stroke="#1E1E1E" stroke-width="4" stroke-miterlimit="10" stroke-linecap="round" stroke-linejoin="round"/>
<path d="M566 27V229L246 229V27L566 27Z" stroke="#1E1E1E" stroke-width="4" stroke-miterlimit="10" stroke-linecap="round" stroke-linejoin="round"/>
<path opacity="0.32" d="M502.723 219H325.277C323.347 219 321.496 218.18 320.131 216.719C318.767 215.259 318 213.278 318 211.212V75.7877C318 73.7223 318.767 71.7414 320.131 70.281C321.496 68.8205 323.347 68 325.277 68H502.723C504.653 68 506.504 68.8205 507.869 70.281C509.233 71.7414 510 73.7223 510 75.7877V211.212C510 213.278 509.233 215.259 507.869 216.719C506.504 218.18 504.653 219 502.723 219Z" fill="#848484"/>
<path d="M494.723 211H317.277C316.321 211 315.375 210.799 314.492 210.407C313.609 210.016 312.807 209.442 312.131 208.719C311.456 207.996 310.92 207.137 310.554 206.193C310.188 205.248 310 204.235 310 203.212V67.7877C310 66.765 310.188 65.7523 310.554 64.8075C310.92 63.8626 311.456 63.0041 312.131 62.281C312.807 61.5578 313.609 60.9842 314.492 60.5928C315.375 60.2015 316.321 60 317.277 60H494.723C496.653 60 498.504 60.8205 499.869 62.281C501.233 63.7415 502 65.7223 502 67.7877V203.213C502 205.279 501.233 207.259 499.868 208.719C498.504 210.18 496.653 211 494.723 211Z" fill="#394BE9"/>
<path d="M494.723 211H317.277C316.321 211 315.375 210.799 314.492 210.407C313.609 210.016 312.807 209.442 312.131 208.719C311.456 207.996 310.92 207.137 310.554 206.193C310.188 205.248 310 204.235 310 203.212V67.7877C310 66.765 310.188 65.7523 310.554 64.8075C310.92 63.8626 311.456 63.0041 312.131 62.281C312.807 61.5578 313.609 60.9842 314.492 60.5928C315.375 60.2015 316.321 60 317.277 60H494.723C496.653 60 498.504 60.8205 499.869 62.281C501.233 63.7415 502 65.7223 502 67.7877V203.213C502 205.279 501.233 207.259 499.868 208.719C498.504 210.18 496.653 211 494.723 211Z" stroke="#1E1E1E" stroke-width="4" stroke-miterlimit="10" stroke-linecap="round" stroke-linejoin="round"/>
<path d="M448 337H362L372.649 276H437.351L448 337Z" fill="#717171"/>
<path opacity="0.32" d="M440 293L437.117 276H372.883L370 293H440Z" fill="#848484"/>
<path d="M447.685 336.667H362.076L372.677 276H437.084L447.685 336.667ZM330 336.667H474V346H330V336.667Z" stroke="#1E1E1E" stroke-width="4" stroke-miterlimit="10" stroke-linecap="round" stroke-linejoin="round"/>
<path d="M404.5 255C408.09 255 411 252.09 411 248.5C411 244.91 408.09 242 404.5 242C400.91 242 398 244.91 398 248.5C398 252.09 400.91 255 404.5 255Z" fill="#1E1E1E"/>
<path d="M479.799 198H304.201C302.291 198 300.46 197.174 299.109 195.704C297.759 194.234 297 192.24 297 190.161V53.8392C297 51.7601 297.759 49.7662 299.109 48.296C300.46 46.8259 302.291 46 304.201 46H479.799C481.709 46 483.54 46.8259 484.891 48.296C486.241 49.7662 487 51.7601 487 53.8392V190.161C487 192.24 486.241 194.234 484.891 195.704C483.54 197.174 481.709 198 479.799 198Z" fill="#F3F3F3"/>
<path d="M479.799 198H304.201C302.291 198 300.46 197.174 299.109 195.704C297.759 194.234 297 192.24 297 190.161V53.8392C297 51.7601 297.759 49.7662 299.109 48.296C300.46 46.8259 302.291 46 304.201 46H479.799C481.709 46 483.54 46.8259 484.891 48.296C486.241 49.7662 487 51.7601 487 53.8392V190.161C487 192.24 486.241 194.234 484.891 195.704C483.54 197.174 481.709 198 479.799 198Z" stroke="#1E1E1E" stroke-width="4" stroke-miterlimit="10" stroke-linecap="round" stroke-linejoin="round"/>
<path d="M487 69H297V54.0031C297 49.6008 300.381 46 304.513 46H479.976C481.839 46 483.625 46.7883 484.943 48.1916C486.26 49.5949 487 51.4981 487 53.4826V69Z" fill="#BBBFC2"/>
<path d="M487 69H297V54.0031C297 49.6008 300.381 46 304.513 46H479.976C481.839 46 483.625 46.7883 484.943 48.1916C486.26 49.5949 487 51.4981 487 53.4826V69Z" stroke="#1E1E1E" stroke-width="4" stroke-miterlimit="10" stroke-linecap="round" stroke-linejoin="round"/>
<path d="M314 63C315.657 63 317 60.9853 317 58.5C317 56.0147 315.657 54 314 54C312.343 54 311 56.0147 311 58.5C311 60.9853 312.343 63 314 63Z" fill="#1E1E1E"/>
<path d="M326 63C327.657 63 329 60.9853 329 58.5C329 56.0147 327.657 54 326 54C324.343 54 323 56.0147 323 58.5C323 60.9853 324.343 63 326 63Z" fill="#1E1E1E"/>
<path d="M337.5 63C339.433 63 341 60.9853 341 58.5C341 56.0147 339.433 54 337.5 54C335.567 54 334 56.0147 334 58.5C334 60.9853 335.567 63 337.5 63Z" fill="#1E1E1E"/>
<path d="M469.927 110H312.073C311.523 110 310.996 109.767 310.607 109.353C310.218 108.939 310 108.377 310 107.791V84.2092C310 83.6233 310.218 83.0613 310.607 82.647C310.996 82.2327 311.523 82 312.073 82H469.927C470.477 82 471.004 82.2327 471.393 82.647C471.782 83.0613 472 83.6233 472 84.2092V107.79C472 108.08 471.947 108.367 471.842 108.635C471.738 108.904 471.586 109.147 471.393 109.353C471.201 109.558 470.972 109.721 470.721 109.832C470.469 109.943 470.2 110 469.927 110Z" fill="#394BE9"/>
<path opacity="0.2" d="M358.87 138H312.13C311.565 138 311.023 137.782 310.624 137.395C310.224 137.008 310 136.482 310 135.934V124.066C310 123.518 310.224 122.992 310.624 122.605C311.023 122.218 311.565 122 312.13 122H358.87C359.435 122 359.977 122.218 360.376 122.605C360.776 122.992 361 123.518 361 124.066V135.934C361 136.482 360.776 137.008 360.376 137.395C359.977 137.782 359.435 138 358.87 138Z" fill="#394BE9"/>
<path opacity="0.2" d="M317 152H354M317 164H354" stroke="#394BE9" stroke-width="4" stroke-miterlimit="10" stroke-linecap="round" stroke-linejoin="round"/>
<path opacity="0.2" d="M413.995 138H370.005C369.473 138 368.963 137.782 368.587 137.395C368.211 137.008 368 136.482 368 135.934V124.066C368 123.518 368.211 122.992 368.587 122.605C368.963 122.218 369.473 122 370.005 122H413.995C414.527 122 415.037 122.218 415.413 122.605C415.789 122.992 416 123.518 416 124.066V135.934C416 136.482 415.789 137.008 415.413 137.395C415.037 137.782 414.527 138 413.995 138Z" fill="#394BE9"/>
<path opacity="0.2" d="M374 152H409M374 164H409" stroke="#394BE9" stroke-width="4" stroke-miterlimit="10" stroke-linecap="round" stroke-linejoin="round"/>
<g opacity="0.2">
<path d="M470.981 166.417H425.869C425.323 166.417 424.8 166.183 424.415 165.766C424.029 165.348 423.812 164.782 423.812 164.192V124.777C423.812 124.187 424.029 123.621 424.415 123.204C424.8 122.786 425.323 122.552 425.869 122.552H470.981C471.527 122.552 472.05 122.786 472.435 123.204C472.821 123.621 473.037 124.187 473.037 124.777V164.192C473.037 164.782 472.821 165.348 472.435 165.766C472.05 166.183 471.527 166.417 470.981 166.417Z" fill="#394BE9"/>
</g>
<g opacity="0.09">
<path d="M469.536 178.95H426.519C425.751 178.95 425.015 178.62 424.472 178.033C423.929 177.445 423.624 176.648 423.624 175.818C423.624 174.987 423.929 174.19 424.472 173.602C425.015 173.015 425.751 172.685 426.519 172.685H469.536C470.304 172.685 471.041 173.015 471.584 173.602C472.127 174.19 472.432 174.987 472.432 175.818C472.432 176.648 472.127 177.445 471.584 178.033C471.041 178.62 470.304 178.95 469.536 178.95Z" fill="#394BE9"/>
</g>
<path d="M146.381 298H63.1678C62.1793 297.992 61.2217 298.37 60.4742 299.063L40.3927 317.915C39.9552 318.326 39.6047 318.832 39.3645 319.399C39.1243 319.967 39 320.582 39 321.205C39 321.828 39.1243 322.444 39.3645 323.012C39.6047 323.579 39.9552 324.085 40.3927 324.495L60.4742 343.637C61.2193 344.337 62.1771 345 63.1678 345H146.381C151.093 345 155 340.347 155 335.298V307.095C155 302.046 151.093 298 146.381 298ZM60.9871 326.68C60.309 326.691 59.6357 326.557 59.0064 326.286C58.3771 326.015 57.8043 325.612 57.3213 325.102C56.8384 324.592 56.4549 323.984 56.1931 323.314C55.9314 322.643 55.7966 321.924 55.7966 321.197C55.7966 320.47 55.9314 319.751 56.1931 319.08C56.4549 318.41 56.8384 317.802 57.3213 317.292C57.8043 316.782 58.3771 316.379 59.0064 316.108C59.6357 315.838 60.309 315.703 60.9871 315.714C62.3318 315.734 63.6148 316.321 64.559 317.347C65.5031 318.373 66.0324 319.756 66.0324 321.197C66.0324 322.638 65.5031 324.021 64.559 325.047C63.6148 326.073 62.3318 326.66 60.9871 326.68Z" fill="#F3F3F3"/>
<path d="M83 298H107V345H83V298Z" fill="#9BA4F6"/>
<path d="M106 298H130V345H106V298Z" fill="#5566FF"/>
<path d="M143.873 345H130V298H144.274C150.173 298 155 303.014 155 309.144V333.44C155 339.798 149.993 345 143.873 345Z" fill="#394BE9"/>
<path opacity="0.4" d="M148 300.09C147.59 300.026 147.177 299.996 146.763 300H64.8036C63.8299 299.992 62.8867 300.385 62.1505 301.107L42.3717 320.744C41.9408 321.171 41.5955 321.698 41.359 322.289C41.1224 322.88 41 323.521 41 324.17C41 324.819 41.1224 325.461 41.359 326.052C41.5955 326.643 41.9408 327.17 42.3717 327.597L54.7251 339.865L68.1519 343.715C68.8118 343.905 69.4899 344.001 70.1706 344C71.4701 343.998 72.751 343.65 73.9093 342.982L146.916 300.786C147.291 300.568 147.652 300.343 148 300.09ZM62.6557 329.872C61.9878 329.883 61.3247 329.743 60.7049 329.461C60.085 329.178 59.5209 328.759 59.0452 328.228C58.5695 327.697 58.1918 327.063 57.934 326.365C57.6762 325.667 57.5434 324.917 57.5434 324.16C57.5434 323.404 57.6762 322.654 57.934 321.956C58.1918 321.258 58.5695 320.624 59.0452 320.093C59.5209 319.562 60.085 319.143 60.7049 318.86C61.3247 318.578 61.9878 318.438 62.6557 318.449C63.9801 318.471 65.2438 319.082 66.1737 320.15C67.1036 321.219 67.6249 322.66 67.6249 324.16C67.6249 325.661 67.1036 327.102 66.1737 328.171C65.2438 329.239 63.9801 329.85 62.6557 329.872Z" fill="#848484"/>
<path d="M146.381 298H63.1678C62.1793 297.992 61.2217 298.37 60.4742 299.063L40.3927 317.915C39.9552 318.326 39.6047 318.832 39.3645 319.399C39.1243 319.967 39 320.582 39 321.205C39 321.828 39.1243 322.444 39.3645 323.012C39.6047 323.579 39.9552 324.085 40.3927 324.495L60.4742 343.637C61.2193 344.337 62.1771 345 63.1678 345H146.381C151.093 345 155 340.347 155 335.298V307.095C155 302.046 151.093 298 146.381 298ZM60.9871 326.68C60.309 326.691 59.6357 326.557 59.0064 326.286C58.3771 326.015 57.8043 325.612 57.3213 325.102C56.8384 324.592 56.4549 323.984 56.1931 323.314C55.9314 322.643 55.7966 321.924 55.7966 321.197C55.7966 320.47 55.9314 319.751 56.1931 319.08C56.4549 318.41 56.8384 317.802 57.3213 317.292C57.8043 316.782 58.3771 316.379 59.0064 316.108C59.6357 315.838 60.309 315.703 60.9871 315.714C62.3318 315.734 63.6148 316.321 64.559 317.347C65.5031 318.373 66.0323 319.756 66.0323 321.197C66.0323 322.638 65.5031 324.021 64.559 325.047C63.6148 326.073 62.3318 326.66 60.9871 326.68Z" stroke="#1E1E1E" stroke-width="4" stroke-miterlimit="10" stroke-linecap="round" stroke-linejoin="round"/>
<path d="M107 298H83V345H107M107 298V345M107 298H130.999M107 345H130.999M130.999 298V345M130.999 298H144.703C150.366 298 155 303.014 155 309.144V333.44C155 339.798 150.193 345 144.318 345H130.999" stroke="#1E1E1E" stroke-width="4" stroke-miterlimit="10" stroke-linecap="round" stroke-linejoin="round"/>
<path d="M124.765 254.994L51.05 295.319C50.172 295.799 49.4867 296.605 49.1214 297.587L39.2889 324.04C39.0746 324.616 38.9776 325.235 39.0043 325.854C39.0311 326.474 39.1809 327.08 39.4438 327.633C39.7068 328.186 40.0767 328.672 40.529 329.058C40.9812 329.445 41.5053 329.724 42.0662 329.876L67.8115 336.867C68.7672 337.126 69.7783 337.004 70.6566 336.524L144.372 296.199C145.364 295.656 146.247 294.909 146.97 294.001C147.694 293.092 148.243 292.039 148.586 290.903C148.93 289.767 149.062 288.569 148.973 287.378C148.885 286.188 148.579 285.027 148.073 283.963L136.177 258.963C135.67 257.899 134.974 256.952 134.126 256.177C133.279 255.401 132.297 254.812 131.238 254.444C130.178 254.075 129.061 253.934 127.951 254.028C126.84 254.123 125.758 254.451 124.765 254.994Z" fill="#F3F3F3"/>
<path d="M89.6758 273.496L111.182 261.623L130.822 303.277L109.316 315.15L89.6758 273.496Z" fill="#5766F4"/>
<path d="M124.765 254.994L51.05 295.319C50.172 295.799 49.4867 296.605 49.1214 297.587L39.2889 324.04C39.0746 324.616 38.9776 325.235 39.0043 325.854C39.0311 326.474 39.1809 327.08 39.4438 327.633C39.7068 328.186 40.0767 328.672 40.529 329.058C40.9812 329.445 41.5053 329.724 42.0662 329.876L67.8115 336.867C68.7672 337.126 69.7783 337.004 70.6566 336.524L144.372 296.199C145.364 295.656 146.247 294.909 146.97 294.001C147.694 293.092 148.243 292.039 148.586 290.903C148.93 289.767 149.062 288.569 148.973 287.378C148.885 286.188 148.579 285.027 148.073 283.963L136.177 258.963C135.67 257.899 134.974 256.952 134.126 256.177C133.279 255.401 132.297 254.812 131.238 254.444C130.178 254.075 129.061 253.934 127.951 254.028C126.84 254.123 125.758 254.451 124.765 254.994Z" stroke="#1E1E1E" stroke-width="4" stroke-miterlimit="10" stroke-linecap="round" stroke-linejoin="round"/>
<path d="M60 323C63.3137 323 66 320.09 66 316.5C66 312.91 63.3137 310 60 310C56.6863 310 54 312.91 54 316.5C54 320.09 56.6863 323 60 323Z" fill="#1E1E1E"/>
<path d="M68.1689 285.37L89.6751 273.497L109.315 315.151L87.8093 327.024L68.1689 285.37Z" fill="#9BA4F7" stroke="#1E1E1E" stroke-width="4" stroke-miterlimit="10" stroke-linecap="round" stroke-linejoin="round"/>
<path d="M68.1689 285.37L89.6751 273.497L109.315 315.151L87.8093 327.024L68.1689 285.37Z" stroke="#1E1E1E" stroke-width="4" stroke-miterlimit="10" stroke-linecap="round" stroke-linejoin="round"/>
<path d="M89.6758 273.496L111.182 261.623L130.822 303.277L109.316 315.15L89.6758 273.496Z" stroke="#1E1E1E" stroke-width="4" stroke-miterlimit="10" stroke-linecap="round" stroke-linejoin="round"/>
<path d="M142.479 297.14L130.328 304L111 262.085L123.152 255.225C128.129 252.416 134.222 254.602 136.761 260.109L146.892 282.082C149.433 287.588 147.456 294.33 142.479 297.14Z" fill="#394BE9"/>
<path d="M142.479 297.14L130.328 304L111 262.085L123.152 255.225C128.129 252.416 134.222 254.602 136.761 260.109L146.892 282.082C149.433 287.588 147.456 294.33 142.479 297.14Z" stroke="#1E1E1E" stroke-width="4" stroke-miterlimit="10" stroke-linecap="round" stroke-linejoin="round"/>
<path d="M245.921 346H178.079C172.512 346 168 341.058 168 334.961V186.039C168 179.942 172.512 175 178.079 175H245.921C251.488 175 256 179.942 256 186.039V334.961C256 341.058 251.488 346 245.921 346Z" fill="#F3F3F3"/>
<path d="M256 226H168V185.733C168 179.806 172.344 175 177.701 175H245.747C251.386 175 256 180.105 256 186.344V226Z" fill="#394BE9"/>
<path d="M245.921 346H178.079C172.512 346 168 341.058 168 334.961V186.039C168 179.942 172.512 175 178.079 175H245.921C251.488 175 256 179.942 256 186.039V334.961C256 341.058 251.488 346 245.921 346Z" stroke="#1E1E1E" stroke-width="4" stroke-miterlimit="10" stroke-linecap="round" stroke-linejoin="round"/>
<path d="M246.031 346H178.434C172.695 346 168 340.96 168 334.798V314H256V335.297C256 341.209 251.537 346 246.031 346Z" fill="#BBBFC2"/>
<path d="M246.233 346H178.434C172.695 346 168 340.96 168 334.798V314H256V335.514C256 341.305 251.627 346 246.233 346Z" stroke="#1E1E1E" stroke-width="4" stroke-miterlimit="10" stroke-linecap="round" stroke-linejoin="round"/>
<path d="M214 335C216.761 335 219 332.314 219 329C219 325.686 216.761 323 214 323C211.239 323 209 325.686 209 329C209 332.314 211.239 335 214 335Z" fill="#1E1E1E"/>
<path opacity="0.3" d="M188 243H240M198.4 260.286H231.086M188 276H240" stroke="#1E1E1E" stroke-width="4" stroke-miterlimit="10" stroke-linecap="round" stroke-linejoin="round"/>
<path opacity="0.62" d="M214 217C220.075 217 225 210.956 225 203.5C225 196.044 220.075 190 214 190C207.925 190 203 196.044 203 203.5C203 210.956 207.925 217 214 217Z" fill="#F3F3F3"/>
<path d="M229 292.5C229 293.959 228.414 295.358 227.37 296.389C226.326 297.421 224.911 298 223.435 298H202.565C201.089 298 199.674 297.421 198.63 296.389C197.586 295.358 197 293.959 197 292.5C197 291.041 197.586 289.642 198.63 288.611C199.674 287.579 201.089 287 202.565 287H223.435C224.911 287 226.326 287.579 227.37 288.611C228.414 289.642 229 291.041 229 292.5Z" fill="#5566FF"/>
<path d="M781.998 327H534V164.715C534 162.404 534.844 160.187 536.346 158.553C537.848 156.918 539.885 156 542.01 156H774.253C776.308 156 778.278 156.888 779.731 158.469C781.184 160.049 782 162.193 782 164.429V327H781.998Z" fill="#BBBFC2"/>
<path d="M783 327H534V164.883C534 162.527 534.866 160.268 536.409 158.602C537.951 156.936 540.043 156 542.224 156H774.776C776.957 156 779.049 156.936 780.591 158.602C782.133 160.268 783 162.527 783 164.883V327Z" stroke="#1E1E1E" stroke-width="4" stroke-miterlimit="10" stroke-linecap="round" stroke-linejoin="round"/>
<path opacity="0.71" d="M769 170V311H548V170L769 170Z" fill="#394BE9" fill-opacity="0.44"/>
<path opacity="0.32" d="M603.101 283.869H584.014C583.48 283.869 582.967 283.641 582.59 283.237C582.212 282.833 582 282.284 582 281.712V211.775C582 210.584 582.902 209.619 584.014 209.619H603.101C604.213 209.619 605.115 210.584 605.115 211.775V281.712C605.115 282.284 604.903 282.833 604.525 283.237C604.147 283.641 603.635 283.869 603.101 283.869ZM740.897 298H630.64C629.552 298 628.508 297.537 627.739 296.713C626.969 295.889 626.537 294.772 626.537 293.606V203.394C626.537 202.228 626.969 201.111 627.739 200.287C628.508 199.463 629.552 199 630.64 199H740.897C741.985 199 743.029 199.463 743.798 200.287C744.568 201.111 745 202.228 745 203.394V293.606C745 294.772 744.568 295.889 743.798 296.713C743.029 297.537 741.985 298 740.897 298Z" fill="#848484"/>
<path d="M769 171V311H548V171L769 171Z" stroke="#1E1E1E" stroke-width="4" stroke-miterlimit="10" stroke-linecap="round" stroke-linejoin="round"/>
<path d="M809 327H508V336.731C508 338.924 508.86 341.027 510.39 342.578C511.92 344.129 513.996 345 516.16 345H800.84C803.004 345 805.08 344.129 806.61 342.578C808.14 341.027 809 338.924 809 336.731V327Z" fill="#F3F3F3"/>
<path opacity="0.8" d="M519.288 346H797.712C803.303 346 807.959 341.714 809 336H508C509.041 341.714 513.697 346 519.288 346Z" fill="#BBBFC2"/>
<path d="M809 327H508V336.731C508 338.924 508.86 341.027 510.39 342.578C511.92 344.129 513.996 345 516.16 345H800.84C803.004 345 805.08 344.129 806.61 342.578C808.14 341.027 809 338.924 809 336.731V327Z" stroke="#1E1E1E" stroke-width="4" stroke-miterlimit="10" stroke-linecap="round" stroke-linejoin="round"/>
<path d="M576 204H598V229H576V204Z" fill="#394BE9"/>
<path d="M576 204H598V229H576V204Z" stroke="#1E1E1E" stroke-width="4" stroke-miterlimit="10" stroke-linecap="round" stroke-linejoin="round"/>
<path d="M576 204H598V229H576V204Z" stroke="#1E1E1E" stroke-width="4" stroke-miterlimit="10" stroke-linecap="round" stroke-linejoin="round"/>
<path d="M576 229H598V254H576V229Z" fill="#5766F4"/>
<path d="M576 229H598V254H576V229Z" stroke="#1E1E1E" stroke-width="4" stroke-miterlimit="10" stroke-linecap="round" stroke-linejoin="round"/>
<path d="M576 254H598V278H576V254Z" fill="#ACB3EF"/>
<path d="M576 254H598V278H576V254Z" stroke="#1E1E1E" stroke-width="4" stroke-miterlimit="10" stroke-linecap="round" stroke-linejoin="round"/>
<path d="M733.913 292H624.087C623.003 292 621.964 291.523 621.197 290.674C620.431 289.825 620 288.674 620 287.473V194.527C620 193.326 620.431 192.175 621.197 191.326C621.964 190.477 623.003 190 624.087 190H733.913C734.997 190 736.036 190.477 736.803 191.326C737.569 192.175 738 193.326 738 194.527V287.473C738 288.674 737.569 289.825 736.803 290.674C736.036 291.523 734.997 292 733.913 292Z" fill="#F3F3F3"/>
<path d="M733.913 292H624.087C623.003 292 621.964 291.523 621.197 290.674C620.431 289.825 620 288.674 620 287.473V194.527C620 193.326 620.431 192.175 621.197 191.326C621.964 190.477 623.003 190 624.087 190H733.913C734.997 190 736.036 190.477 736.803 191.326C737.569 192.175 738 193.326 738 194.527V287.473C738 288.674 737.569 289.825 736.803 290.674C736.036 291.523 734.997 292 733.913 292Z" stroke="#1E1E1E" stroke-width="4" stroke-miterlimit="10" stroke-linecap="round" stroke-linejoin="round"/>
<g opacity="0.3">
<path d="M703.235 265.28V266.948H701.692" stroke="#1E1E1E" stroke-width="2" stroke-linejoin="round"/>
<path d="M699.735 266.948H656.641" stroke="#1E1E1E" stroke-width="2" stroke-linejoin="round" stroke-dasharray="2.86 1.91"/>
<path d="M655.661 266.948H654.119V265.28" stroke="#1E1E1E" stroke-width="2" stroke-linejoin="round"/>
<path d="M654.119 263.051V219.6" stroke="#1E1E1E" stroke-width="2" stroke-linejoin="round" stroke-dasharray="3 2"/>
<path d="M654.119 218.485V216.816H655.661" stroke="#1E1E1E" stroke-width="2" stroke-linejoin="round"/>
<path d="M657.618 216.816H700.714" stroke="#1E1E1E" stroke-width="2" stroke-linejoin="round" stroke-dasharray="2.86 1.91"/>
<path d="M701.692 216.816H703.235V218.485" stroke="#1E1E1E" stroke-width="2" stroke-linejoin="round"/>
<path d="M703.236 220.713V264.165" stroke="#1E1E1E" stroke-width="2" stroke-linejoin="round" stroke-dasharray="3 2"/>
</g>
<path d="M651 212H658V219H651V212Z" fill="#F3F3F3"/>
<path d="M651 212H657V219H651V212Z" stroke="#1E1E1E" stroke-miterlimit="10" stroke-linejoin="round"/>
<path d="M651 264H658V271H651V264Z" fill="#F3F3F3"/>
<path d="M651 264H657V270H651V264Z" stroke="#1E1E1E" stroke-miterlimit="10" stroke-linejoin="round"/>
<path d="M700 212H707V219H700V212Z" fill="#F3F3F3"/>
<path d="M700 212H707V219H700V212Z" stroke="#1E1E1E" stroke-miterlimit="10" stroke-linejoin="round"/>
<path d="M700 264H707V271H700V264Z" fill="#F3F3F3"/>
<path d="M700 264H707V270H700V264Z" stroke="#1E1E1E" stroke-miterlimit="10" stroke-linejoin="round"/>
<path d="M589 243L596.123 260.006L603.156 264L608 258.646L604.386 250.873L589 243Z" fill="#F3F3F3"/>
<path d="M589 243L596.123 260.006L603.156 264L608 258.646L604.386 250.873L589 243Z" stroke="#1E1E1E" stroke-miterlimit="10" stroke-linejoin="round"/>
<path d="M597 254C597.552 254 598 253.105 598 252C598 250.895 597.552 250 597 250C596.448 250 596 250.895 596 252C596 253.105 596.448 254 597 254Z" fill="#1E1E1E"/>
<path d="M589 243L596 251" stroke="#1E1E1E" stroke-miterlimit="10" stroke-linecap="round" stroke-linejoin="round"/>
<path d="M602.319 263.195L607.282 257.825L610.837 261.671L605.874 267.042L602.319 263.195Z" fill="#F3F3F3"/>
<path d="M602.319 263.195L607.282 257.825L610.837 261.671L605.874 267.042L602.319 263.195Z" stroke="#1E1E1E" stroke-miterlimit="10" stroke-linejoin="round"/>
</svg>
