<svg width="818" height="818" viewBox="0 0 818 818" fill="none" xmlns="http://www.w3.org/2000/svg">
<path opacity="0.63" d="M559.679 81.4024C473.108 24.3512 351.452 35.8807 274.919 120.563C233.075 166.88 216.079 230.591 172.645 275.914C123.744 327.001 65.3007 376.598 43.1362 446.173C19.5802 520.121 40.2538 604.903 92.9318 661.457C157.04 730.236 251.264 709.563 340.32 708.469C704.991 703.897 976.034 460.485 631.142 160.419C602.318 135.174 588.304 100.188 559.679 81.4024Z" fill="#5D6BEB"/>
<path d="M723.08 120.861H107.841C95.5162 120.861 85.4775 130.8 85.4775 143.125V566.835H745.443V143.125C745.443 130.8 735.405 120.861 723.08 120.861Z" fill="#F5F6FF"/>
<path d="M722.285 130.204H108.636C100.983 130.204 94.8203 136.366 94.8203 144.02V560.574H736.1V144.02C736.1 136.366 729.938 130.204 722.285 130.204Z" fill="#1C1C1C"/>
<path d="M117.88 161.016H713.042V545.764H117.88V161.016Z" fill="#F5F6FF"/>
<path d="M418.84 147.498C418.84 149.387 417.349 150.878 415.46 150.878C413.572 150.878 412.081 149.387 412.081 147.498C412.081 145.61 413.572 144.119 415.46 144.119C417.349 144.218 418.84 145.709 418.84 147.498Z" fill="#F6F6F6"/>
<path d="M192.523 182.286H252.159V192.821H192.523V182.286Z" fill="#394BE9"/>
<path d="M138.652 182.286H163.202V192.821H138.652V182.286ZM138.652 201.568H163.202V212.104H138.652V201.568ZM138.652 224.428H163.202V234.964H138.652V224.428ZM138.652 247.189H163.202V257.725H138.652V247.189ZM138.652 270.049H163.202V280.585H138.652V270.049ZM138.652 292.81H163.202V303.346H138.652V292.81ZM264.483 182.286H464.56V192.821H264.483V182.286Z" fill="#5D6BEB"/>
<path d="M213.595 201.568H273.23V212.104H213.595V201.568Z" fill="#394BE9"/>
<path d="M285.555 201.568H485.632V212.104H285.555V201.568Z" fill="#5D6BEB"/>
<path d="M248.779 224.428H308.415V234.964H248.779V224.428Z" fill="#394BE9"/>
<path d="M320.739 224.428H520.816V234.964H320.739V224.428Z" fill="#5D6BEB"/>
<path d="M283.865 247.189H343.501V257.725H283.865V247.189Z" fill="#394BE9"/>
<path d="M355.825 247.189H555.902V257.725H355.825V247.189Z" fill="#5D6BEB"/>
<path d="M248.779 270.049H308.415V280.585H248.779V270.049Z" fill="#394BE9"/>
<path d="M320.739 270.049H626.172V280.585H320.739V270.049Z" fill="#5D6BEB"/>
<path d="M213.595 292.81H273.23V303.346H213.595V292.81Z" fill="#394BE9"/>
<path d="M285.555 292.81H415.461V303.346H285.555V292.81Z" fill="#5D6BEB"/>
<path opacity="0.4" d="M192.523 322.727H252.159V333.263H192.523V322.727Z" fill="#394BE9"/>
<path opacity="0.4" d="M138.652 322.727H163.202V333.263H138.652V322.727ZM138.652 342.009H163.202V352.545H138.652V342.009ZM138.652 364.87H163.202V375.405H138.652V364.87ZM138.652 387.631H163.202V398.166H138.652V387.631ZM138.652 410.491H163.202V421.026H138.652V410.491ZM138.652 433.252H163.202V443.787H138.652V433.252ZM264.483 322.727H464.56V333.263H264.483V322.727Z" fill="#5D6BEB"/>
<path opacity="0.4" d="M213.595 342.009H273.23V352.545H213.595V342.009Z" fill="#394BE9"/>
<path opacity="0.4" d="M285.555 342.009H485.632V352.545H285.555V342.009Z" fill="#5D6BEB"/>
<path opacity="0.4" d="M248.779 364.87H308.415V375.405H248.779V364.87Z" fill="#394BE9"/>
<path opacity="0.4" d="M320.739 364.87H520.816V375.405H320.739V364.87Z" fill="#5D6BEB"/>
<path opacity="0.4" d="M192.523 463.07H252.159V473.605H192.523V463.07Z" fill="#394BE9"/>
<path opacity="0.4" d="M138.652 463.07H163.202V473.605H138.652V463.07ZM138.652 482.451H163.202V492.987H138.652V482.451ZM138.652 505.212H163.202V515.748H138.652V505.212ZM264.483 463.07H464.56V473.605H264.483V463.07Z" fill="#5D6BEB"/>
<path opacity="0.4" d="M213.595 482.451H273.23V492.987H213.595V482.451Z" fill="#394BE9"/>
<path opacity="0.4" d="M285.555 482.451H485.632V492.987H285.555V482.451Z" fill="#5D6BEB"/>
<path opacity="0.4" d="M248.779 505.212H308.415V515.748H248.779V505.212Z" fill="#394BE9"/>
<path opacity="0.4" d="M320.739 505.212H520.816V515.748H320.739V505.212Z" fill="#5D6BEB"/>
<path opacity="0.4" d="M283.865 387.631H343.501V398.166H283.865V387.631Z" fill="#394BE9"/>
<path opacity="0.4" d="M355.825 387.631H661.258V398.166H355.825V387.631Z" fill="#5D6BEB"/>
<path opacity="0.4" d="M248.779 410.491H308.415V421.026H248.779V410.491Z" fill="#394BE9"/>
<path opacity="0.4" d="M320.739 410.491H520.816V421.026H320.739V410.491Z" fill="#5D6BEB"/>
<path opacity="0.4" d="M213.595 433.252H273.23V443.787H213.595V433.252Z" fill="#394BE9"/>
<path opacity="0.4" d="M285.555 433.252H485.632V443.787H285.555V433.252Z" fill="#5D6BEB"/>
<path d="M789.275 559.281H41.645C37.3711 559.281 33.793 562.76 33.793 567.133V577.271C33.793 581.545 37.2717 585.123 41.645 585.123H789.375C793.648 585.123 797.227 581.645 797.227 577.271V567.133C797.127 562.76 793.648 559.281 789.275 559.281Z" fill="#D3D3D3"/>
<path d="M479.569 570.513H351.353C349.663 570.513 348.271 571.904 348.271 573.594C348.271 575.284 349.663 576.675 351.353 576.675H479.668C481.358 576.675 482.75 575.284 482.75 573.594C482.65 571.904 481.259 570.513 479.569 570.513Z" fill="#F7F7F7"/>
<path d="M585.024 670.899L584.925 686.901C584.925 686.901 586.913 697.139 588.603 708.072C590.193 719.005 591.485 730.634 589.795 733.318C586.515 738.685 580.055 733.318 578.961 727.95C577.868 722.583 576.278 689.088 576.278 689.088L575.185 667.52L585.024 670.899ZM601.325 668.712L598.84 683.124C598.84 683.124 593.97 722.484 596.653 728.447C599.337 734.411 607.984 731.727 607.487 723.577C606.99 715.526 609.077 686.901 609.077 686.901L613.948 669.607L601.325 668.712Z" fill="#F5F6FF"/>
<path d="M594.665 493.285L593.472 510.977L639.193 533.042C647.443 537.514 651.418 547.156 648.735 556.101L617.128 673.682L601.424 668.712L615.239 560.573C616.233 553.914 611.661 547.752 605.002 546.659L588.702 544.074L571.407 526.382L591.485 544.373C596.355 548.746 598.74 555.206 597.846 561.667L585.024 670.899L570.811 674.477L564.45 567.034C563.953 560.176 559.381 554.411 552.92 552.324L524.792 543.379C520.32 540.695 517.537 535.825 517.338 530.557L518.531 492.688L594.665 493.285Z" fill="#F5F6FF"/>
<path d="M515.549 532.942L523.103 386.04C523.103 386.04 554.312 384.152 563.655 384.152C568.724 384.152 577.371 386.537 584.229 388.724C590.69 390.811 595.957 390.612 599.138 396.576L650.325 494.776L618.818 497.757L608.282 485.83L613.649 477.78L594.466 432.655L598.243 514.654L515.549 532.942Z" fill="#394BE9"/>
<path opacity="0.08" d="M595.162 414.765L629.154 476.09L618.618 488.514C618.618 488.514 614.345 489.408 610.269 488.017L608.381 485.83L613.748 477.78L594.565 432.655L595.162 414.765Z" fill="#0F0F0F"/>
<path d="M564.947 428.58C554.61 428.58 535.726 401.645 535.726 391.308C535.726 389.221 536.123 387.233 536.72 385.345C546.361 384.848 558.387 384.251 563.655 384.251C565.941 384.251 568.923 384.748 572.203 385.444C572.799 387.332 573.197 389.221 573.197 391.308C573.097 401.645 575.284 428.58 564.947 428.58Z" fill="white"/>
<path opacity="0.08" d="M519.326 411.485L515.549 533.837L566.04 521.711L519.326 411.485Z" fill="#0F0F0F"/>
<path d="M566.736 369.144C565.842 370.933 559.679 394.986 559.679 394.986C559.679 394.986 557.493 398.961 552.225 398.464C546.957 398.067 544.771 390.612 544.771 390.612L554.014 360.397L566.736 369.144Z" fill="#FCD2B1"/>
<path d="M534.334 354.334C534.334 370.933 551.926 389.32 568.525 389.32C585.124 389.32 594.367 370.933 594.367 354.334C594.367 337.736 580.949 324.318 564.351 324.318C547.752 324.218 534.334 337.736 534.334 354.334Z" fill="#FFBCC6"/>
<path d="M570.472 390.094C588.892 387.091 601.391 369.724 598.388 351.303C595.385 332.883 578.018 320.385 559.597 323.387C541.177 326.39 528.678 343.757 531.681 362.178C534.684 380.598 552.051 393.097 570.472 390.094Z" fill="#FFE3CA"/>
<path d="M558.685 518.829C559.977 518.431 571.109 512.964 578.961 512.964C586.813 512.964 596.454 521.313 596.454 521.313C596.454 521.313 597.746 525.687 592.479 524.792C587.211 523.898 593.174 528.072 593.174 528.072C593.174 528.072 592.876 528.271 586.714 529.165C580.551 530.06 556.697 528.768 556.697 528.768L558.685 518.829Z" fill="#FFE3CA"/>
<path d="M523.103 386.14L518.829 482.749L558.586 518.729L556.697 528.867L500.739 498.95C495.372 496.068 492.291 490.104 493.086 484.041L503.323 410.093C504.119 400.85 509.784 392.7 518.034 388.625L523.103 386.14ZM554.61 537.117H655.791V529.662H554.61C552.523 529.662 550.932 531.352 550.932 533.34C550.833 535.427 552.523 537.117 554.61 537.117Z" fill="#394BE9"/>
<path d="M582.341 537.117H679.944C684.218 537.117 687.995 534.234 689.188 530.06L706.383 465.157C707.973 459.094 703.401 453.23 697.139 453.23H611.96C607.686 453.23 603.909 456.112 602.716 460.287L582.341 537.117Z" fill="#394BE9"/>
<path opacity="0.22" d="M582.341 537.117H679.944C684.218 537.117 687.995 534.234 689.188 530.06L706.383 465.157C707.973 459.094 703.401 453.23 697.139 453.23H611.96C607.686 453.23 603.909 456.112 602.716 460.287L582.341 537.117Z" fill="white"/>
<path d="M639.789 500.938C638.696 505.212 641.379 508.591 645.753 508.591C650.126 508.591 654.499 505.113 655.592 500.938C656.686 496.664 654.002 493.285 649.629 493.285C645.256 493.185 640.882 496.664 639.789 500.938Z" fill="white"/>
<path d="M565.046 322.926C582.44 322.926 596.653 336.046 598.641 352.843C592.777 357.217 585.123 359.105 577.868 357.912C569.32 356.421 561.667 350.557 558.089 342.705C558.387 346.482 558.586 350.259 557.989 353.937C557.393 357.614 555.803 361.292 552.821 363.677C552.622 361.093 552.324 358.31 551.032 356.024C549.64 353.738 546.758 352.147 544.373 353.141C542.583 353.837 541.49 355.626 541.192 357.515C540.894 359.403 541.391 361.292 542.086 363.081C543.18 365.864 544.77 368.448 546.758 370.535C542.782 371.131 538.508 371.628 534.533 371.231C532.445 366.758 531.153 361.888 531.153 356.62C531.153 338.034 546.36 322.926 565.046 322.926Z" fill="#2D2D2D"/>
<path d="M535.924 362.286C535.924 367.951 540.496 372.523 546.161 372.523C551.827 372.523 556.399 367.951 556.399 362.286C556.399 356.62 551.827 352.048 546.161 352.048C540.595 352.048 535.924 356.62 535.924 362.286ZM601.324 668.712L599.535 679.546L610.269 682.926L613.251 672.291L601.324 668.712ZM584.924 682.926L575.979 684.615L575.482 673.285L585.024 670.899L584.924 682.926Z" fill="#FFE3CA"/>
<path d="M546.161 338.531C554.505 338.531 561.269 331.767 561.269 323.423C561.269 315.079 554.505 308.315 546.161 308.315C537.818 308.315 531.054 315.079 531.054 323.423C531.054 331.767 537.818 338.531 546.161 338.531Z" fill="#2D2D2D"/>
</svg>
