<svg width="37" height="37" viewBox="0 0 37 37" fill="none" xmlns="http://www.w3.org/2000/svg">
<path d="M21.9379 18.5061C21.9379 19.42 21.5749 20.2966 20.9288 20.943C20.2827 21.5894 19.4063 21.9528 18.4923 21.9532C17.578 21.9532 16.7012 21.59 16.0548 20.9436C15.4083 20.2971 15.0451 19.4203 15.0451 18.5061C15.0451 17.5921 15.4081 16.7155 16.0542 16.0691C16.7004 15.4227 17.5768 15.0593 18.4908 15.0589C19.405 15.0589 20.2818 15.4221 20.9283 16.0685C21.5747 16.715 21.9379 17.5918 21.9379 18.5061ZM26.0202 2.02563C23.9452 2.02563 21.2303 3.50564 18.4846 6.06788C15.7404 3.51951 13.024 2.05647 10.9505 2.05647C10.3184 2.05647 9.74333 2.19984 9.24538 2.48505C7.12558 3.70759 6.65075 7.51705 7.74533 12.2978C3.0525 13.7469 0 16.0641 0 18.5061C0 20.9573 3.06792 23.2806 7.77463 24.719C6.68929 29.5182 7.17337 33.3338 9.29779 34.5548C9.79112 34.8431 10.3615 34.9788 10.9967 34.9788C13.0702 34.9788 15.7867 33.4988 18.5324 30.9334C21.2765 33.4833 23.993 34.9464 26.0665 34.9464C26.6986 34.9464 27.2736 34.8076 27.7716 34.5224C29.8898 33.3014 30.3662 29.492 29.2716 24.7097C33.9475 23.2729 37 20.9511 37 18.5061C37 16.0548 33.9321 13.7315 29.2254 12.2901C30.3107 7.49547 29.8266 3.67676 27.7022 2.45422C27.212 2.17055 26.6431 2.02718 26.0202 2.02563ZM26.0125 3.70605V3.7153C26.3594 3.7153 26.6385 3.78313 26.8728 3.91109C27.8995 4.50001 28.3451 6.74005 27.9982 9.62143C27.915 10.3306 27.7793 11.0783 27.6128 11.8414C26.1328 11.4776 24.5202 11.1986 22.8228 11.0182C21.8053 9.62297 20.7493 8.35572 19.6855 7.24572C22.1399 4.96405 24.4447 3.71222 26.0141 3.70759L26.0125 3.70605ZM10.9505 3.73688C12.5106 3.73688 14.8262 4.98255 17.2867 7.25188C16.2291 8.36188 15.1746 9.62143 14.1725 11.0166C12.4659 11.197 10.8518 11.4761 9.37333 11.8461C9.20067 11.0906 9.07271 10.3599 8.98175 9.65688C8.62717 6.77705 9.065 4.53855 10.0825 3.94193C10.3754 3.80318 10.6992 3.74459 10.9505 3.73688ZM18.4769 8.43897C19.1783 9.16047 19.8798 9.9683 20.5735 10.8501C19.8952 10.8193 19.2015 10.7977 18.5 10.7977C17.7908 10.7977 17.0894 10.8131 16.4033 10.8501C17.0817 9.9683 17.7831 9.16201 18.4769 8.43897ZM18.5 12.4874C19.6408 12.4874 20.777 12.5398 21.8947 12.6308C22.5207 13.528 23.1312 14.4854 23.7185 15.4983C24.292 16.4849 24.8131 17.487 25.288 18.4983C24.8131 19.5081 24.292 20.5179 23.7262 21.5046C23.1404 22.5221 22.5345 23.4903 21.9071 24.3875C20.7847 24.4846 19.647 24.5386 18.5 24.5386C17.3592 24.5386 16.223 24.4846 15.1053 24.3952C14.4793 23.498 13.8688 22.5391 13.2815 21.5277C12.708 20.5411 12.1869 19.539 11.712 18.5276C12.1792 17.5148 12.708 16.5034 13.2737 15.5152C13.8596 14.4977 14.4655 13.5326 15.0929 12.6354C16.2152 12.5367 17.353 12.4843 18.5 12.4843V12.4874ZM12.896 12.879C12.526 13.4602 12.156 14.0553 11.8107 14.6673C11.4638 15.2686 11.1401 15.8729 10.8317 16.4772C10.4232 15.4659 10.0763 14.4576 9.78958 13.4756C10.7762 13.2443 11.8169 13.0378 12.896 12.879ZM24.0885 12.879C25.16 13.0378 26.1929 13.2336 27.1811 13.4756C26.9036 14.4499 26.5568 15.452 26.1636 16.4556C25.8553 15.8544 25.5315 15.2485 25.177 14.6457C24.8301 14.0414 24.4601 13.4525 24.0901 12.879H24.0885ZM28.8107 13.9196C29.5568 14.1508 30.266 14.4083 30.9305 14.6873C33.6006 15.8282 35.3273 17.3205 35.3273 18.5045C35.3196 19.6885 33.5929 21.187 30.9228 22.3201C30.2753 22.5976 29.5661 22.8474 28.8338 23.0802C28.4021 21.6033 27.8379 20.0647 27.138 18.486C27.8317 16.9181 28.3867 15.3873 28.8107 13.9165V13.9196ZM8.16004 13.9258C8.58863 15.4058 9.15442 16.9428 9.85587 18.5199C9.16212 20.0878 8.60404 21.6187 8.18163 23.0894C7.43546 22.8582 6.72629 22.5992 6.06954 22.3186C3.39937 21.1824 1.67271 19.6885 1.67271 18.5045C1.67271 17.3205 3.39937 15.8189 6.06954 14.6873C6.71704 14.4098 7.42621 14.1601 8.16004 13.9258ZM26.1636 20.5241C26.5722 21.537 26.919 22.5468 27.2058 23.5273C26.2191 23.7693 25.177 23.9743 24.0978 24.1285C24.4678 23.5504 24.8378 22.9538 25.1847 22.3433C25.5315 21.742 25.8538 21.1284 26.1636 20.5241ZM10.8317 20.5549C11.1401 21.1593 11.4638 21.7621 11.8184 22.3664C12.173 22.9676 12.5353 23.5566 12.9053 24.1285C11.8338 23.9713 10.8009 23.7739 9.81271 23.5334C10.0902 22.5622 10.4386 21.557 10.8302 20.5534L10.8317 20.5549ZM27.6267 25.1599C27.7993 25.9199 27.935 26.6522 28.0182 27.3537C28.3728 30.2335 27.935 32.472 26.9175 33.0702C26.6909 33.2089 26.3964 33.2675 26.0495 33.2675C24.4894 33.2675 22.1738 32.0234 19.7133 29.7525C20.7709 28.6425 21.8254 27.3845 22.8275 25.9908C24.5341 25.8089 26.1482 25.5299 27.6267 25.1599ZM9.38875 25.1753C10.8687 25.5361 12.4813 25.8151 14.1787 25.9955C15.1962 27.3907 16.2523 28.6579 17.316 29.7664C14.857 32.0527 12.5492 33.3045 10.9798 33.3045C10.6406 33.2968 10.3538 33.2274 10.1272 33.101C9.10046 32.5152 8.65492 30.2736 9.00179 27.3922C9.08504 26.6831 9.22225 25.9369 9.38875 25.1753ZM16.4187 26.162C17.0971 26.1928 17.7908 26.2144 18.4923 26.2144C19.2015 26.2144 19.9029 26.199 20.589 26.162C19.9106 27.0438 19.2092 27.8501 18.5154 28.5747C17.814 27.8501 17.1125 27.0438 16.4187 26.162Z" fill="#61DAFB"/>
</svg>
