<svg width="37" height="37" viewBox="0 0 37 37" fill="none" xmlns="http://www.w3.org/2000/svg">
<path d="M34.2541 18.1669L18.1668 34.2542C17.5393 34.8816 17.5393 35.9007 18.1668 36.5297C18.7942 37.1571 19.8133 37.1571 20.4423 36.5297L36.5296 20.4424C37.157 19.8134 37.157 18.7944 36.5296 18.1669C35.9006 17.5394 34.8815 17.5394 34.2541 18.1669ZM31.0366 0.470105L0.469999 31.0367C-0.15746 31.6642 -0.15746 32.6832 0.469999 33.3122C1.099 33.9397 2.11804 33.9397 2.7455 33.3122L33.3121 2.74561C33.9396 2.11815 33.9396 1.09911 33.3121 0.470105C32.6831 -0.157353 31.6641 -0.157353 31.0366 0.470105Z" fill="black"/>
</svg>
