<svg width="37" height="37" viewBox="0 0 37 37" fill="none" xmlns="http://www.w3.org/2000/svg">
<g clip-path="url(#clip0_55_76)">
<path d="M32.6016 0H4.39837C3.23273 0.0028495 2.11564 0.467163 1.2914 1.2914C0.467163 2.11564 0.0028495 3.23273 0 4.39837L0 32.6016C0.0028495 33.7673 0.467163 34.8844 1.2914 35.7086C2.11564 36.5328 3.23273 36.9971 4.39837 37H32.6016C33.7673 36.9971 34.8844 36.5328 35.7086 35.7086C36.5328 34.8844 36.9971 33.7673 37 32.6016V4.39837C36.9971 3.23273 36.5328 2.11564 35.7086 1.2914C34.8844 0.467163 33.7673 0.0028495 32.6016 0ZM15.9408 26.6508C15.9408 27.0405 15.786 27.4141 15.5105 27.6897C15.235 27.9652 14.8613 28.12 14.4716 28.12H8.30496C7.91516 28.12 7.5413 27.9653 7.26553 27.6898C6.98975 27.4143 6.83462 27.0406 6.83421 26.6508V8.29417C6.83421 8.1011 6.87226 7.90992 6.94619 7.73157C7.02012 7.55322 7.12848 7.39118 7.26507 7.25473C7.40167 7.11828 7.56381 7.0101 7.74224 6.93635C7.92067 6.86261 8.11189 6.82476 8.30496 6.82496H14.4716C14.8612 6.82537 15.2346 6.98029 15.5101 7.25573C15.7855 7.53117 15.9404 7.90463 15.9408 8.29417V26.6508ZM30.175 18.2225C30.1757 18.4152 30.138 18.6061 30.0643 18.7841C29.9906 18.9621 29.8822 19.1237 29.7455 19.2595C29.6089 19.3953 29.4466 19.5026 29.2681 19.5753C29.0896 19.6479 28.8985 19.6843 28.7058 19.6825H22.5392C22.3467 19.6837 22.1558 19.6468 21.9776 19.574C21.7994 19.5012 21.6374 19.3938 21.5008 19.2581C21.3643 19.1224 21.2559 18.9611 21.182 18.7833C21.108 18.6056 21.07 18.415 21.07 18.2225V8.29417C21.07 7.90451 21.2247 7.53081 21.5003 7.25528C21.7758 6.97975 22.1495 6.82496 22.5392 6.82496H28.7058C29.0954 6.82537 29.4688 6.98029 29.7443 7.25573C30.0197 7.53117 30.1746 7.90463 30.175 8.29417V18.2225Z" fill="#0052CC"/>
</g>
<defs>
<clipPath id="clip0_55_76">
<rect width="37" height="37" fill="white"/>
</clipPath>
</defs>
</svg>
