<svg width="38" height="70" viewBox="0 0 38 70" fill="none" xmlns="http://www.w3.org/2000/svg">
<path d="M23.936 16.336C23.936 15.632 23.872 14.928 23.744 14.224C23.68 13.456 23.488 12.784 23.168 12.208C22.912 11.568 22.496 11.056 21.92 10.672C21.408 10.288 20.672 10.096 19.712 10.096C18.496 10.096 17.472 10.48 16.64 11.248C16.256 10.224 16.064 9.296 16.064 8.464C16.064 7.44 16.224 6.448 16.544 5.488C16.928 4.464 17.504 3.568 18.272 2.8C19.04 2.032 20 1.424 21.152 0.975996C22.368 0.463995 23.84 0.207994 25.568 0.207994C29.408 0.207994 32.384 1.35999 34.496 3.664C36.608 5.968 37.664 9.136 37.664 13.168V70C35.936 70 34.24 69.872 32.576 69.616C30.976 69.36 29.504 68.848 28.16 68.08C26.88 67.248 25.856 66.032 25.088 64.432C24.32 62.832 23.936 60.688 23.936 58V16.336ZM14.624 70H13.664C12 70 10.4 69.84 8.864 69.52C7.328 69.2 5.952 68.624 4.736 67.792C3.584 66.96 2.624 65.808 1.856 64.336C1.152 62.864 0.8 60.944 0.8 58.576V0.303999H2.336C3.872 0.303999 5.376 0.495998 6.848 0.879997C8.32 1.2 9.632 1.808 10.784 2.704C11.936 3.536 12.864 4.688 13.568 6.16C14.272 7.632 14.624 9.52 14.624 11.824V70Z" fill="white"/>
</svg>
